%TF.GenerationSoftware,KiCad,Pcbnew,7.0.9*%
%TF.CreationDate,2024-03-23T03:29:42+09:00*%
%TF.ProjectId,motordriver2,6d6f746f-7264-4726-9976-6572322e6b69,rev?*%
%TF.SameCoordinates,Original*%
%TF.FileFunction,Copper,L2,Bot*%
%TF.FilePolarity,Positive*%
%FSLAX46Y46*%
G04 Gerber Fmt 4.6, Leading zero omitted, Abs format (unit mm)*
G04 Created by KiCad (PCBNEW 7.0.9) date 2024-03-23 03:29:42*
%MOMM*%
%LPD*%
G01*
G04 APERTURE LIST*
G04 Aperture macros list*
%AMRoundRect*
0 Rectangle with rounded corners*
0 $1 Rounding radius*
0 $2 $3 $4 $5 $6 $7 $8 $9 X,Y pos of 4 corners*
0 Add a 4 corners polygon primitive as box body*
4,1,4,$2,$3,$4,$5,$6,$7,$8,$9,$2,$3,0*
0 Add four circle primitives for the rounded corners*
1,1,$1+$1,$2,$3*
1,1,$1+$1,$4,$5*
1,1,$1+$1,$6,$7*
1,1,$1+$1,$8,$9*
0 Add four rect primitives between the rounded corners*
20,1,$1+$1,$2,$3,$4,$5,0*
20,1,$1+$1,$4,$5,$6,$7,0*
20,1,$1+$1,$6,$7,$8,$9,0*
20,1,$1+$1,$8,$9,$2,$3,0*%
G04 Aperture macros list end*
%TA.AperFunction,ComponentPad*%
%ADD10R,1.700000X1.700000*%
%TD*%
%TA.AperFunction,ComponentPad*%
%ADD11O,1.700000X1.700000*%
%TD*%
%TA.AperFunction,ComponentPad*%
%ADD12C,2.000000*%
%TD*%
%TA.AperFunction,ComponentPad*%
%ADD13R,2.000000X0.900000*%
%TD*%
%TA.AperFunction,ComponentPad*%
%ADD14RoundRect,1.025000X-1.025000X1.025000X-1.025000X-1.025000X1.025000X-1.025000X1.025000X1.025000X0*%
%TD*%
%TA.AperFunction,ComponentPad*%
%ADD15C,4.100000*%
%TD*%
%TA.AperFunction,ComponentPad*%
%ADD16C,4.000000*%
%TD*%
%TA.AperFunction,ComponentPad*%
%ADD17R,1.600000X1.600000*%
%TD*%
%TA.AperFunction,ComponentPad*%
%ADD18C,1.600000*%
%TD*%
%TA.AperFunction,ComponentPad*%
%ADD19R,1.300000X2.300000*%
%TD*%
%TA.AperFunction,ViaPad*%
%ADD20C,0.800000*%
%TD*%
%TA.AperFunction,Conductor*%
%ADD21C,0.200000*%
%TD*%
%TA.AperFunction,Conductor*%
%ADD22C,0.400000*%
%TD*%
%TA.AperFunction,Conductor*%
%ADD23C,0.335600*%
%TD*%
G04 APERTURE END LIST*
D10*
%TO.P,J5,1,Pin_1*%
%TO.N,Net-(D28-A2)*%
X102359100Y-86628800D03*
D11*
%TO.P,J5,2,Pin_2*%
%TO.N,Net-(D24-A2)*%
X99819100Y-86628800D03*
%TO.P,J5,3,Pin_3*%
%TO.N,GND*%
X97279100Y-86628800D03*
%TD*%
D12*
%TO.P,TP1,1,1*%
%TO.N,/COMP4_OUT*%
X90000000Y-160300000D03*
%TD*%
D10*
%TO.P,J4,1,Pin_1*%
%TO.N,+3.3V*%
X92025000Y-86625000D03*
D11*
%TO.P,J4,2,Pin_2*%
%TO.N,Net-(D22-A2)*%
X89485000Y-86625000D03*
%TO.P,J4,3,Pin_3*%
%TO.N,GND*%
X86945000Y-86625000D03*
%TO.P,J4,4,Pin_4*%
%TO.N,Net-(D23-A2)*%
X84405000Y-86625000D03*
%TO.P,J4,5,Pin_5*%
%TO.N,Net-(D25-A2)*%
X81865000Y-86625000D03*
%TO.P,J4,6,Pin_6*%
%TO.N,/SWO*%
X79325000Y-86625000D03*
%TD*%
D12*
%TO.P,TP7,1,1*%
%TO.N,/OPAMP_OUT*%
X85050000Y-160350000D03*
%TD*%
%TO.P,TP4,1,1*%
%TO.N,Net-(U3-PA2)*%
X65200000Y-160900000D03*
%TD*%
%TO.P,TP3,1,1*%
%TO.N,Net-(U3-PA1)*%
X65150000Y-156300000D03*
%TD*%
D13*
%TO.P,M1,*%
%TO.N,*%
X155450000Y-126250000D03*
X155450000Y-139750000D03*
D14*
%TO.P,M1,1,+*%
%TO.N,Net-(M1-+)*%
X149450000Y-136600000D03*
D15*
%TO.P,M1,2,-*%
%TO.N,Net-(M1--)*%
X149450000Y-129400000D03*
%TD*%
D12*
%TO.P,TP5,1,1*%
%TO.N,Net-(U3-PA3)*%
X70900000Y-163100000D03*
%TD*%
D16*
%TO.P,J3,0,PAD*%
%TO.N,GND*%
X68510000Y-173689700D03*
X93510000Y-173689700D03*
D17*
%TO.P,J3,1,1*%
%TO.N,unconnected-(J3-Pad1)*%
X86550000Y-172269700D03*
D18*
%TO.P,J3,2,2*%
%TO.N,/CAN_N*%
X83780000Y-172269700D03*
%TO.P,J3,3,3*%
%TO.N,GND*%
X81010000Y-172269700D03*
%TO.P,J3,4,4*%
%TO.N,unconnected-(J3-Pad4)*%
X78240000Y-172269700D03*
%TO.P,J3,5,5*%
%TO.N,GND*%
X75470000Y-172269700D03*
%TO.P,J3,6,6*%
X85165000Y-175109700D03*
%TO.P,J3,7,7*%
%TO.N,/CAN_P*%
X82395000Y-175109700D03*
%TO.P,J3,8,8*%
%TO.N,unconnected-(J3-Pad8)*%
X79625000Y-175109700D03*
%TO.P,J3,9,9*%
%TO.N,+12V*%
X76855000Y-175109700D03*
%TD*%
D12*
%TO.P,TP2,1,1*%
%TO.N,Net-(U3-PA0)*%
X61950000Y-150950000D03*
%TD*%
D16*
%TO.P,J2,0,PAD*%
%TO.N,GND*%
X102155000Y-173689700D03*
X127155000Y-173689700D03*
D17*
%TO.P,J2,1,1*%
%TO.N,unconnected-(J2-Pad1)*%
X120195000Y-172269700D03*
D18*
%TO.P,J2,2,2*%
%TO.N,/CAN_N*%
X117425000Y-172269700D03*
%TO.P,J2,3,3*%
%TO.N,GND*%
X114655000Y-172269700D03*
%TO.P,J2,4,4*%
%TO.N,unconnected-(J2-Pad4)*%
X111885000Y-172269700D03*
%TO.P,J2,5,5*%
%TO.N,GND*%
X109115000Y-172269700D03*
%TO.P,J2,6,6*%
X118810000Y-175109700D03*
%TO.P,J2,7,7*%
%TO.N,/CAN_P*%
X116040000Y-175109700D03*
%TO.P,J2,8,8*%
%TO.N,unconnected-(J2-Pad8)*%
X113270000Y-175109700D03*
%TO.P,J2,9,9*%
%TO.N,+12V*%
X110500000Y-175109700D03*
%TD*%
D12*
%TO.P,TP6,1,1*%
%TO.N,/DAC_OUT*%
X80150000Y-160300000D03*
%TD*%
%TO.P,TP8,1,1*%
%TO.N,/COMP2_OUT*%
X90200000Y-130650000D03*
%TD*%
D13*
%TO.P,J1,*%
%TO.N,*%
X155300000Y-108900000D03*
X155300000Y-122400000D03*
D14*
%TO.P,J1,1,Pin_1*%
%TO.N,VDD*%
X149300000Y-112050000D03*
D15*
%TO.P,J1,2,Pin_2*%
%TO.N,GND*%
X149300000Y-119250000D03*
D19*
%TO.P,J1,3*%
%TO.N,N/C*%
X152950000Y-115650000D03*
%TD*%
D20*
%TO.N,+3.3V*%
X76826400Y-133877300D03*
X151000000Y-87000000D03*
X155500000Y-90000000D03*
X81391000Y-135577500D03*
X71882000Y-89408000D03*
%TO.N,GND*%
X62738000Y-148590000D03*
X78740000Y-163322000D03*
X89662000Y-166878000D03*
X73152000Y-141986000D03*
X111252000Y-161798000D03*
X92456000Y-108204000D03*
X73152000Y-163068000D03*
X151130000Y-115062000D03*
X88138000Y-147574000D03*
X109982000Y-155448000D03*
X141967700Y-173710700D03*
X77470000Y-148082000D03*
X81026000Y-140208000D03*
X107188000Y-109982000D03*
X99568000Y-138938000D03*
X71374000Y-98298000D03*
X118110000Y-101600000D03*
X112776000Y-155448000D03*
X98298000Y-123698000D03*
X90678000Y-120142000D03*
X144018000Y-99314000D03*
X137668000Y-144272000D03*
X84328000Y-167894000D03*
X108204000Y-168402000D03*
X147574000Y-174244000D03*
X82550000Y-141732000D03*
X87884000Y-160782000D03*
X92456000Y-129794000D03*
X97536000Y-129032000D03*
X126746000Y-155448000D03*
X109220000Y-160274000D03*
X144526000Y-87884000D03*
X147574000Y-143764000D03*
X80518000Y-165608000D03*
X105925500Y-152274900D03*
X133858000Y-152400000D03*
X89408000Y-142494000D03*
X76962000Y-91694000D03*
X116586000Y-112268000D03*
X87884000Y-164592000D03*
X97536000Y-124714000D03*
X112014000Y-163322000D03*
X68326000Y-102362000D03*
X122936000Y-106426000D03*
X104731000Y-104486600D03*
X107442000Y-158750000D03*
X67310000Y-154940000D03*
X99314000Y-156718000D03*
X73660000Y-153416000D03*
X129540000Y-155448000D03*
X103378000Y-178054000D03*
X83566000Y-99314000D03*
X114808000Y-119634000D03*
X135382000Y-155448000D03*
X74930000Y-134620000D03*
X108204000Y-90424000D03*
X142240000Y-101092000D03*
X94742000Y-119126000D03*
X107950000Y-106172000D03*
X81026000Y-158242000D03*
X71882000Y-96012000D03*
X109728000Y-153416000D03*
X96266000Y-117602000D03*
X120650000Y-101600000D03*
X142050000Y-159929900D03*
X83566000Y-108458000D03*
X95758000Y-149352000D03*
X69596000Y-165100000D03*
X147320000Y-170942000D03*
X96012000Y-171196000D03*
X70866000Y-137922000D03*
X101346000Y-156718000D03*
X83566000Y-114046000D03*
X140716000Y-106172000D03*
X96520000Y-116586000D03*
X95250000Y-160782000D03*
X140716000Y-96520000D03*
X93218000Y-120650000D03*
X109220000Y-164846000D03*
X140462000Y-173228000D03*
X84328000Y-157988000D03*
X147066000Y-98806000D03*
X89916000Y-128524000D03*
X90678000Y-94996000D03*
X94996000Y-121666000D03*
X108966000Y-136906000D03*
X94234000Y-144526000D03*
X90678000Y-88138000D03*
X114300000Y-152400000D03*
X92456000Y-113284000D03*
X95504000Y-118364000D03*
X149860000Y-173990000D03*
X108458000Y-175006000D03*
X91948000Y-178054000D03*
X95250000Y-86360000D03*
X152146000Y-100076000D03*
X140716000Y-91440000D03*
X84836000Y-178054000D03*
X107442000Y-162814000D03*
X71628000Y-100584000D03*
X65786000Y-100076000D03*
X97536000Y-115570000D03*
X81788000Y-139446000D03*
X115570000Y-155448000D03*
X120904000Y-93472000D03*
X152400000Y-172466000D03*
X120396000Y-105918000D03*
X102616000Y-153924000D03*
X147574000Y-162814000D03*
X59944000Y-152654000D03*
X89916000Y-126492000D03*
X95758000Y-178054000D03*
X77216000Y-122428000D03*
X72390000Y-152400000D03*
X93472000Y-107442000D03*
X114808000Y-140970000D03*
X129794000Y-175006000D03*
X77216000Y-127254000D03*
X147066000Y-152400000D03*
X111506000Y-94234000D03*
X125476000Y-152400000D03*
X96012000Y-88392000D03*
X82296000Y-127762000D03*
X93980000Y-116586000D03*
X74168000Y-136144000D03*
X90678000Y-123190000D03*
X93218000Y-163068000D03*
X105125300Y-122189600D03*
X105156000Y-160782000D03*
X149352000Y-125476000D03*
X95758000Y-120904000D03*
X145542000Y-162560000D03*
X148336000Y-139954000D03*
X101600000Y-136144000D03*
X74168000Y-142494000D03*
X77216000Y-113538000D03*
X150114000Y-146558000D03*
X129032000Y-87884000D03*
X145034000Y-125476000D03*
X69850000Y-136652000D03*
X149352000Y-154686000D03*
X82550000Y-160274000D03*
X140077000Y-151634600D03*
X147320000Y-165608000D03*
X71628000Y-102362000D03*
X115570000Y-169164000D03*
X118364000Y-155448000D03*
X86360000Y-166116000D03*
X147066000Y-125476000D03*
X81026000Y-138684000D03*
X86868000Y-146050000D03*
X83058000Y-96774000D03*
X92202000Y-104648000D03*
X103124000Y-158242000D03*
X125984000Y-143002000D03*
X94996000Y-110744000D03*
X141986000Y-91440000D03*
X139700000Y-94996000D03*
X77470000Y-99822000D03*
X81534000Y-178054000D03*
X93726000Y-153924000D03*
X105925500Y-157230900D03*
X93472000Y-147066000D03*
X102108000Y-95504000D03*
X78232000Y-170180000D03*
X86106000Y-158242000D03*
X127762000Y-177800000D03*
X109728000Y-140970000D03*
X78994000Y-156464000D03*
X147828000Y-152400000D03*
X109220000Y-138176000D03*
X86614000Y-169926000D03*
X104196900Y-139504600D03*
X88138000Y-178054000D03*
X108204000Y-92456000D03*
X92710000Y-139192000D03*
X80772000Y-126746000D03*
X143510000Y-165608000D03*
X146812000Y-95250000D03*
X136906000Y-152400000D03*
X82550000Y-143256000D03*
X139954000Y-140462000D03*
X82042000Y-170434000D03*
X145796000Y-115316000D03*
X147574000Y-149606000D03*
X111506000Y-152400000D03*
X135890000Y-101600000D03*
X80264000Y-142494000D03*
X93726000Y-103124000D03*
X98552000Y-129286000D03*
X121920000Y-94234000D03*
X90170000Y-92456000D03*
X148082000Y-154432000D03*
X109220000Y-169926000D03*
X93726000Y-87884000D03*
X84074000Y-141732000D03*
X149860000Y-139700000D03*
X91440000Y-91440000D03*
X99568000Y-142494000D03*
X86868000Y-175006000D03*
X93472000Y-92202000D03*
X104810200Y-118099700D03*
X72136000Y-138938000D03*
X122682000Y-152400000D03*
X83312000Y-123952000D03*
X80264000Y-91186000D03*
X67310000Y-88900000D03*
X153162000Y-150876000D03*
X79502000Y-140208000D03*
X84074000Y-88392000D03*
X102616000Y-106172000D03*
X84836000Y-140970000D03*
X77724000Y-132080000D03*
X134620000Y-108204000D03*
X145034000Y-115824000D03*
X71120000Y-149352000D03*
X94996000Y-135382000D03*
X83312000Y-162306000D03*
X150114000Y-142494000D03*
X87122000Y-160782000D03*
X95250000Y-105664000D03*
X132334000Y-155448000D03*
X72644000Y-158750000D03*
X112776000Y-112268000D03*
X109982000Y-92456000D03*
X82550000Y-125222000D03*
X121158000Y-155448000D03*
X96012000Y-130556000D03*
X117856000Y-113284000D03*
X149606000Y-150876000D03*
X113284000Y-105918000D03*
X95504000Y-138938000D03*
X140208000Y-155448000D03*
X87884000Y-99314000D03*
X138684000Y-108966000D03*
X136144000Y-177800000D03*
X89408000Y-162814000D03*
X77724000Y-129286000D03*
X80010000Y-129794000D03*
X80264000Y-139446000D03*
X84800928Y-134584928D03*
X74930000Y-98044000D03*
X147320000Y-168148000D03*
X122174000Y-141732000D03*
X96774000Y-129794000D03*
X96774000Y-100076000D03*
X88900000Y-171196000D03*
X80264000Y-140970000D03*
X90678000Y-121666000D03*
X119888000Y-152400000D03*
X119126000Y-101854000D03*
X98298000Y-153924000D03*
X87630000Y-91440000D03*
X127762000Y-86106000D03*
X83312000Y-140970000D03*
X87884000Y-107442000D03*
X86106000Y-155194000D03*
X152654000Y-178562000D03*
X116840000Y-139446000D03*
X105664000Y-84836000D03*
X153416000Y-155702000D03*
X96266000Y-136652000D03*
X97790000Y-88392000D03*
X71628000Y-91948000D03*
X121666000Y-104902000D03*
X87884000Y-104648000D03*
X96520000Y-131572000D03*
X143764000Y-102870000D03*
X78740000Y-128524000D03*
X75438000Y-93726000D03*
X95758000Y-156718000D03*
X79756000Y-93472000D03*
X81026000Y-143256000D03*
X150114000Y-163068000D03*
X84074000Y-140208000D03*
X85852000Y-97282000D03*
X110998000Y-90424000D03*
X101446100Y-109315100D03*
X74930000Y-130556000D03*
X98552000Y-131318000D03*
X127508000Y-144272000D03*
X89154000Y-158242000D03*
X107696000Y-155448000D03*
X73406000Y-91948000D03*
X147574000Y-146558000D03*
X98806000Y-175260000D03*
X137922000Y-108712000D03*
X82296000Y-122174000D03*
X104947300Y-133591000D03*
X89662000Y-154686000D03*
X97028000Y-112268000D03*
X99568000Y-171196000D03*
X81788000Y-144018000D03*
X139700000Y-152400000D03*
X73660000Y-140208000D03*
X64008000Y-154686000D03*
X92456000Y-159766000D03*
X77216000Y-166370000D03*
X107442000Y-153416000D03*
X92456000Y-125984000D03*
X82550000Y-155956000D03*
X111506000Y-101600000D03*
X75184000Y-90424000D03*
X145542000Y-94996000D03*
X83566000Y-102362000D03*
X131826000Y-92456000D03*
X151892000Y-125476000D03*
X147828000Y-108712000D03*
X90932000Y-171196000D03*
X144780000Y-173736000D03*
X105918000Y-148336000D03*
X148336000Y-177800000D03*
X90424000Y-156718000D03*
X83566000Y-111506000D03*
X104902000Y-112268000D03*
X121920000Y-101600000D03*
X86360000Y-146558000D03*
X91440000Y-164846000D03*
X70612000Y-144526000D03*
X98298000Y-128270000D03*
X61722000Y-148590000D03*
X77216000Y-165608000D03*
X97536000Y-154686000D03*
X70612000Y-151130000D03*
X98552000Y-135382000D03*
X81788000Y-125984000D03*
X93472000Y-123190000D03*
X90170000Y-111252000D03*
X67056000Y-157480000D03*
X87376000Y-149352000D03*
X81788000Y-137922000D03*
X74930000Y-108966000D03*
X62230000Y-153162000D03*
X77470000Y-151638000D03*
X93726000Y-128524000D03*
X101600000Y-104394000D03*
X117856000Y-119888000D03*
X135128000Y-175006000D03*
X71882000Y-154940000D03*
X101346000Y-154686000D03*
X97028000Y-175260000D03*
X95250000Y-101600000D03*
X94488000Y-127762000D03*
X107442000Y-113030000D03*
X119126000Y-178054000D03*
X83566000Y-126492000D03*
X98552000Y-132334000D03*
X90424000Y-142494000D03*
X109220000Y-168656000D03*
X124460000Y-92710000D03*
X101905400Y-90431600D03*
X87630000Y-88392000D03*
X74930000Y-117856000D03*
X98552000Y-163068000D03*
X79756000Y-97028000D03*
X149352000Y-170942000D03*
X81788000Y-142494000D03*
X148336000Y-102616000D03*
X74930000Y-113538000D03*
X68072000Y-100838000D03*
X131064000Y-152400000D03*
X115062000Y-178054000D03*
X152654000Y-133096000D03*
X68580000Y-163576000D03*
X97028000Y-147320000D03*
X96012000Y-114808000D03*
X84328000Y-156210000D03*
X101854000Y-142494000D03*
X112522000Y-166116000D03*
X107950000Y-151638000D03*
X107188000Y-117094000D03*
X78232000Y-93472000D03*
X123952000Y-155448000D03*
X86360000Y-148590000D03*
X87122000Y-93980000D03*
X133604000Y-103632000D03*
X92456000Y-128524000D03*
X78232000Y-178054000D03*
X97790000Y-160782000D03*
X124460000Y-175006000D03*
X116586000Y-110236000D03*
X115570000Y-170180000D03*
X149860000Y-168148000D03*
X105941300Y-147353900D03*
X125984000Y-90678000D03*
X75692000Y-166624000D03*
X150622000Y-102870000D03*
X97282000Y-119380000D03*
X90678000Y-118618000D03*
X144526000Y-178308000D03*
X97536000Y-132334000D03*
X97790000Y-111252000D03*
X104394000Y-96266000D03*
X89725400Y-89505000D03*
X149606000Y-177800000D03*
X120142000Y-141732000D03*
X98044000Y-136398000D03*
X74930000Y-126238000D03*
X68580000Y-92202000D03*
X77216000Y-117856000D03*
X140716000Y-92964000D03*
X152908000Y-117856000D03*
X155194000Y-137414000D03*
X104648000Y-140970000D03*
X96774000Y-104140000D03*
X82550000Y-140208000D03*
X71628000Y-153416000D03*
X106680000Y-90424000D03*
X81026000Y-128778000D03*
X94996000Y-131064000D03*
X82550000Y-138684000D03*
X107442000Y-138430000D03*
X104140000Y-86868000D03*
X94234000Y-122428000D03*
X77216000Y-108966000D03*
X87884000Y-102108000D03*
X98298000Y-114808000D03*
X101600000Y-100584000D03*
X114046000Y-93218000D03*
X90170000Y-175260000D03*
X132080000Y-177800000D03*
X139700000Y-170434000D03*
X98298000Y-122682000D03*
X115824000Y-120396000D03*
X89910700Y-144062000D03*
X92456000Y-127254000D03*
X103384100Y-116125000D03*
X141986000Y-92964000D03*
X92710000Y-116586000D03*
X143002000Y-117602000D03*
X77216000Y-125984000D03*
X74930000Y-122428000D03*
X155194000Y-130810000D03*
X143256000Y-125476000D03*
X92456000Y-121412000D03*
X111252000Y-104140000D03*
X82550000Y-119888000D03*
X137922000Y-105156000D03*
X128270000Y-152400000D03*
X114046000Y-118872000D03*
X76708000Y-149606000D03*
X86614000Y-111506000D03*
X75692000Y-165608000D03*
X99568000Y-149352000D03*
X98552000Y-130302000D03*
X78740000Y-140970000D03*
X123444000Y-177800000D03*
X123698000Y-141732000D03*
X98298000Y-120650000D03*
X138430000Y-175768000D03*
X90932000Y-106426000D03*
X71882000Y-143256000D03*
X85852000Y-98552000D03*
X107188000Y-178054000D03*
X106172000Y-85852000D03*
X76454000Y-97282000D03*
X77724000Y-130556000D03*
X81026000Y-141732000D03*
X108204000Y-169926000D03*
X101854000Y-92456000D03*
X90424000Y-138938000D03*
X83566000Y-105410000D03*
X96012000Y-126238000D03*
X131064000Y-106426000D03*
X83566000Y-125476000D03*
X83312000Y-142494000D03*
X74930000Y-104648000D03*
X68834000Y-96012000D03*
X131318000Y-90424000D03*
X104648000Y-147066000D03*
X120650000Y-175006000D03*
X116840000Y-114300000D03*
X139700000Y-164846000D03*
X108458000Y-117094000D03*
X89662000Y-153924000D03*
X141932700Y-166642500D03*
X89154000Y-151638000D03*
X147828000Y-115062000D03*
X99568000Y-147320000D03*
X92456000Y-124206000D03*
X152400000Y-156464000D03*
X110490000Y-109982000D03*
X93726000Y-154686000D03*
X101854000Y-147066000D03*
X74930000Y-100330000D03*
X149098000Y-99822000D03*
X70612000Y-135382000D03*
X81788000Y-140970000D03*
X123190000Y-90170000D03*
X96774000Y-125476000D03*
X78486000Y-95250000D03*
X60960000Y-153162000D03*
X98298000Y-121666000D03*
X83312000Y-139446000D03*
X93980000Y-119888000D03*
X120396000Y-110236000D03*
X69088000Y-158750000D03*
X96266000Y-142494000D03*
X144780000Y-157480000D03*
X80010000Y-88900000D03*
X95250000Y-116586000D03*
X74168000Y-143256000D03*
X150114000Y-165100000D03*
X79756000Y-127762000D03*
X98552000Y-102108000D03*
X117094000Y-152400000D03*
X140970000Y-99060000D03*
X96266000Y-138176000D03*
X77216000Y-104648000D03*
X153670000Y-102362000D03*
X109220000Y-112014000D03*
X96520000Y-120142000D03*
X60452000Y-148844000D03*
X95250000Y-127000000D03*
X85598000Y-91186000D03*
X98298000Y-118618000D03*
X88900000Y-150368000D03*
X146558000Y-99568000D03*
X81280000Y-154686000D03*
X90170000Y-107442000D03*
X111252000Y-178054000D03*
X71120000Y-147574000D03*
X144018000Y-160528000D03*
X99568000Y-178054000D03*
X89154000Y-128524000D03*
X98298000Y-119634000D03*
X92536500Y-137319700D03*
X138176000Y-155448000D03*
X111760000Y-112268000D03*
X118110000Y-140970000D03*
X101600000Y-107696000D03*
X91694000Y-122174000D03*
X79502000Y-141732000D03*
X127762000Y-84836000D03*
X150368000Y-157988000D03*
X103632000Y-93726000D03*
X92964000Y-129286000D03*
X78994000Y-130810000D03*
X96012000Y-109728000D03*
X111760000Y-168656000D03*
X70866000Y-89408000D03*
X143002000Y-97028000D03*
X155194000Y-134112000D03*
X153162000Y-113538000D03*
X88138000Y-168402000D03*
X91694000Y-117602000D03*
%TO.N,+12V*%
X101337100Y-116846100D03*
X103448500Y-136450700D03*
%TO.N,Net-(M1--)*%
X133604000Y-113792000D03*
X135636000Y-116840000D03*
X136652000Y-116840000D03*
X135636000Y-115824000D03*
X133604000Y-114808000D03*
X133604000Y-116840000D03*
X133604000Y-115824000D03*
X135636000Y-114808000D03*
X134620000Y-116840000D03*
X136652000Y-113792000D03*
X134620000Y-114808000D03*
X134620000Y-115824000D03*
X134620000Y-113792000D03*
X144018000Y-131826000D03*
X136652000Y-114808000D03*
X135636000Y-113792000D03*
X136652000Y-115824000D03*
%TO.N,/VSen*%
X135636000Y-139954000D03*
X127762000Y-129794000D03*
X127762000Y-122682000D03*
X110744000Y-125730000D03*
X127762000Y-133858000D03*
X127762000Y-116586000D03*
X127762000Y-118618000D03*
X111760000Y-127762000D03*
X128778000Y-123698000D03*
X137160000Y-112014000D03*
X111760000Y-128778000D03*
X127762000Y-115570000D03*
X112776000Y-131318000D03*
X127762000Y-121666000D03*
X127762000Y-120650000D03*
X128524000Y-110998000D03*
X127762000Y-139954000D03*
X110744000Y-122174000D03*
X127762000Y-134874000D03*
X113792000Y-128778000D03*
X134620000Y-112014000D03*
X129794000Y-117602000D03*
X128778000Y-137922000D03*
X131826000Y-117602000D03*
X137160000Y-109982000D03*
X131572000Y-110998000D03*
X111760000Y-122174000D03*
X128778000Y-127762000D03*
X110744000Y-124714000D03*
X109728000Y-129794000D03*
X131826000Y-113538000D03*
X102135600Y-121907500D03*
X132588000Y-110998000D03*
X113792000Y-123698000D03*
X129794000Y-140970000D03*
X130810000Y-140970000D03*
X133604000Y-109982000D03*
X112776000Y-127762000D03*
X111760000Y-125730000D03*
X130810000Y-139954000D03*
X111760000Y-129794000D03*
X111760000Y-124714000D03*
X127762000Y-123698000D03*
X109728000Y-123698000D03*
X113792000Y-131318000D03*
X128778000Y-117602000D03*
X129540000Y-109982000D03*
X128778000Y-122682000D03*
X134366000Y-139954000D03*
X129794000Y-131826000D03*
X112776000Y-128778000D03*
X128778000Y-120650000D03*
X128778000Y-134874000D03*
X128778000Y-113538000D03*
X112776000Y-123698000D03*
X133604000Y-110998000D03*
X128779000Y-130798000D03*
X130810000Y-114554000D03*
X109728000Y-131318000D03*
X113792000Y-124714000D03*
X110744000Y-126746000D03*
X131826000Y-114554000D03*
X110744000Y-127762000D03*
X128778000Y-124714000D03*
X128778000Y-128778000D03*
X137160000Y-110998000D03*
X128778000Y-135890000D03*
X128778000Y-115570000D03*
X113792000Y-127762000D03*
X127762000Y-117602000D03*
X130810000Y-116586000D03*
X130810000Y-117602000D03*
X127762000Y-127762000D03*
X134620000Y-110998000D03*
X113792000Y-126746000D03*
X111760000Y-123698000D03*
X128778000Y-140970000D03*
X129794000Y-138938000D03*
X112776000Y-126746000D03*
X128524000Y-109982000D03*
X109728000Y-125730000D03*
X127763000Y-130798000D03*
X129794000Y-120650000D03*
X113792000Y-125730000D03*
X111760000Y-126746000D03*
X112776000Y-129794000D03*
X127762000Y-138938000D03*
X133096000Y-140970000D03*
X109728000Y-127762000D03*
X127762000Y-140970000D03*
X131826000Y-115570000D03*
X129794000Y-114554000D03*
X130556000Y-110998000D03*
X134366000Y-140970000D03*
X132588000Y-109982000D03*
X131826000Y-139954000D03*
X129794000Y-113538000D03*
X127762000Y-113538000D03*
X128778000Y-114554000D03*
X128778000Y-118618000D03*
X113792000Y-122174000D03*
X128778000Y-129794000D03*
X109728000Y-126746000D03*
X109728000Y-124714000D03*
X135890000Y-112014000D03*
X129794000Y-133858000D03*
X110744000Y-123698000D03*
X129794000Y-115570000D03*
X127762000Y-137922000D03*
X112776000Y-122174000D03*
X129794000Y-118618000D03*
X127762000Y-114554000D03*
X133096000Y-139954000D03*
X113792000Y-129794000D03*
X131826000Y-140970000D03*
X135890000Y-109982000D03*
X129540000Y-110998000D03*
X127762000Y-126746000D03*
X128778000Y-126746000D03*
X112776000Y-124714000D03*
X128778000Y-138938000D03*
X110744000Y-129794000D03*
X127762000Y-128778000D03*
X134620000Y-109982000D03*
X135890000Y-110998000D03*
X109728000Y-122174000D03*
X127762000Y-136906000D03*
X131572000Y-109982000D03*
X128778000Y-133858000D03*
X130556000Y-109982000D03*
X111760000Y-131318000D03*
X112776000Y-125730000D03*
X130810000Y-118618000D03*
X128778000Y-116586000D03*
X128778000Y-125730000D03*
X130810000Y-115570000D03*
X127762000Y-131826000D03*
X127762000Y-124714000D03*
X129794000Y-116586000D03*
X109728000Y-128778000D03*
X128778000Y-121666000D03*
X128778000Y-139954000D03*
X131826000Y-118618000D03*
X128778000Y-136906000D03*
X110744000Y-131318000D03*
X130810000Y-113538000D03*
X110744000Y-128778000D03*
X135636000Y-140970000D03*
X127762000Y-125730000D03*
X128778000Y-131826000D03*
X127762000Y-135890000D03*
X131826000Y-116586000D03*
X129794000Y-139954000D03*
%TO.N,/COMP4_OUT*%
X101009800Y-112152500D03*
%TO.N,/IO_OUT3*%
X133457200Y-91379500D03*
X87645300Y-126557000D03*
%TO.N,VDD*%
X112078100Y-133179600D03*
X121914500Y-131401900D03*
%TO.N,Net-(Q1-G)*%
X125984000Y-133096000D03*
X138430000Y-132842000D03*
%TO.N,/I2C_SCL*%
X86843300Y-131660100D03*
X86973100Y-120695400D03*
%TO.N,/IO_IN1*%
X98881700Y-108677000D03*
X84187600Y-147015500D03*
%TO.N,/IO_IN2*%
X89527100Y-134726700D03*
X99270900Y-105258500D03*
%TO.N,/NRST*%
X76132000Y-99037500D03*
X76756200Y-140876400D03*
%TO.N,/USART3_TX*%
X90491500Y-145742800D03*
X100573400Y-99391300D03*
%TO.N,/USART3_RX*%
X91254200Y-144797000D03*
X99823500Y-100772800D03*
%TO.N,/SWCLK*%
X85654900Y-132669200D03*
X88804100Y-96641100D03*
%TO.N,/SWDIO*%
X84662200Y-96556900D03*
X85898500Y-134111200D03*
%TO.N,/CAN_TX_STM*%
X75894400Y-138613600D03*
X85345000Y-152130200D03*
%TO.N,/CAN_RX_STM*%
X84112900Y-151036100D03*
X75919800Y-137528100D03*
%TO.N,/IO_OUT2*%
X79251200Y-132903100D03*
X87978200Y-154416900D03*
%TO.N,/GATEHA*%
X93753400Y-137470400D03*
X89122200Y-135824200D03*
%TO.N,/GATELA*%
X76193900Y-143131700D03*
X87232300Y-141401300D03*
%TD*%
D21*
%TO.N,+3.3V*%
X151000000Y-87000000D02*
X154000000Y-90000000D01*
X154000000Y-90000000D02*
X155500000Y-90000000D01*
X76826400Y-133877300D02*
X79690800Y-133877300D01*
X79690800Y-133877300D02*
X81391000Y-135577500D01*
%TO.N,GND*%
X141932700Y-160047200D02*
X141932700Y-166642500D01*
X142050000Y-159929900D02*
X141932700Y-160047200D01*
X101446100Y-109315100D02*
X104731000Y-106030200D01*
X117639500Y-173939200D02*
X118810000Y-175109700D01*
X114655000Y-172269700D02*
X116324500Y-173939200D01*
X105925500Y-157230900D02*
X105925500Y-152274900D01*
X103384100Y-116125000D02*
X103384100Y-111253100D01*
X141932700Y-166642500D02*
X141967700Y-166677500D01*
X105941300Y-148312700D02*
X105941300Y-147353900D01*
X97279100Y-86628800D02*
X98429200Y-86628800D01*
X92536500Y-137319700D02*
X92536500Y-139018500D01*
X92536500Y-139365500D02*
X92536500Y-141436200D01*
X75761700Y-171158800D02*
X79899100Y-171158800D01*
X105125300Y-118414800D02*
X104810200Y-118099700D01*
X141967700Y-166677500D02*
X141967700Y-173710700D01*
X97279100Y-86628800D02*
X96129000Y-86628800D01*
X103384100Y-116673600D02*
X103384100Y-116125000D01*
X104810200Y-118099700D02*
X103384100Y-116673600D01*
X116324500Y-173939200D02*
X117639500Y-173939200D01*
X104731000Y-106030200D02*
X104731000Y-104486600D01*
X89725400Y-89505000D02*
X88095100Y-87874700D01*
X75761700Y-171978000D02*
X75761700Y-171158800D01*
X105125300Y-122189600D02*
X105125300Y-118414800D01*
X105925500Y-152274900D02*
X105941300Y-152259100D01*
X105918000Y-148336000D02*
X105941300Y-148312700D01*
X105941300Y-152259100D02*
X105941300Y-148359300D01*
X75470000Y-172269700D02*
X75761700Y-171978000D01*
X142050000Y-153607600D02*
X142050000Y-159929900D01*
X96129000Y-86628800D02*
X93252800Y-89505000D01*
X98429200Y-86955400D02*
X101905400Y-90431600D01*
X86945000Y-86625000D02*
X88095100Y-86625000D01*
X140077000Y-151634600D02*
X142050000Y-153607600D01*
X104196900Y-134341400D02*
X104947300Y-133591000D01*
X98429200Y-86628800D02*
X98429200Y-86955400D01*
X88095100Y-87874700D02*
X88095100Y-86625000D01*
X92710000Y-139192000D02*
X92536500Y-139365500D01*
X79899100Y-171158800D02*
X81010000Y-172269700D01*
X104196900Y-139504600D02*
X104196900Y-134341400D01*
X92536500Y-141436200D02*
X89910700Y-144062000D01*
X105941300Y-148359300D02*
X105918000Y-148336000D01*
X103384100Y-111253100D02*
X101446100Y-109315100D01*
X93252800Y-89505000D02*
X89725400Y-89505000D01*
X92536500Y-139018500D02*
X92710000Y-139192000D01*
D22*
%TO.N,+12V*%
X103396800Y-136502400D02*
X103448500Y-136450700D01*
X81138800Y-173893000D02*
X82564300Y-172467500D01*
X101337100Y-116846100D02*
X101335500Y-116847700D01*
X76855000Y-175109700D02*
X78071700Y-173893000D01*
X101335500Y-116847700D02*
X101335500Y-134337700D01*
X78071700Y-173893000D02*
X81138800Y-173893000D01*
X103396800Y-150909900D02*
X103396800Y-136502400D01*
X82564300Y-172467500D02*
X82564300Y-171742400D01*
X82564300Y-171742400D02*
X103396800Y-150909900D01*
X101335500Y-134337700D02*
X103448500Y-136450700D01*
D23*
%TO.N,/CAN_P*%
X83231100Y-174273500D02*
X82395000Y-175109600D01*
X82395000Y-175109600D02*
X82395000Y-175109700D01*
X103136000Y-176057000D02*
X104523000Y-174670000D01*
X94490800Y-176057000D02*
X95877800Y-174670000D01*
X99787200Y-172855000D02*
X99787200Y-174670000D01*
X87717800Y-173437000D02*
X87717800Y-172855000D01*
X99787200Y-174670000D02*
X101174200Y-176057000D01*
X115204000Y-174273500D02*
X116040000Y-175110000D01*
X114368000Y-173437000D02*
X115204000Y-174273500D01*
X91142200Y-172855000D02*
X91142200Y-174670000D01*
X108049000Y-172855000D02*
X108631000Y-173437000D01*
X116040000Y-175109500D02*
X116040000Y-175109700D01*
X83231100Y-174273500D02*
X84067200Y-173437000D01*
X95877800Y-172855000D02*
X99787200Y-172855000D01*
X82395000Y-175110000D02*
X83231100Y-174273500D01*
X87717800Y-172855000D02*
X91142200Y-172855000D01*
X84067200Y-173437000D02*
X87717800Y-173437000D01*
X91142200Y-174670000D02*
X92529200Y-176057000D01*
X92529200Y-176057000D02*
X94490800Y-176057000D01*
X101174200Y-176057000D02*
X103136000Y-176057000D01*
X115204000Y-174273500D02*
X116040000Y-175109500D01*
X108631000Y-173437000D02*
X114368000Y-173437000D01*
X104523000Y-172855000D02*
X108049000Y-172855000D01*
X95877800Y-174670000D02*
X95877800Y-172855000D01*
X104523000Y-174670000D02*
X104523000Y-172855000D01*
%TO.N,/CAN_N*%
X112595000Y-170102000D02*
X112895000Y-170402000D01*
X111695000Y-170802000D02*
X111995000Y-171102000D01*
X87717800Y-172270000D02*
X91581400Y-172270000D01*
X100226400Y-172270000D02*
X101174200Y-171322000D01*
X101174200Y-171322000D02*
X103136000Y-171322000D01*
X117424700Y-172270000D02*
X117425000Y-172270000D01*
X105715000Y-172270000D02*
X106015000Y-171970000D01*
X87717800Y-171102000D02*
X87717800Y-172270000D01*
X113495000Y-171602000D02*
X113495000Y-170402000D01*
X117424700Y-172270000D02*
X117425000Y-172269700D01*
X106015000Y-171970000D02*
X106015000Y-171570000D01*
X104084000Y-172270000D02*
X105715000Y-172270000D01*
X112295000Y-170402000D02*
X112595000Y-170102000D01*
X106315000Y-171270000D02*
X106615000Y-171570000D01*
X95438600Y-172270000D02*
X100226400Y-172270000D01*
X111395000Y-170102000D02*
X111695000Y-170402000D01*
X108631000Y-171102000D02*
X110795000Y-171102000D01*
X115139000Y-171102000D02*
X115823000Y-171786000D01*
X113795000Y-170102000D02*
X114095000Y-170402000D01*
X85382200Y-172270000D02*
X85382200Y-171102000D01*
X115823000Y-171786000D02*
X115823000Y-172270000D01*
X111995000Y-171102000D02*
X112295000Y-170802000D01*
X83780000Y-172269700D02*
X83780000Y-172270000D01*
X106615000Y-171570000D02*
X106615000Y-171970000D01*
X112295000Y-170802000D02*
X112295000Y-170402000D01*
X106915000Y-172270000D02*
X107463000Y-172270000D01*
X92529200Y-171322000D02*
X94490800Y-171322000D01*
X111095000Y-170802000D02*
X111095000Y-170402000D01*
X112895000Y-170402000D02*
X112895000Y-171602000D01*
X106015000Y-171570000D02*
X106315000Y-171270000D01*
X94490800Y-171322000D02*
X95438600Y-172270000D01*
X111095000Y-170402000D02*
X111395000Y-170102000D01*
X115823000Y-172270000D02*
X117424700Y-172270000D01*
X110795000Y-171102000D02*
X111095000Y-170802000D01*
X114095000Y-170402000D02*
X114095000Y-170802000D01*
X85382200Y-171102000D02*
X87717800Y-171102000D01*
X112895000Y-171602000D02*
X113195000Y-171902000D01*
X114095000Y-170802000D02*
X114395000Y-171102000D01*
X111695000Y-170402000D02*
X111695000Y-170802000D01*
X106615000Y-171970000D02*
X106915000Y-172270000D01*
X103136000Y-171322000D02*
X104084000Y-172270000D01*
X83780000Y-172270000D02*
X85382200Y-172270000D01*
X91581400Y-172270000D02*
X92529200Y-171322000D01*
X113195000Y-171902000D02*
X113495000Y-171602000D01*
X107463000Y-172270000D02*
X108631000Y-171102000D01*
X113495000Y-170402000D02*
X113795000Y-170102000D01*
X114395000Y-171102000D02*
X115139000Y-171102000D01*
D21*
%TO.N,/VSen*%
X111032100Y-123100700D02*
X103328800Y-123100700D01*
X103328800Y-123100700D02*
X102135600Y-121907500D01*
%TO.N,/COMP4_OUT*%
X100573400Y-112588900D02*
X101009800Y-112152500D01*
X100573400Y-149726600D02*
X100573400Y-112588900D01*
X90000000Y-160300000D02*
X100573400Y-149726600D01*
%TO.N,/IO_OUT3*%
X87698900Y-111253400D02*
X87698900Y-126503400D01*
X87698900Y-126503400D02*
X87645300Y-126557000D01*
X107572800Y-91379500D02*
X87698900Y-111253400D01*
X133457200Y-91379500D02*
X107572800Y-91379500D01*
%TO.N,VDD*%
X120136800Y-133179600D02*
X112078100Y-133179600D01*
X121914500Y-131401900D02*
X120136800Y-133179600D01*
%TO.N,Net-(Q1-G)*%
X128016000Y-143002000D02*
X136906000Y-143002000D01*
X138430000Y-141478000D02*
X138430000Y-132842000D01*
X136906000Y-143002000D02*
X138430000Y-141478000D01*
X125984000Y-140970000D02*
X128016000Y-143002000D01*
X125984000Y-133096000D02*
X125984000Y-140970000D01*
%TO.N,/I2C_SCL*%
X86973100Y-120695400D02*
X86843300Y-120825200D01*
X86843300Y-120825200D02*
X86843300Y-131660100D01*
%TO.N,/IO_IN1*%
X98881700Y-108677000D02*
X88363800Y-119194900D01*
X88363800Y-142839300D02*
X84187600Y-147015500D01*
X88363800Y-119194900D02*
X88363800Y-142839300D01*
%TO.N,/IO_IN2*%
X99373100Y-111667600D02*
X99373100Y-124880700D01*
X99581800Y-111458900D02*
X99373100Y-111667600D01*
X99581800Y-105569400D02*
X99581800Y-111458900D01*
X99270900Y-105258500D02*
X99581800Y-105569400D01*
X99373100Y-124880700D02*
X89527100Y-134726700D01*
%TO.N,/NRST*%
X76756200Y-140876400D02*
X76756200Y-135027000D01*
X76107800Y-134378600D02*
X76107800Y-99061700D01*
X76756200Y-135027000D02*
X76107800Y-134378600D01*
X76107800Y-99061700D02*
X76132000Y-99037500D01*
%TO.N,/USART3_TX*%
X100173300Y-111999000D02*
X100173300Y-136868000D01*
X100573400Y-111598900D02*
X100173300Y-111999000D01*
X100173300Y-136868000D02*
X91298500Y-145742800D01*
X100573400Y-99391300D02*
X100573400Y-111598900D01*
X91298500Y-145742800D02*
X90491500Y-145742800D01*
%TO.N,/USART3_RX*%
X99981900Y-100931200D02*
X99981900Y-111624600D01*
X99823500Y-100772800D02*
X99981900Y-100931200D01*
X99981900Y-111624600D02*
X99773200Y-111833300D01*
X99773200Y-136278000D02*
X91254200Y-144797000D01*
X99773200Y-111833300D02*
X99773200Y-136278000D01*
%TO.N,/SWCLK*%
X85654900Y-99790300D02*
X85654900Y-132669200D01*
X88804100Y-96641100D02*
X85654900Y-99790300D01*
%TO.N,/SWDIO*%
X84662200Y-132874900D02*
X84662200Y-96556900D01*
X85898500Y-134111200D02*
X84662200Y-132874900D01*
%TO.N,/CAN_TX_STM*%
X82108400Y-150038400D02*
X84153800Y-150038400D01*
X85345000Y-151229600D02*
X85345000Y-152130200D01*
X75894400Y-138613600D02*
X75493700Y-139014300D01*
X75493700Y-143423700D02*
X82108400Y-150038400D01*
X84153800Y-150038400D02*
X85345000Y-151229600D01*
X75493700Y-139014300D02*
X75493700Y-143423700D01*
%TO.N,/CAN_RX_STM*%
X84112900Y-151036000D02*
X84112900Y-151036100D01*
X82474100Y-151036000D02*
X84112900Y-151036000D01*
X75086300Y-143648200D02*
X82474100Y-151036000D01*
X75086300Y-138361600D02*
X75086300Y-143648200D01*
X75919800Y-137528100D02*
X75086300Y-138361600D01*
%TO.N,/IO_OUT2*%
X87932500Y-141071000D02*
X79764600Y-132903100D01*
X87978200Y-153282300D02*
X83452600Y-148756700D01*
X87978200Y-154416900D02*
X87978200Y-153282300D01*
X87932500Y-141691300D02*
X87932500Y-141071000D01*
X79764600Y-132903100D02*
X79251200Y-132903100D01*
X83452600Y-148756700D02*
X83452600Y-146171200D01*
X83452600Y-146171200D02*
X87932500Y-141691300D01*
%TO.N,/GATEHA*%
X92107200Y-135824200D02*
X93753400Y-137470400D01*
X89122200Y-135824200D02*
X92107200Y-135824200D01*
%TO.N,/GATELA*%
X83250700Y-145382900D02*
X78445100Y-145382900D01*
X78445100Y-145382900D02*
X76193900Y-143131700D01*
X87232300Y-141401300D02*
X83250700Y-145382900D01*
%TD*%
%TA.AperFunction,Conductor*%
%TO.N,GND*%
G36*
X79457742Y-134497485D02*
G01*
X79478384Y-134514119D01*
X80449221Y-135484956D01*
X80482706Y-135546279D01*
X80485540Y-135572637D01*
X80485540Y-135577497D01*
X80485540Y-135577500D01*
X80505326Y-135765756D01*
X80505327Y-135765759D01*
X80563818Y-135945777D01*
X80563821Y-135945784D01*
X80658467Y-136109716D01*
X80742397Y-136202929D01*
X80785129Y-136250388D01*
X80938265Y-136361648D01*
X80938270Y-136361651D01*
X81111192Y-136438642D01*
X81111197Y-136438644D01*
X81296354Y-136478000D01*
X81296355Y-136478000D01*
X81485644Y-136478000D01*
X81485646Y-136478000D01*
X81670803Y-136438644D01*
X81843730Y-136361651D01*
X81996871Y-136250388D01*
X82035363Y-136207638D01*
X82094849Y-136170989D01*
X82164706Y-136172319D01*
X82215194Y-136202929D01*
X86597352Y-140585087D01*
X86630837Y-140646410D01*
X86625853Y-140716102D01*
X86601822Y-140755740D01*
X86547379Y-140816205D01*
X86499767Y-140869084D01*
X86499765Y-140869085D01*
X86499764Y-140869088D01*
X86405121Y-141033015D01*
X86405118Y-141033022D01*
X86358044Y-141177902D01*
X86346626Y-141213044D01*
X86337113Y-141303558D01*
X86326840Y-141401302D01*
X86326840Y-141406162D01*
X86307155Y-141473201D01*
X86290521Y-141493843D01*
X83038284Y-144746081D01*
X82976961Y-144779566D01*
X82950603Y-144782400D01*
X78745197Y-144782400D01*
X78678158Y-144762715D01*
X78657516Y-144746081D01*
X77135679Y-143224244D01*
X77102194Y-143162921D01*
X77099360Y-143136563D01*
X77099360Y-143131702D01*
X77099360Y-143131700D01*
X77079574Y-142943444D01*
X77021079Y-142763416D01*
X76926433Y-142599484D01*
X76799771Y-142458812D01*
X76799770Y-142458811D01*
X76646634Y-142347551D01*
X76646629Y-142347548D01*
X76473707Y-142270557D01*
X76473702Y-142270555D01*
X76327901Y-142239565D01*
X76288546Y-142231200D01*
X76218200Y-142231200D01*
X76151161Y-142211515D01*
X76105406Y-142158711D01*
X76094200Y-142107200D01*
X76094200Y-141751871D01*
X76113885Y-141684832D01*
X76166689Y-141639077D01*
X76235847Y-141629133D01*
X76291087Y-141651554D01*
X76303469Y-141660550D01*
X76303470Y-141660551D01*
X76476392Y-141737542D01*
X76476397Y-141737544D01*
X76661554Y-141776900D01*
X76661555Y-141776900D01*
X76850844Y-141776900D01*
X76850846Y-141776900D01*
X77036003Y-141737544D01*
X77208930Y-141660551D01*
X77362071Y-141549288D01*
X77488733Y-141408616D01*
X77583379Y-141244684D01*
X77641874Y-141064656D01*
X77661660Y-140876400D01*
X77641874Y-140688144D01*
X77583379Y-140508116D01*
X77488733Y-140344184D01*
X77402014Y-140247873D01*
X77388550Y-140232919D01*
X77358320Y-140169927D01*
X77356700Y-140149947D01*
X77356700Y-135070428D01*
X77357231Y-135062326D01*
X77357356Y-135061382D01*
X77361882Y-135027000D01*
X77354686Y-134972344D01*
X77344550Y-134895348D01*
X77341244Y-134870238D01*
X77297806Y-134765371D01*
X77290338Y-134695904D01*
X77321613Y-134633424D01*
X77339481Y-134617603D01*
X77389487Y-134581272D01*
X77432266Y-134550192D01*
X77432267Y-134550190D01*
X77432271Y-134550188D01*
X77460509Y-134518827D01*
X77519995Y-134482179D01*
X77552658Y-134477800D01*
X79390703Y-134477800D01*
X79457742Y-134497485D01*
G37*
%TD.AperFunction*%
%TA.AperFunction,Conductor*%
G36*
X98900634Y-109609815D02*
G01*
X98956567Y-109651687D01*
X98980984Y-109717151D01*
X98981300Y-109725997D01*
X98981300Y-111151473D01*
X98961615Y-111218512D01*
X98944981Y-111239154D01*
X98944818Y-111239316D01*
X98866709Y-111341112D01*
X98848562Y-111364761D01*
X98848561Y-111364763D01*
X98788057Y-111510834D01*
X98788055Y-111510839D01*
X98767418Y-111667598D01*
X98767418Y-111667599D01*
X98772069Y-111702926D01*
X98772600Y-111711028D01*
X98772600Y-124580603D01*
X98752915Y-124647642D01*
X98736281Y-124668284D01*
X89614684Y-133789881D01*
X89553361Y-133823366D01*
X89527003Y-133826200D01*
X89432454Y-133826200D01*
X89393819Y-133834412D01*
X89247299Y-133865555D01*
X89138736Y-133913891D01*
X89069485Y-133923175D01*
X89006209Y-133893547D01*
X88968996Y-133834412D01*
X88964300Y-133800611D01*
X88964300Y-131840931D01*
X88983985Y-131773892D01*
X89036789Y-131728137D01*
X89105947Y-131718193D01*
X89169503Y-131747218D01*
X89179528Y-131756947D01*
X89180256Y-131757738D01*
X89376491Y-131910474D01*
X89416966Y-131932378D01*
X89594369Y-132028384D01*
X89595190Y-132028828D01*
X89830386Y-132109571D01*
X90075665Y-132150500D01*
X90324335Y-132150500D01*
X90569614Y-132109571D01*
X90804810Y-132028828D01*
X91023509Y-131910474D01*
X91219744Y-131757738D01*
X91388164Y-131574785D01*
X91524173Y-131366607D01*
X91624063Y-131138881D01*
X91685108Y-130897821D01*
X91705643Y-130650000D01*
X91685108Y-130402179D01*
X91624063Y-130161119D01*
X91613678Y-130137444D01*
X91524173Y-129933393D01*
X91388166Y-129725217D01*
X91322362Y-129653735D01*
X91219744Y-129542262D01*
X91023509Y-129389526D01*
X91023507Y-129389525D01*
X91023506Y-129389524D01*
X90804811Y-129271172D01*
X90804802Y-129271169D01*
X90569616Y-129190429D01*
X90324335Y-129149500D01*
X90075665Y-129149500D01*
X89830383Y-129190429D01*
X89595197Y-129271169D01*
X89595188Y-129271172D01*
X89376493Y-129389524D01*
X89180255Y-129542262D01*
X89180254Y-129542263D01*
X89179526Y-129543055D01*
X89179148Y-129543281D01*
X89176486Y-129545733D01*
X89175981Y-129545184D01*
X89119637Y-129579043D01*
X89049799Y-129576940D01*
X88992185Y-129537413D01*
X88965087Y-129473012D01*
X88964300Y-129459068D01*
X88964300Y-119494997D01*
X88983985Y-119427958D01*
X89000619Y-119407316D01*
X98769619Y-109638316D01*
X98830942Y-109604831D01*
X98900634Y-109609815D01*
G37*
%TD.AperFunction*%
%TA.AperFunction,Conductor*%
G36*
X98901885Y-101002162D02*
G01*
X98957818Y-101044034D01*
X98976482Y-101080026D01*
X98996318Y-101141078D01*
X98996321Y-101141084D01*
X99090967Y-101305016D01*
X99217629Y-101445688D01*
X99330285Y-101527537D01*
X99372951Y-101582867D01*
X99381400Y-101627855D01*
X99381400Y-104234000D01*
X99361715Y-104301039D01*
X99308911Y-104346794D01*
X99257400Y-104358000D01*
X99176254Y-104358000D01*
X99160404Y-104361369D01*
X98991097Y-104397355D01*
X98991092Y-104397357D01*
X98818170Y-104474348D01*
X98818165Y-104474351D01*
X98665029Y-104585611D01*
X98538366Y-104726285D01*
X98443721Y-104890215D01*
X98443718Y-104890222D01*
X98385227Y-105070240D01*
X98385226Y-105070244D01*
X98365440Y-105258500D01*
X98385226Y-105446756D01*
X98385227Y-105446759D01*
X98443718Y-105626777D01*
X98443721Y-105626784D01*
X98538367Y-105790716D01*
X98665029Y-105931388D01*
X98818165Y-106042648D01*
X98818167Y-106042649D01*
X98818170Y-106042651D01*
X98907738Y-106082529D01*
X98960972Y-106127777D01*
X98981294Y-106194626D01*
X98981300Y-106195807D01*
X98981300Y-107652500D01*
X98961615Y-107719539D01*
X98908811Y-107765294D01*
X98857300Y-107776500D01*
X98787054Y-107776500D01*
X98754597Y-107783398D01*
X98601897Y-107815855D01*
X98601892Y-107815857D01*
X98428970Y-107892848D01*
X98428965Y-107892851D01*
X98275829Y-108004111D01*
X98149166Y-108144785D01*
X98054521Y-108308715D01*
X98054518Y-108308722D01*
X97996027Y-108488740D01*
X97996026Y-108488744D01*
X97976240Y-108677000D01*
X97976240Y-108677002D01*
X97976240Y-108681862D01*
X97956555Y-108748901D01*
X97939921Y-108769543D01*
X88511081Y-118198383D01*
X88449758Y-118231868D01*
X88380066Y-118226884D01*
X88324133Y-118185012D01*
X88299716Y-118119548D01*
X88299400Y-118110702D01*
X88299400Y-111553496D01*
X88319085Y-111486457D01*
X88335714Y-111465820D01*
X98770872Y-101030661D01*
X98832193Y-100997178D01*
X98901885Y-101002162D01*
G37*
%TD.AperFunction*%
%TA.AperFunction,Conductor*%
G36*
X158439039Y-84295186D02*
G01*
X158484794Y-84347990D01*
X158496000Y-84399501D01*
X158496000Y-183518000D01*
X158476315Y-183585039D01*
X158423511Y-183630794D01*
X158372000Y-183642000D01*
X59560000Y-183642000D01*
X59492961Y-183622315D01*
X59447206Y-183569511D01*
X59436000Y-183518000D01*
X59436000Y-181056330D01*
X60745710Y-181056330D01*
X60775925Y-181279387D01*
X60775926Y-181279390D01*
X60845483Y-181493465D01*
X60952146Y-181691678D01*
X60952148Y-181691681D01*
X61092489Y-181867663D01*
X61092491Y-181867664D01*
X61092492Y-181867666D01*
X61262004Y-182015765D01*
X61455236Y-182131215D01*
X61665976Y-182210307D01*
X61887450Y-182250500D01*
X61887453Y-182250500D01*
X62056148Y-182250500D01*
X62056155Y-182250500D01*
X62224188Y-182235377D01*
X62224192Y-182235376D01*
X62441160Y-182175496D01*
X62441162Y-182175495D01*
X62441170Y-182175493D01*
X62643973Y-182077829D01*
X62826078Y-181945522D01*
X62981632Y-181782825D01*
X63105635Y-181594968D01*
X63194103Y-181387988D01*
X63244191Y-181168537D01*
X63249230Y-181056330D01*
X154745710Y-181056330D01*
X154775925Y-181279387D01*
X154775926Y-181279390D01*
X154845483Y-181493465D01*
X154952146Y-181691678D01*
X154952148Y-181691681D01*
X155092489Y-181867663D01*
X155092491Y-181867664D01*
X155092492Y-181867666D01*
X155262004Y-182015765D01*
X155455236Y-182131215D01*
X155665976Y-182210307D01*
X155887450Y-182250500D01*
X155887453Y-182250500D01*
X156056148Y-182250500D01*
X156056155Y-182250500D01*
X156224188Y-182235377D01*
X156224192Y-182235376D01*
X156441160Y-182175496D01*
X156441162Y-182175495D01*
X156441170Y-182175493D01*
X156643973Y-182077829D01*
X156826078Y-181945522D01*
X156981632Y-181782825D01*
X157105635Y-181594968D01*
X157194103Y-181387988D01*
X157244191Y-181168537D01*
X157254290Y-180943670D01*
X157224075Y-180720613D01*
X157154517Y-180506536D01*
X157047852Y-180308319D01*
X156907508Y-180132334D01*
X156737996Y-179984235D01*
X156544764Y-179868785D01*
X156426775Y-179824503D01*
X156334023Y-179789692D01*
X156112550Y-179749500D01*
X156112547Y-179749500D01*
X155943845Y-179749500D01*
X155905399Y-179752960D01*
X155775813Y-179764622D01*
X155775807Y-179764623D01*
X155558839Y-179824503D01*
X155558826Y-179824508D01*
X155356033Y-179922167D01*
X155356025Y-179922171D01*
X155173927Y-180054473D01*
X155173925Y-180054474D01*
X155018366Y-180217176D01*
X154894363Y-180405033D01*
X154805899Y-180612004D01*
X154805895Y-180612017D01*
X154755810Y-180831457D01*
X154755808Y-180831468D01*
X154750769Y-180943674D01*
X154745710Y-181056330D01*
X63249230Y-181056330D01*
X63254290Y-180943670D01*
X63224075Y-180720613D01*
X63154517Y-180506536D01*
X63047852Y-180308319D01*
X62907508Y-180132334D01*
X62737996Y-179984235D01*
X62544764Y-179868785D01*
X62426775Y-179824503D01*
X62334023Y-179789692D01*
X62112550Y-179749500D01*
X62112547Y-179749500D01*
X61943845Y-179749500D01*
X61905399Y-179752960D01*
X61775813Y-179764622D01*
X61775807Y-179764623D01*
X61558839Y-179824503D01*
X61558826Y-179824508D01*
X61356033Y-179922167D01*
X61356025Y-179922171D01*
X61173927Y-180054473D01*
X61173925Y-180054474D01*
X61018366Y-180217176D01*
X60894363Y-180405033D01*
X60805899Y-180612004D01*
X60805895Y-180612017D01*
X60755810Y-180831457D01*
X60755808Y-180831468D01*
X60750769Y-180943674D01*
X60745710Y-181056330D01*
X59436000Y-181056330D01*
X59436000Y-173689705D01*
X66005057Y-173689705D01*
X66024807Y-174003642D01*
X66024808Y-174003649D01*
X66083755Y-174312658D01*
X66180963Y-174611832D01*
X66180965Y-174611837D01*
X66314900Y-174896461D01*
X66314903Y-174896467D01*
X66483457Y-175162067D01*
X66483460Y-175162071D01*
X66574286Y-175271860D01*
X67212266Y-174633880D01*
X67375130Y-174824570D01*
X67565818Y-174987432D01*
X66924971Y-175628279D01*
X66924972Y-175628281D01*
X67167772Y-175804685D01*
X67167790Y-175804696D01*
X67443447Y-175956240D01*
X67443455Y-175956244D01*
X67735926Y-176072040D01*
X68040620Y-176150273D01*
X68040629Y-176150275D01*
X68352701Y-176189699D01*
X68352715Y-176189700D01*
X68667285Y-176189700D01*
X68667298Y-176189699D01*
X68979370Y-176150275D01*
X68979379Y-176150273D01*
X69284073Y-176072040D01*
X69576544Y-175956244D01*
X69576552Y-175956240D01*
X69852209Y-175804696D01*
X69852219Y-175804690D01*
X70095026Y-175628279D01*
X70095027Y-175628279D01*
X69454180Y-174987433D01*
X69644870Y-174824570D01*
X69807733Y-174633880D01*
X70445712Y-175271860D01*
X70536544Y-175162064D01*
X70705096Y-174896467D01*
X70705099Y-174896461D01*
X70839034Y-174611837D01*
X70839036Y-174611832D01*
X70936244Y-174312658D01*
X70995191Y-174003649D01*
X70995192Y-174003642D01*
X71014943Y-173689705D01*
X71014943Y-173689694D01*
X70995192Y-173375757D01*
X70995191Y-173375750D01*
X70936244Y-173066741D01*
X70839036Y-172767567D01*
X70839034Y-172767562D01*
X70705099Y-172482938D01*
X70705096Y-172482932D01*
X70569777Y-172269702D01*
X74165034Y-172269702D01*
X74184858Y-172496299D01*
X74184860Y-172496310D01*
X74243730Y-172716017D01*
X74243734Y-172716026D01*
X74339865Y-172922181D01*
X74339866Y-172922183D01*
X74390973Y-172995171D01*
X74390974Y-172995172D01*
X74986922Y-172399223D01*
X75010507Y-172479544D01*
X75088239Y-172600498D01*
X75196900Y-172694652D01*
X75327685Y-172754380D01*
X75337466Y-172755786D01*
X74744526Y-173348725D01*
X74744526Y-173348726D01*
X74817512Y-173399831D01*
X74817516Y-173399833D01*
X75023673Y-173495965D01*
X75023682Y-173495969D01*
X75243389Y-173554839D01*
X75243400Y-173554841D01*
X75469998Y-173574666D01*
X75470002Y-173574666D01*
X75696599Y-173554841D01*
X75696610Y-173554839D01*
X75916317Y-173495969D01*
X75916331Y-173495964D01*
X76122478Y-173399836D01*
X76195472Y-173348725D01*
X75602534Y-172755786D01*
X75612315Y-172754380D01*
X75743100Y-172694652D01*
X75851761Y-172600498D01*
X75929493Y-172479544D01*
X75953076Y-172399223D01*
X76549025Y-172995172D01*
X76600136Y-172922178D01*
X76696264Y-172716031D01*
X76696269Y-172716017D01*
X76734966Y-172571598D01*
X76771331Y-172511937D01*
X76834178Y-172481408D01*
X76903553Y-172489703D01*
X76957431Y-172534188D01*
X76974516Y-172571598D01*
X77013258Y-172716188D01*
X77013261Y-172716197D01*
X77109431Y-172922432D01*
X77109432Y-172922434D01*
X77239954Y-173108841D01*
X77400858Y-173269745D01*
X77458277Y-173309950D01*
X77501902Y-173364526D01*
X77509096Y-173434025D01*
X77477574Y-173496380D01*
X77474835Y-173499206D01*
X77185369Y-173788672D01*
X77124046Y-173822157D01*
X77086881Y-173824519D01*
X77081680Y-173824064D01*
X77062171Y-173822357D01*
X76855002Y-173804232D01*
X76854998Y-173804232D01*
X76628313Y-173824064D01*
X76628302Y-173824066D01*
X76408511Y-173882958D01*
X76408502Y-173882961D01*
X76202267Y-173979131D01*
X76202265Y-173979132D01*
X76015858Y-174109654D01*
X75854954Y-174270558D01*
X75724432Y-174456965D01*
X75724431Y-174456967D01*
X75628261Y-174663202D01*
X75628258Y-174663211D01*
X75569366Y-174883002D01*
X75569364Y-174883013D01*
X75549532Y-175109698D01*
X75549532Y-175109701D01*
X75569364Y-175336386D01*
X75569366Y-175336397D01*
X75628258Y-175556188D01*
X75628261Y-175556197D01*
X75724431Y-175762432D01*
X75724432Y-175762434D01*
X75854954Y-175948841D01*
X76015858Y-176109745D01*
X76015861Y-176109747D01*
X76202266Y-176240268D01*
X76408504Y-176336439D01*
X76628308Y-176395335D01*
X76790230Y-176409501D01*
X76854998Y-176415168D01*
X76855000Y-176415168D01*
X76855002Y-176415168D01*
X76911673Y-176410209D01*
X77081692Y-176395335D01*
X77301496Y-176336439D01*
X77507734Y-176240268D01*
X77694139Y-176109747D01*
X77855047Y-175948839D01*
X77985568Y-175762434D01*
X78081739Y-175556196D01*
X78120225Y-175412562D01*
X78156590Y-175352902D01*
X78219437Y-175322373D01*
X78288812Y-175330668D01*
X78342690Y-175375153D01*
X78359775Y-175412563D01*
X78398258Y-175556188D01*
X78398261Y-175556197D01*
X78494431Y-175762432D01*
X78494432Y-175762434D01*
X78624954Y-175948841D01*
X78785858Y-176109745D01*
X78785861Y-176109747D01*
X78972266Y-176240268D01*
X79178504Y-176336439D01*
X79398308Y-176395335D01*
X79560230Y-176409501D01*
X79624998Y-176415168D01*
X79625000Y-176415168D01*
X79625002Y-176415168D01*
X79681673Y-176410209D01*
X79851692Y-176395335D01*
X80071496Y-176336439D01*
X80277734Y-176240268D01*
X80464139Y-176109747D01*
X80625047Y-175948839D01*
X80755568Y-175762434D01*
X80851739Y-175556196D01*
X80890225Y-175412562D01*
X80926590Y-175352902D01*
X80989437Y-175322373D01*
X81058812Y-175330668D01*
X81112690Y-175375153D01*
X81129775Y-175412563D01*
X81168258Y-175556188D01*
X81168261Y-175556197D01*
X81264431Y-175762432D01*
X81264432Y-175762434D01*
X81394954Y-175948841D01*
X81555858Y-176109745D01*
X81555861Y-176109747D01*
X81742266Y-176240268D01*
X81948504Y-176336439D01*
X82168308Y-176395335D01*
X82330230Y-176409501D01*
X82394998Y-176415168D01*
X82395000Y-176415168D01*
X82395002Y-176415168D01*
X82451673Y-176410209D01*
X82621692Y-176395335D01*
X82841496Y-176336439D01*
X83047734Y-176240268D01*
X83234139Y-176109747D01*
X83395047Y-175948839D01*
X83525568Y-175762434D01*
X83621739Y-175556196D01*
X83660484Y-175411595D01*
X83696847Y-175351938D01*
X83759694Y-175321408D01*
X83829070Y-175329702D01*
X83882948Y-175374187D01*
X83900033Y-175411597D01*
X83938731Y-175556019D01*
X83938734Y-175556026D01*
X84034865Y-175762181D01*
X84034866Y-175762183D01*
X84085973Y-175835171D01*
X84085973Y-175835172D01*
X84681922Y-175239222D01*
X84705507Y-175319544D01*
X84783239Y-175440498D01*
X84891900Y-175534652D01*
X85022685Y-175594380D01*
X85032466Y-175595786D01*
X84439526Y-176188725D01*
X84439526Y-176188726D01*
X84512512Y-176239831D01*
X84512516Y-176239833D01*
X84718673Y-176335965D01*
X84718682Y-176335969D01*
X84938389Y-176394839D01*
X84938400Y-176394841D01*
X85164998Y-176414666D01*
X85165002Y-176414666D01*
X85391599Y-176394841D01*
X85391610Y-176394839D01*
X85611317Y-176335969D01*
X85611331Y-176335964D01*
X85817478Y-176239836D01*
X85890472Y-176188725D01*
X85297534Y-175595786D01*
X85307315Y-175594380D01*
X85438100Y-175534652D01*
X85546761Y-175440498D01*
X85624493Y-175319544D01*
X85648076Y-175239223D01*
X86244025Y-175835172D01*
X86295136Y-175762178D01*
X86391264Y-175556031D01*
X86391269Y-175556017D01*
X86450139Y-175336310D01*
X86450141Y-175336299D01*
X86469966Y-175109702D01*
X86469966Y-175109697D01*
X86450141Y-174883100D01*
X86450139Y-174883089D01*
X86391269Y-174663382D01*
X86391265Y-174663373D01*
X86295134Y-174457217D01*
X86185345Y-174300424D01*
X86163018Y-174234218D01*
X86180028Y-174166450D01*
X86230976Y-174118637D01*
X86286920Y-174105300D01*
X87798947Y-174105300D01*
X87803511Y-174104174D01*
X87834861Y-174096447D01*
X87842187Y-174095104D01*
X87878909Y-174090646D01*
X87913478Y-174077535D01*
X87920633Y-174075306D01*
X87956523Y-174066460D01*
X87989264Y-174049275D01*
X87996076Y-174046209D01*
X88030655Y-174033096D01*
X88047553Y-174021431D01*
X88061081Y-174012095D01*
X88067490Y-174008219D01*
X88100226Y-173991039D01*
X88127914Y-173966507D01*
X88133784Y-173961909D01*
X88164219Y-173940903D01*
X88188737Y-173913226D01*
X88194026Y-173907937D01*
X88221703Y-173883419D01*
X88242709Y-173852984D01*
X88247307Y-173847114D01*
X88271839Y-173819426D01*
X88289019Y-173786690D01*
X88292895Y-173780281D01*
X88302231Y-173766753D01*
X88313896Y-173749855D01*
X88327009Y-173715276D01*
X88330075Y-173708464D01*
X88347260Y-173675723D01*
X88356107Y-173639826D01*
X88358331Y-173632688D01*
X88364289Y-173616978D01*
X88369469Y-173603324D01*
X88411649Y-173547623D01*
X88477248Y-173523569D01*
X88485409Y-173523300D01*
X90349900Y-173523300D01*
X90416939Y-173542985D01*
X90462694Y-173595789D01*
X90473900Y-173647300D01*
X90473900Y-174647942D01*
X90473787Y-174651686D01*
X90470220Y-174710643D01*
X90470221Y-174710647D01*
X90480867Y-174768741D01*
X90481430Y-174772444D01*
X90488553Y-174831106D01*
X90488556Y-174831118D01*
X90491799Y-174839669D01*
X90497824Y-174861277D01*
X90498781Y-174866497D01*
X90499475Y-174870282D01*
X90505205Y-174883013D01*
X90523717Y-174924148D01*
X90525149Y-174927606D01*
X90546104Y-174982855D01*
X90546106Y-174982860D01*
X90551300Y-174990384D01*
X90562322Y-175009925D01*
X90566080Y-175018274D01*
X90566081Y-175018276D01*
X90566083Y-175018278D01*
X90602517Y-175064782D01*
X90604732Y-175067792D01*
X90638297Y-175116419D01*
X90682533Y-175155609D01*
X90685223Y-175158141D01*
X91715806Y-176188725D01*
X92041038Y-176513957D01*
X92043606Y-176516684D01*
X92082776Y-176560898D01*
X92082777Y-176560899D01*
X92082781Y-176560903D01*
X92131402Y-176594464D01*
X92134392Y-176596663D01*
X92156160Y-176613718D01*
X92180919Y-176633116D01*
X92180928Y-176633121D01*
X92189266Y-176636874D01*
X92208816Y-176647900D01*
X92216338Y-176653092D01*
X92216343Y-176653095D01*
X92216344Y-176653095D01*
X92216345Y-176653096D01*
X92271581Y-176674044D01*
X92275040Y-176675477D01*
X92328916Y-176699724D01*
X92328918Y-176699725D01*
X92337911Y-176701372D01*
X92359534Y-176707400D01*
X92368091Y-176710646D01*
X92426755Y-176717768D01*
X92430451Y-176718331D01*
X92488547Y-176728978D01*
X92488549Y-176728978D01*
X92488553Y-176728979D01*
X92488553Y-176728978D01*
X92488554Y-176728979D01*
X92547513Y-176725413D01*
X92551257Y-176725300D01*
X94468743Y-176725300D01*
X94472487Y-176725413D01*
X94531445Y-176728979D01*
X94531445Y-176728978D01*
X94531447Y-176728979D01*
X94576602Y-176720703D01*
X94589550Y-176718331D01*
X94593253Y-176717767D01*
X94651909Y-176710646D01*
X94660459Y-176707402D01*
X94682086Y-176701373D01*
X94691082Y-176699725D01*
X94744974Y-176675469D01*
X94748404Y-176674049D01*
X94803655Y-176653096D01*
X94811179Y-176647902D01*
X94830731Y-176636874D01*
X94839076Y-176633119D01*
X94885595Y-176596671D01*
X94888596Y-176594464D01*
X94888609Y-176594455D01*
X94937219Y-176560903D01*
X94976424Y-176516648D01*
X94978943Y-176513973D01*
X96334789Y-175158128D01*
X96337485Y-175155592D01*
X96337487Y-175155590D01*
X96381703Y-175116419D01*
X96415280Y-175067773D01*
X96417462Y-175064808D01*
X96453919Y-175018276D01*
X96457674Y-175009931D01*
X96468702Y-174990379D01*
X96473896Y-174982855D01*
X96494849Y-174927604D01*
X96496269Y-174924174D01*
X96520525Y-174870282D01*
X96522173Y-174861286D01*
X96528204Y-174839655D01*
X96531446Y-174831109D01*
X96538569Y-174772444D01*
X96539131Y-174768750D01*
X96543638Y-174744154D01*
X96549779Y-174710647D01*
X96546909Y-174663202D01*
X96546213Y-174651686D01*
X96546100Y-174647942D01*
X96546100Y-173647300D01*
X96565785Y-173580261D01*
X96618589Y-173534506D01*
X96670100Y-173523300D01*
X98994900Y-173523300D01*
X99061939Y-173542985D01*
X99107694Y-173595789D01*
X99118900Y-173647300D01*
X99118900Y-174647942D01*
X99118787Y-174651686D01*
X99115220Y-174710643D01*
X99115221Y-174710647D01*
X99125867Y-174768741D01*
X99126430Y-174772444D01*
X99133553Y-174831106D01*
X99133556Y-174831118D01*
X99136799Y-174839669D01*
X99142824Y-174861277D01*
X99143781Y-174866497D01*
X99144475Y-174870282D01*
X99150205Y-174883013D01*
X99168717Y-174924148D01*
X99170149Y-174927606D01*
X99191104Y-174982855D01*
X99191106Y-174982860D01*
X99196300Y-174990384D01*
X99207322Y-175009925D01*
X99211080Y-175018274D01*
X99211081Y-175018276D01*
X99211083Y-175018278D01*
X99247517Y-175064782D01*
X99249732Y-175067792D01*
X99283297Y-175116419D01*
X99327533Y-175155609D01*
X99330223Y-175158141D01*
X100360806Y-176188725D01*
X100686038Y-176513957D01*
X100688606Y-176516684D01*
X100727776Y-176560898D01*
X100727777Y-176560899D01*
X100727781Y-176560903D01*
X100776402Y-176594464D01*
X100779392Y-176596663D01*
X100801160Y-176613718D01*
X100825919Y-176633116D01*
X100825928Y-176633121D01*
X100834266Y-176636874D01*
X100853816Y-176647900D01*
X100861338Y-176653092D01*
X100861343Y-176653095D01*
X100861344Y-176653095D01*
X100861345Y-176653096D01*
X100916581Y-176674044D01*
X100920040Y-176675477D01*
X100973916Y-176699724D01*
X100973918Y-176699725D01*
X100982911Y-176701372D01*
X101004534Y-176707400D01*
X101013091Y-176710646D01*
X101071755Y-176717768D01*
X101075451Y-176718331D01*
X101133547Y-176728978D01*
X101133549Y-176728978D01*
X101133553Y-176728979D01*
X101133553Y-176728978D01*
X101133554Y-176728979D01*
X101192513Y-176725413D01*
X101196257Y-176725300D01*
X103113943Y-176725300D01*
X103117687Y-176725413D01*
X103176645Y-176728979D01*
X103176645Y-176728978D01*
X103176647Y-176728979D01*
X103221802Y-176720703D01*
X103234750Y-176718331D01*
X103238453Y-176717767D01*
X103297109Y-176710646D01*
X103305659Y-176707402D01*
X103327286Y-176701373D01*
X103336282Y-176699725D01*
X103390174Y-176675469D01*
X103393604Y-176674049D01*
X103448855Y-176653096D01*
X103456379Y-176647902D01*
X103475931Y-176636874D01*
X103484276Y-176633119D01*
X103530795Y-176596671D01*
X103533796Y-176594464D01*
X103533809Y-176594455D01*
X103582419Y-176560903D01*
X103621624Y-176516648D01*
X103624143Y-176513973D01*
X104979989Y-175158128D01*
X104982685Y-175155592D01*
X104982687Y-175155590D01*
X105026903Y-175116419D01*
X105060480Y-175067773D01*
X105062662Y-175064808D01*
X105099119Y-175018276D01*
X105102874Y-175009931D01*
X105113902Y-174990379D01*
X105119096Y-174982855D01*
X105140049Y-174927604D01*
X105141469Y-174924174D01*
X105165725Y-174870282D01*
X105167373Y-174861286D01*
X105173404Y-174839655D01*
X105176646Y-174831109D01*
X105183769Y-174772444D01*
X105184331Y-174768750D01*
X105188838Y-174744154D01*
X105194979Y-174710647D01*
X105192109Y-174663202D01*
X105191413Y-174651686D01*
X105191300Y-174647942D01*
X105191300Y-173647300D01*
X105210985Y-173580261D01*
X105263789Y-173534506D01*
X105315300Y-173523300D01*
X107720820Y-173523300D01*
X107787859Y-173542985D01*
X107808500Y-173559618D01*
X108142854Y-173893973D01*
X108145406Y-173896684D01*
X108184576Y-173940898D01*
X108184577Y-173940899D01*
X108184581Y-173940903D01*
X108233202Y-173974464D01*
X108236192Y-173976663D01*
X108254540Y-173991038D01*
X108282719Y-174013116D01*
X108282728Y-174013121D01*
X108291066Y-174016874D01*
X108310616Y-174027900D01*
X108318138Y-174033092D01*
X108318143Y-174033095D01*
X108318144Y-174033095D01*
X108318145Y-174033096D01*
X108373387Y-174054046D01*
X108376840Y-174055477D01*
X108401244Y-174066460D01*
X108430718Y-174079725D01*
X108439711Y-174081372D01*
X108461334Y-174087400D01*
X108469891Y-174090646D01*
X108495189Y-174093717D01*
X108528546Y-174097768D01*
X108532243Y-174098330D01*
X108590352Y-174108979D01*
X108590353Y-174108978D01*
X108590354Y-174108979D01*
X108649312Y-174105413D01*
X108653056Y-174105300D01*
X109377468Y-174105300D01*
X109444507Y-174124985D01*
X109490262Y-174177789D01*
X109500206Y-174246947D01*
X109479043Y-174300423D01*
X109369432Y-174456965D01*
X109369431Y-174456967D01*
X109273261Y-174663202D01*
X109273258Y-174663211D01*
X109214366Y-174883002D01*
X109214364Y-174883013D01*
X109194532Y-175109698D01*
X109194532Y-175109701D01*
X109214364Y-175336386D01*
X109214366Y-175336397D01*
X109273258Y-175556188D01*
X109273261Y-175556197D01*
X109369431Y-175762432D01*
X109369432Y-175762434D01*
X109499954Y-175948841D01*
X109660858Y-176109745D01*
X109660861Y-176109747D01*
X109847266Y-176240268D01*
X110053504Y-176336439D01*
X110273308Y-176395335D01*
X110435230Y-176409501D01*
X110499998Y-176415168D01*
X110500000Y-176415168D01*
X110500002Y-176415168D01*
X110556673Y-176410209D01*
X110726692Y-176395335D01*
X110946496Y-176336439D01*
X111152734Y-176240268D01*
X111339139Y-176109747D01*
X111500047Y-175948839D01*
X111630568Y-175762434D01*
X111726739Y-175556196D01*
X111765225Y-175412562D01*
X111801590Y-175352902D01*
X111864437Y-175322373D01*
X111933812Y-175330668D01*
X111987690Y-175375153D01*
X112004775Y-175412563D01*
X112043258Y-175556188D01*
X112043261Y-175556197D01*
X112139431Y-175762432D01*
X112139432Y-175762434D01*
X112269954Y-175948841D01*
X112430858Y-176109745D01*
X112430861Y-176109747D01*
X112617266Y-176240268D01*
X112823504Y-176336439D01*
X113043308Y-176395335D01*
X113205230Y-176409501D01*
X113269998Y-176415168D01*
X113270000Y-176415168D01*
X113270002Y-176415168D01*
X113326673Y-176410209D01*
X113496692Y-176395335D01*
X113716496Y-176336439D01*
X113922734Y-176240268D01*
X114109139Y-176109747D01*
X114270047Y-175948839D01*
X114400568Y-175762434D01*
X114496739Y-175556196D01*
X114535225Y-175412562D01*
X114571590Y-175352902D01*
X114634437Y-175322373D01*
X114703812Y-175330668D01*
X114757690Y-175375153D01*
X114774775Y-175412563D01*
X114813258Y-175556188D01*
X114813261Y-175556197D01*
X114909431Y-175762432D01*
X114909432Y-175762434D01*
X115039954Y-175948841D01*
X115200858Y-176109745D01*
X115200861Y-176109747D01*
X115387266Y-176240268D01*
X115593504Y-176336439D01*
X115813308Y-176395335D01*
X115975230Y-176409501D01*
X116039998Y-176415168D01*
X116040000Y-176415168D01*
X116040002Y-176415168D01*
X116096673Y-176410209D01*
X116266692Y-176395335D01*
X116486496Y-176336439D01*
X116692734Y-176240268D01*
X116879139Y-176109747D01*
X117040047Y-175948839D01*
X117170568Y-175762434D01*
X117266739Y-175556196D01*
X117305484Y-175411595D01*
X117341847Y-175351938D01*
X117404694Y-175321408D01*
X117474070Y-175329702D01*
X117527948Y-175374187D01*
X117545033Y-175411597D01*
X117583731Y-175556019D01*
X117583734Y-175556026D01*
X117679865Y-175762181D01*
X117679866Y-175762183D01*
X117730973Y-175835171D01*
X117730974Y-175835172D01*
X118326922Y-175239223D01*
X118350507Y-175319544D01*
X118428239Y-175440498D01*
X118536900Y-175534652D01*
X118667685Y-175594380D01*
X118677466Y-175595786D01*
X118084526Y-176188725D01*
X118084526Y-176188726D01*
X118157512Y-176239831D01*
X118157516Y-176239833D01*
X118363673Y-176335965D01*
X118363682Y-176335969D01*
X118583389Y-176394839D01*
X118583400Y-176394841D01*
X118809998Y-176414666D01*
X118810002Y-176414666D01*
X119036599Y-176394841D01*
X119036610Y-176394839D01*
X119256317Y-176335969D01*
X119256331Y-176335964D01*
X119462478Y-176239836D01*
X119535472Y-176188725D01*
X118942534Y-175595786D01*
X118952315Y-175594380D01*
X119083100Y-175534652D01*
X119191761Y-175440498D01*
X119269493Y-175319544D01*
X119293076Y-175239223D01*
X119889025Y-175835172D01*
X119940136Y-175762178D01*
X120036264Y-175556031D01*
X120036269Y-175556017D01*
X120095139Y-175336310D01*
X120095141Y-175336299D01*
X120114966Y-175109702D01*
X120114966Y-175109697D01*
X120095141Y-174883100D01*
X120095139Y-174883089D01*
X120036269Y-174663382D01*
X120036265Y-174663373D01*
X119940133Y-174457216D01*
X119940131Y-174457212D01*
X119889026Y-174384226D01*
X119889025Y-174384226D01*
X119293076Y-174980175D01*
X119269493Y-174899856D01*
X119191761Y-174778902D01*
X119083100Y-174684748D01*
X118952315Y-174625020D01*
X118942533Y-174623613D01*
X119535472Y-174030674D01*
X119535471Y-174030673D01*
X119462483Y-173979566D01*
X119462481Y-173979565D01*
X119256326Y-173883434D01*
X119256317Y-173883430D01*
X119036610Y-173824560D01*
X119036599Y-173824558D01*
X118810002Y-173804734D01*
X118809998Y-173804734D01*
X118583400Y-173824558D01*
X118583389Y-173824560D01*
X118363682Y-173883430D01*
X118363673Y-173883434D01*
X118157513Y-173979568D01*
X118084527Y-174030672D01*
X118084526Y-174030673D01*
X118677467Y-174623613D01*
X118667685Y-174625020D01*
X118536900Y-174684748D01*
X118428239Y-174778902D01*
X118350507Y-174899856D01*
X118326923Y-174980176D01*
X117730973Y-174384226D01*
X117730972Y-174384227D01*
X117679868Y-174457213D01*
X117583734Y-174663373D01*
X117583731Y-174663380D01*
X117545033Y-174807802D01*
X117508667Y-174867462D01*
X117445820Y-174897991D01*
X117376445Y-174889696D01*
X117322567Y-174845210D01*
X117305484Y-174807803D01*
X117266739Y-174663204D01*
X117170568Y-174456966D01*
X117040047Y-174270561D01*
X117040045Y-174270558D01*
X116879141Y-174109654D01*
X116692734Y-173979132D01*
X116692732Y-173979131D01*
X116486497Y-173882961D01*
X116486488Y-173882958D01*
X116266697Y-173824066D01*
X116266693Y-173824065D01*
X116266692Y-173824065D01*
X116266691Y-173824064D01*
X116266686Y-173824064D01*
X116040002Y-173804232D01*
X116039999Y-173804232D01*
X115813313Y-173824064D01*
X115813307Y-173824065D01*
X115805689Y-173826106D01*
X115792844Y-173829547D01*
X115722996Y-173827883D01*
X115673048Y-173797426D01*
X115660767Y-173785138D01*
X115565391Y-173689705D01*
X124650057Y-173689705D01*
X124669807Y-174003642D01*
X124669808Y-174003649D01*
X124728755Y-174312658D01*
X124825963Y-174611832D01*
X124825965Y-174611837D01*
X124959900Y-174896461D01*
X124959903Y-174896467D01*
X125128457Y-175162067D01*
X125128460Y-175162071D01*
X125219286Y-175271860D01*
X125857266Y-174633880D01*
X126020130Y-174824570D01*
X126210818Y-174987432D01*
X125569971Y-175628279D01*
X125569972Y-175628281D01*
X125812772Y-175804685D01*
X125812790Y-175804696D01*
X126088447Y-175956240D01*
X126088455Y-175956244D01*
X126380926Y-176072040D01*
X126685620Y-176150273D01*
X126685629Y-176150275D01*
X126997701Y-176189699D01*
X126997715Y-176189700D01*
X127312285Y-176189700D01*
X127312298Y-176189699D01*
X127624370Y-176150275D01*
X127624379Y-176150273D01*
X127929073Y-176072040D01*
X128221544Y-175956244D01*
X128221552Y-175956240D01*
X128497209Y-175804696D01*
X128497219Y-175804690D01*
X128740026Y-175628279D01*
X128740027Y-175628279D01*
X128099180Y-174987433D01*
X128289870Y-174824570D01*
X128452733Y-174633881D01*
X129090712Y-175271860D01*
X129181544Y-175162064D01*
X129350096Y-174896467D01*
X129350099Y-174896461D01*
X129484034Y-174611837D01*
X129484036Y-174611832D01*
X129581244Y-174312658D01*
X129640191Y-174003649D01*
X129640192Y-174003642D01*
X129659943Y-173689705D01*
X129659943Y-173689694D01*
X129640192Y-173375757D01*
X129640191Y-173375750D01*
X129581244Y-173066741D01*
X129484036Y-172767567D01*
X129484034Y-172767562D01*
X129350099Y-172482938D01*
X129350096Y-172482932D01*
X129181542Y-172217332D01*
X129181539Y-172217328D01*
X129090712Y-172107538D01*
X128452732Y-172745518D01*
X128289870Y-172554830D01*
X128099180Y-172391966D01*
X128740027Y-171751119D01*
X128740026Y-171751117D01*
X128497227Y-171574714D01*
X128497209Y-171574703D01*
X128221552Y-171423159D01*
X128221544Y-171423155D01*
X127929073Y-171307359D01*
X127624379Y-171229126D01*
X127624370Y-171229124D01*
X127312298Y-171189700D01*
X126997701Y-171189700D01*
X126685629Y-171229124D01*
X126685620Y-171229126D01*
X126380926Y-171307359D01*
X126088455Y-171423155D01*
X126088447Y-171423159D01*
X125812787Y-171574704D01*
X125812782Y-171574707D01*
X125569972Y-171751118D01*
X125569971Y-171751119D01*
X126210819Y-172391966D01*
X126020130Y-172554830D01*
X125857266Y-172745518D01*
X125219286Y-172107538D01*
X125219285Y-172107538D01*
X125128459Y-172217329D01*
X125128457Y-172217332D01*
X124959903Y-172482932D01*
X124959900Y-172482938D01*
X124825965Y-172767562D01*
X124825963Y-172767567D01*
X124728755Y-173066741D01*
X124669808Y-173375750D01*
X124669807Y-173375757D01*
X124650057Y-173689694D01*
X124650057Y-173689705D01*
X115565391Y-173689705D01*
X115423394Y-173547623D01*
X115393212Y-173517423D01*
X115359745Y-173456090D01*
X115364750Y-173386400D01*
X115378819Y-173367616D01*
X115380472Y-173348725D01*
X114787533Y-172755786D01*
X114797315Y-172754380D01*
X114928100Y-172694652D01*
X115036761Y-172600498D01*
X115114493Y-172479544D01*
X115138076Y-172399223D01*
X115150159Y-172411306D01*
X115178420Y-172455017D01*
X115182464Y-172465678D01*
X115184690Y-172472823D01*
X115193540Y-172508723D01*
X115206904Y-172534187D01*
X115210718Y-172541453D01*
X115213793Y-172548285D01*
X115226903Y-172582854D01*
X115247901Y-172613276D01*
X115251776Y-172619686D01*
X115268958Y-172652423D01*
X115268961Y-172652427D01*
X115293477Y-172680100D01*
X115298099Y-172685999D01*
X115319093Y-172716414D01*
X115319097Y-172716419D01*
X115346763Y-172740929D01*
X115352062Y-172746227D01*
X115371971Y-172768700D01*
X115376581Y-172773903D01*
X115400813Y-172790629D01*
X115406995Y-172794896D01*
X115412894Y-172799518D01*
X115440568Y-172824035D01*
X115440571Y-172824036D01*
X115440574Y-172824039D01*
X115473320Y-172841225D01*
X115479716Y-172845093D01*
X115510145Y-172866096D01*
X115544713Y-172879205D01*
X115551534Y-172882274D01*
X115584277Y-172899460D01*
X115620175Y-172908308D01*
X115627317Y-172910534D01*
X115637994Y-172914583D01*
X115681694Y-172942840D01*
X115734026Y-172995172D01*
X115736825Y-172991176D01*
X115791402Y-172947551D01*
X115838399Y-172938300D01*
X116240991Y-172938300D01*
X116308030Y-172957985D01*
X116342564Y-172991175D01*
X116346907Y-172997377D01*
X116424954Y-173108841D01*
X116585858Y-173269745D01*
X116585861Y-173269747D01*
X116772266Y-173400268D01*
X116978504Y-173496439D01*
X116978509Y-173496440D01*
X116978511Y-173496441D01*
X117031415Y-173510616D01*
X117198308Y-173555335D01*
X117360230Y-173569501D01*
X117424998Y-173575168D01*
X117425000Y-173575168D01*
X117425002Y-173575168D01*
X117481807Y-173570198D01*
X117651692Y-173555335D01*
X117871496Y-173496439D01*
X118077734Y-173400268D01*
X118264139Y-173269747D01*
X118425047Y-173108839D01*
X118555568Y-172922434D01*
X118651739Y-172716196D01*
X118651741Y-172716188D01*
X118653593Y-172711102D01*
X118655689Y-172711865D01*
X118687032Y-172660370D01*
X118749859Y-172629801D01*
X118819240Y-172638052D01*
X118873146Y-172682503D01*
X118894463Y-172749041D01*
X118894500Y-172752071D01*
X118894500Y-173117569D01*
X118894501Y-173117576D01*
X118900908Y-173177183D01*
X118951202Y-173312028D01*
X118951206Y-173312035D01*
X119037452Y-173427244D01*
X119037455Y-173427247D01*
X119152664Y-173513493D01*
X119152671Y-173513497D01*
X119287517Y-173563791D01*
X119287516Y-173563791D01*
X119294444Y-173564535D01*
X119347127Y-173570200D01*
X121042872Y-173570199D01*
X121102483Y-173563791D01*
X121237331Y-173513496D01*
X121352546Y-173427246D01*
X121438796Y-173312031D01*
X121489091Y-173177183D01*
X121495500Y-173117573D01*
X121495499Y-171421828D01*
X121489091Y-171362217D01*
X121485757Y-171353279D01*
X121438797Y-171227371D01*
X121438793Y-171227364D01*
X121352547Y-171112155D01*
X121352544Y-171112152D01*
X121237335Y-171025906D01*
X121237328Y-171025902D01*
X121102482Y-170975608D01*
X121102483Y-170975608D01*
X121042883Y-170969201D01*
X121042881Y-170969200D01*
X121042873Y-170969200D01*
X121042864Y-170969200D01*
X119347129Y-170969200D01*
X119347123Y-170969201D01*
X119287516Y-170975608D01*
X119152671Y-171025902D01*
X119152664Y-171025906D01*
X119037455Y-171112152D01*
X119037452Y-171112155D01*
X118951206Y-171227364D01*
X118951202Y-171227371D01*
X118900908Y-171362217D01*
X118895291Y-171414470D01*
X118894501Y-171421823D01*
X118894500Y-171421835D01*
X118894500Y-171787326D01*
X118874815Y-171854365D01*
X118822011Y-171900120D01*
X118752853Y-171910064D01*
X118689297Y-171881039D01*
X118655059Y-171827764D01*
X118653593Y-171828298D01*
X118651738Y-171823202D01*
X118627069Y-171770300D01*
X118555568Y-171616966D01*
X118425047Y-171430561D01*
X118425045Y-171430558D01*
X118264141Y-171269654D01*
X118077734Y-171139132D01*
X118077732Y-171139131D01*
X117871497Y-171042961D01*
X117871488Y-171042958D01*
X117651697Y-170984066D01*
X117651693Y-170984065D01*
X117651692Y-170984065D01*
X117651691Y-170984064D01*
X117651686Y-170984064D01*
X117425002Y-170964232D01*
X117424998Y-170964232D01*
X117198313Y-170984064D01*
X117198302Y-170984066D01*
X116978511Y-171042958D01*
X116978502Y-171042961D01*
X116772267Y-171139131D01*
X116772265Y-171139132D01*
X116585862Y-171269651D01*
X116508845Y-171346668D01*
X116447521Y-171380152D01*
X116377830Y-171375167D01*
X116332782Y-171344254D01*
X116332517Y-171344554D01*
X116330104Y-171342416D01*
X116328346Y-171341210D01*
X116326900Y-171339578D01*
X116282684Y-171300406D01*
X116279957Y-171297838D01*
X116121248Y-171139129D01*
X115627140Y-170645022D01*
X115624610Y-170642334D01*
X115585419Y-170598097D01*
X115536792Y-170564532D01*
X115533785Y-170562319D01*
X115487276Y-170525881D01*
X115487274Y-170525880D01*
X115478925Y-170522122D01*
X115459384Y-170511100D01*
X115451860Y-170505906D01*
X115451855Y-170505904D01*
X115396606Y-170484949D01*
X115393148Y-170483517D01*
X115357018Y-170467257D01*
X115339282Y-170459275D01*
X115339280Y-170459274D01*
X115339279Y-170459274D01*
X115330277Y-170457624D01*
X115308669Y-170451599D01*
X115300118Y-170448356D01*
X115300106Y-170448353D01*
X115241444Y-170441230D01*
X115237749Y-170440668D01*
X115212614Y-170436062D01*
X115179649Y-170430021D01*
X115179644Y-170430020D01*
X115120687Y-170433587D01*
X115116943Y-170433700D01*
X114883578Y-170433700D01*
X114816539Y-170414015D01*
X114770784Y-170361211D01*
X114761610Y-170332054D01*
X114756331Y-170303252D01*
X114755767Y-170299546D01*
X114751238Y-170262246D01*
X114748646Y-170240891D01*
X114745400Y-170232334D01*
X114739372Y-170210711D01*
X114737725Y-170201718D01*
X114737724Y-170201716D01*
X114713477Y-170147840D01*
X114712043Y-170144379D01*
X114691095Y-170089143D01*
X114691092Y-170089138D01*
X114685900Y-170081616D01*
X114674874Y-170062066D01*
X114671121Y-170053728D01*
X114671116Y-170053719D01*
X114651718Y-170028960D01*
X114634663Y-170007192D01*
X114632464Y-170004202D01*
X114598903Y-169955581D01*
X114598900Y-169955578D01*
X114554683Y-169916405D01*
X114551972Y-169913854D01*
X114324939Y-169686820D01*
X114324938Y-169686819D01*
X114210181Y-169572062D01*
X114210179Y-169572061D01*
X114178540Y-169552934D01*
X114172373Y-169548677D01*
X114143275Y-169525880D01*
X114123591Y-169517021D01*
X114109557Y-169510705D01*
X114102936Y-169507230D01*
X114071293Y-169488102D01*
X114071291Y-169488101D01*
X114035988Y-169477098D01*
X114028986Y-169474443D01*
X113995285Y-169459276D01*
X113995273Y-169459272D01*
X113958920Y-169452610D01*
X113951647Y-169450818D01*
X113916352Y-169439819D01*
X113916346Y-169439818D01*
X113879439Y-169437585D01*
X113872002Y-169436682D01*
X113835651Y-169430021D01*
X113835643Y-169430020D01*
X113798746Y-169432252D01*
X113791254Y-169432252D01*
X113754356Y-169430020D01*
X113754345Y-169430021D01*
X113717995Y-169436682D01*
X113710559Y-169437585D01*
X113673652Y-169439818D01*
X113673650Y-169439819D01*
X113638346Y-169450819D01*
X113631074Y-169452611D01*
X113594720Y-169459273D01*
X113561004Y-169474447D01*
X113554001Y-169477103D01*
X113518710Y-169488100D01*
X113518701Y-169488105D01*
X113487068Y-169507226D01*
X113480437Y-169510706D01*
X113446726Y-169525879D01*
X113446724Y-169525880D01*
X113417613Y-169548685D01*
X113411451Y-169552938D01*
X113379820Y-169572061D01*
X113379816Y-169572064D01*
X113365419Y-169586462D01*
X113351022Y-169600859D01*
X113307267Y-169644613D01*
X113282679Y-169669201D01*
X113221355Y-169702685D01*
X113151664Y-169697699D01*
X113107319Y-169669200D01*
X113010181Y-169572062D01*
X113010179Y-169572061D01*
X112978540Y-169552934D01*
X112972373Y-169548677D01*
X112943275Y-169525880D01*
X112923591Y-169517021D01*
X112909557Y-169510705D01*
X112902936Y-169507230D01*
X112871293Y-169488102D01*
X112871291Y-169488101D01*
X112835988Y-169477098D01*
X112828986Y-169474443D01*
X112795285Y-169459276D01*
X112795273Y-169459272D01*
X112758920Y-169452610D01*
X112751647Y-169450818D01*
X112716352Y-169439819D01*
X112716346Y-169439818D01*
X112679439Y-169437585D01*
X112672002Y-169436682D01*
X112635651Y-169430021D01*
X112635643Y-169430020D01*
X112598746Y-169432252D01*
X112591254Y-169432252D01*
X112554356Y-169430020D01*
X112554345Y-169430021D01*
X112517995Y-169436682D01*
X112510559Y-169437585D01*
X112473652Y-169439818D01*
X112473650Y-169439819D01*
X112438346Y-169450819D01*
X112431074Y-169452611D01*
X112394720Y-169459273D01*
X112361004Y-169474447D01*
X112354001Y-169477103D01*
X112318710Y-169488100D01*
X112318701Y-169488105D01*
X112287068Y-169507226D01*
X112280437Y-169510706D01*
X112246726Y-169525879D01*
X112246724Y-169525880D01*
X112217613Y-169548685D01*
X112211451Y-169552938D01*
X112179820Y-169572061D01*
X112179816Y-169572064D01*
X112165419Y-169586462D01*
X112151022Y-169600859D01*
X112107267Y-169644613D01*
X112082679Y-169669201D01*
X112021355Y-169702685D01*
X111951664Y-169697699D01*
X111907319Y-169669200D01*
X111810181Y-169572062D01*
X111810179Y-169572061D01*
X111778540Y-169552934D01*
X111772373Y-169548677D01*
X111743275Y-169525880D01*
X111723591Y-169517021D01*
X111709557Y-169510705D01*
X111702936Y-169507230D01*
X111671293Y-169488102D01*
X111671291Y-169488101D01*
X111635988Y-169477098D01*
X111628986Y-169474443D01*
X111595285Y-169459276D01*
X111595273Y-169459272D01*
X111558920Y-169452610D01*
X111551647Y-169450818D01*
X111516352Y-169439819D01*
X111516346Y-169439818D01*
X111479439Y-169437585D01*
X111472002Y-169436682D01*
X111435651Y-169430021D01*
X111435643Y-169430020D01*
X111398746Y-169432252D01*
X111391254Y-169432252D01*
X111354356Y-169430020D01*
X111354345Y-169430021D01*
X111317995Y-169436682D01*
X111310559Y-169437585D01*
X111273652Y-169439818D01*
X111273650Y-169439819D01*
X111238346Y-169450819D01*
X111231074Y-169452611D01*
X111194720Y-169459273D01*
X111161004Y-169474447D01*
X111154001Y-169477103D01*
X111118710Y-169488100D01*
X111118701Y-169488105D01*
X111087068Y-169507226D01*
X111080437Y-169510706D01*
X111046726Y-169525879D01*
X111046724Y-169525880D01*
X111017613Y-169548685D01*
X111011451Y-169552938D01*
X110979820Y-169572061D01*
X110979815Y-169572065D01*
X110951022Y-169600859D01*
X110638039Y-169913841D01*
X110635312Y-169916408D01*
X110591099Y-169955579D01*
X110591092Y-169955586D01*
X110557541Y-170004193D01*
X110555322Y-170007208D01*
X110518881Y-170053722D01*
X110518879Y-170053726D01*
X110515120Y-170062078D01*
X110504104Y-170081609D01*
X110498907Y-170089139D01*
X110498904Y-170089145D01*
X110477955Y-170144378D01*
X110476523Y-170147836D01*
X110452275Y-170201716D01*
X110450626Y-170210716D01*
X110444603Y-170232322D01*
X110441354Y-170240889D01*
X110441353Y-170240892D01*
X110434229Y-170299557D01*
X110433666Y-170303256D01*
X110428392Y-170332045D01*
X110396949Y-170394440D01*
X110336765Y-170429930D01*
X110306422Y-170433700D01*
X108653051Y-170433700D01*
X108649307Y-170433587D01*
X108590354Y-170430021D01*
X108590347Y-170430021D01*
X108532259Y-170440666D01*
X108528558Y-170441229D01*
X108469892Y-170448353D01*
X108469889Y-170448354D01*
X108461322Y-170451603D01*
X108439717Y-170457625D01*
X108436191Y-170458271D01*
X108430717Y-170459275D01*
X108376854Y-170483516D01*
X108373396Y-170484948D01*
X108318142Y-170505904D01*
X108318140Y-170505905D01*
X108310607Y-170511105D01*
X108291074Y-170522122D01*
X108282729Y-170525878D01*
X108282723Y-170525882D01*
X108236214Y-170562318D01*
X108233199Y-170564537D01*
X108184582Y-170598096D01*
X108184578Y-170598099D01*
X108145407Y-170642313D01*
X108142840Y-170645039D01*
X107434600Y-171353279D01*
X107373277Y-171386764D01*
X107303585Y-171381780D01*
X107247652Y-171339908D01*
X107230977Y-171309568D01*
X107230139Y-171307359D01*
X107211096Y-171257145D01*
X107211092Y-171257139D01*
X107211092Y-171257138D01*
X107205900Y-171249616D01*
X107194874Y-171230066D01*
X107191121Y-171221728D01*
X107191116Y-171221719D01*
X107166030Y-171189700D01*
X107154663Y-171175192D01*
X107152464Y-171172202D01*
X107118903Y-171123581D01*
X107106006Y-171112155D01*
X107074683Y-171084405D01*
X107071972Y-171081854D01*
X106844939Y-170854820D01*
X106844938Y-170854819D01*
X106730181Y-170740062D01*
X106707595Y-170726408D01*
X106698540Y-170720934D01*
X106692373Y-170716677D01*
X106663275Y-170693880D01*
X106630870Y-170679296D01*
X106629557Y-170678705D01*
X106622936Y-170675230D01*
X106591293Y-170656102D01*
X106591291Y-170656101D01*
X106555988Y-170645098D01*
X106548986Y-170642443D01*
X106515285Y-170627276D01*
X106515273Y-170627272D01*
X106478920Y-170620610D01*
X106471647Y-170618818D01*
X106436352Y-170607819D01*
X106436346Y-170607818D01*
X106399439Y-170605585D01*
X106392002Y-170604682D01*
X106355651Y-170598021D01*
X106355643Y-170598020D01*
X106318746Y-170600252D01*
X106311254Y-170600252D01*
X106274356Y-170598020D01*
X106274345Y-170598021D01*
X106237995Y-170604682D01*
X106230559Y-170605585D01*
X106193652Y-170607818D01*
X106193650Y-170607819D01*
X106158346Y-170618819D01*
X106151074Y-170620611D01*
X106114720Y-170627273D01*
X106081004Y-170642447D01*
X106074001Y-170645103D01*
X106038710Y-170656100D01*
X106038701Y-170656105D01*
X106007068Y-170675226D01*
X106000437Y-170678706D01*
X105966726Y-170693879D01*
X105966724Y-170693880D01*
X105937613Y-170716685D01*
X105931451Y-170720938D01*
X105899820Y-170740061D01*
X105899815Y-170740065D01*
X105871022Y-170768859D01*
X105558039Y-171081841D01*
X105555312Y-171084408D01*
X105511099Y-171123579D01*
X105511092Y-171123586D01*
X105477541Y-171172193D01*
X105475322Y-171175208D01*
X105438881Y-171221722D01*
X105438879Y-171221726D01*
X105435120Y-171230078D01*
X105424104Y-171249609D01*
X105418907Y-171257139D01*
X105418904Y-171257145D01*
X105397955Y-171312378D01*
X105396523Y-171315836D01*
X105372275Y-171369716D01*
X105370626Y-171378716D01*
X105364603Y-171400322D01*
X105361354Y-171408889D01*
X105361353Y-171408892D01*
X105354229Y-171467557D01*
X105353666Y-171471256D01*
X105348392Y-171500045D01*
X105316949Y-171562440D01*
X105256765Y-171597930D01*
X105226422Y-171601700D01*
X104412181Y-171601700D01*
X104345142Y-171582015D01*
X104324500Y-171565381D01*
X104155976Y-171396857D01*
X103624141Y-170865023D01*
X103621609Y-170862333D01*
X103582419Y-170818097D01*
X103533792Y-170784532D01*
X103530782Y-170782317D01*
X103484276Y-170745881D01*
X103484274Y-170745880D01*
X103475925Y-170742122D01*
X103456384Y-170731100D01*
X103448860Y-170725906D01*
X103448855Y-170725904D01*
X103393606Y-170704949D01*
X103390148Y-170703517D01*
X103355976Y-170688138D01*
X103336282Y-170679275D01*
X103336280Y-170679274D01*
X103336279Y-170679274D01*
X103327277Y-170677624D01*
X103305669Y-170671599D01*
X103297118Y-170668356D01*
X103297106Y-170668353D01*
X103238444Y-170661230D01*
X103234749Y-170660668D01*
X103206977Y-170655579D01*
X103176649Y-170650021D01*
X103176644Y-170650020D01*
X103117687Y-170653587D01*
X103113943Y-170653700D01*
X101196225Y-170653700D01*
X101192488Y-170653587D01*
X101133485Y-170650025D01*
X101133478Y-170650025D01*
X101075414Y-170660671D01*
X101071707Y-170661236D01*
X101013091Y-170668354D01*
X101013081Y-170668356D01*
X101004483Y-170671617D01*
X100982892Y-170677637D01*
X100973854Y-170679294D01*
X100920015Y-170703530D01*
X100916551Y-170704965D01*
X100861344Y-170725904D01*
X100853774Y-170731129D01*
X100834249Y-170742142D01*
X100825868Y-170745915D01*
X100825857Y-170745922D01*
X100779383Y-170782338D01*
X100776364Y-170784560D01*
X100727780Y-170818097D01*
X100727778Y-170818099D01*
X100688589Y-170862333D01*
X100686027Y-170865055D01*
X99985860Y-171565372D01*
X99924540Y-171598863D01*
X99898169Y-171601700D01*
X95766831Y-171601700D01*
X95699792Y-171582015D01*
X95679141Y-171565372D01*
X94978972Y-170865056D01*
X94976409Y-170862333D01*
X94937223Y-170818101D01*
X94937221Y-170818099D01*
X94937219Y-170818097D01*
X94925809Y-170810221D01*
X94888629Y-170784556D01*
X94885608Y-170782333D01*
X94851533Y-170755632D01*
X94839137Y-170745918D01*
X94830750Y-170742142D01*
X94811223Y-170731128D01*
X94803655Y-170725904D01*
X94803652Y-170725903D01*
X94803651Y-170725902D01*
X94779326Y-170716677D01*
X94748435Y-170704961D01*
X94744994Y-170703535D01*
X94691149Y-170679296D01*
X94691144Y-170679294D01*
X94682101Y-170677636D01*
X94660508Y-170671615D01*
X94651908Y-170668353D01*
X94593280Y-170661235D01*
X94589571Y-170660670D01*
X94585953Y-170660006D01*
X94531518Y-170650025D01*
X94531515Y-170650025D01*
X94531514Y-170650025D01*
X94472512Y-170653587D01*
X94468775Y-170653700D01*
X92551225Y-170653700D01*
X92547488Y-170653587D01*
X92488485Y-170650025D01*
X92488478Y-170650025D01*
X92430414Y-170660671D01*
X92426707Y-170661236D01*
X92368091Y-170668354D01*
X92368081Y-170668356D01*
X92359483Y-170671617D01*
X92337892Y-170677637D01*
X92328854Y-170679294D01*
X92275015Y-170703530D01*
X92271551Y-170704965D01*
X92216344Y-170725904D01*
X92208774Y-170731129D01*
X92189249Y-170742142D01*
X92180868Y-170745915D01*
X92180857Y-170745922D01*
X92134383Y-170782338D01*
X92131364Y-170784560D01*
X92082780Y-170818097D01*
X92082778Y-170818099D01*
X92043589Y-170862333D01*
X92041027Y-170865055D01*
X91340860Y-171565372D01*
X91279540Y-171598863D01*
X91253169Y-171601700D01*
X88510100Y-171601700D01*
X88443061Y-171582015D01*
X88397306Y-171529211D01*
X88386100Y-171477700D01*
X88386100Y-171020852D01*
X88386099Y-171020851D01*
X88377252Y-170984956D01*
X88375901Y-170977583D01*
X88372118Y-170946425D01*
X88371446Y-170940891D01*
X88358335Y-170906321D01*
X88356107Y-170899170D01*
X88347261Y-170863281D01*
X88347260Y-170863280D01*
X88347260Y-170863277D01*
X88330074Y-170830534D01*
X88327005Y-170823713D01*
X88313896Y-170789145D01*
X88292893Y-170758716D01*
X88289025Y-170752320D01*
X88271839Y-170719574D01*
X88271836Y-170719571D01*
X88271835Y-170719568D01*
X88247318Y-170691894D01*
X88242696Y-170685995D01*
X88238071Y-170679294D01*
X88221703Y-170655581D01*
X88208311Y-170643717D01*
X88194027Y-170631062D01*
X88188729Y-170625763D01*
X88164219Y-170598097D01*
X88164214Y-170598093D01*
X88133799Y-170577099D01*
X88127900Y-170572477D01*
X88100227Y-170547961D01*
X88100223Y-170547958D01*
X88067486Y-170530776D01*
X88061076Y-170526901D01*
X88038183Y-170511100D01*
X88030655Y-170505904D01*
X88030653Y-170505903D01*
X88030654Y-170505903D01*
X87996085Y-170492793D01*
X87989253Y-170489718D01*
X87980166Y-170484949D01*
X87956523Y-170472540D01*
X87920623Y-170463690D01*
X87913479Y-170461464D01*
X87878904Y-170448352D01*
X87878906Y-170448352D01*
X87842206Y-170443896D01*
X87834838Y-170442546D01*
X87798949Y-170433700D01*
X87798946Y-170433700D01*
X87758221Y-170433700D01*
X85463346Y-170433700D01*
X85301054Y-170433700D01*
X85301050Y-170433700D01*
X85265162Y-170442546D01*
X85257794Y-170443896D01*
X85221098Y-170448352D01*
X85221089Y-170448354D01*
X85186522Y-170461463D01*
X85179373Y-170463690D01*
X85152471Y-170470322D01*
X85082669Y-170467257D01*
X85025604Y-170426940D01*
X84999396Y-170362172D01*
X85012364Y-170293516D01*
X85035106Y-170262249D01*
X103875856Y-151421499D01*
X103878548Y-151418965D01*
X103924983Y-151377829D01*
X103960221Y-151326776D01*
X103962413Y-151323796D01*
X104000678Y-151274957D01*
X104004834Y-151265721D01*
X104015862Y-151246166D01*
X104021618Y-151237830D01*
X104043609Y-151179842D01*
X104045029Y-151176412D01*
X104070495Y-151119832D01*
X104072322Y-151109861D01*
X104078352Y-151088231D01*
X104081940Y-151078771D01*
X104081940Y-151078768D01*
X104089413Y-151017225D01*
X104089977Y-151013521D01*
X104094247Y-150990214D01*
X104101158Y-150952506D01*
X104097413Y-150890596D01*
X104097300Y-150886851D01*
X104097300Y-137123509D01*
X104116985Y-137056470D01*
X104129151Y-137040536D01*
X104181033Y-136982916D01*
X104275679Y-136818984D01*
X104334174Y-136638956D01*
X104353960Y-136450700D01*
X104334174Y-136262444D01*
X104275679Y-136082416D01*
X104181033Y-135918484D01*
X104054371Y-135777812D01*
X104054370Y-135777811D01*
X103901234Y-135666551D01*
X103901229Y-135666548D01*
X103728307Y-135589557D01*
X103728302Y-135589555D01*
X103591990Y-135560582D01*
X103573372Y-135556624D01*
X103511891Y-135523433D01*
X103511473Y-135523016D01*
X102072319Y-134083862D01*
X102038834Y-134022539D01*
X102036000Y-133996181D01*
X102036000Y-122956497D01*
X102055685Y-122889458D01*
X102108489Y-122843703D01*
X102177647Y-122833759D01*
X102241203Y-122862784D01*
X102247681Y-122868816D01*
X102873469Y-123494604D01*
X102878820Y-123500705D01*
X102900518Y-123528982D01*
X103025959Y-123625236D01*
X103172038Y-123685744D01*
X103250419Y-123696063D01*
X103328799Y-123706382D01*
X103328800Y-123706382D01*
X103364129Y-123701730D01*
X103372228Y-123701200D01*
X108590500Y-123701200D01*
X108657539Y-123720885D01*
X108703294Y-123773689D01*
X108714500Y-123825200D01*
X108714500Y-131337159D01*
X108714805Y-131349575D01*
X108715713Y-131368049D01*
X108716625Y-131380409D01*
X108736168Y-131578838D01*
X108739809Y-131603387D01*
X108749391Y-131651559D01*
X108755422Y-131675636D01*
X108755422Y-131675637D01*
X108812447Y-131863621D01*
X108812447Y-131863620D01*
X108820807Y-131886986D01*
X108839610Y-131932378D01*
X108850215Y-131954799D01*
X108850215Y-131954800D01*
X108942810Y-132128033D01*
X108942811Y-132128034D01*
X108955565Y-132149314D01*
X108955564Y-132149313D01*
X108967007Y-132166437D01*
X108982862Y-132190166D01*
X108997647Y-132210103D01*
X109122261Y-132361944D01*
X109137322Y-132378562D01*
X109138940Y-132380347D01*
X109138941Y-132380347D01*
X109173652Y-132415058D01*
X109173652Y-132415059D01*
X109173662Y-132415068D01*
X109173665Y-132415071D01*
X109192055Y-132431738D01*
X109343896Y-132556352D01*
X109363833Y-132571137D01*
X109384470Y-132584926D01*
X109404686Y-132598435D01*
X109404685Y-132598434D01*
X109425965Y-132611188D01*
X109425966Y-132611189D01*
X109599199Y-132703784D01*
X109621628Y-132714392D01*
X109621629Y-132714392D01*
X109666998Y-132733186D01*
X109690390Y-132741557D01*
X109690389Y-132741557D01*
X109782424Y-132769474D01*
X109878362Y-132798576D01*
X109878368Y-132798577D01*
X109878369Y-132798578D01*
X109902441Y-132804608D01*
X109902440Y-132804608D01*
X109934938Y-132811071D01*
X109950622Y-132814191D01*
X109950629Y-132814192D01*
X109950634Y-132814193D01*
X109950633Y-132814193D01*
X109961250Y-132815767D01*
X109975169Y-132817832D01*
X110113653Y-132831471D01*
X110173589Y-132837374D01*
X110185950Y-132838287D01*
X110204424Y-132839195D01*
X110210632Y-132839347D01*
X110216840Y-132839500D01*
X111071575Y-132839500D01*
X111138614Y-132859185D01*
X111184369Y-132911989D01*
X111194313Y-132981147D01*
X111192865Y-132989285D01*
X111192429Y-132991334D01*
X111192426Y-132991344D01*
X111172640Y-133179600D01*
X111192426Y-133367856D01*
X111192427Y-133367859D01*
X111250918Y-133547877D01*
X111250921Y-133547884D01*
X111345567Y-133711816D01*
X111448559Y-133826200D01*
X111472229Y-133852488D01*
X111625365Y-133963748D01*
X111625370Y-133963751D01*
X111798292Y-134040742D01*
X111798297Y-134040744D01*
X111983454Y-134080100D01*
X111983455Y-134080100D01*
X112172744Y-134080100D01*
X112172746Y-134080100D01*
X112357903Y-134040744D01*
X112530830Y-133963751D01*
X112683971Y-133852488D01*
X112712209Y-133821127D01*
X112771695Y-133784479D01*
X112804358Y-133780100D01*
X120093372Y-133780100D01*
X120101470Y-133780630D01*
X120136800Y-133785282D01*
X120136801Y-133785282D01*
X120189054Y-133778402D01*
X120293562Y-133764644D01*
X120439641Y-133704136D01*
X120475352Y-133676734D01*
X120565082Y-133607882D01*
X120586784Y-133579598D01*
X120592110Y-133573523D01*
X121761628Y-132404006D01*
X121822950Y-132370523D01*
X121892642Y-132375507D01*
X121948575Y-132417379D01*
X121968284Y-132456751D01*
X121972616Y-132471504D01*
X121974746Y-132474818D01*
X122050400Y-132592537D01*
X122050408Y-132592548D01*
X122096152Y-132645340D01*
X122096155Y-132645343D01*
X122096159Y-132645347D01*
X122204893Y-132739567D01*
X122204896Y-132739568D01*
X122204897Y-132739569D01*
X122334105Y-132798578D01*
X122335770Y-132799338D01*
X122380586Y-132812497D01*
X122402804Y-132819022D01*
X122402809Y-132819023D01*
X122402813Y-132819024D01*
X122545229Y-132839500D01*
X124967783Y-132839500D01*
X125034822Y-132859185D01*
X125080577Y-132911989D01*
X125091103Y-132976460D01*
X125078540Y-133096000D01*
X125098326Y-133284256D01*
X125098327Y-133284259D01*
X125156818Y-133464277D01*
X125156821Y-133464284D01*
X125251467Y-133628216D01*
X125326741Y-133711816D01*
X125351650Y-133739480D01*
X125381880Y-133802471D01*
X125383500Y-133822452D01*
X125383500Y-140926571D01*
X125382969Y-140934669D01*
X125378318Y-140970000D01*
X125380840Y-140989160D01*
X125383500Y-141009360D01*
X125398955Y-141126760D01*
X125398956Y-141126762D01*
X125456457Y-141265583D01*
X125459464Y-141272841D01*
X125555718Y-141398282D01*
X125583995Y-141419980D01*
X125590085Y-141425320D01*
X126623576Y-142458811D01*
X127560669Y-143395904D01*
X127566020Y-143402005D01*
X127587718Y-143430282D01*
X127678556Y-143499984D01*
X127713159Y-143526536D01*
X127713162Y-143526537D01*
X127713163Y-143526538D01*
X127786198Y-143556790D01*
X127859238Y-143587044D01*
X127937619Y-143597363D01*
X128015999Y-143607682D01*
X128016000Y-143607682D01*
X128051329Y-143603030D01*
X128059428Y-143602500D01*
X136862572Y-143602500D01*
X136870670Y-143603030D01*
X136906000Y-143607682D01*
X136906001Y-143607682D01*
X136958254Y-143600802D01*
X137062762Y-143587044D01*
X137208841Y-143526536D01*
X137243444Y-143499984D01*
X137334282Y-143430282D01*
X137355984Y-143401998D01*
X137361310Y-143395923D01*
X138823923Y-141933311D01*
X138830006Y-141927977D01*
X138858282Y-141906282D01*
X138874601Y-141885014D01*
X138885740Y-141870500D01*
X138954535Y-141780842D01*
X138954534Y-141780842D01*
X138954536Y-141780841D01*
X139015044Y-141634762D01*
X139035682Y-141478000D01*
X139031030Y-141442669D01*
X139030500Y-141434571D01*
X139030500Y-140247870D01*
X153949500Y-140247870D01*
X153949501Y-140247876D01*
X153955908Y-140307483D01*
X154006202Y-140442328D01*
X154006206Y-140442335D01*
X154092452Y-140557544D01*
X154092455Y-140557547D01*
X154207664Y-140643793D01*
X154207671Y-140643797D01*
X154342517Y-140694091D01*
X154342516Y-140694091D01*
X154349444Y-140694835D01*
X154402127Y-140700500D01*
X156497872Y-140700499D01*
X156557483Y-140694091D01*
X156692331Y-140643796D01*
X156807546Y-140557546D01*
X156893796Y-140442331D01*
X156944091Y-140307483D01*
X156950500Y-140247873D01*
X156950499Y-139252128D01*
X156944091Y-139192517D01*
X156940007Y-139181568D01*
X156893797Y-139057671D01*
X156893793Y-139057664D01*
X156807547Y-138942455D01*
X156807544Y-138942452D01*
X156692335Y-138856206D01*
X156692328Y-138856202D01*
X156557482Y-138805908D01*
X156557483Y-138805908D01*
X156497883Y-138799501D01*
X156497881Y-138799500D01*
X156497873Y-138799500D01*
X156497864Y-138799500D01*
X154402129Y-138799500D01*
X154402123Y-138799501D01*
X154342516Y-138805908D01*
X154207671Y-138856202D01*
X154207664Y-138856206D01*
X154092455Y-138942452D01*
X154092452Y-138942455D01*
X154006206Y-139057664D01*
X154006202Y-139057671D01*
X153955908Y-139192517D01*
X153949501Y-139252116D01*
X153949501Y-139252123D01*
X153949500Y-139252135D01*
X153949500Y-140247870D01*
X139030500Y-140247870D01*
X139030500Y-135504705D01*
X146899500Y-135504705D01*
X146899501Y-137695293D01*
X146909718Y-137840027D01*
X146909718Y-137840031D01*
X146909719Y-137840034D01*
X146909720Y-137840038D01*
X146963834Y-138080314D01*
X146963835Y-138080319D01*
X147015283Y-138208150D01*
X147055795Y-138308809D01*
X147183216Y-138519589D01*
X147183219Y-138519592D01*
X147342798Y-138707201D01*
X147451309Y-138799500D01*
X147530411Y-138866784D01*
X147741191Y-138994205D01*
X147969683Y-139086165D01*
X148209966Y-139140281D01*
X148354705Y-139150500D01*
X150545294Y-139150499D01*
X150690034Y-139140281D01*
X150930317Y-139086165D01*
X151158809Y-138994205D01*
X151369589Y-138866784D01*
X151557201Y-138707201D01*
X151716784Y-138519589D01*
X151844205Y-138308809D01*
X151936165Y-138080317D01*
X151990281Y-137840034D01*
X152000500Y-137695295D01*
X152000499Y-135504706D01*
X151990281Y-135359966D01*
X151936165Y-135119683D01*
X151844205Y-134891191D01*
X151716784Y-134680411D01*
X151606020Y-134550192D01*
X151557201Y-134492798D01*
X151381412Y-134343273D01*
X151369589Y-134333216D01*
X151158809Y-134205795D01*
X150930318Y-134113835D01*
X150690036Y-134059719D01*
X150690029Y-134059718D01*
X150545295Y-134049500D01*
X148354706Y-134049501D01*
X148338915Y-134050615D01*
X148209972Y-134059718D01*
X148209966Y-134059718D01*
X148209966Y-134059719D01*
X148209963Y-134059719D01*
X148209961Y-134059720D01*
X147969685Y-134113834D01*
X147969680Y-134113835D01*
X147741190Y-134205795D01*
X147741185Y-134205798D01*
X147530417Y-134333212D01*
X147530407Y-134333219D01*
X147342798Y-134492798D01*
X147183219Y-134680407D01*
X147183212Y-134680417D01*
X147055798Y-134891185D01*
X147055795Y-134891190D01*
X146963835Y-135119680D01*
X146963835Y-135119682D01*
X146909719Y-135359963D01*
X146909718Y-135359970D01*
X146899500Y-135504705D01*
X139030500Y-135504705D01*
X139030500Y-133568452D01*
X139050185Y-133501413D01*
X139062350Y-133485480D01*
X139081441Y-133464277D01*
X139162533Y-133374216D01*
X139257179Y-133210284D01*
X139315674Y-133030256D01*
X139324052Y-132950536D01*
X139350637Y-132885924D01*
X139407934Y-132845939D01*
X139447373Y-132839500D01*
X151149159Y-132839500D01*
X151149160Y-132839500D01*
X151155367Y-132839347D01*
X151161576Y-132839195D01*
X151180050Y-132838287D01*
X151188290Y-132837678D01*
X151192412Y-132837374D01*
X151390830Y-132817832D01*
X151404748Y-132815767D01*
X151415366Y-132814193D01*
X151415365Y-132814193D01*
X151415369Y-132814192D01*
X151415377Y-132814191D01*
X151431060Y-132811071D01*
X151463559Y-132804608D01*
X151463558Y-132804608D01*
X151487630Y-132798578D01*
X151487630Y-132798577D01*
X151487637Y-132798576D01*
X151583574Y-132769474D01*
X151675610Y-132741557D01*
X151675609Y-132741557D01*
X151699001Y-132733186D01*
X151744370Y-132714392D01*
X151744371Y-132714392D01*
X151766800Y-132703784D01*
X151940033Y-132611189D01*
X151940034Y-132611188D01*
X151961314Y-132598434D01*
X151961313Y-132598435D01*
X151981528Y-132584926D01*
X152002166Y-132571137D01*
X152022103Y-132556352D01*
X152173944Y-132431738D01*
X152192334Y-132415071D01*
X152192336Y-132415068D01*
X152192347Y-132415059D01*
X152192347Y-132415058D01*
X152227058Y-132380347D01*
X152227059Y-132380347D01*
X152228677Y-132378562D01*
X152243738Y-132361944D01*
X152368352Y-132210103D01*
X152383137Y-132190166D01*
X152398992Y-132166437D01*
X152410435Y-132149313D01*
X152410434Y-132149314D01*
X152423188Y-132128034D01*
X152423189Y-132128033D01*
X152515784Y-131954800D01*
X152526392Y-131932371D01*
X152526392Y-131932370D01*
X152545186Y-131887001D01*
X152553557Y-131863609D01*
X152553557Y-131863610D01*
X152585909Y-131756954D01*
X152610576Y-131675637D01*
X152616607Y-131651560D01*
X152616608Y-131651558D01*
X152616608Y-131651559D01*
X152626189Y-131603387D01*
X152626191Y-131603377D01*
X152629832Y-131578830D01*
X152649374Y-131380412D01*
X152650287Y-131368048D01*
X152651195Y-131349575D01*
X152651500Y-131337160D01*
X152651500Y-130137444D01*
X152633007Y-130001966D01*
X152615194Y-129937933D01*
X152561071Y-129812371D01*
X152469992Y-129700987D01*
X152418516Y-129653743D01*
X152418513Y-129653741D01*
X152418510Y-129653738D01*
X152418507Y-129653735D01*
X152299756Y-129572535D01*
X152217269Y-129545733D01*
X152162915Y-129528072D01*
X152162913Y-129528071D01*
X152162911Y-129528071D01*
X152129896Y-129522357D01*
X152067196Y-129491528D01*
X152031117Y-129431694D01*
X152033114Y-129361853D01*
X152072553Y-129304178D01*
X152133394Y-129277437D01*
X152145455Y-129275703D01*
X152283504Y-129235168D01*
X152404543Y-129157380D01*
X152457347Y-129111625D01*
X152551567Y-129002891D01*
X152611338Y-128872014D01*
X152631023Y-128804975D01*
X152631024Y-128804971D01*
X152651500Y-128662555D01*
X152651500Y-127488839D01*
X152651195Y-127476424D01*
X152650287Y-127457951D01*
X152649374Y-127445587D01*
X152629832Y-127247169D01*
X152626191Y-127222622D01*
X152621791Y-127200499D01*
X152616608Y-127174440D01*
X152616608Y-127174441D01*
X152610578Y-127150369D01*
X152610577Y-127150368D01*
X152610576Y-127150362D01*
X152553557Y-126962390D01*
X152553556Y-126962389D01*
X152545186Y-126938998D01*
X152526392Y-126893629D01*
X152526392Y-126893628D01*
X152515784Y-126871199D01*
X152449863Y-126747870D01*
X153949500Y-126747870D01*
X153949501Y-126747876D01*
X153955908Y-126807483D01*
X154006202Y-126942328D01*
X154006206Y-126942335D01*
X154092452Y-127057544D01*
X154092455Y-127057547D01*
X154207664Y-127143793D01*
X154207671Y-127143797D01*
X154342517Y-127194091D01*
X154342516Y-127194091D01*
X154349444Y-127194835D01*
X154402127Y-127200500D01*
X156497872Y-127200499D01*
X156557483Y-127194091D01*
X156692331Y-127143796D01*
X156807546Y-127057546D01*
X156893796Y-126942331D01*
X156944091Y-126807483D01*
X156950500Y-126747873D01*
X156950499Y-125752128D01*
X156944091Y-125692517D01*
X156893796Y-125557669D01*
X156893795Y-125557668D01*
X156893793Y-125557664D01*
X156807547Y-125442455D01*
X156807544Y-125442452D01*
X156692335Y-125356206D01*
X156692328Y-125356202D01*
X156557482Y-125305908D01*
X156557483Y-125305908D01*
X156497883Y-125299501D01*
X156497881Y-125299500D01*
X156497873Y-125299500D01*
X156497864Y-125299500D01*
X154402129Y-125299500D01*
X154402123Y-125299501D01*
X154342516Y-125305908D01*
X154207671Y-125356202D01*
X154207664Y-125356206D01*
X154092455Y-125442452D01*
X154092452Y-125442455D01*
X154006206Y-125557664D01*
X154006202Y-125557671D01*
X153955908Y-125692517D01*
X153949501Y-125752116D01*
X153949501Y-125752123D01*
X153949500Y-125752135D01*
X153949500Y-126747870D01*
X152449863Y-126747870D01*
X152423189Y-126697966D01*
X152423188Y-126697965D01*
X152410434Y-126676685D01*
X152410435Y-126676686D01*
X152396926Y-126656470D01*
X152383137Y-126635833D01*
X152368352Y-126615896D01*
X152243738Y-126464055D01*
X152227071Y-126445665D01*
X152227068Y-126445662D01*
X152227059Y-126445652D01*
X152227058Y-126445652D01*
X152192347Y-126410941D01*
X152192347Y-126410940D01*
X152173938Y-126394256D01*
X152173939Y-126394257D01*
X152022103Y-126269647D01*
X152002166Y-126254862D01*
X151961318Y-126227568D01*
X151948508Y-126219890D01*
X151940040Y-126214814D01*
X151940041Y-126214814D01*
X151766806Y-126122219D01*
X151766807Y-126122219D01*
X151748401Y-126113514D01*
X151744378Y-126111611D01*
X151744373Y-126111609D01*
X151744369Y-126111607D01*
X151744367Y-126111606D01*
X151699003Y-126092813D01*
X151675614Y-126084444D01*
X151487637Y-126027422D01*
X151487636Y-126027422D01*
X151487629Y-126027420D01*
X151481702Y-126025935D01*
X151463559Y-126021391D01*
X151415387Y-126011809D01*
X151390836Y-126008168D01*
X151390838Y-126008168D01*
X151232094Y-125992533D01*
X151192410Y-125988625D01*
X151186229Y-125988169D01*
X151180049Y-125987713D01*
X151161575Y-125986805D01*
X151149160Y-125986500D01*
X151149159Y-125986500D01*
X142869500Y-125986500D01*
X142802461Y-125966815D01*
X142756706Y-125914011D01*
X142745500Y-125862500D01*
X142745500Y-122897870D01*
X153799500Y-122897870D01*
X153799501Y-122897876D01*
X153805908Y-122957483D01*
X153856202Y-123092328D01*
X153856206Y-123092335D01*
X153942452Y-123207544D01*
X153942455Y-123207547D01*
X154057664Y-123293793D01*
X154057671Y-123293797D01*
X154192517Y-123344091D01*
X154192516Y-123344091D01*
X154199444Y-123344835D01*
X154252127Y-123350500D01*
X156347872Y-123350499D01*
X156407483Y-123344091D01*
X156542331Y-123293796D01*
X156657546Y-123207546D01*
X156743796Y-123092331D01*
X156794091Y-122957483D01*
X156800500Y-122897873D01*
X156800499Y-121902128D01*
X156794091Y-121842517D01*
X156780367Y-121805722D01*
X156743797Y-121707671D01*
X156743793Y-121707664D01*
X156657547Y-121592455D01*
X156657544Y-121592452D01*
X156542335Y-121506206D01*
X156542328Y-121506202D01*
X156407482Y-121455908D01*
X156407483Y-121455908D01*
X156347883Y-121449501D01*
X156347881Y-121449500D01*
X156347873Y-121449500D01*
X156347864Y-121449500D01*
X154252129Y-121449500D01*
X154252123Y-121449501D01*
X154192516Y-121455908D01*
X154057671Y-121506202D01*
X154057664Y-121506206D01*
X153942455Y-121592452D01*
X153942452Y-121592455D01*
X153856206Y-121707664D01*
X153856202Y-121707671D01*
X153805908Y-121842517D01*
X153799501Y-121902116D01*
X153799501Y-121902123D01*
X153799500Y-121902135D01*
X153799500Y-122897870D01*
X142745500Y-122897870D01*
X142745500Y-119250005D01*
X146744958Y-119250005D01*
X146765103Y-119570221D01*
X146765104Y-119570228D01*
X146825230Y-119885417D01*
X146924382Y-120190575D01*
X146924384Y-120190580D01*
X147060998Y-120480897D01*
X147061001Y-120480903D01*
X147232924Y-120751811D01*
X147328773Y-120867672D01*
X148185073Y-120011372D01*
X148261890Y-120121078D01*
X148428922Y-120288110D01*
X148538626Y-120364925D01*
X147679175Y-121224375D01*
X147679176Y-121224377D01*
X147930928Y-121407285D01*
X147930946Y-121407297D01*
X148212116Y-121561871D01*
X148212124Y-121561875D01*
X148510444Y-121679987D01*
X148821233Y-121759784D01*
X148821242Y-121759786D01*
X149139556Y-121799999D01*
X149139570Y-121800000D01*
X149460430Y-121800000D01*
X149460443Y-121799999D01*
X149778757Y-121759786D01*
X149778766Y-121759784D01*
X150089555Y-121679987D01*
X150387875Y-121561875D01*
X150387883Y-121561871D01*
X150669053Y-121407297D01*
X150669063Y-121407290D01*
X150920822Y-121224375D01*
X150920823Y-121224375D01*
X150061373Y-120364925D01*
X150171078Y-120288110D01*
X150338110Y-120121078D01*
X150414925Y-120011373D01*
X151271225Y-120867673D01*
X151367078Y-120751806D01*
X151538998Y-120480903D01*
X151539001Y-120480897D01*
X151675615Y-120190580D01*
X151675617Y-120190575D01*
X151774769Y-119885417D01*
X151834895Y-119570228D01*
X151834896Y-119570221D01*
X151855042Y-119250005D01*
X151855042Y-119249994D01*
X151834896Y-118929778D01*
X151834895Y-118929771D01*
X151774769Y-118614582D01*
X151675617Y-118309424D01*
X151675615Y-118309419D01*
X151539001Y-118019102D01*
X151538998Y-118019096D01*
X151367073Y-117748185D01*
X151367070Y-117748181D01*
X151271225Y-117632325D01*
X150414925Y-118488625D01*
X150338110Y-118378922D01*
X150171078Y-118211890D01*
X150061373Y-118135073D01*
X150920823Y-117275623D01*
X150920822Y-117275621D01*
X150669071Y-117092714D01*
X150669053Y-117092702D01*
X150387883Y-116938128D01*
X150387875Y-116938124D01*
X150159917Y-116847870D01*
X151799500Y-116847870D01*
X151799501Y-116847876D01*
X151805908Y-116907483D01*
X151856202Y-117042328D01*
X151856206Y-117042335D01*
X151942452Y-117157544D01*
X151942455Y-117157547D01*
X152057664Y-117243793D01*
X152057671Y-117243797D01*
X152192517Y-117294091D01*
X152192516Y-117294091D01*
X152199444Y-117294835D01*
X152252127Y-117300500D01*
X153647872Y-117300499D01*
X153707483Y-117294091D01*
X153842331Y-117243796D01*
X153957546Y-117157546D01*
X154043796Y-117042331D01*
X154094091Y-116907483D01*
X154100500Y-116847873D01*
X154100499Y-114452128D01*
X154094091Y-114392517D01*
X154065844Y-114316784D01*
X154043797Y-114257671D01*
X154043793Y-114257664D01*
X153957547Y-114142455D01*
X153957544Y-114142452D01*
X153842335Y-114056206D01*
X153842328Y-114056202D01*
X153707482Y-114005908D01*
X153707483Y-114005908D01*
X153647883Y-113999501D01*
X153647881Y-113999500D01*
X153647873Y-113999500D01*
X153647864Y-113999500D01*
X152252129Y-113999500D01*
X152252123Y-113999501D01*
X152192516Y-114005908D01*
X152057671Y-114056202D01*
X152057664Y-114056206D01*
X151942455Y-114142452D01*
X151942452Y-114142455D01*
X151856206Y-114257664D01*
X151856202Y-114257671D01*
X151805908Y-114392517D01*
X151799501Y-114452116D01*
X151799501Y-114452123D01*
X151799500Y-114452135D01*
X151799500Y-116847870D01*
X150159917Y-116847870D01*
X150089555Y-116820012D01*
X149778766Y-116740215D01*
X149778757Y-116740213D01*
X149460443Y-116700000D01*
X149139556Y-116700000D01*
X148821242Y-116740213D01*
X148821233Y-116740215D01*
X148510444Y-116820012D01*
X148212124Y-116938124D01*
X148212116Y-116938128D01*
X147930946Y-117092702D01*
X147930928Y-117092714D01*
X147679176Y-117275622D01*
X147679175Y-117275623D01*
X148538626Y-118135074D01*
X148428922Y-118211890D01*
X148261890Y-118378922D01*
X148185074Y-118488626D01*
X147328773Y-117632325D01*
X147328772Y-117632325D01*
X147232928Y-117748182D01*
X147232926Y-117748185D01*
X147061001Y-118019096D01*
X147060998Y-118019102D01*
X146924384Y-118309419D01*
X146924382Y-118309424D01*
X146825230Y-118614582D01*
X146765104Y-118929771D01*
X146765103Y-118929778D01*
X146744958Y-119249994D01*
X146744958Y-119250005D01*
X142745500Y-119250005D01*
X142745500Y-118116408D01*
X142745499Y-118116394D01*
X142728275Y-117985569D01*
X142728275Y-117985566D01*
X142711662Y-117923567D01*
X142661163Y-117801653D01*
X142645678Y-117774833D01*
X142635135Y-117751153D01*
X142634170Y-117748182D01*
X142617530Y-117696971D01*
X142612141Y-117671617D01*
X142608011Y-117632325D01*
X142606186Y-117614956D01*
X142606186Y-117589036D01*
X142612141Y-117532372D01*
X142617526Y-117507035D01*
X142635135Y-117452841D01*
X142645678Y-117429166D01*
X142661156Y-117402358D01*
X142661162Y-117402348D01*
X142711662Y-117280430D01*
X142728275Y-117218430D01*
X142745500Y-117087596D01*
X142745500Y-114280839D01*
X142745195Y-114268424D01*
X142745195Y-114268423D01*
X142744287Y-114249949D01*
X142743374Y-114237588D01*
X142734004Y-114142455D01*
X142723832Y-114039169D01*
X142720191Y-114014622D01*
X142717071Y-113998938D01*
X142710608Y-113966440D01*
X142710608Y-113966441D01*
X142704578Y-113942369D01*
X142704577Y-113942368D01*
X142704576Y-113942362D01*
X142675474Y-113846424D01*
X142647557Y-113754389D01*
X142647557Y-113754390D01*
X142639186Y-113730998D01*
X142620392Y-113685629D01*
X142620392Y-113685628D01*
X142609784Y-113663199D01*
X142517189Y-113489966D01*
X142517188Y-113489965D01*
X142504434Y-113468685D01*
X142504435Y-113468686D01*
X142490926Y-113448470D01*
X142477137Y-113427833D01*
X142462352Y-113407896D01*
X142337738Y-113256055D01*
X142321071Y-113237665D01*
X142321068Y-113237662D01*
X142321059Y-113237652D01*
X142321058Y-113237652D01*
X142286347Y-113202941D01*
X142286347Y-113202940D01*
X142267938Y-113186256D01*
X142267939Y-113186257D01*
X142116103Y-113061647D01*
X142096166Y-113046862D01*
X142055318Y-113019568D01*
X142042508Y-113011890D01*
X142034040Y-113006814D01*
X142034041Y-113006814D01*
X141860806Y-112914219D01*
X141860807Y-112914219D01*
X141846896Y-112907639D01*
X141838378Y-112903611D01*
X141838373Y-112903609D01*
X141838369Y-112903607D01*
X141838367Y-112903606D01*
X141793003Y-112884813D01*
X141769614Y-112876444D01*
X141581637Y-112819422D01*
X141581636Y-112819422D01*
X141581629Y-112819420D01*
X141575702Y-112817935D01*
X141557559Y-112813391D01*
X141509387Y-112803809D01*
X141484836Y-112800168D01*
X141484838Y-112800168D01*
X141326094Y-112784533D01*
X141286410Y-112780625D01*
X141280229Y-112780169D01*
X141274049Y-112779713D01*
X141255575Y-112778805D01*
X141243160Y-112778500D01*
X141243159Y-112778500D01*
X138171786Y-112778500D01*
X138104747Y-112758815D01*
X138058992Y-112706011D01*
X138049048Y-112636853D01*
X138057226Y-112607045D01*
X138067186Y-112583001D01*
X138075557Y-112559609D01*
X138075557Y-112559610D01*
X138103474Y-112467574D01*
X138132576Y-112371637D01*
X138138607Y-112347560D01*
X138138608Y-112347558D01*
X138138608Y-112347559D01*
X138148193Y-112299365D01*
X138151832Y-112274830D01*
X138171374Y-112076412D01*
X138172287Y-112064048D01*
X138173195Y-112045575D01*
X138173500Y-112033160D01*
X138173500Y-110954705D01*
X146749500Y-110954705D01*
X146749501Y-113145293D01*
X146759718Y-113290027D01*
X146759718Y-113290031D01*
X146759719Y-113290034D01*
X146759720Y-113290038D01*
X146813834Y-113530314D01*
X146813835Y-113530319D01*
X146905795Y-113758809D01*
X147033216Y-113969589D01*
X147071531Y-114014634D01*
X147192798Y-114157201D01*
X147287304Y-114237587D01*
X147380411Y-114316784D01*
X147591191Y-114444205D01*
X147819683Y-114536165D01*
X148059966Y-114590281D01*
X148204705Y-114600500D01*
X150395294Y-114600499D01*
X150540034Y-114590281D01*
X150780317Y-114536165D01*
X151008809Y-114444205D01*
X151219589Y-114316784D01*
X151407201Y-114157201D01*
X151566784Y-113969589D01*
X151694205Y-113758809D01*
X151786165Y-113530317D01*
X151840281Y-113290034D01*
X151850500Y-113145295D01*
X151850499Y-110954706D01*
X151840281Y-110809966D01*
X151786165Y-110569683D01*
X151694205Y-110341191D01*
X151566784Y-110130411D01*
X151500930Y-110052990D01*
X151407201Y-109942798D01*
X151232027Y-109793796D01*
X151219589Y-109783216D01*
X151008809Y-109655795D01*
X150914493Y-109617836D01*
X150780318Y-109563835D01*
X150540036Y-109509719D01*
X150540029Y-109509718D01*
X150395295Y-109499500D01*
X148204706Y-109499501D01*
X148188915Y-109500615D01*
X148059972Y-109509718D01*
X148059966Y-109509718D01*
X148059966Y-109509719D01*
X148059963Y-109509719D01*
X148059961Y-109509720D01*
X147819685Y-109563834D01*
X147819680Y-109563835D01*
X147591190Y-109655795D01*
X147591185Y-109655798D01*
X147380417Y-109783212D01*
X147380407Y-109783219D01*
X147192798Y-109942798D01*
X147033219Y-110130407D01*
X147033212Y-110130417D01*
X146905798Y-110341185D01*
X146905795Y-110341190D01*
X146813835Y-110569680D01*
X146813835Y-110569682D01*
X146759719Y-110809963D01*
X146759718Y-110809970D01*
X146749500Y-110954705D01*
X138173500Y-110954705D01*
X138173500Y-110470839D01*
X138173195Y-110458424D01*
X138172287Y-110439951D01*
X138171374Y-110427587D01*
X138151832Y-110229169D01*
X138148191Y-110204622D01*
X138145071Y-110188938D01*
X138138608Y-110156440D01*
X138138608Y-110156441D01*
X138132578Y-110132369D01*
X138132577Y-110132368D01*
X138132576Y-110132362D01*
X138075557Y-109944390D01*
X138075556Y-109944389D01*
X138067186Y-109920998D01*
X138067186Y-109920999D01*
X138067185Y-109920998D01*
X138063163Y-109911288D01*
X138054402Y-109876793D01*
X138045674Y-109793744D01*
X137987179Y-109613716D01*
X137892533Y-109449784D01*
X137845789Y-109397870D01*
X153799500Y-109397870D01*
X153799501Y-109397876D01*
X153805908Y-109457483D01*
X153856202Y-109592328D01*
X153856206Y-109592335D01*
X153942452Y-109707544D01*
X153942455Y-109707547D01*
X154057664Y-109793793D01*
X154057671Y-109793797D01*
X154192517Y-109844091D01*
X154192516Y-109844091D01*
X154199444Y-109844835D01*
X154252127Y-109850500D01*
X156347872Y-109850499D01*
X156407483Y-109844091D01*
X156542331Y-109793796D01*
X156657546Y-109707546D01*
X156743796Y-109592331D01*
X156794091Y-109457483D01*
X156800500Y-109397873D01*
X156800499Y-108402128D01*
X156794091Y-108342517D01*
X156781486Y-108308722D01*
X156743797Y-108207671D01*
X156743793Y-108207664D01*
X156657547Y-108092455D01*
X156657544Y-108092452D01*
X156542335Y-108006206D01*
X156542328Y-108006202D01*
X156407482Y-107955908D01*
X156407483Y-107955908D01*
X156347883Y-107949501D01*
X156347881Y-107949500D01*
X156347873Y-107949500D01*
X156347864Y-107949500D01*
X154252129Y-107949500D01*
X154252123Y-107949501D01*
X154192516Y-107955908D01*
X154057671Y-108006202D01*
X154057664Y-108006206D01*
X153942455Y-108092452D01*
X153942452Y-108092455D01*
X153856206Y-108207664D01*
X153856202Y-108207671D01*
X153805908Y-108342517D01*
X153799501Y-108402116D01*
X153799501Y-108402123D01*
X153799500Y-108402135D01*
X153799500Y-109397870D01*
X137845789Y-109397870D01*
X137765871Y-109309112D01*
X137765870Y-109309111D01*
X137612734Y-109197851D01*
X137612729Y-109197848D01*
X137439807Y-109120857D01*
X137439802Y-109120855D01*
X137254646Y-109081500D01*
X137248264Y-109080829D01*
X137219461Y-109074261D01*
X137209002Y-109070519D01*
X137197619Y-109066446D01*
X137197614Y-109066444D01*
X137009637Y-109009422D01*
X137009636Y-109009422D01*
X137009629Y-109009420D01*
X137003702Y-109007935D01*
X136985559Y-109003391D01*
X136937387Y-108993809D01*
X136912836Y-108990168D01*
X136912838Y-108990168D01*
X136754094Y-108974533D01*
X136714410Y-108970625D01*
X136708229Y-108970169D01*
X136702049Y-108969713D01*
X136683575Y-108968805D01*
X136671160Y-108968500D01*
X128250839Y-108968500D01*
X128238421Y-108968805D01*
X128219970Y-108969713D01*
X128219950Y-108969714D01*
X128207591Y-108970626D01*
X128144681Y-108976821D01*
X128009168Y-108990167D01*
X128009167Y-108990167D01*
X127984619Y-108993808D01*
X127984615Y-108993808D01*
X127984608Y-108993810D01*
X127936442Y-109003391D01*
X127922656Y-109006844D01*
X127912379Y-109009418D01*
X127912381Y-109009418D01*
X127912376Y-109009419D01*
X127912370Y-109009421D01*
X127813470Y-109039421D01*
X127724377Y-109066447D01*
X127724378Y-109066447D01*
X127701000Y-109074812D01*
X127700988Y-109074816D01*
X127700985Y-109074818D01*
X127700984Y-109074818D01*
X127665357Y-109089576D01*
X127655625Y-109093608D01*
X127655623Y-109093609D01*
X127655622Y-109093609D01*
X127633196Y-109104217D01*
X127459961Y-109196813D01*
X127438675Y-109209571D01*
X127397838Y-109236857D01*
X127377902Y-109251642D01*
X127377903Y-109251641D01*
X127226055Y-109376261D01*
X127226056Y-109376260D01*
X127207647Y-109392944D01*
X127207647Y-109392945D01*
X127172945Y-109427647D01*
X127172944Y-109427647D01*
X127156260Y-109446056D01*
X127156261Y-109446055D01*
X127031641Y-109597903D01*
X127031642Y-109597902D01*
X127016857Y-109617838D01*
X126989571Y-109658675D01*
X126976813Y-109679961D01*
X126885660Y-109850499D01*
X126884218Y-109853196D01*
X126884217Y-109853196D01*
X126873609Y-109875622D01*
X126873609Y-109875623D01*
X126854818Y-109920984D01*
X126854818Y-109920985D01*
X126854812Y-109921000D01*
X126846447Y-109944378D01*
X126846447Y-109944377D01*
X126846443Y-109944390D01*
X126789421Y-110132370D01*
X126789418Y-110132381D01*
X126789418Y-110132379D01*
X126786844Y-110142656D01*
X126783391Y-110156442D01*
X126773810Y-110204608D01*
X126773808Y-110204620D01*
X126773808Y-110204619D01*
X126770167Y-110229167D01*
X126770167Y-110229168D01*
X126750625Y-110427590D01*
X126749713Y-110439950D01*
X126748805Y-110458424D01*
X126748500Y-110470840D01*
X126748500Y-121036500D01*
X126728815Y-121103539D01*
X126676011Y-121149294D01*
X126624500Y-121160500D01*
X110216839Y-121160500D01*
X110204421Y-121160805D01*
X110185950Y-121161714D01*
X110173591Y-121162626D01*
X110110681Y-121168821D01*
X109975168Y-121182167D01*
X109975167Y-121182167D01*
X109950619Y-121185808D01*
X109950615Y-121185808D01*
X109950608Y-121185810D01*
X109902442Y-121195391D01*
X109888656Y-121198844D01*
X109878379Y-121201418D01*
X109878381Y-121201418D01*
X109878376Y-121201419D01*
X109878370Y-121201421D01*
X109802700Y-121224375D01*
X109690377Y-121258447D01*
X109690376Y-121258447D01*
X109668540Y-121266261D01*
X109639736Y-121272829D01*
X109633353Y-121273500D01*
X109448197Y-121312855D01*
X109448192Y-121312857D01*
X109275270Y-121389848D01*
X109275265Y-121389851D01*
X109122129Y-121501111D01*
X108995466Y-121641785D01*
X108900821Y-121805715D01*
X108900818Y-121805722D01*
X108842327Y-121985739D01*
X108842326Y-121985741D01*
X108833597Y-122068791D01*
X108824840Y-122103274D01*
X108820817Y-122112987D01*
X108820812Y-122113000D01*
X108812447Y-122136378D01*
X108755421Y-122324370D01*
X108755418Y-122324381D01*
X108755418Y-122324379D01*
X108752844Y-122334656D01*
X108749391Y-122348442D01*
X108749391Y-122348443D01*
X108739808Y-122396620D01*
X108739668Y-122397424D01*
X108708800Y-122460105D01*
X108648943Y-122496147D01*
X108617498Y-122500200D01*
X103628897Y-122500200D01*
X103561858Y-122480515D01*
X103541216Y-122463881D01*
X103077379Y-122000044D01*
X103043894Y-121938721D01*
X103041060Y-121912363D01*
X103041060Y-121907502D01*
X103034230Y-121842517D01*
X103021274Y-121719244D01*
X102962779Y-121539216D01*
X102868133Y-121375284D01*
X102741471Y-121234612D01*
X102727381Y-121224375D01*
X102588334Y-121123351D01*
X102588329Y-121123348D01*
X102415407Y-121046357D01*
X102415402Y-121046355D01*
X102269601Y-121015365D01*
X102230246Y-121007000D01*
X102160000Y-121007000D01*
X102092961Y-120987315D01*
X102047206Y-120934511D01*
X102036000Y-120883000D01*
X102036000Y-117463268D01*
X102055685Y-117396229D01*
X102067851Y-117380295D01*
X102069633Y-117378316D01*
X102164279Y-117214384D01*
X102222774Y-117034356D01*
X102242560Y-116846100D01*
X102222774Y-116657844D01*
X102164279Y-116477816D01*
X102069633Y-116313884D01*
X101942971Y-116173212D01*
X101942970Y-116173211D01*
X101789834Y-116061951D01*
X101789829Y-116061948D01*
X101616907Y-115984957D01*
X101616902Y-115984955D01*
X101471101Y-115953965D01*
X101431746Y-115945600D01*
X101297900Y-115945600D01*
X101230861Y-115925915D01*
X101185106Y-115873111D01*
X101173900Y-115821600D01*
X101173900Y-113138650D01*
X101193585Y-113071611D01*
X101246389Y-113025856D01*
X101272113Y-113017361D01*
X101289603Y-113013644D01*
X101289607Y-113013642D01*
X101289608Y-113013642D01*
X101347858Y-112987706D01*
X101462530Y-112936651D01*
X101615671Y-112825388D01*
X101742333Y-112684716D01*
X101836979Y-112520784D01*
X101895474Y-112340756D01*
X101915260Y-112152500D01*
X101895474Y-111964244D01*
X101836979Y-111784216D01*
X101742333Y-111620284D01*
X101615671Y-111479612D01*
X101596681Y-111465815D01*
X101462534Y-111368351D01*
X101462529Y-111368348D01*
X101289607Y-111291357D01*
X101289604Y-111291356D01*
X101272117Y-111287639D01*
X101210636Y-111254445D01*
X101176860Y-111193281D01*
X101173900Y-111166349D01*
X101173900Y-100117752D01*
X101193585Y-100050713D01*
X101205750Y-100034780D01*
X101305933Y-99923516D01*
X101400579Y-99759584D01*
X101459074Y-99579556D01*
X101478860Y-99391300D01*
X101459074Y-99203044D01*
X101400579Y-99023016D01*
X101305933Y-98859084D01*
X101212453Y-98755264D01*
X101182223Y-98692273D01*
X101190848Y-98622937D01*
X101216919Y-98584614D01*
X107785216Y-92016319D01*
X107846539Y-91982834D01*
X107872897Y-91980000D01*
X132730942Y-91980000D01*
X132797981Y-91999685D01*
X132823091Y-92021027D01*
X132851328Y-92052387D01*
X132851335Y-92052393D01*
X133004465Y-92163648D01*
X133004470Y-92163651D01*
X133177392Y-92240642D01*
X133177397Y-92240644D01*
X133362554Y-92280000D01*
X133362555Y-92280000D01*
X133551844Y-92280000D01*
X133551846Y-92280000D01*
X133737003Y-92240644D01*
X133909930Y-92163651D01*
X134063071Y-92052388D01*
X134189733Y-91911716D01*
X134284379Y-91747784D01*
X134342874Y-91567756D01*
X134362660Y-91379500D01*
X134342874Y-91191244D01*
X134284379Y-91011216D01*
X134189733Y-90847284D01*
X134063071Y-90706612D01*
X134016654Y-90672888D01*
X133909934Y-90595351D01*
X133909929Y-90595348D01*
X133737007Y-90518357D01*
X133737002Y-90518355D01*
X133591201Y-90487365D01*
X133551846Y-90479000D01*
X133362554Y-90479000D01*
X133330097Y-90485898D01*
X133177397Y-90518355D01*
X133177392Y-90518357D01*
X133004470Y-90595348D01*
X133004465Y-90595351D01*
X132851335Y-90706606D01*
X132851328Y-90706612D01*
X132823091Y-90737973D01*
X132763605Y-90774621D01*
X132730942Y-90779000D01*
X107616228Y-90779000D01*
X107608129Y-90778469D01*
X107572800Y-90773818D01*
X107533439Y-90779000D01*
X107416039Y-90794455D01*
X107416037Y-90794456D01*
X107269957Y-90854964D01*
X107144519Y-90951216D01*
X107122819Y-90979494D01*
X107117468Y-90985596D01*
X87304996Y-110798068D01*
X87298894Y-110803419D01*
X87270616Y-110825118D01*
X87186792Y-110934363D01*
X87174363Y-110950560D01*
X87174361Y-110950563D01*
X87113857Y-111096634D01*
X87113855Y-111096639D01*
X87093218Y-111253398D01*
X87093218Y-111253399D01*
X87097869Y-111288726D01*
X87098400Y-111296828D01*
X87098400Y-119670900D01*
X87078715Y-119737939D01*
X87025911Y-119783694D01*
X86974400Y-119794900D01*
X86878454Y-119794900D01*
X86847803Y-119801415D01*
X86693297Y-119834255D01*
X86693292Y-119834257D01*
X86520370Y-119911248D01*
X86520366Y-119911250D01*
X86452284Y-119960715D01*
X86386478Y-119984194D01*
X86318424Y-119968368D01*
X86269730Y-119918262D01*
X86255400Y-119860396D01*
X86255400Y-100090397D01*
X86275085Y-100023358D01*
X86291719Y-100002716D01*
X88716516Y-97577919D01*
X88777839Y-97544434D01*
X88804197Y-97541600D01*
X88898744Y-97541600D01*
X88898746Y-97541600D01*
X89083903Y-97502244D01*
X89256830Y-97425251D01*
X89409971Y-97313988D01*
X89536633Y-97173316D01*
X89631279Y-97009384D01*
X89689774Y-96829356D01*
X89709560Y-96641100D01*
X89689774Y-96452844D01*
X89631279Y-96272816D01*
X89536633Y-96108884D01*
X89409971Y-95968212D01*
X89409970Y-95968211D01*
X89256834Y-95856951D01*
X89256829Y-95856948D01*
X89083907Y-95779957D01*
X89083902Y-95779955D01*
X88938101Y-95748965D01*
X88898746Y-95740600D01*
X88709454Y-95740600D01*
X88676997Y-95747498D01*
X88524297Y-95779955D01*
X88524292Y-95779957D01*
X88351370Y-95856948D01*
X88351365Y-95856951D01*
X88198229Y-95968211D01*
X88071566Y-96108885D01*
X87976921Y-96272815D01*
X87976918Y-96272822D01*
X87945784Y-96368644D01*
X87918426Y-96452844D01*
X87907490Y-96556900D01*
X87898640Y-96641102D01*
X87898640Y-96645962D01*
X87878955Y-96713001D01*
X87862321Y-96733643D01*
X85474381Y-99121583D01*
X85413058Y-99155068D01*
X85343366Y-99150084D01*
X85287433Y-99108212D01*
X85263016Y-99042748D01*
X85262700Y-99033902D01*
X85262700Y-97283352D01*
X85282385Y-97216313D01*
X85294550Y-97200380D01*
X85394733Y-97089116D01*
X85489379Y-96925184D01*
X85547874Y-96745156D01*
X85567660Y-96556900D01*
X85547874Y-96368644D01*
X85489379Y-96188616D01*
X85394733Y-96024684D01*
X85268071Y-95884012D01*
X85230822Y-95856949D01*
X85114934Y-95772751D01*
X85114929Y-95772748D01*
X84942007Y-95695757D01*
X84942002Y-95695755D01*
X84796201Y-95664765D01*
X84756846Y-95656400D01*
X84567554Y-95656400D01*
X84535097Y-95663298D01*
X84382397Y-95695755D01*
X84382392Y-95695757D01*
X84209470Y-95772748D01*
X84209465Y-95772751D01*
X84056329Y-95884011D01*
X83929666Y-96024685D01*
X83835021Y-96188615D01*
X83835018Y-96188622D01*
X83776527Y-96368640D01*
X83776526Y-96368644D01*
X83756740Y-96556900D01*
X83776526Y-96745156D01*
X83776527Y-96745159D01*
X83835018Y-96925177D01*
X83835021Y-96925184D01*
X83929667Y-97089116D01*
X84029850Y-97200380D01*
X84060080Y-97263371D01*
X84061700Y-97283352D01*
X84061700Y-132831471D01*
X84061169Y-132839569D01*
X84058814Y-132857459D01*
X84056518Y-132874899D01*
X84056518Y-132874900D01*
X84061700Y-132914260D01*
X84077155Y-133031660D01*
X84077156Y-133031662D01*
X84137664Y-133177741D01*
X84233918Y-133303182D01*
X84262195Y-133324880D01*
X84268285Y-133330220D01*
X84614799Y-133676734D01*
X84956721Y-134018656D01*
X84990206Y-134079979D01*
X84993040Y-134106337D01*
X84993040Y-134111197D01*
X84993040Y-134111200D01*
X85012826Y-134299456D01*
X85012827Y-134299459D01*
X85071318Y-134479477D01*
X85071321Y-134479484D01*
X85165967Y-134643416D01*
X85275778Y-134765373D01*
X85292629Y-134784088D01*
X85445765Y-134895348D01*
X85445770Y-134895351D01*
X85618692Y-134972342D01*
X85618697Y-134972344D01*
X85803854Y-135011700D01*
X85803855Y-135011700D01*
X85993144Y-135011700D01*
X85993146Y-135011700D01*
X86178303Y-134972344D01*
X86351230Y-134895351D01*
X86504371Y-134784088D01*
X86631033Y-134643416D01*
X86725679Y-134479484D01*
X86784174Y-134299456D01*
X86803960Y-134111200D01*
X86784174Y-133922944D01*
X86725679Y-133742916D01*
X86631033Y-133578984D01*
X86504371Y-133438312D01*
X86504370Y-133438311D01*
X86415501Y-133373744D01*
X86372835Y-133318414D01*
X86366856Y-133248801D01*
X86385005Y-133207518D01*
X86384184Y-133207044D01*
X86437624Y-133114482D01*
X86482079Y-133037484D01*
X86540574Y-132857456D01*
X86560360Y-132669200D01*
X86560359Y-132669198D01*
X86561039Y-132662737D01*
X86563503Y-132662996D01*
X86580045Y-132606664D01*
X86632849Y-132560909D01*
X86702007Y-132550965D01*
X86710105Y-132552406D01*
X86748654Y-132560600D01*
X86748657Y-132560600D01*
X86937944Y-132560600D01*
X86937946Y-132560600D01*
X87123103Y-132521244D01*
X87296030Y-132444251D01*
X87449171Y-132332988D01*
X87547151Y-132224170D01*
X87606637Y-132187522D01*
X87676494Y-132188853D01*
X87734542Y-132227739D01*
X87762352Y-132291836D01*
X87763300Y-132307143D01*
X87763300Y-139753203D01*
X87743615Y-139820242D01*
X87690811Y-139865997D01*
X87621653Y-139875941D01*
X87558097Y-139846916D01*
X87551619Y-139840884D01*
X83913664Y-136202929D01*
X80219920Y-132509185D01*
X80214580Y-132503095D01*
X80192882Y-132474818D01*
X80067441Y-132378564D01*
X80067437Y-132378562D01*
X80067438Y-132378562D01*
X79970893Y-132338572D01*
X79926196Y-132306983D01*
X79857075Y-132230216D01*
X79857069Y-132230210D01*
X79703934Y-132118951D01*
X79703929Y-132118948D01*
X79531007Y-132041957D01*
X79531002Y-132041955D01*
X79385201Y-132010965D01*
X79345846Y-132002600D01*
X79156554Y-132002600D01*
X79124097Y-132009498D01*
X78971397Y-132041955D01*
X78971392Y-132041957D01*
X78798470Y-132118948D01*
X78798465Y-132118951D01*
X78645329Y-132230211D01*
X78518666Y-132370885D01*
X78424021Y-132534815D01*
X78424018Y-132534822D01*
X78365673Y-132714392D01*
X78365526Y-132714844D01*
X78345740Y-132903100D01*
X78365526Y-133091356D01*
X78365527Y-133091359D01*
X78373040Y-133114482D01*
X78375035Y-133184323D01*
X78338954Y-133244156D01*
X78276253Y-133274984D01*
X78255109Y-133276800D01*
X77552658Y-133276800D01*
X77485619Y-133257115D01*
X77460509Y-133235773D01*
X77432271Y-133204412D01*
X77432264Y-133204406D01*
X77279134Y-133093151D01*
X77279129Y-133093148D01*
X77106207Y-133016157D01*
X77106202Y-133016155D01*
X76960401Y-132985165D01*
X76921046Y-132976800D01*
X76832300Y-132976800D01*
X76765261Y-132957115D01*
X76719506Y-132904311D01*
X76708300Y-132852800D01*
X76708300Y-99790828D01*
X76727985Y-99723789D01*
X76740140Y-99707867D01*
X76864533Y-99569716D01*
X76959179Y-99405784D01*
X77017674Y-99225756D01*
X77037460Y-99037500D01*
X77017674Y-98849244D01*
X76959179Y-98669216D01*
X76864533Y-98505284D01*
X76737871Y-98364612D01*
X76737870Y-98364611D01*
X76584734Y-98253351D01*
X76584729Y-98253348D01*
X76411807Y-98176357D01*
X76411802Y-98176355D01*
X76266001Y-98145365D01*
X76226646Y-98137000D01*
X76037354Y-98137000D01*
X76004897Y-98143898D01*
X75852197Y-98176355D01*
X75852192Y-98176357D01*
X75679270Y-98253348D01*
X75679265Y-98253351D01*
X75526129Y-98364611D01*
X75399466Y-98505285D01*
X75304821Y-98669215D01*
X75304818Y-98669222D01*
X75246327Y-98849240D01*
X75246326Y-98849244D01*
X75226540Y-99037500D01*
X75246326Y-99225756D01*
X75246327Y-99225759D01*
X75304818Y-99405777D01*
X75304821Y-99405784D01*
X75399464Y-99569712D01*
X75399465Y-99569714D01*
X75399467Y-99569716D01*
X75475451Y-99654104D01*
X75505680Y-99717094D01*
X75507300Y-99737075D01*
X75507300Y-134335171D01*
X75506769Y-134343273D01*
X75502118Y-134378599D01*
X75502118Y-134378600D01*
X75507300Y-134417960D01*
X75522755Y-134535360D01*
X75522756Y-134535362D01*
X75580936Y-134675822D01*
X75583264Y-134681441D01*
X75679518Y-134806882D01*
X75707795Y-134828580D01*
X75713885Y-134833920D01*
X75941347Y-135061382D01*
X76119381Y-135239416D01*
X76152866Y-135300739D01*
X76155700Y-135327097D01*
X76155700Y-136504730D01*
X76136015Y-136571769D01*
X76083211Y-136617524D01*
X76018744Y-136628051D01*
X76014451Y-136627600D01*
X76014446Y-136627600D01*
X75825154Y-136627600D01*
X75792697Y-136634498D01*
X75639997Y-136666955D01*
X75639992Y-136666957D01*
X75467070Y-136743948D01*
X75467065Y-136743951D01*
X75313929Y-136855211D01*
X75187266Y-136995885D01*
X75092621Y-137159815D01*
X75092618Y-137159822D01*
X75034127Y-137339840D01*
X75034126Y-137339844D01*
X75014340Y-137528100D01*
X75014340Y-137528102D01*
X75014340Y-137532962D01*
X74994655Y-137600001D01*
X74978021Y-137620643D01*
X74692396Y-137906268D01*
X74686294Y-137911619D01*
X74658016Y-137933318D01*
X74604844Y-138002616D01*
X74561764Y-138058758D01*
X74561761Y-138058763D01*
X74501257Y-138204834D01*
X74501255Y-138204839D01*
X74494711Y-138254551D01*
X74480618Y-138361600D01*
X74481842Y-138370900D01*
X74485269Y-138396926D01*
X74485800Y-138405028D01*
X74485800Y-143604771D01*
X74485269Y-143612873D01*
X74480618Y-143648199D01*
X74480618Y-143648200D01*
X74485800Y-143687560D01*
X74501255Y-143804960D01*
X74501256Y-143804962D01*
X74555474Y-143935857D01*
X74561764Y-143951041D01*
X74658018Y-144076482D01*
X74686295Y-144098180D01*
X74692385Y-144103520D01*
X78388513Y-147799648D01*
X82018769Y-151429904D01*
X82024120Y-151436005D01*
X82045818Y-151464282D01*
X82134645Y-151532441D01*
X82171259Y-151560536D01*
X82171262Y-151560537D01*
X82171263Y-151560538D01*
X82244298Y-151590790D01*
X82317338Y-151621044D01*
X82395719Y-151631363D01*
X82474099Y-151641682D01*
X82474100Y-151641682D01*
X82509429Y-151637030D01*
X82517528Y-151636500D01*
X83386552Y-151636500D01*
X83453591Y-151656185D01*
X83478698Y-151677523D01*
X83507029Y-151708988D01*
X83507033Y-151708992D01*
X83507035Y-151708993D01*
X83660165Y-151820248D01*
X83660170Y-151820251D01*
X83833092Y-151897242D01*
X83833097Y-151897244D01*
X84018254Y-151936600D01*
X84018255Y-151936600D01*
X84207544Y-151936600D01*
X84207546Y-151936600D01*
X84298712Y-151917222D01*
X84368379Y-151922538D01*
X84424113Y-151964675D01*
X84448218Y-152030255D01*
X84447814Y-152051472D01*
X84439540Y-152130199D01*
X84439540Y-152130200D01*
X84459326Y-152318456D01*
X84459327Y-152318459D01*
X84517818Y-152498477D01*
X84517821Y-152498484D01*
X84612467Y-152662416D01*
X84739129Y-152803088D01*
X84892265Y-152914348D01*
X84892270Y-152914351D01*
X85065192Y-152991342D01*
X85065197Y-152991344D01*
X85250354Y-153030700D01*
X85250355Y-153030700D01*
X85439644Y-153030700D01*
X85439646Y-153030700D01*
X85624803Y-152991344D01*
X85797730Y-152914351D01*
X85950871Y-152803088D01*
X86077533Y-152662416D01*
X86154691Y-152528775D01*
X86205258Y-152480559D01*
X86273865Y-152467336D01*
X86338730Y-152493304D01*
X86349759Y-152503094D01*
X87341381Y-153494716D01*
X87374866Y-153556039D01*
X87377700Y-153582397D01*
X87377700Y-153690447D01*
X87358015Y-153757486D01*
X87345850Y-153773419D01*
X87245666Y-153884685D01*
X87151021Y-154048615D01*
X87151018Y-154048622D01*
X87092527Y-154228640D01*
X87092526Y-154228644D01*
X87072740Y-154416900D01*
X87092526Y-154605156D01*
X87092527Y-154605159D01*
X87151018Y-154785177D01*
X87151021Y-154785184D01*
X87245667Y-154949116D01*
X87327071Y-155039524D01*
X87372329Y-155089788D01*
X87525465Y-155201048D01*
X87525470Y-155201051D01*
X87698392Y-155278042D01*
X87698397Y-155278044D01*
X87883554Y-155317400D01*
X87883555Y-155317400D01*
X88072844Y-155317400D01*
X88072846Y-155317400D01*
X88258003Y-155278044D01*
X88430930Y-155201051D01*
X88584071Y-155089788D01*
X88710733Y-154949116D01*
X88805379Y-154785184D01*
X88863874Y-154605156D01*
X88883660Y-154416900D01*
X88863874Y-154228644D01*
X88805379Y-154048616D01*
X88710733Y-153884684D01*
X88655828Y-153823706D01*
X88610550Y-153773419D01*
X88580320Y-153710427D01*
X88578700Y-153690447D01*
X88578700Y-153325728D01*
X88579231Y-153317626D01*
X88583882Y-153282299D01*
X88583882Y-153282298D01*
X88563244Y-153125539D01*
X88563242Y-153125534D01*
X88502738Y-152979463D01*
X88502738Y-152979462D01*
X88502736Y-152979459D01*
X88430650Y-152885515D01*
X88418566Y-152869766D01*
X88406483Y-152854018D01*
X88378209Y-152832323D01*
X88372112Y-152826977D01*
X84089419Y-148544284D01*
X84055934Y-148482961D01*
X84053100Y-148456603D01*
X84053100Y-148040000D01*
X84072785Y-147972961D01*
X84125589Y-147927206D01*
X84177100Y-147916000D01*
X84282244Y-147916000D01*
X84282246Y-147916000D01*
X84467403Y-147876644D01*
X84640330Y-147799651D01*
X84793471Y-147688388D01*
X84920133Y-147547716D01*
X85014779Y-147383784D01*
X85073274Y-147203756D01*
X85093060Y-147015500D01*
X85093060Y-147015497D01*
X85093060Y-147010636D01*
X85112745Y-146943597D01*
X85129379Y-146922955D01*
X85996445Y-146055889D01*
X88757722Y-143294611D01*
X88763799Y-143289283D01*
X88792082Y-143267582D01*
X88888336Y-143142141D01*
X88948844Y-142996062D01*
X88964300Y-142878661D01*
X88969482Y-142839300D01*
X88964830Y-142803969D01*
X88964300Y-142795871D01*
X88964300Y-136848700D01*
X88983985Y-136781661D01*
X89036789Y-136735906D01*
X89088300Y-136724700D01*
X89216844Y-136724700D01*
X89216846Y-136724700D01*
X89402003Y-136685344D01*
X89574930Y-136608351D01*
X89728071Y-136497088D01*
X89756309Y-136465727D01*
X89815795Y-136429079D01*
X89848458Y-136424700D01*
X91807103Y-136424700D01*
X91874142Y-136444385D01*
X91894784Y-136461019D01*
X92811621Y-137377856D01*
X92845106Y-137439179D01*
X92847940Y-137465537D01*
X92847940Y-137470397D01*
X92847940Y-137470400D01*
X92867726Y-137658656D01*
X92867727Y-137658659D01*
X92926218Y-137838677D01*
X92926221Y-137838684D01*
X93020867Y-138002616D01*
X93104798Y-138095830D01*
X93147529Y-138143288D01*
X93300665Y-138254548D01*
X93300670Y-138254551D01*
X93473592Y-138331542D01*
X93473597Y-138331544D01*
X93658754Y-138370900D01*
X93658755Y-138370900D01*
X93848044Y-138370900D01*
X93848046Y-138370900D01*
X94033203Y-138331544D01*
X94206130Y-138254551D01*
X94359271Y-138143288D01*
X94485933Y-138002616D01*
X94580579Y-137838684D01*
X94639074Y-137658656D01*
X94658860Y-137470400D01*
X94639074Y-137282144D01*
X94580579Y-137102116D01*
X94485933Y-136938184D01*
X94359271Y-136797512D01*
X94337454Y-136781661D01*
X94206134Y-136686251D01*
X94206129Y-136686248D01*
X94033207Y-136609257D01*
X94033202Y-136609255D01*
X93877568Y-136576175D01*
X93848046Y-136569900D01*
X93848045Y-136569900D01*
X93753497Y-136569900D01*
X93686458Y-136550215D01*
X93665816Y-136533581D01*
X93161500Y-136029265D01*
X92562520Y-135430285D01*
X92557180Y-135424195D01*
X92535482Y-135395918D01*
X92410041Y-135299664D01*
X92352271Y-135275735D01*
X92263962Y-135239156D01*
X92263960Y-135239155D01*
X92146561Y-135223700D01*
X92107200Y-135218518D01*
X92071870Y-135223169D01*
X92063772Y-135223700D01*
X90483128Y-135223700D01*
X90416089Y-135204015D01*
X90370334Y-135151211D01*
X90360390Y-135082053D01*
X90365197Y-135061382D01*
X90376369Y-135026998D01*
X90412774Y-134914956D01*
X90432560Y-134726700D01*
X90432560Y-134726697D01*
X90432560Y-134721836D01*
X90452245Y-134654797D01*
X90468879Y-134634155D01*
X94700859Y-130402175D01*
X98961021Y-126142013D01*
X99022342Y-126108530D01*
X99092034Y-126113514D01*
X99147967Y-126155386D01*
X99172384Y-126220850D01*
X99172700Y-126229696D01*
X99172700Y-135977903D01*
X99153015Y-136044942D01*
X99136381Y-136065584D01*
X91341784Y-143860181D01*
X91280461Y-143893666D01*
X91254103Y-143896500D01*
X91159554Y-143896500D01*
X91127097Y-143903398D01*
X90974397Y-143935855D01*
X90974392Y-143935857D01*
X90801470Y-144012848D01*
X90801465Y-144012851D01*
X90648329Y-144124111D01*
X90521666Y-144264785D01*
X90427021Y-144428715D01*
X90427018Y-144428722D01*
X90368527Y-144608740D01*
X90368526Y-144608744D01*
X90360079Y-144689110D01*
X90352187Y-144764198D01*
X90325602Y-144828813D01*
X90268304Y-144868797D01*
X90254648Y-144872526D01*
X90211696Y-144881656D01*
X90211692Y-144881657D01*
X90038770Y-144958648D01*
X90038765Y-144958651D01*
X89885629Y-145069911D01*
X89758966Y-145210585D01*
X89664321Y-145374515D01*
X89664318Y-145374522D01*
X89605827Y-145554540D01*
X89605826Y-145554544D01*
X89586040Y-145742800D01*
X89605826Y-145931056D01*
X89605827Y-145931059D01*
X89664318Y-146111077D01*
X89664321Y-146111084D01*
X89758967Y-146275016D01*
X89885628Y-146415687D01*
X89885629Y-146415688D01*
X90038765Y-146526948D01*
X90038770Y-146526951D01*
X90211692Y-146603942D01*
X90211697Y-146603944D01*
X90396854Y-146643300D01*
X90396855Y-146643300D01*
X90586144Y-146643300D01*
X90586146Y-146643300D01*
X90771303Y-146603944D01*
X90944230Y-146526951D01*
X91097371Y-146415688D01*
X91125609Y-146384327D01*
X91185095Y-146347679D01*
X91217758Y-146343300D01*
X91255072Y-146343300D01*
X91263170Y-146343830D01*
X91298500Y-146348482D01*
X91298501Y-146348482D01*
X91350754Y-146341602D01*
X91455262Y-146327844D01*
X91601341Y-146267336D01*
X91648240Y-146231349D01*
X91726782Y-146171082D01*
X91748484Y-146142798D01*
X91753810Y-146136723D01*
X99761221Y-138129313D01*
X99822542Y-138095830D01*
X99892234Y-138100814D01*
X99948167Y-138142686D01*
X99972584Y-138208150D01*
X99972900Y-138216996D01*
X99972900Y-149426502D01*
X99953215Y-149493541D01*
X99936581Y-149514183D01*
X90603548Y-158847215D01*
X90542225Y-158880700D01*
X90475604Y-158876815D01*
X90369616Y-158840429D01*
X90124335Y-158799500D01*
X89875665Y-158799500D01*
X89630383Y-158840429D01*
X89395197Y-158921169D01*
X89395188Y-158921172D01*
X89176493Y-159039524D01*
X88980257Y-159192261D01*
X88811833Y-159375217D01*
X88675826Y-159583393D01*
X88575936Y-159811118D01*
X88514892Y-160052175D01*
X88514890Y-160052187D01*
X88494357Y-160299994D01*
X88494357Y-160300005D01*
X88514890Y-160547812D01*
X88514892Y-160547824D01*
X88575936Y-160788881D01*
X88675826Y-161016606D01*
X88811833Y-161224782D01*
X88811836Y-161224785D01*
X88980256Y-161407738D01*
X89176491Y-161560474D01*
X89395190Y-161678828D01*
X89630386Y-161759571D01*
X89875665Y-161800500D01*
X90124335Y-161800500D01*
X90369614Y-161759571D01*
X90604810Y-161678828D01*
X90823509Y-161560474D01*
X91019744Y-161407738D01*
X91188164Y-161224785D01*
X91324173Y-161016607D01*
X91424063Y-160788881D01*
X91485108Y-160547821D01*
X91485109Y-160547812D01*
X91505643Y-160300005D01*
X91505643Y-160299994D01*
X91485109Y-160052187D01*
X91485108Y-160052183D01*
X91485108Y-160052179D01*
X91465618Y-159975217D01*
X91423992Y-159810839D01*
X91426616Y-159741018D01*
X91456514Y-159692719D01*
X100967322Y-150181911D01*
X100973399Y-150176583D01*
X101001682Y-150154882D01*
X101097936Y-150029441D01*
X101158444Y-149883362D01*
X101173900Y-149765961D01*
X101179082Y-149726600D01*
X101174430Y-149691269D01*
X101173900Y-149683171D01*
X101173900Y-135466119D01*
X101193585Y-135399080D01*
X101246389Y-135353325D01*
X101315547Y-135343381D01*
X101379103Y-135372406D01*
X101385581Y-135378438D01*
X102521995Y-136514852D01*
X102555480Y-136576175D01*
X102557634Y-136589569D01*
X102562825Y-136638949D01*
X102562827Y-136638960D01*
X102621318Y-136818977D01*
X102621321Y-136818984D01*
X102679687Y-136920076D01*
X102696300Y-136982076D01*
X102696300Y-150568380D01*
X102676615Y-150635419D01*
X102659981Y-150656061D01*
X82085266Y-171230775D01*
X82082540Y-171233342D01*
X82030504Y-171279443D01*
X82029265Y-171278045D01*
X81978359Y-171309967D01*
X81908494Y-171309191D01*
X81857068Y-171278290D01*
X81848820Y-171270042D01*
X81662482Y-171139565D01*
X81456326Y-171043434D01*
X81456317Y-171043430D01*
X81236610Y-170984560D01*
X81236599Y-170984558D01*
X81010002Y-170964734D01*
X81009998Y-170964734D01*
X80783400Y-170984558D01*
X80783389Y-170984560D01*
X80563682Y-171043430D01*
X80563673Y-171043434D01*
X80357513Y-171139568D01*
X80284527Y-171190673D01*
X80877467Y-171783613D01*
X80867685Y-171785020D01*
X80736900Y-171844748D01*
X80628239Y-171938902D01*
X80550507Y-172059856D01*
X80526922Y-172140176D01*
X79930973Y-171544227D01*
X79879868Y-171617213D01*
X79783734Y-171823373D01*
X79783731Y-171823380D01*
X79745033Y-171967802D01*
X79708667Y-172027462D01*
X79645820Y-172057991D01*
X79576445Y-172049696D01*
X79522567Y-172005210D01*
X79505484Y-171967803D01*
X79466739Y-171823204D01*
X79370568Y-171616966D01*
X79240047Y-171430561D01*
X79240045Y-171430558D01*
X79079141Y-171269654D01*
X78892734Y-171139132D01*
X78892732Y-171139131D01*
X78686497Y-171042961D01*
X78686488Y-171042958D01*
X78466697Y-170984066D01*
X78466693Y-170984065D01*
X78466692Y-170984065D01*
X78466691Y-170984064D01*
X78466686Y-170984064D01*
X78240002Y-170964232D01*
X78239998Y-170964232D01*
X78013313Y-170984064D01*
X78013302Y-170984066D01*
X77793511Y-171042958D01*
X77793502Y-171042961D01*
X77587267Y-171139131D01*
X77587265Y-171139132D01*
X77400858Y-171269654D01*
X77239954Y-171430558D01*
X77109432Y-171616965D01*
X77109431Y-171616967D01*
X77013261Y-171823202D01*
X77013259Y-171823208D01*
X76974516Y-171967802D01*
X76938151Y-172027462D01*
X76875304Y-172057991D01*
X76805928Y-172049696D01*
X76752050Y-172005211D01*
X76734966Y-171967801D01*
X76696269Y-171823382D01*
X76696265Y-171823373D01*
X76600133Y-171617216D01*
X76600131Y-171617212D01*
X76549026Y-171544226D01*
X76549025Y-171544226D01*
X75953076Y-172140175D01*
X75929493Y-172059856D01*
X75851761Y-171938902D01*
X75743100Y-171844748D01*
X75612315Y-171785020D01*
X75602533Y-171783613D01*
X76195472Y-171190674D01*
X76195471Y-171190673D01*
X76122483Y-171139566D01*
X76122481Y-171139565D01*
X75916326Y-171043434D01*
X75916317Y-171043430D01*
X75696610Y-170984560D01*
X75696599Y-170984558D01*
X75470002Y-170964734D01*
X75469998Y-170964734D01*
X75243400Y-170984558D01*
X75243389Y-170984560D01*
X75023682Y-171043430D01*
X75023673Y-171043434D01*
X74817513Y-171139568D01*
X74744527Y-171190672D01*
X74744526Y-171190673D01*
X75337467Y-171783613D01*
X75327685Y-171785020D01*
X75196900Y-171844748D01*
X75088239Y-171938902D01*
X75010507Y-172059856D01*
X74986923Y-172140176D01*
X74390973Y-171544226D01*
X74390972Y-171544227D01*
X74339868Y-171617213D01*
X74243734Y-171823373D01*
X74243730Y-171823382D01*
X74184860Y-172043089D01*
X74184858Y-172043100D01*
X74165034Y-172269697D01*
X74165034Y-172269702D01*
X70569777Y-172269702D01*
X70536542Y-172217332D01*
X70536539Y-172217328D01*
X70445712Y-172107538D01*
X69807732Y-172745518D01*
X69644870Y-172554830D01*
X69454180Y-172391966D01*
X70095027Y-171751119D01*
X70095026Y-171751117D01*
X69852227Y-171574714D01*
X69852209Y-171574703D01*
X69576552Y-171423159D01*
X69576544Y-171423155D01*
X69284073Y-171307359D01*
X68979379Y-171229126D01*
X68979370Y-171229124D01*
X68667298Y-171189700D01*
X68352701Y-171189700D01*
X68040629Y-171229124D01*
X68040620Y-171229126D01*
X67735926Y-171307359D01*
X67443455Y-171423155D01*
X67443447Y-171423159D01*
X67167787Y-171574704D01*
X67167782Y-171574707D01*
X66924972Y-171751118D01*
X66924971Y-171751119D01*
X67565819Y-172391966D01*
X67375130Y-172554830D01*
X67212266Y-172745518D01*
X66574286Y-172107538D01*
X66574285Y-172107538D01*
X66483459Y-172217329D01*
X66483457Y-172217332D01*
X66314903Y-172482932D01*
X66314900Y-172482938D01*
X66180965Y-172767562D01*
X66180963Y-172767567D01*
X66083755Y-173066741D01*
X66024808Y-173375750D01*
X66024807Y-173375757D01*
X66005057Y-173689694D01*
X66005057Y-173689705D01*
X59436000Y-173689705D01*
X59436000Y-163100005D01*
X69394357Y-163100005D01*
X69414890Y-163347812D01*
X69414892Y-163347824D01*
X69475936Y-163588881D01*
X69575826Y-163816606D01*
X69711833Y-164024782D01*
X69711836Y-164024785D01*
X69880256Y-164207738D01*
X70076491Y-164360474D01*
X70295190Y-164478828D01*
X70530386Y-164559571D01*
X70775665Y-164600500D01*
X71024335Y-164600500D01*
X71269614Y-164559571D01*
X71504810Y-164478828D01*
X71723509Y-164360474D01*
X71919744Y-164207738D01*
X72088164Y-164024785D01*
X72224173Y-163816607D01*
X72324063Y-163588881D01*
X72385108Y-163347821D01*
X72405643Y-163100000D01*
X72385108Y-162852179D01*
X72324063Y-162611119D01*
X72224173Y-162383393D01*
X72155857Y-162278827D01*
X72088166Y-162175217D01*
X72066557Y-162151744D01*
X71919744Y-161992262D01*
X71723509Y-161839526D01*
X71723507Y-161839525D01*
X71723506Y-161839524D01*
X71504811Y-161721172D01*
X71504802Y-161721169D01*
X71269616Y-161640429D01*
X71024335Y-161599500D01*
X70775665Y-161599500D01*
X70530383Y-161640429D01*
X70295197Y-161721169D01*
X70295188Y-161721172D01*
X70076493Y-161839524D01*
X69880257Y-161992261D01*
X69711833Y-162175217D01*
X69575826Y-162383393D01*
X69475936Y-162611118D01*
X69414892Y-162852175D01*
X69414890Y-162852187D01*
X69394357Y-163099994D01*
X69394357Y-163100005D01*
X59436000Y-163100005D01*
X59436000Y-160900005D01*
X63694357Y-160900005D01*
X63714890Y-161147812D01*
X63714892Y-161147824D01*
X63775936Y-161388881D01*
X63875826Y-161616606D01*
X64011833Y-161824782D01*
X64011836Y-161824785D01*
X64180256Y-162007738D01*
X64376491Y-162160474D01*
X64595190Y-162278828D01*
X64830386Y-162359571D01*
X65075665Y-162400500D01*
X65324335Y-162400500D01*
X65569614Y-162359571D01*
X65804810Y-162278828D01*
X66023509Y-162160474D01*
X66219744Y-162007738D01*
X66388164Y-161824785D01*
X66524173Y-161616607D01*
X66624063Y-161388881D01*
X66685108Y-161147821D01*
X66705643Y-160900000D01*
X66696435Y-160788881D01*
X66685109Y-160652187D01*
X66685107Y-160652175D01*
X66624063Y-160411118D01*
X66575324Y-160300005D01*
X78644357Y-160300005D01*
X78664890Y-160547812D01*
X78664892Y-160547824D01*
X78725936Y-160788881D01*
X78825826Y-161016606D01*
X78961833Y-161224782D01*
X78961836Y-161224785D01*
X79130256Y-161407738D01*
X79326491Y-161560474D01*
X79545190Y-161678828D01*
X79780386Y-161759571D01*
X80025665Y-161800500D01*
X80274335Y-161800500D01*
X80519614Y-161759571D01*
X80754810Y-161678828D01*
X80973509Y-161560474D01*
X81169744Y-161407738D01*
X81338164Y-161224785D01*
X81474173Y-161016607D01*
X81574063Y-160788881D01*
X81635108Y-160547821D01*
X81635109Y-160547812D01*
X81651500Y-160350005D01*
X83544357Y-160350005D01*
X83564890Y-160597812D01*
X83564892Y-160597824D01*
X83625936Y-160838881D01*
X83725826Y-161066606D01*
X83861833Y-161274782D01*
X83861836Y-161274785D01*
X84030256Y-161457738D01*
X84226491Y-161610474D01*
X84445190Y-161728828D01*
X84680386Y-161809571D01*
X84925665Y-161850500D01*
X85174335Y-161850500D01*
X85419614Y-161809571D01*
X85654810Y-161728828D01*
X85873509Y-161610474D01*
X86069744Y-161457738D01*
X86238164Y-161274785D01*
X86374173Y-161066607D01*
X86474063Y-160838881D01*
X86535108Y-160597821D01*
X86555643Y-160350000D01*
X86551500Y-160300005D01*
X86535109Y-160102187D01*
X86535107Y-160102175D01*
X86474063Y-159861118D01*
X86374173Y-159633393D01*
X86238166Y-159425217D01*
X86214492Y-159399500D01*
X86069744Y-159242262D01*
X85873509Y-159089526D01*
X85873507Y-159089525D01*
X85873506Y-159089524D01*
X85654811Y-158971172D01*
X85654802Y-158971169D01*
X85419616Y-158890429D01*
X85174335Y-158849500D01*
X84925665Y-158849500D01*
X84680383Y-158890429D01*
X84445197Y-158971169D01*
X84445188Y-158971172D01*
X84226493Y-159089524D01*
X84030257Y-159242261D01*
X83861833Y-159425217D01*
X83725826Y-159633393D01*
X83625936Y-159861118D01*
X83564892Y-160102175D01*
X83564890Y-160102187D01*
X83544357Y-160349994D01*
X83544357Y-160350005D01*
X81651500Y-160350005D01*
X81655643Y-160300005D01*
X81655643Y-160299994D01*
X81635109Y-160052187D01*
X81635107Y-160052175D01*
X81574063Y-159811118D01*
X81474173Y-159583393D01*
X81338166Y-159375217D01*
X81316557Y-159351744D01*
X81169744Y-159192262D01*
X80973509Y-159039526D01*
X80973507Y-159039525D01*
X80973506Y-159039524D01*
X80754811Y-158921172D01*
X80754802Y-158921169D01*
X80519616Y-158840429D01*
X80274335Y-158799500D01*
X80025665Y-158799500D01*
X79780383Y-158840429D01*
X79545197Y-158921169D01*
X79545188Y-158921172D01*
X79326493Y-159039524D01*
X79130257Y-159192261D01*
X78961833Y-159375217D01*
X78825826Y-159583393D01*
X78725936Y-159811118D01*
X78664892Y-160052175D01*
X78664890Y-160052187D01*
X78644357Y-160299994D01*
X78644357Y-160300005D01*
X66575324Y-160300005D01*
X66524173Y-160183393D01*
X66388166Y-159975217D01*
X66283130Y-159861118D01*
X66219744Y-159792262D01*
X66023509Y-159639526D01*
X66023507Y-159639525D01*
X66023506Y-159639524D01*
X65804811Y-159521172D01*
X65804802Y-159521169D01*
X65569616Y-159440429D01*
X65324335Y-159399500D01*
X65075665Y-159399500D01*
X64830383Y-159440429D01*
X64595197Y-159521169D01*
X64595188Y-159521172D01*
X64376493Y-159639524D01*
X64180257Y-159792261D01*
X64011833Y-159975217D01*
X63875826Y-160183393D01*
X63775936Y-160411118D01*
X63714892Y-160652175D01*
X63714890Y-160652187D01*
X63694357Y-160899994D01*
X63694357Y-160900005D01*
X59436000Y-160900005D01*
X59436000Y-156300005D01*
X63644357Y-156300005D01*
X63664890Y-156547812D01*
X63664892Y-156547824D01*
X63725936Y-156788881D01*
X63825826Y-157016606D01*
X63961833Y-157224782D01*
X63961836Y-157224785D01*
X64130256Y-157407738D01*
X64326491Y-157560474D01*
X64545190Y-157678828D01*
X64780386Y-157759571D01*
X65025665Y-157800500D01*
X65274335Y-157800500D01*
X65519614Y-157759571D01*
X65754810Y-157678828D01*
X65973509Y-157560474D01*
X66169744Y-157407738D01*
X66338164Y-157224785D01*
X66474173Y-157016607D01*
X66574063Y-156788881D01*
X66635108Y-156547821D01*
X66655643Y-156300000D01*
X66635108Y-156052179D01*
X66574063Y-155811119D01*
X66474173Y-155583393D01*
X66338166Y-155375217D01*
X66316557Y-155351744D01*
X66169744Y-155192262D01*
X65973509Y-155039526D01*
X65973507Y-155039525D01*
X65973506Y-155039524D01*
X65754811Y-154921172D01*
X65754802Y-154921169D01*
X65519616Y-154840429D01*
X65274335Y-154799500D01*
X65025665Y-154799500D01*
X64780383Y-154840429D01*
X64545197Y-154921169D01*
X64545188Y-154921172D01*
X64326493Y-155039524D01*
X64130257Y-155192261D01*
X63961833Y-155375217D01*
X63825826Y-155583393D01*
X63725936Y-155811118D01*
X63664892Y-156052175D01*
X63664890Y-156052187D01*
X63644357Y-156299994D01*
X63644357Y-156300005D01*
X59436000Y-156300005D01*
X59436000Y-150950005D01*
X60444357Y-150950005D01*
X60464890Y-151197812D01*
X60464892Y-151197824D01*
X60525936Y-151438881D01*
X60625826Y-151666606D01*
X60761833Y-151874782D01*
X60761836Y-151874785D01*
X60930256Y-152057738D01*
X61126491Y-152210474D01*
X61345190Y-152328828D01*
X61580386Y-152409571D01*
X61825665Y-152450500D01*
X62074335Y-152450500D01*
X62319614Y-152409571D01*
X62554810Y-152328828D01*
X62773509Y-152210474D01*
X62969744Y-152057738D01*
X63138164Y-151874785D01*
X63274173Y-151666607D01*
X63374063Y-151438881D01*
X63435108Y-151197821D01*
X63436884Y-151176392D01*
X63455643Y-150950005D01*
X63455643Y-150949994D01*
X63435109Y-150702187D01*
X63435107Y-150702175D01*
X63374063Y-150461118D01*
X63274173Y-150233393D01*
X63138166Y-150025217D01*
X63116557Y-150001744D01*
X62969744Y-149842262D01*
X62773509Y-149689526D01*
X62773507Y-149689525D01*
X62773506Y-149689524D01*
X62554811Y-149571172D01*
X62554802Y-149571169D01*
X62319616Y-149490429D01*
X62074335Y-149449500D01*
X61825665Y-149449500D01*
X61580383Y-149490429D01*
X61345197Y-149571169D01*
X61345188Y-149571172D01*
X61126493Y-149689524D01*
X60930257Y-149842261D01*
X60761833Y-150025217D01*
X60625826Y-150233393D01*
X60525936Y-150461118D01*
X60464892Y-150702175D01*
X60464890Y-150702187D01*
X60444357Y-150949994D01*
X60444357Y-150950005D01*
X59436000Y-150950005D01*
X59436000Y-89408000D01*
X70976540Y-89408000D01*
X70996326Y-89596256D01*
X70996327Y-89596259D01*
X71054818Y-89776277D01*
X71054821Y-89776284D01*
X71149467Y-89940216D01*
X71203297Y-90000000D01*
X71276129Y-90080888D01*
X71429265Y-90192148D01*
X71429270Y-90192151D01*
X71602192Y-90269142D01*
X71602197Y-90269144D01*
X71787354Y-90308500D01*
X71787355Y-90308500D01*
X71976644Y-90308500D01*
X71976646Y-90308500D01*
X72161803Y-90269144D01*
X72334730Y-90192151D01*
X72487871Y-90080888D01*
X72614533Y-89940216D01*
X72709179Y-89776284D01*
X72767674Y-89596256D01*
X72787460Y-89408000D01*
X72767674Y-89219744D01*
X72709179Y-89039716D01*
X72614533Y-88875784D01*
X72487871Y-88735112D01*
X72487870Y-88735111D01*
X72334734Y-88623851D01*
X72334729Y-88623848D01*
X72161807Y-88546857D01*
X72161802Y-88546855D01*
X72016001Y-88515865D01*
X71976646Y-88507500D01*
X71787354Y-88507500D01*
X71754897Y-88514398D01*
X71602197Y-88546855D01*
X71602192Y-88546857D01*
X71429270Y-88623848D01*
X71429265Y-88623851D01*
X71276129Y-88735111D01*
X71149466Y-88875785D01*
X71054821Y-89039715D01*
X71054818Y-89039722D01*
X70997591Y-89215851D01*
X70996326Y-89219744D01*
X70976540Y-89408000D01*
X59436000Y-89408000D01*
X59436000Y-87056330D01*
X60745710Y-87056330D01*
X60775925Y-87279387D01*
X60775926Y-87279390D01*
X60845483Y-87493465D01*
X60952146Y-87691678D01*
X60952148Y-87691681D01*
X61092489Y-87867663D01*
X61092491Y-87867664D01*
X61092492Y-87867666D01*
X61262004Y-88015765D01*
X61455236Y-88131215D01*
X61665976Y-88210307D01*
X61887450Y-88250500D01*
X61887453Y-88250500D01*
X62056148Y-88250500D01*
X62056155Y-88250500D01*
X62224188Y-88235377D01*
X62224192Y-88235376D01*
X62441160Y-88175496D01*
X62441162Y-88175495D01*
X62441170Y-88175493D01*
X62643973Y-88077829D01*
X62826078Y-87945522D01*
X62981632Y-87782825D01*
X63105635Y-87594968D01*
X63107880Y-87589717D01*
X63194100Y-87387995D01*
X63194099Y-87387995D01*
X63194103Y-87387988D01*
X63244191Y-87168537D01*
X63254290Y-86943670D01*
X63224075Y-86720613D01*
X63193008Y-86625000D01*
X77969341Y-86625000D01*
X77989936Y-86860403D01*
X77989938Y-86860413D01*
X78051094Y-87088655D01*
X78051096Y-87088659D01*
X78051097Y-87088663D01*
X78130801Y-87259588D01*
X78150965Y-87302830D01*
X78150967Y-87302834D01*
X78196796Y-87368284D01*
X78286505Y-87496401D01*
X78453599Y-87663495D01*
X78535907Y-87721128D01*
X78647165Y-87799032D01*
X78647167Y-87799033D01*
X78647170Y-87799035D01*
X78861337Y-87898903D01*
X78861343Y-87898904D01*
X78861344Y-87898905D01*
X78875519Y-87902703D01*
X79089592Y-87960063D01*
X79266034Y-87975500D01*
X79324999Y-87980659D01*
X79325000Y-87980659D01*
X79325001Y-87980659D01*
X79383966Y-87975500D01*
X79560408Y-87960063D01*
X79788663Y-87898903D01*
X80002830Y-87799035D01*
X80196401Y-87663495D01*
X80363495Y-87496401D01*
X80493425Y-87310842D01*
X80548002Y-87267217D01*
X80617500Y-87260023D01*
X80679855Y-87291546D01*
X80696575Y-87310842D01*
X80826500Y-87496395D01*
X80826505Y-87496401D01*
X80993599Y-87663495D01*
X81075907Y-87721128D01*
X81187165Y-87799032D01*
X81187167Y-87799033D01*
X81187170Y-87799035D01*
X81401337Y-87898903D01*
X81401343Y-87898904D01*
X81401344Y-87898905D01*
X81415519Y-87902703D01*
X81629592Y-87960063D01*
X81806034Y-87975500D01*
X81864999Y-87980659D01*
X81865000Y-87980659D01*
X81865001Y-87980659D01*
X81923966Y-87975500D01*
X82100408Y-87960063D01*
X82328663Y-87898903D01*
X82542830Y-87799035D01*
X82736401Y-87663495D01*
X82903495Y-87496401D01*
X83033425Y-87310842D01*
X83088002Y-87267217D01*
X83157500Y-87260023D01*
X83219855Y-87291546D01*
X83236575Y-87310842D01*
X83366500Y-87496395D01*
X83366505Y-87496401D01*
X83533599Y-87663495D01*
X83615907Y-87721128D01*
X83727165Y-87799032D01*
X83727167Y-87799033D01*
X83727170Y-87799035D01*
X83941337Y-87898903D01*
X83941343Y-87898904D01*
X83941344Y-87898905D01*
X83955519Y-87902703D01*
X84169592Y-87960063D01*
X84346034Y-87975500D01*
X84404999Y-87980659D01*
X84405000Y-87980659D01*
X84405001Y-87980659D01*
X84463966Y-87975500D01*
X84640408Y-87960063D01*
X84868663Y-87898903D01*
X85082830Y-87799035D01*
X85276401Y-87663495D01*
X85443495Y-87496401D01*
X85573730Y-87310405D01*
X85628307Y-87266781D01*
X85697805Y-87259587D01*
X85760160Y-87291110D01*
X85776879Y-87310405D01*
X85906890Y-87496078D01*
X86073917Y-87663105D01*
X86267421Y-87798600D01*
X86481507Y-87898429D01*
X86481516Y-87898433D01*
X86695000Y-87955634D01*
X86695000Y-87060501D01*
X86802685Y-87109680D01*
X86909237Y-87125000D01*
X86980763Y-87125000D01*
X87087315Y-87109680D01*
X87195000Y-87060501D01*
X87195000Y-87955633D01*
X87408483Y-87898433D01*
X87408492Y-87898429D01*
X87622578Y-87798600D01*
X87816082Y-87663105D01*
X87983105Y-87496082D01*
X88113119Y-87310405D01*
X88167696Y-87266781D01*
X88237195Y-87259588D01*
X88299549Y-87291110D01*
X88316269Y-87310405D01*
X88446505Y-87496401D01*
X88613599Y-87663495D01*
X88695907Y-87721128D01*
X88807165Y-87799032D01*
X88807167Y-87799033D01*
X88807170Y-87799035D01*
X89021337Y-87898903D01*
X89021343Y-87898904D01*
X89021344Y-87898905D01*
X89035519Y-87902703D01*
X89249592Y-87960063D01*
X89426034Y-87975500D01*
X89484999Y-87980659D01*
X89485000Y-87980659D01*
X89485001Y-87980659D01*
X89543966Y-87975500D01*
X89720408Y-87960063D01*
X89948663Y-87898903D01*
X90162830Y-87799035D01*
X90356401Y-87663495D01*
X90478329Y-87541566D01*
X90539648Y-87508084D01*
X90609340Y-87513068D01*
X90665274Y-87554939D01*
X90682189Y-87585917D01*
X90731202Y-87717328D01*
X90731206Y-87717335D01*
X90817452Y-87832544D01*
X90817455Y-87832547D01*
X90932664Y-87918793D01*
X90932671Y-87918797D01*
X91067517Y-87969091D01*
X91067516Y-87969091D01*
X91074444Y-87969835D01*
X91127127Y-87975500D01*
X92922872Y-87975499D01*
X92982483Y-87969091D01*
X93117331Y-87918796D01*
X93232546Y-87832546D01*
X93318796Y-87717331D01*
X93369091Y-87582483D01*
X93375500Y-87522873D01*
X93375500Y-86878800D01*
X95948464Y-86878800D01*
X96005667Y-87092286D01*
X96005670Y-87092292D01*
X96105499Y-87306378D01*
X96240994Y-87499882D01*
X96408017Y-87666905D01*
X96601521Y-87802400D01*
X96815607Y-87902229D01*
X96815616Y-87902233D01*
X97029100Y-87959434D01*
X97029100Y-87064301D01*
X97136785Y-87113480D01*
X97243337Y-87128800D01*
X97314863Y-87128800D01*
X97421415Y-87113480D01*
X97529100Y-87064301D01*
X97529100Y-87959433D01*
X97742583Y-87902233D01*
X97742592Y-87902229D01*
X97956678Y-87802400D01*
X98150182Y-87666905D01*
X98317205Y-87499882D01*
X98447219Y-87314205D01*
X98501796Y-87270581D01*
X98571295Y-87263388D01*
X98633649Y-87294910D01*
X98650369Y-87314205D01*
X98780605Y-87500201D01*
X98947699Y-87667295D01*
X99044484Y-87735065D01*
X99141265Y-87802832D01*
X99141267Y-87802833D01*
X99141270Y-87802835D01*
X99355437Y-87902703D01*
X99583692Y-87963863D01*
X99760134Y-87979300D01*
X99819099Y-87984459D01*
X99819100Y-87984459D01*
X99819101Y-87984459D01*
X99878066Y-87979300D01*
X100054508Y-87963863D01*
X100282763Y-87902703D01*
X100496930Y-87802835D01*
X100690501Y-87667295D01*
X100812429Y-87545366D01*
X100873748Y-87511884D01*
X100943440Y-87516868D01*
X100999374Y-87558739D01*
X101016289Y-87589717D01*
X101065302Y-87721128D01*
X101065306Y-87721135D01*
X101151552Y-87836344D01*
X101151555Y-87836347D01*
X101266764Y-87922593D01*
X101266771Y-87922597D01*
X101401617Y-87972891D01*
X101401616Y-87972891D01*
X101408544Y-87973635D01*
X101461227Y-87979300D01*
X103256972Y-87979299D01*
X103316583Y-87972891D01*
X103451431Y-87922596D01*
X103566646Y-87836346D01*
X103652896Y-87721131D01*
X103703191Y-87586283D01*
X103709600Y-87526673D01*
X103709600Y-87000000D01*
X150094540Y-87000000D01*
X150114326Y-87188256D01*
X150114327Y-87188259D01*
X150172818Y-87368277D01*
X150172821Y-87368284D01*
X150267467Y-87532216D01*
X150385674Y-87663498D01*
X150394129Y-87672888D01*
X150547265Y-87784148D01*
X150547270Y-87784151D01*
X150720192Y-87861142D01*
X150720197Y-87861144D01*
X150905354Y-87900500D01*
X150999903Y-87900500D01*
X151066942Y-87920185D01*
X151087584Y-87936819D01*
X153544669Y-90393904D01*
X153550022Y-90400007D01*
X153571717Y-90428281D01*
X153689106Y-90518357D01*
X153697157Y-90524535D01*
X153697158Y-90524535D01*
X153697159Y-90524536D01*
X153843238Y-90585044D01*
X153921505Y-90595348D01*
X153999999Y-90605682D01*
X154000000Y-90605682D01*
X154035329Y-90601030D01*
X154043428Y-90600500D01*
X154773742Y-90600500D01*
X154840781Y-90620185D01*
X154865891Y-90641527D01*
X154894128Y-90672887D01*
X154894135Y-90672893D01*
X155047265Y-90784148D01*
X155047270Y-90784151D01*
X155220192Y-90861142D01*
X155220197Y-90861144D01*
X155405354Y-90900500D01*
X155405355Y-90900500D01*
X155594644Y-90900500D01*
X155594646Y-90900500D01*
X155779803Y-90861144D01*
X155952730Y-90784151D01*
X156105871Y-90672888D01*
X156232533Y-90532216D01*
X156327179Y-90368284D01*
X156385674Y-90188256D01*
X156405460Y-90000000D01*
X156385674Y-89811744D01*
X156327179Y-89631716D01*
X156232533Y-89467784D01*
X156105871Y-89327112D01*
X156105863Y-89327106D01*
X155952734Y-89215851D01*
X155952729Y-89215848D01*
X155779807Y-89138857D01*
X155779802Y-89138855D01*
X155634001Y-89107865D01*
X155594646Y-89099500D01*
X155405354Y-89099500D01*
X155372897Y-89106398D01*
X155220197Y-89138855D01*
X155220192Y-89138857D01*
X155047270Y-89215848D01*
X155047265Y-89215851D01*
X154894135Y-89327106D01*
X154894128Y-89327112D01*
X154865891Y-89358473D01*
X154806405Y-89395121D01*
X154773742Y-89399500D01*
X154300097Y-89399500D01*
X154233058Y-89379815D01*
X154212416Y-89363181D01*
X151941779Y-87092544D01*
X151922005Y-87056330D01*
X154745710Y-87056330D01*
X154775925Y-87279387D01*
X154775926Y-87279390D01*
X154845483Y-87493465D01*
X154952146Y-87691678D01*
X154952148Y-87691681D01*
X155092489Y-87867663D01*
X155092491Y-87867664D01*
X155092492Y-87867666D01*
X155262004Y-88015765D01*
X155455236Y-88131215D01*
X155665976Y-88210307D01*
X155887450Y-88250500D01*
X155887453Y-88250500D01*
X156056148Y-88250500D01*
X156056155Y-88250500D01*
X156224188Y-88235377D01*
X156224192Y-88235376D01*
X156441160Y-88175496D01*
X156441162Y-88175495D01*
X156441170Y-88175493D01*
X156643973Y-88077829D01*
X156826078Y-87945522D01*
X156981632Y-87782825D01*
X157105635Y-87594968D01*
X157107880Y-87589717D01*
X157194100Y-87387995D01*
X157194099Y-87387995D01*
X157194103Y-87387988D01*
X157244191Y-87168537D01*
X157254290Y-86943670D01*
X157224075Y-86720613D01*
X157154517Y-86506536D01*
X157047852Y-86308319D01*
X156974109Y-86215849D01*
X156907510Y-86132336D01*
X156903463Y-86128800D01*
X156737996Y-85984235D01*
X156544764Y-85868785D01*
X156426775Y-85824503D01*
X156334023Y-85789692D01*
X156112550Y-85749500D01*
X156112547Y-85749500D01*
X155943845Y-85749500D01*
X155905399Y-85752960D01*
X155775813Y-85764622D01*
X155775807Y-85764623D01*
X155558839Y-85824503D01*
X155558826Y-85824508D01*
X155356033Y-85922167D01*
X155356025Y-85922171D01*
X155173927Y-86054473D01*
X155173925Y-86054474D01*
X155018366Y-86217176D01*
X154894363Y-86405033D01*
X154805899Y-86612004D01*
X154805895Y-86612017D01*
X154755810Y-86831457D01*
X154755808Y-86831468D01*
X154745996Y-87049952D01*
X154745710Y-87056330D01*
X151922005Y-87056330D01*
X151908294Y-87031221D01*
X151905460Y-87004863D01*
X151905460Y-87000002D01*
X151905460Y-87000000D01*
X151885674Y-86811744D01*
X151827179Y-86631716D01*
X151732533Y-86467784D01*
X151605871Y-86327112D01*
X151605870Y-86327111D01*
X151452734Y-86215851D01*
X151452729Y-86215848D01*
X151279807Y-86138857D01*
X151279802Y-86138855D01*
X151134001Y-86107865D01*
X151094646Y-86099500D01*
X150905354Y-86099500D01*
X150872897Y-86106398D01*
X150720197Y-86138855D01*
X150720192Y-86138857D01*
X150547270Y-86215848D01*
X150547265Y-86215851D01*
X150394129Y-86327111D01*
X150267466Y-86467785D01*
X150172821Y-86631715D01*
X150172818Y-86631722D01*
X150143936Y-86720613D01*
X150114326Y-86811744D01*
X150094540Y-87000000D01*
X103709600Y-87000000D01*
X103709599Y-85730928D01*
X103703191Y-85671317D01*
X103701910Y-85667883D01*
X103652897Y-85536471D01*
X103652893Y-85536464D01*
X103566647Y-85421255D01*
X103566644Y-85421252D01*
X103451435Y-85335006D01*
X103451428Y-85335002D01*
X103316582Y-85284708D01*
X103316583Y-85284708D01*
X103256983Y-85278301D01*
X103256981Y-85278300D01*
X103256973Y-85278300D01*
X103256964Y-85278300D01*
X101461229Y-85278300D01*
X101461223Y-85278301D01*
X101401616Y-85284708D01*
X101266771Y-85335002D01*
X101266764Y-85335006D01*
X101151555Y-85421252D01*
X101151552Y-85421255D01*
X101065306Y-85536464D01*
X101065303Y-85536469D01*
X101016289Y-85667883D01*
X100974417Y-85723816D01*
X100908953Y-85748233D01*
X100840680Y-85733381D01*
X100812426Y-85712230D01*
X100690502Y-85590306D01*
X100690495Y-85590301D01*
X100685629Y-85586894D01*
X100613618Y-85536471D01*
X100496934Y-85454767D01*
X100496930Y-85454765D01*
X100488779Y-85450964D01*
X100282763Y-85354897D01*
X100282759Y-85354896D01*
X100282755Y-85354894D01*
X100054513Y-85293738D01*
X100054503Y-85293736D01*
X99819101Y-85273141D01*
X99819099Y-85273141D01*
X99583696Y-85293736D01*
X99583686Y-85293738D01*
X99355444Y-85354894D01*
X99355435Y-85354898D01*
X99141271Y-85454764D01*
X99141269Y-85454765D01*
X98947697Y-85590305D01*
X98780608Y-85757394D01*
X98650369Y-85943395D01*
X98595792Y-85987019D01*
X98526293Y-85994212D01*
X98463939Y-85962690D01*
X98447219Y-85943394D01*
X98317213Y-85757726D01*
X98317208Y-85757720D01*
X98150182Y-85590694D01*
X97956678Y-85455199D01*
X97742592Y-85355370D01*
X97742586Y-85355367D01*
X97529100Y-85298164D01*
X97529100Y-86193298D01*
X97421415Y-86144120D01*
X97314863Y-86128800D01*
X97243337Y-86128800D01*
X97136785Y-86144120D01*
X97029100Y-86193298D01*
X97029100Y-85298164D01*
X97029099Y-85298164D01*
X96815613Y-85355367D01*
X96815607Y-85355370D01*
X96601522Y-85455199D01*
X96601520Y-85455200D01*
X96408026Y-85590686D01*
X96408020Y-85590691D01*
X96240991Y-85757720D01*
X96240986Y-85757726D01*
X96105500Y-85951220D01*
X96105499Y-85951222D01*
X96005670Y-86165307D01*
X96005667Y-86165313D01*
X95948464Y-86378799D01*
X95948464Y-86378800D01*
X96845414Y-86378800D01*
X96819607Y-86418956D01*
X96779100Y-86556911D01*
X96779100Y-86700689D01*
X96819607Y-86838644D01*
X96845414Y-86878800D01*
X95948464Y-86878800D01*
X93375500Y-86878800D01*
X93375499Y-85727128D01*
X93370299Y-85678757D01*
X93369091Y-85667516D01*
X93318797Y-85532671D01*
X93318793Y-85532664D01*
X93232547Y-85417455D01*
X93232544Y-85417452D01*
X93117335Y-85331206D01*
X93117328Y-85331202D01*
X92982482Y-85280908D01*
X92982483Y-85280908D01*
X92922883Y-85274501D01*
X92922881Y-85274500D01*
X92922873Y-85274500D01*
X92922864Y-85274500D01*
X91127129Y-85274500D01*
X91127123Y-85274501D01*
X91067516Y-85280908D01*
X90932671Y-85331202D01*
X90932664Y-85331206D01*
X90817455Y-85417452D01*
X90817452Y-85417455D01*
X90731206Y-85532664D01*
X90731203Y-85532669D01*
X90682189Y-85664083D01*
X90640317Y-85720016D01*
X90574853Y-85744433D01*
X90506580Y-85729581D01*
X90478326Y-85708430D01*
X90356402Y-85586506D01*
X90356395Y-85586501D01*
X90162834Y-85450967D01*
X90162830Y-85450965D01*
X90099117Y-85421255D01*
X89948663Y-85351097D01*
X89948659Y-85351096D01*
X89948655Y-85351094D01*
X89720413Y-85289938D01*
X89720403Y-85289936D01*
X89485001Y-85269341D01*
X89484999Y-85269341D01*
X89249596Y-85289936D01*
X89249586Y-85289938D01*
X89021344Y-85351094D01*
X89021335Y-85351098D01*
X88807171Y-85450964D01*
X88807169Y-85450965D01*
X88613597Y-85586505D01*
X88446508Y-85753594D01*
X88316269Y-85939595D01*
X88261692Y-85983219D01*
X88192193Y-85990412D01*
X88129839Y-85958890D01*
X88113119Y-85939594D01*
X87983113Y-85753926D01*
X87983108Y-85753920D01*
X87816082Y-85586894D01*
X87622578Y-85451399D01*
X87408492Y-85351570D01*
X87408486Y-85351567D01*
X87195000Y-85294364D01*
X87195000Y-86189498D01*
X87087315Y-86140320D01*
X86980763Y-86125000D01*
X86909237Y-86125000D01*
X86802685Y-86140320D01*
X86695000Y-86189498D01*
X86695000Y-85294364D01*
X86694999Y-85294364D01*
X86481513Y-85351567D01*
X86481507Y-85351570D01*
X86267422Y-85451399D01*
X86267420Y-85451400D01*
X86073926Y-85586886D01*
X86073920Y-85586891D01*
X85906891Y-85753920D01*
X85906890Y-85753922D01*
X85776880Y-85939595D01*
X85722303Y-85983219D01*
X85652804Y-85990412D01*
X85590450Y-85958890D01*
X85573730Y-85939594D01*
X85443494Y-85753597D01*
X85276402Y-85586506D01*
X85276395Y-85586501D01*
X85082834Y-85450967D01*
X85082830Y-85450965D01*
X85019117Y-85421255D01*
X84868663Y-85351097D01*
X84868659Y-85351096D01*
X84868655Y-85351094D01*
X84640413Y-85289938D01*
X84640403Y-85289936D01*
X84405001Y-85269341D01*
X84404999Y-85269341D01*
X84169596Y-85289936D01*
X84169586Y-85289938D01*
X83941344Y-85351094D01*
X83941335Y-85351098D01*
X83727171Y-85450964D01*
X83727169Y-85450965D01*
X83533597Y-85586505D01*
X83366505Y-85753597D01*
X83236575Y-85939158D01*
X83181998Y-85982783D01*
X83112500Y-85989977D01*
X83050145Y-85958454D01*
X83033425Y-85939158D01*
X82903494Y-85753597D01*
X82736402Y-85586506D01*
X82736395Y-85586501D01*
X82542834Y-85450967D01*
X82542830Y-85450965D01*
X82479117Y-85421255D01*
X82328663Y-85351097D01*
X82328659Y-85351096D01*
X82328655Y-85351094D01*
X82100413Y-85289938D01*
X82100403Y-85289936D01*
X81865001Y-85269341D01*
X81864999Y-85269341D01*
X81629596Y-85289936D01*
X81629586Y-85289938D01*
X81401344Y-85351094D01*
X81401335Y-85351098D01*
X81187171Y-85450964D01*
X81187169Y-85450965D01*
X80993597Y-85586505D01*
X80826505Y-85753597D01*
X80696575Y-85939158D01*
X80641998Y-85982783D01*
X80572500Y-85989977D01*
X80510145Y-85958454D01*
X80493425Y-85939158D01*
X80363494Y-85753597D01*
X80196402Y-85586506D01*
X80196395Y-85586501D01*
X80002834Y-85450967D01*
X80002830Y-85450965D01*
X79939117Y-85421255D01*
X79788663Y-85351097D01*
X79788659Y-85351096D01*
X79788655Y-85351094D01*
X79560413Y-85289938D01*
X79560403Y-85289936D01*
X79325001Y-85269341D01*
X79324999Y-85269341D01*
X79089596Y-85289936D01*
X79089586Y-85289938D01*
X78861344Y-85351094D01*
X78861335Y-85351098D01*
X78647171Y-85450964D01*
X78647169Y-85450965D01*
X78453597Y-85586505D01*
X78286505Y-85753597D01*
X78150965Y-85947169D01*
X78150964Y-85947171D01*
X78051098Y-86161335D01*
X78051094Y-86161344D01*
X77989938Y-86389586D01*
X77989936Y-86389596D01*
X77969341Y-86624999D01*
X77969341Y-86625000D01*
X63193008Y-86625000D01*
X63154517Y-86506536D01*
X63047852Y-86308319D01*
X62974109Y-86215849D01*
X62907510Y-86132336D01*
X62903463Y-86128800D01*
X62737996Y-85984235D01*
X62544764Y-85868785D01*
X62426775Y-85824503D01*
X62334023Y-85789692D01*
X62112550Y-85749500D01*
X62112547Y-85749500D01*
X61943845Y-85749500D01*
X61905399Y-85752960D01*
X61775813Y-85764622D01*
X61775807Y-85764623D01*
X61558839Y-85824503D01*
X61558826Y-85824508D01*
X61356033Y-85922167D01*
X61356025Y-85922171D01*
X61173927Y-86054473D01*
X61173925Y-86054474D01*
X61018366Y-86217176D01*
X60894363Y-86405033D01*
X60805899Y-86612004D01*
X60805895Y-86612017D01*
X60755810Y-86831457D01*
X60755808Y-86831468D01*
X60745996Y-87049952D01*
X60745710Y-87056330D01*
X59436000Y-87056330D01*
X59436000Y-84399501D01*
X59455685Y-84332462D01*
X59508489Y-84286707D01*
X59560000Y-84275501D01*
X158372000Y-84275501D01*
X158439039Y-84295186D01*
G37*
%TD.AperFunction*%
%TD*%
%TA.AperFunction,Conductor*%
%TO.N,/VSen*%
G36*
X136671032Y-109474299D02*
G01*
X136732067Y-109480310D01*
X136850941Y-109492018D01*
X136874769Y-109496757D01*
X137039001Y-109546576D01*
X137061453Y-109555877D01*
X137212798Y-109636772D01*
X137233010Y-109650277D01*
X137365666Y-109759145D01*
X137382854Y-109776333D01*
X137491722Y-109908989D01*
X137505227Y-109929201D01*
X137586121Y-110080543D01*
X137595424Y-110103001D01*
X137645240Y-110267224D01*
X137649982Y-110291065D01*
X137667701Y-110470967D01*
X137668000Y-110477048D01*
X137668000Y-112026951D01*
X137667701Y-112033032D01*
X137649982Y-112212934D01*
X137645240Y-112236775D01*
X137595424Y-112400998D01*
X137586121Y-112423456D01*
X137505227Y-112574798D01*
X137491722Y-112595010D01*
X137382855Y-112727665D01*
X137365672Y-112744849D01*
X137358971Y-112750349D01*
X137294663Y-112777665D01*
X137280301Y-112778500D01*
X133838839Y-112778500D01*
X133826421Y-112778805D01*
X133807970Y-112779713D01*
X133807950Y-112779714D01*
X133795591Y-112780626D01*
X133732681Y-112786821D01*
X133597168Y-112800167D01*
X133597167Y-112800167D01*
X133572619Y-112803808D01*
X133572615Y-112803808D01*
X133572608Y-112803810D01*
X133524442Y-112813391D01*
X133510656Y-112816844D01*
X133500379Y-112819418D01*
X133500381Y-112819418D01*
X133500376Y-112819419D01*
X133500370Y-112819421D01*
X133401470Y-112849421D01*
X133312377Y-112876447D01*
X133312378Y-112876447D01*
X133289000Y-112884812D01*
X133288988Y-112884816D01*
X133288985Y-112884818D01*
X133288984Y-112884818D01*
X133253357Y-112899576D01*
X133243625Y-112903608D01*
X133243623Y-112903609D01*
X133243622Y-112903609D01*
X133221196Y-112914217D01*
X133047961Y-113006813D01*
X133026675Y-113019571D01*
X133011067Y-113030000D01*
X132334000Y-113030000D01*
X132334000Y-139446000D01*
X135394951Y-139446000D01*
X135401032Y-139446299D01*
X135462067Y-139452310D01*
X135580941Y-139464018D01*
X135604769Y-139468757D01*
X135769001Y-139518576D01*
X135791453Y-139527877D01*
X135942798Y-139608772D01*
X135963010Y-139622277D01*
X136095666Y-139731145D01*
X136112854Y-139748333D01*
X136221722Y-139880989D01*
X136235227Y-139901201D01*
X136316121Y-140052543D01*
X136325424Y-140075001D01*
X136375240Y-140239224D01*
X136379982Y-140263065D01*
X136397701Y-140442967D01*
X136398000Y-140449048D01*
X136398000Y-140982951D01*
X136397701Y-140989032D01*
X136379982Y-141168934D01*
X136375240Y-141192775D01*
X136325424Y-141356998D01*
X136316121Y-141379456D01*
X136235227Y-141530798D01*
X136221722Y-141551010D01*
X136112854Y-141683666D01*
X136095666Y-141700854D01*
X135963010Y-141809722D01*
X135942798Y-141823227D01*
X135791456Y-141904121D01*
X135768998Y-141913424D01*
X135604775Y-141963240D01*
X135580934Y-141967982D01*
X135401032Y-141985701D01*
X135394951Y-141986000D01*
X128257049Y-141986000D01*
X128250968Y-141985701D01*
X128071065Y-141967982D01*
X128047224Y-141963240D01*
X127883001Y-141913424D01*
X127860543Y-141904121D01*
X127709201Y-141823227D01*
X127688989Y-141809722D01*
X127601938Y-141738281D01*
X127597437Y-141734202D01*
X127505795Y-141642560D01*
X127501717Y-141638060D01*
X127430277Y-141551010D01*
X127416772Y-141530798D01*
X127335878Y-141379456D01*
X127326575Y-141356998D01*
X127276757Y-141192769D01*
X127272018Y-141168941D01*
X127254299Y-140989032D01*
X127254000Y-140982951D01*
X127254000Y-133334003D01*
X127254000Y-133334000D01*
X127254000Y-110477048D01*
X127254299Y-110470967D01*
X127258706Y-110426213D01*
X127272018Y-110291056D01*
X127276757Y-110267232D01*
X127326577Y-110102994D01*
X127335875Y-110080549D01*
X127416775Y-109929195D01*
X127430272Y-109908995D01*
X127539149Y-109776328D01*
X127556328Y-109759149D01*
X127688995Y-109650272D01*
X127709195Y-109636775D01*
X127860549Y-109555875D01*
X127882994Y-109546577D01*
X128047232Y-109496757D01*
X128071056Y-109492018D01*
X128185501Y-109480746D01*
X128250969Y-109474299D01*
X128257049Y-109474000D01*
X136664951Y-109474000D01*
X136671032Y-109474299D01*
G37*
%TD.AperFunction*%
%TD*%
%TA.AperFunction,Conductor*%
%TO.N,/VSen*%
G36*
X127254000Y-132334000D02*
G01*
X126467220Y-132334000D01*
X126436734Y-132311851D01*
X126436729Y-132311848D01*
X126263807Y-132234857D01*
X126263802Y-132234855D01*
X126118001Y-132203865D01*
X126078646Y-132195500D01*
X125889354Y-132195500D01*
X125856897Y-132202398D01*
X125704197Y-132234855D01*
X125704192Y-132234857D01*
X125531266Y-132311850D01*
X125525641Y-132315098D01*
X125524674Y-132313424D01*
X125467561Y-132333798D01*
X125460491Y-132334000D01*
X122545229Y-132334000D01*
X122478190Y-132314315D01*
X122432435Y-132261511D01*
X122422491Y-132192353D01*
X122451516Y-132128797D01*
X122472343Y-132109682D01*
X122520371Y-132074788D01*
X122647033Y-131934116D01*
X122741679Y-131770184D01*
X122800174Y-131590156D01*
X122819960Y-131401900D01*
X122800174Y-131213644D01*
X122741679Y-131033616D01*
X122647033Y-130869684D01*
X122520371Y-130729012D01*
X122520370Y-130729011D01*
X122367234Y-130617751D01*
X122367229Y-130617748D01*
X122194307Y-130540757D01*
X122194302Y-130540755D01*
X122048501Y-130509765D01*
X122009146Y-130501400D01*
X121819854Y-130501400D01*
X121787397Y-130508298D01*
X121634697Y-130540755D01*
X121634692Y-130540757D01*
X121461770Y-130617748D01*
X121461765Y-130617751D01*
X121308629Y-130729011D01*
X121181966Y-130869685D01*
X121087321Y-131033615D01*
X121087318Y-131033622D01*
X121028827Y-131213640D01*
X121028826Y-131213644D01*
X121016497Y-131330951D01*
X121009040Y-131401902D01*
X121009040Y-131406762D01*
X120989355Y-131473801D01*
X120972720Y-131494443D01*
X120357483Y-132109682D01*
X120169484Y-132297681D01*
X120108161Y-132331166D01*
X120081803Y-132334000D01*
X112419172Y-132334000D01*
X112368734Y-132323278D01*
X112357906Y-132318457D01*
X112357902Y-132318455D01*
X112212101Y-132287465D01*
X112172746Y-132279100D01*
X111983454Y-132279100D01*
X111950997Y-132285998D01*
X111798297Y-132318455D01*
X111798293Y-132318457D01*
X111787466Y-132323278D01*
X111737028Y-132334000D01*
X110223049Y-132334000D01*
X110216968Y-132333701D01*
X110037065Y-132315982D01*
X110013224Y-132311240D01*
X109849001Y-132261424D01*
X109826543Y-132252121D01*
X109675201Y-132171227D01*
X109654989Y-132157722D01*
X109522333Y-132048854D01*
X109505145Y-132031666D01*
X109396277Y-131899010D01*
X109382772Y-131878798D01*
X109301878Y-131727456D01*
X109292575Y-131704998D01*
X109242757Y-131540769D01*
X109238018Y-131516941D01*
X109220299Y-131337032D01*
X109220000Y-131330951D01*
X109220000Y-122669048D01*
X109220299Y-122662967D01*
X109224706Y-122618213D01*
X109238018Y-122483056D01*
X109242757Y-122459232D01*
X109292577Y-122294994D01*
X109301875Y-122272549D01*
X109382775Y-122121195D01*
X109396272Y-122100995D01*
X109505149Y-121968328D01*
X109522328Y-121951149D01*
X109654995Y-121842272D01*
X109675195Y-121828775D01*
X109826549Y-121747875D01*
X109848994Y-121738577D01*
X110013232Y-121688757D01*
X110037056Y-121684018D01*
X110151501Y-121672746D01*
X110216969Y-121666299D01*
X110223049Y-121666000D01*
X126253997Y-121666000D01*
X126254000Y-121666000D01*
X127254000Y-121666000D01*
X127254000Y-132334000D01*
G37*
%TD.AperFunction*%
%TD*%
%TA.AperFunction,Conductor*%
%TO.N,Net-(M1--)*%
G36*
X141243032Y-113284299D02*
G01*
X141304067Y-113290310D01*
X141422941Y-113302018D01*
X141446769Y-113306757D01*
X141611001Y-113356576D01*
X141633453Y-113365877D01*
X141784798Y-113446772D01*
X141805010Y-113460277D01*
X141937666Y-113569145D01*
X141954854Y-113586333D01*
X142063722Y-113718989D01*
X142077227Y-113739201D01*
X142158121Y-113890543D01*
X142167424Y-113913001D01*
X142217240Y-114077224D01*
X142221982Y-114101065D01*
X142239701Y-114280967D01*
X142240000Y-114287048D01*
X142240000Y-117087596D01*
X142223387Y-117149596D01*
X142174821Y-117233714D01*
X142116327Y-117413740D01*
X142116326Y-117413744D01*
X142096540Y-117602000D01*
X142116326Y-117790256D01*
X142116327Y-117790259D01*
X142174818Y-117970277D01*
X142174821Y-117970284D01*
X142223387Y-118054403D01*
X142240000Y-118116402D01*
X142240000Y-126492000D01*
X151142951Y-126492000D01*
X151149032Y-126492299D01*
X151210067Y-126498310D01*
X151328941Y-126510018D01*
X151352769Y-126514757D01*
X151517001Y-126564576D01*
X151539453Y-126573877D01*
X151690798Y-126654772D01*
X151711010Y-126668277D01*
X151843666Y-126777145D01*
X151860854Y-126794333D01*
X151969722Y-126926989D01*
X151983227Y-126947201D01*
X152064121Y-127098543D01*
X152073424Y-127121001D01*
X152123240Y-127285224D01*
X152127982Y-127309065D01*
X152145701Y-127488967D01*
X152146000Y-127495048D01*
X152146000Y-128662555D01*
X152126315Y-128729594D01*
X152073511Y-128775349D01*
X152004353Y-128785293D01*
X151940797Y-128756268D01*
X151904069Y-128700873D01*
X151825617Y-128459424D01*
X151825615Y-128459419D01*
X151689001Y-128169102D01*
X151688998Y-128169096D01*
X151517073Y-127898185D01*
X151517070Y-127898181D01*
X151421225Y-127782325D01*
X150564925Y-128638625D01*
X150488110Y-128528922D01*
X150321078Y-128361890D01*
X150211373Y-128285073D01*
X151070823Y-127425623D01*
X151070822Y-127425621D01*
X150819071Y-127242714D01*
X150819053Y-127242702D01*
X150537883Y-127088128D01*
X150537875Y-127088124D01*
X150239555Y-126970012D01*
X149928766Y-126890215D01*
X149928757Y-126890213D01*
X149610443Y-126850000D01*
X149289556Y-126850000D01*
X148971242Y-126890213D01*
X148971233Y-126890215D01*
X148660444Y-126970012D01*
X148362124Y-127088124D01*
X148362116Y-127088128D01*
X148080946Y-127242702D01*
X148080928Y-127242714D01*
X147829176Y-127425622D01*
X147829175Y-127425623D01*
X148688626Y-128285074D01*
X148578922Y-128361890D01*
X148411890Y-128528922D01*
X148335074Y-128638626D01*
X147478773Y-127782325D01*
X147478772Y-127782325D01*
X147382928Y-127898182D01*
X147382926Y-127898185D01*
X147211001Y-128169096D01*
X147210998Y-128169102D01*
X147074384Y-128459419D01*
X147074382Y-128459424D01*
X146975230Y-128764582D01*
X146915104Y-129079771D01*
X146915103Y-129079778D01*
X146894958Y-129399994D01*
X146894958Y-129400005D01*
X146915103Y-129720221D01*
X146915104Y-129720228D01*
X146975230Y-130035417D01*
X147074382Y-130340575D01*
X147074384Y-130340580D01*
X147210998Y-130630897D01*
X147211001Y-130630903D01*
X147382924Y-130901811D01*
X147478773Y-131017672D01*
X148335073Y-130161372D01*
X148411890Y-130271078D01*
X148578922Y-130438110D01*
X148688626Y-130514925D01*
X147829175Y-131374375D01*
X147829176Y-131374377D01*
X148080928Y-131557285D01*
X148080946Y-131557297D01*
X148362116Y-131711871D01*
X148362124Y-131711875D01*
X148660444Y-131829987D01*
X148971233Y-131909784D01*
X148971242Y-131909786D01*
X149289556Y-131949999D01*
X149289570Y-131950000D01*
X149610430Y-131950000D01*
X149610443Y-131949999D01*
X149928757Y-131909786D01*
X149928766Y-131909784D01*
X150239555Y-131829987D01*
X150537875Y-131711875D01*
X150537883Y-131711871D01*
X150819053Y-131557297D01*
X150819063Y-131557290D01*
X151070822Y-131374375D01*
X151070823Y-131374375D01*
X150211373Y-130514925D01*
X150321078Y-130438110D01*
X150488110Y-130271078D01*
X150564925Y-130161373D01*
X151421225Y-131017673D01*
X151517078Y-130901806D01*
X151688998Y-130630903D01*
X151689001Y-130630897D01*
X151825615Y-130340580D01*
X151825617Y-130340575D01*
X151904069Y-130099126D01*
X151943506Y-130041451D01*
X152007865Y-130014252D01*
X152076711Y-130026167D01*
X152128187Y-130073411D01*
X152146000Y-130137444D01*
X152146000Y-131330951D01*
X152145701Y-131337032D01*
X152127982Y-131516934D01*
X152123240Y-131540775D01*
X152073424Y-131704998D01*
X152064121Y-131727456D01*
X151983227Y-131878798D01*
X151969722Y-131899010D01*
X151860854Y-132031666D01*
X151843666Y-132048854D01*
X151711010Y-132157722D01*
X151690798Y-132171227D01*
X151539456Y-132252121D01*
X151516998Y-132261424D01*
X151352775Y-132311240D01*
X151328934Y-132315982D01*
X151149032Y-132333701D01*
X151142951Y-132334000D01*
X139239545Y-132334000D01*
X139172506Y-132314315D01*
X139147395Y-132292972D01*
X139035870Y-132169111D01*
X138882734Y-132057851D01*
X138882729Y-132057848D01*
X138709807Y-131980857D01*
X138709802Y-131980855D01*
X138564001Y-131949865D01*
X138524646Y-131941500D01*
X138446610Y-131941500D01*
X138379571Y-131921815D01*
X138337252Y-131875954D01*
X138312682Y-131829987D01*
X138257875Y-131727450D01*
X138248575Y-131704998D01*
X138203769Y-131557290D01*
X138198757Y-131540769D01*
X138194018Y-131516941D01*
X138176299Y-131337032D01*
X138176000Y-131330951D01*
X138176000Y-121142003D01*
X138176000Y-121142000D01*
X138176000Y-120142000D01*
X137176000Y-120142000D01*
X137175997Y-120142000D01*
X133845049Y-120142000D01*
X133838968Y-120141701D01*
X133659065Y-120123982D01*
X133635224Y-120119240D01*
X133471001Y-120069424D01*
X133448543Y-120060121D01*
X133297201Y-119979227D01*
X133276989Y-119965722D01*
X133144333Y-119856854D01*
X133127145Y-119839666D01*
X133018277Y-119707010D01*
X133004772Y-119686798D01*
X132923878Y-119535456D01*
X132914575Y-119512998D01*
X132864757Y-119348769D01*
X132860018Y-119324941D01*
X132842299Y-119145032D01*
X132842000Y-119138951D01*
X132842000Y-114287048D01*
X132842299Y-114280967D01*
X132846706Y-114236213D01*
X132860018Y-114101056D01*
X132864757Y-114077232D01*
X132914577Y-113912994D01*
X132923875Y-113890549D01*
X133004775Y-113739195D01*
X133018272Y-113718995D01*
X133127149Y-113586328D01*
X133144328Y-113569149D01*
X133276995Y-113460272D01*
X133297195Y-113446775D01*
X133448549Y-113365875D01*
X133470994Y-113356577D01*
X133635232Y-113306757D01*
X133659056Y-113302018D01*
X133773501Y-113290746D01*
X133838969Y-113284299D01*
X133845049Y-113284000D01*
X141236951Y-113284000D01*
X141243032Y-113284299D01*
G37*
%TD.AperFunction*%
%TD*%
M02*
