%TF.GenerationSoftware,KiCad,Pcbnew,7.0.9*%
%TF.CreationDate,2024-03-23T03:29:42+09:00*%
%TF.ProjectId,motordriver2,6d6f746f-7264-4726-9976-6572322e6b69,rev?*%
%TF.SameCoordinates,Original*%
%TF.FileFunction,Soldermask,Bot*%
%TF.FilePolarity,Negative*%
%FSLAX46Y46*%
G04 Gerber Fmt 4.6, Leading zero omitted, Abs format (unit mm)*
G04 Created by KiCad (PCBNEW 7.0.9) date 2024-03-23 03:29:42*
%MOMM*%
%LPD*%
G01*
G04 APERTURE LIST*
G04 Aperture macros list*
%AMRoundRect*
0 Rectangle with rounded corners*
0 $1 Rounding radius*
0 $2 $3 $4 $5 $6 $7 $8 $9 X,Y pos of 4 corners*
0 Add a 4 corners polygon primitive as box body*
4,1,4,$2,$3,$4,$5,$6,$7,$8,$9,$2,$3,0*
0 Add four circle primitives for the rounded corners*
1,1,$1+$1,$2,$3*
1,1,$1+$1,$4,$5*
1,1,$1+$1,$6,$7*
1,1,$1+$1,$8,$9*
0 Add four rect primitives between the rounded corners*
20,1,$1+$1,$2,$3,$4,$5,0*
20,1,$1+$1,$4,$5,$6,$7,0*
20,1,$1+$1,$6,$7,$8,$9,0*
20,1,$1+$1,$8,$9,$2,$3,0*%
G04 Aperture macros list end*
%ADD10R,1.700000X1.700000*%
%ADD11O,1.700000X1.700000*%
%ADD12C,2.000000*%
%ADD13R,2.000000X0.900000*%
%ADD14RoundRect,1.025000X-1.025000X1.025000X-1.025000X-1.025000X1.025000X-1.025000X1.025000X1.025000X0*%
%ADD15C,4.100000*%
%ADD16C,4.000000*%
%ADD17R,1.600000X1.600000*%
%ADD18C,1.600000*%
%ADD19R,1.300000X2.300000*%
G04 APERTURE END LIST*
D10*
%TO.C,J5*%
X102359100Y-86628800D03*
D11*
X99819100Y-86628800D03*
X97279100Y-86628800D03*
%TD*%
D12*
%TO.C,TP1*%
X90000000Y-160300000D03*
%TD*%
D10*
%TO.C,J4*%
X92025000Y-86625000D03*
D11*
X89485000Y-86625000D03*
X86945000Y-86625000D03*
X84405000Y-86625000D03*
X81865000Y-86625000D03*
X79325000Y-86625000D03*
%TD*%
D12*
%TO.C,H1*%
X62000000Y-181000000D03*
%TD*%
%TO.C,TP7*%
X85050000Y-160350000D03*
%TD*%
%TO.C,TP4*%
X65200000Y-160900000D03*
%TD*%
%TO.C,TP3*%
X65150000Y-156300000D03*
%TD*%
D13*
%TO.C,M1*%
X155450000Y-126250000D03*
X155450000Y-139750000D03*
D14*
X149450000Y-136600000D03*
D15*
X149450000Y-129400000D03*
%TD*%
D12*
%TO.C,TP5*%
X70900000Y-163100000D03*
%TD*%
D16*
%TO.C,J3*%
X68510000Y-173689700D03*
X93510000Y-173689700D03*
D17*
X86550000Y-172269700D03*
D18*
X83780000Y-172269700D03*
X81010000Y-172269700D03*
X78240000Y-172269700D03*
X75470000Y-172269700D03*
X85165000Y-175109700D03*
X82395000Y-175109700D03*
X79625000Y-175109700D03*
X76855000Y-175109700D03*
%TD*%
D12*
%TO.C,TP2*%
X61950000Y-150950000D03*
%TD*%
D16*
%TO.C,J2*%
X102155000Y-173689700D03*
X127155000Y-173689700D03*
D17*
X120195000Y-172269700D03*
D18*
X117425000Y-172269700D03*
X114655000Y-172269700D03*
X111885000Y-172269700D03*
X109115000Y-172269700D03*
X118810000Y-175109700D03*
X116040000Y-175109700D03*
X113270000Y-175109700D03*
X110500000Y-175109700D03*
%TD*%
D12*
%TO.C,TP6*%
X80150000Y-160300000D03*
%TD*%
%TO.C,TP8*%
X90200000Y-130650000D03*
%TD*%
%TO.C,H2*%
X62000000Y-87000000D03*
%TD*%
%TO.C,H4*%
X156000000Y-87000000D03*
%TD*%
D13*
%TO.C,J1*%
X155300000Y-108900000D03*
X155300000Y-122400000D03*
D14*
X149300000Y-112050000D03*
D15*
X149300000Y-119250000D03*
D19*
X152950000Y-115650000D03*
%TD*%
D12*
%TO.C,H3*%
X156000000Y-181000000D03*
%TD*%
M02*
