%TF.GenerationSoftware,KiCad,Pcbnew,7.0.9*%
%TF.CreationDate,2024-05-04T16:18:37+09:00*%
%TF.ProjectId,motordriver2,6d6f746f-7264-4726-9976-6572322e6b69,rev?*%
%TF.SameCoordinates,Original*%
%TF.FileFunction,Paste,Top*%
%TF.FilePolarity,Positive*%
%FSLAX46Y46*%
G04 Gerber Fmt 4.6, Leading zero omitted, Abs format (unit mm)*
G04 Created by KiCad (PCBNEW 7.0.9) date 2024-05-04 16:18:37*
%MOMM*%
%LPD*%
G01*
G04 APERTURE LIST*
G04 Aperture macros list*
%AMRoundRect*
0 Rectangle with rounded corners*
0 $1 Rounding radius*
0 $2 $3 $4 $5 $6 $7 $8 $9 X,Y pos of 4 corners*
0 Add a 4 corners polygon primitive as box body*
4,1,4,$2,$3,$4,$5,$6,$7,$8,$9,$2,$3,0*
0 Add four circle primitives for the rounded corners*
1,1,$1+$1,$2,$3*
1,1,$1+$1,$4,$5*
1,1,$1+$1,$6,$7*
1,1,$1+$1,$8,$9*
0 Add four rect primitives between the rounded corners*
20,1,$1+$1,$2,$3,$4,$5,0*
20,1,$1+$1,$4,$5,$6,$7,0*
20,1,$1+$1,$6,$7,$8,$9,0*
20,1,$1+$1,$8,$9,$2,$3,0*%
G04 Aperture macros list end*
%ADD10RoundRect,0.200000X-0.200000X-0.275000X0.200000X-0.275000X0.200000X0.275000X-0.200000X0.275000X0*%
%ADD11R,0.660400X0.381000*%
%ADD12R,2.215100X2.595250*%
%ADD13RoundRect,0.250000X0.850000X0.350000X-0.850000X0.350000X-0.850000X-0.350000X0.850000X-0.350000X0*%
%ADD14RoundRect,0.250000X1.275000X1.125000X-1.275000X1.125000X-1.275000X-1.125000X1.275000X-1.125000X0*%
%ADD15RoundRect,0.250000X0.362500X1.425000X-0.362500X1.425000X-0.362500X-1.425000X0.362500X-1.425000X0*%
%ADD16RoundRect,0.150000X-0.587500X-0.150000X0.587500X-0.150000X0.587500X0.150000X-0.587500X0.150000X0*%
%ADD17RoundRect,0.225000X-0.250000X0.225000X-0.250000X-0.225000X0.250000X-0.225000X0.250000X0.225000X0*%
%ADD18RoundRect,0.237500X0.237500X-0.300000X0.237500X0.300000X-0.237500X0.300000X-0.237500X-0.300000X0*%
%ADD19RoundRect,0.250000X1.500000X0.650000X-1.500000X0.650000X-1.500000X-0.650000X1.500000X-0.650000X0*%
%ADD20R,1.000000X0.750000*%
%ADD21RoundRect,0.237500X-0.237500X0.300000X-0.237500X-0.300000X0.237500X-0.300000X0.237500X0.300000X0*%
%ADD22RoundRect,0.135000X-0.185000X0.135000X-0.185000X-0.135000X0.185000X-0.135000X0.185000X0.135000X0*%
%ADD23RoundRect,0.237500X-0.287500X-0.237500X0.287500X-0.237500X0.287500X0.237500X-0.287500X0.237500X0*%
G04 APERTURE END LIST*
D10*
%TO.C,RV2*%
X124175000Y-151600000D03*
X125825000Y-151600000D03*
%TD*%
D11*
%TO.C,Q4*%
X131572000Y-157267001D03*
X131572000Y-157916999D03*
X131572000Y-158567001D03*
X131572000Y-159216999D03*
D12*
X133750000Y-158242000D03*
D11*
X135128000Y-157267001D03*
X135128000Y-157916999D03*
X135128000Y-158567001D03*
X135128000Y-159216999D03*
%TD*%
%TO.C,Q3*%
X146558000Y-157267001D03*
X146558000Y-157916999D03*
X146558000Y-158567001D03*
X146558000Y-159216999D03*
D12*
X148736000Y-158242000D03*
D11*
X150114000Y-157267001D03*
X150114000Y-157916999D03*
X150114000Y-158567001D03*
X150114000Y-159216999D03*
%TD*%
D10*
%TO.C,R7*%
X96950000Y-148300000D03*
X98600000Y-148300000D03*
%TD*%
D13*
%TO.C,U6*%
X113280000Y-164878000D03*
D14*
X108655000Y-164123000D03*
X108655000Y-161073000D03*
X105305000Y-164123000D03*
X105305000Y-161073000D03*
D13*
X113280000Y-160318000D03*
%TD*%
D10*
%TO.C,RV6*%
X155675000Y-171500000D03*
X157325000Y-171500000D03*
%TD*%
D15*
%TO.C,R6*%
X126162500Y-148800000D03*
X120237500Y-148800000D03*
%TD*%
D16*
%TO.C,Q5*%
X94275000Y-150300000D03*
X94275000Y-152200000D03*
X96150000Y-151250000D03*
%TD*%
D17*
%TO.C,C14*%
X90062000Y-136822000D03*
X90062000Y-138372000D03*
%TD*%
D18*
%TO.C,C13*%
X111956000Y-157702500D03*
X111956000Y-155977500D03*
%TD*%
D19*
%TO.C,D9*%
X121749000Y-160672000D03*
X116749000Y-160672000D03*
%TD*%
D10*
%TO.C,R22*%
X91825000Y-127943000D03*
X93475000Y-127943000D03*
%TD*%
D20*
%TO.C,SW3*%
X96000000Y-135625000D03*
X102000000Y-135625000D03*
X96000000Y-139375000D03*
X102000000Y-139375000D03*
%TD*%
D21*
%TO.C,C12*%
X116328000Y-165016500D03*
X116328000Y-166741500D03*
%TD*%
D17*
%TO.C,C10*%
X89856000Y-129695000D03*
X89856000Y-131245000D03*
%TD*%
D11*
%TO.C,Q2*%
X131826000Y-139405001D03*
X131826000Y-140054999D03*
X131826000Y-140705001D03*
X131826000Y-141354999D03*
D12*
X134004000Y-140380000D03*
D11*
X135382000Y-139405001D03*
X135382000Y-140054999D03*
X135382000Y-140705001D03*
X135382000Y-141354999D03*
%TD*%
D22*
%TO.C,RV4*%
X92650000Y-129973000D03*
X92650000Y-130993000D03*
%TD*%
D20*
%TO.C,SW1*%
X96000000Y-128100000D03*
X102000000Y-128100000D03*
X96000000Y-131850000D03*
X102000000Y-131850000D03*
%TD*%
D11*
%TO.C,Q1*%
X146558000Y-139192001D03*
X146558000Y-139841999D03*
X146558000Y-140492001D03*
X146558000Y-141141999D03*
D12*
X148736000Y-140167000D03*
D11*
X150114000Y-139192001D03*
X150114000Y-139841999D03*
X150114000Y-140492001D03*
X150114000Y-141141999D03*
%TD*%
D22*
%TO.C,RV7*%
X93110000Y-137087000D03*
X93110000Y-138107000D03*
%TD*%
D10*
%TO.C,R21*%
X100475000Y-169100000D03*
X102125000Y-169100000D03*
%TD*%
D23*
%TO.C,D1*%
X96250000Y-169140000D03*
X98000000Y-169140000D03*
%TD*%
M02*
