%TF.GenerationSoftware,KiCad,Pcbnew,7.0.9*%
%TF.CreationDate,2024-04-05T12:05:43+09:00*%
%TF.ProjectId,motordriver2,6d6f746f-7264-4726-9976-6572322e6b69,rev?*%
%TF.SameCoordinates,Original*%
%TF.FileFunction,Legend,Bot*%
%TF.FilePolarity,Positive*%
%FSLAX46Y46*%
G04 Gerber Fmt 4.6, Leading zero omitted, Abs format (unit mm)*
G04 Created by KiCad (PCBNEW 7.0.9) date 2024-04-05 12:05:43*
%MOMM*%
%LPD*%
G01*
G04 APERTURE LIST*
G04 Aperture macros list*
%AMRoundRect*
0 Rectangle with rounded corners*
0 $1 Rounding radius*
0 $2 $3 $4 $5 $6 $7 $8 $9 X,Y pos of 4 corners*
0 Add a 4 corners polygon primitive as box body*
4,1,4,$2,$3,$4,$5,$6,$7,$8,$9,$2,$3,0*
0 Add four circle primitives for the rounded corners*
1,1,$1+$1,$2,$3*
1,1,$1+$1,$4,$5*
1,1,$1+$1,$6,$7*
1,1,$1+$1,$8,$9*
0 Add four rect primitives between the rounded corners*
20,1,$1+$1,$2,$3,$4,$5,0*
20,1,$1+$1,$4,$5,$6,$7,0*
20,1,$1+$1,$6,$7,$8,$9,0*
20,1,$1+$1,$8,$9,$2,$3,0*%
G04 Aperture macros list end*
%ADD10C,0.150000*%
%ADD11O,1.700000X1.700000*%
%ADD12R,1.700000X1.700000*%
%ADD13C,4.100000*%
%ADD14RoundRect,1.025000X-1.025000X1.025000X-1.025000X-1.025000X1.025000X-1.025000X1.025000X1.025000X0*%
%ADD15R,2.000000X0.900000*%
%ADD16C,4.000000*%
%ADD17R,1.600000X1.600000*%
%ADD18C,1.600000*%
%ADD19R,2.300000X1.300000*%
%ADD20RoundRect,1.025000X1.025000X1.025000X-1.025000X1.025000X-1.025000X-1.025000X1.025000X-1.025000X0*%
%ADD21R,0.900000X2.000000*%
%ADD22C,6.400000*%
G04 APERTURE END LIST*
D10*
G36*
X142069085Y-161698367D02*
G01*
X142069085Y-164104647D01*
X142069416Y-164149002D01*
X142070410Y-164192552D01*
X142072065Y-164235296D01*
X142074382Y-164277235D01*
X142077362Y-164318369D01*
X142081004Y-164358698D01*
X142085307Y-164398221D01*
X142095901Y-164474852D01*
X142109144Y-164548263D01*
X142125035Y-164618452D01*
X142143575Y-164685420D01*
X142164763Y-164749168D01*
X142188599Y-164809694D01*
X142215084Y-164867000D01*
X142244218Y-164921084D01*
X142276000Y-164971948D01*
X142310431Y-165019590D01*
X142347510Y-165064012D01*
X142387237Y-165105213D01*
X142408094Y-165124605D01*
X142452436Y-165161215D01*
X142500708Y-165195329D01*
X142552911Y-165226947D01*
X142609045Y-165256069D01*
X142669110Y-165282695D01*
X142733105Y-165306826D01*
X142801032Y-165328460D01*
X142872889Y-165347599D01*
X142948676Y-165364242D01*
X142988044Y-165371627D01*
X143028395Y-165378389D01*
X143069728Y-165384526D01*
X143112044Y-165390040D01*
X143155343Y-165394930D01*
X143199624Y-165399195D01*
X143244889Y-165402837D01*
X143291135Y-165405855D01*
X143338365Y-165408248D01*
X143386577Y-165410018D01*
X143435772Y-165411164D01*
X143485950Y-165411686D01*
X143537110Y-165411584D01*
X143589253Y-165410858D01*
X143641242Y-165409904D01*
X143693407Y-165408263D01*
X143745748Y-165405935D01*
X143798264Y-165402920D01*
X143850955Y-165399218D01*
X143903822Y-165394829D01*
X143956865Y-165389754D01*
X144010083Y-165383991D01*
X144063477Y-165377542D01*
X144117046Y-165370405D01*
X144170791Y-165362582D01*
X144224712Y-165354071D01*
X144278808Y-165344874D01*
X144333079Y-165334990D01*
X144387526Y-165324419D01*
X144442149Y-165313161D01*
X144492799Y-165302903D01*
X144543632Y-165291667D01*
X144581877Y-165282600D01*
X144620225Y-165272983D01*
X144658676Y-165262816D01*
X144697230Y-165252100D01*
X144735887Y-165240834D01*
X144774647Y-165229019D01*
X144813511Y-165216654D01*
X144852477Y-165203740D01*
X144923796Y-164054822D01*
X144606280Y-164054822D01*
X144601855Y-164104490D01*
X144596640Y-164153110D01*
X144590635Y-164200683D01*
X144583840Y-164247209D01*
X144576255Y-164292686D01*
X144567880Y-164337117D01*
X144558716Y-164380499D01*
X144548761Y-164422834D01*
X144538016Y-164464122D01*
X144526481Y-164504362D01*
X144518353Y-164530607D01*
X144502963Y-164573230D01*
X144483662Y-164615615D01*
X144460450Y-164657761D01*
X144439063Y-164691306D01*
X144415173Y-164724699D01*
X144388780Y-164757939D01*
X144359883Y-164791026D01*
X144352267Y-164799274D01*
X144321279Y-164830812D01*
X144289863Y-164859968D01*
X144258020Y-164886743D01*
X144225750Y-164911137D01*
X144193052Y-164933149D01*
X144151578Y-164957316D01*
X144109437Y-164977762D01*
X144092393Y-164984898D01*
X144049208Y-165003423D01*
X144007133Y-165019174D01*
X143969489Y-165031982D01*
X143928304Y-165044973D01*
X143883577Y-165058146D01*
X143835308Y-165071503D01*
X143796783Y-165081641D01*
X143769993Y-165088457D01*
X143705024Y-165091411D01*
X143642742Y-165091968D01*
X143583147Y-165090129D01*
X143526238Y-165085893D01*
X143472016Y-165079260D01*
X143420481Y-165070231D01*
X143371632Y-165058805D01*
X143325471Y-165044982D01*
X143281995Y-165028763D01*
X143241207Y-165010147D01*
X143203105Y-164989134D01*
X143167690Y-164965725D01*
X143134961Y-164939919D01*
X143104919Y-164911717D01*
X143077564Y-164881118D01*
X143052896Y-164848122D01*
X143025484Y-164804161D01*
X143000769Y-164754345D01*
X142985790Y-164717880D01*
X142972009Y-164678812D01*
X142959427Y-164637142D01*
X142948043Y-164592869D01*
X142937857Y-164545994D01*
X142928870Y-164496516D01*
X142921081Y-164444435D01*
X142914490Y-164389751D01*
X142909098Y-164332465D01*
X142904903Y-164272575D01*
X142901908Y-164210084D01*
X142900110Y-164144989D01*
X142899511Y-164077292D01*
X142899511Y-161709113D01*
X142902335Y-161659227D01*
X142910807Y-161613614D01*
X142924928Y-161572276D01*
X142944696Y-161535212D01*
X142970112Y-161502423D01*
X143001177Y-161473907D01*
X143037890Y-161449666D01*
X143080251Y-161429699D01*
X143123694Y-161416915D01*
X143166933Y-161408061D01*
X143217713Y-161400428D01*
X143260746Y-161395505D01*
X143308021Y-161391269D01*
X143359539Y-161387720D01*
X143415298Y-161384858D01*
X143454827Y-161383331D01*
X143496241Y-161382110D01*
X143539541Y-161381194D01*
X143561898Y-161380851D01*
X143561898Y-161130746D01*
X141478018Y-161130746D01*
X141478018Y-161380851D01*
X141518218Y-161381023D01*
X141575400Y-161381924D01*
X141628838Y-161383599D01*
X141678531Y-161386046D01*
X141724482Y-161389266D01*
X141766688Y-161393259D01*
X141817139Y-161399784D01*
X141860935Y-161407684D01*
X141906320Y-161419491D01*
X141921563Y-161424815D01*
X141956138Y-161443408D01*
X141992875Y-161472917D01*
X142022408Y-161509391D01*
X142044738Y-161552830D01*
X142057416Y-161592596D01*
X142065484Y-161636819D01*
X142068941Y-161685500D01*
X142069085Y-161698367D01*
G37*
G36*
X136955617Y-165320000D02*
G01*
X141084298Y-165320000D01*
X141084298Y-165043517D01*
X141042048Y-165042776D01*
X141001515Y-165041776D01*
X140943936Y-165039790D01*
X140890221Y-165037220D01*
X140840369Y-165034066D01*
X140794382Y-165030327D01*
X140752259Y-165026006D01*
X140702105Y-165019335D01*
X140658820Y-165011626D01*
X140614375Y-165000530D01*
X140570640Y-164982624D01*
X140532737Y-164961146D01*
X140500665Y-164936096D01*
X140468775Y-164899760D01*
X140445996Y-164857842D01*
X140434334Y-164820290D01*
X140428502Y-164779166D01*
X140427773Y-164757264D01*
X140427773Y-161661242D01*
X140431781Y-161616162D01*
X140443802Y-161575566D01*
X140463837Y-161539454D01*
X140491887Y-161507827D01*
X140527951Y-161480683D01*
X140562573Y-161462197D01*
X140591905Y-161450216D01*
X140637104Y-161437689D01*
X140678999Y-161428972D01*
X140725993Y-161421416D01*
X140778085Y-161415020D01*
X140820501Y-161410984D01*
X140865784Y-161407601D01*
X140913935Y-161404871D01*
X140964954Y-161402793D01*
X141018841Y-161401367D01*
X141018841Y-161130746D01*
X138995533Y-161130746D01*
X138995533Y-161380851D01*
X139039024Y-161380977D01*
X139080591Y-161381355D01*
X139120235Y-161381984D01*
X139176094Y-161383401D01*
X139227625Y-161385385D01*
X139274829Y-161387935D01*
X139317705Y-161391052D01*
X139368141Y-161396089D01*
X139410884Y-161402134D01*
X139453492Y-161411107D01*
X139460572Y-161413091D01*
X139500185Y-161431409D01*
X139534516Y-161453635D01*
X139570003Y-161486913D01*
X139597237Y-161526297D01*
X139613082Y-161562201D01*
X139623646Y-161602013D01*
X139628928Y-161645732D01*
X139629588Y-161669057D01*
X139629588Y-164816859D01*
X139625833Y-164861510D01*
X139614567Y-164900207D01*
X139589923Y-164940207D01*
X139553544Y-164970904D01*
X139515992Y-164988764D01*
X139470929Y-165000671D01*
X139418356Y-165006624D01*
X139389253Y-165007369D01*
X137819260Y-165007369D01*
X137775113Y-165006086D01*
X137732798Y-165002240D01*
X137692315Y-164995828D01*
X137653663Y-164986852D01*
X137599121Y-164968580D01*
X137548700Y-164944537D01*
X137502400Y-164914724D01*
X137460223Y-164879141D01*
X137422167Y-164837788D01*
X137388232Y-164790664D01*
X137367899Y-164756043D01*
X137349398Y-164718857D01*
X137332728Y-164679106D01*
X137316090Y-164628047D01*
X137300980Y-164575253D01*
X137287399Y-164520725D01*
X137275346Y-164464463D01*
X137268160Y-164425991D01*
X137261653Y-164386748D01*
X137255826Y-164346734D01*
X137250678Y-164305949D01*
X137246209Y-164264393D01*
X137242419Y-164222067D01*
X137239309Y-164178969D01*
X137236878Y-164135101D01*
X137235126Y-164090462D01*
X137234054Y-164045052D01*
X136884298Y-164045052D01*
X136955617Y-165320000D01*
G37*
G36*
X134297278Y-165445052D02*
G01*
X134368168Y-165444439D01*
X134437958Y-165442602D01*
X134506647Y-165439539D01*
X134574234Y-165435252D01*
X134640721Y-165429739D01*
X134706106Y-165423001D01*
X134770391Y-165415039D01*
X134833574Y-165405851D01*
X134895657Y-165395438D01*
X134956638Y-165383800D01*
X135016519Y-165370937D01*
X135075298Y-165356850D01*
X135132977Y-165341537D01*
X135189554Y-165324999D01*
X135245031Y-165307236D01*
X135299406Y-165288248D01*
X135352681Y-165268035D01*
X135404854Y-165246597D01*
X135455927Y-165223934D01*
X135505898Y-165200046D01*
X135554769Y-165174933D01*
X135602538Y-165148594D01*
X135649207Y-165121031D01*
X135694774Y-165092243D01*
X135739241Y-165062230D01*
X135782606Y-165030992D01*
X135824871Y-164998528D01*
X135866034Y-164964840D01*
X135906097Y-164929926D01*
X135945058Y-164893788D01*
X135982919Y-164856425D01*
X136019678Y-164817836D01*
X136051655Y-164782677D01*
X136082617Y-164746685D01*
X136112563Y-164709862D01*
X136141495Y-164672206D01*
X136169411Y-164633719D01*
X136196312Y-164594400D01*
X136222198Y-164554249D01*
X136247069Y-164513265D01*
X136270924Y-164471450D01*
X136293765Y-164428803D01*
X136315590Y-164385324D01*
X136336400Y-164341013D01*
X136356196Y-164295870D01*
X136374976Y-164249895D01*
X136392740Y-164203088D01*
X136409490Y-164155450D01*
X136425225Y-164106979D01*
X136439944Y-164057676D01*
X136453648Y-164007541D01*
X136466338Y-163956575D01*
X136478012Y-163904776D01*
X136488671Y-163852146D01*
X136498314Y-163798683D01*
X136506943Y-163744389D01*
X136514556Y-163689263D01*
X136521155Y-163633304D01*
X136526738Y-163576514D01*
X136531306Y-163518892D01*
X136534859Y-163460438D01*
X136537397Y-163401151D01*
X136538920Y-163341033D01*
X136539427Y-163280083D01*
X136538856Y-163219069D01*
X136537141Y-163158759D01*
X136534284Y-163099154D01*
X136530283Y-163040252D01*
X136525140Y-162982054D01*
X136518854Y-162924561D01*
X136511424Y-162867772D01*
X136502852Y-162811687D01*
X136493137Y-162756305D01*
X136482278Y-162701628D01*
X136470277Y-162647656D01*
X136457133Y-162594387D01*
X136442845Y-162541822D01*
X136427415Y-162489961D01*
X136410842Y-162438805D01*
X136393126Y-162388353D01*
X136374267Y-162338604D01*
X136354264Y-162289560D01*
X136333119Y-162241220D01*
X136310831Y-162193584D01*
X136287400Y-162146652D01*
X136262826Y-162100425D01*
X136237109Y-162054901D01*
X136210249Y-162010081D01*
X136182246Y-161965966D01*
X136153100Y-161922555D01*
X136122811Y-161879848D01*
X136091379Y-161837844D01*
X136058804Y-161796546D01*
X136025086Y-161755951D01*
X135990225Y-161716060D01*
X135954221Y-161676873D01*
X135914102Y-161635580D01*
X135872999Y-161595598D01*
X135830914Y-161556926D01*
X135787846Y-161519566D01*
X135743796Y-161483516D01*
X135698762Y-161448777D01*
X135652747Y-161415349D01*
X135605748Y-161383232D01*
X135557767Y-161352426D01*
X135508803Y-161322931D01*
X135458856Y-161294747D01*
X135407926Y-161267873D01*
X135356014Y-161242311D01*
X135303120Y-161218059D01*
X135249242Y-161195118D01*
X135194382Y-161173489D01*
X135138539Y-161153170D01*
X135081713Y-161134162D01*
X135023905Y-161116465D01*
X134965114Y-161100078D01*
X134905341Y-161085003D01*
X134844584Y-161071239D01*
X134782845Y-161058785D01*
X134720123Y-161047643D01*
X134656419Y-161037811D01*
X134591732Y-161029290D01*
X134526062Y-161022080D01*
X134459409Y-161016181D01*
X134391774Y-161011593D01*
X134323156Y-161008316D01*
X134253556Y-161006349D01*
X134182972Y-161005694D01*
X134119156Y-161006705D01*
X134054959Y-161009739D01*
X133990379Y-161014796D01*
X133925418Y-161021875D01*
X133860076Y-161030977D01*
X133794351Y-161042101D01*
X133728246Y-161055248D01*
X133661758Y-161070418D01*
X133594889Y-161087611D01*
X133527638Y-161106826D01*
X133460006Y-161128063D01*
X133391992Y-161151324D01*
X133323596Y-161176607D01*
X133254819Y-161203912D01*
X133185660Y-161233240D01*
X133116120Y-161264591D01*
X133079300Y-161278759D01*
X133038389Y-161289063D01*
X132997479Y-161293643D01*
X132985205Y-161293900D01*
X132937325Y-161289655D01*
X132893214Y-161276918D01*
X132852871Y-161255690D01*
X132816296Y-161225970D01*
X132789750Y-161196081D01*
X132765616Y-161160758D01*
X132743893Y-161120000D01*
X132503558Y-161120000D01*
X132503558Y-162335352D01*
X132771249Y-162335352D01*
X132787514Y-162272421D01*
X132804801Y-162212101D01*
X132823112Y-162154391D01*
X132842445Y-162099291D01*
X132862802Y-162046802D01*
X132884180Y-161996923D01*
X132906582Y-161949654D01*
X132930006Y-161904996D01*
X132954454Y-161862948D01*
X132979924Y-161823510D01*
X133006416Y-161786683D01*
X133033932Y-161752466D01*
X133062470Y-161720860D01*
X133092031Y-161691864D01*
X133122615Y-161665478D01*
X133154221Y-161641702D01*
X133201583Y-161608870D01*
X133247312Y-161578149D01*
X133291411Y-161549542D01*
X133333877Y-161523046D01*
X133374713Y-161498663D01*
X133413916Y-161476392D01*
X133451489Y-161456233D01*
X133487430Y-161438187D01*
X133532813Y-161417411D01*
X133575296Y-161400390D01*
X133618192Y-161385724D01*
X133662617Y-161372501D01*
X133708570Y-161360720D01*
X133756051Y-161350382D01*
X133805061Y-161341486D01*
X133855599Y-161334033D01*
X133907666Y-161328022D01*
X133961261Y-161323454D01*
X134016384Y-161320328D01*
X134073036Y-161318645D01*
X134111653Y-161318325D01*
X134154058Y-161318779D01*
X134195910Y-161320141D01*
X134237208Y-161322412D01*
X134277952Y-161325591D01*
X134318144Y-161329678D01*
X134357781Y-161334674D01*
X134396866Y-161340578D01*
X134435397Y-161347390D01*
X134510800Y-161363739D01*
X134583989Y-161383721D01*
X134654964Y-161407336D01*
X134723726Y-161434584D01*
X134790274Y-161465466D01*
X134854610Y-161499980D01*
X134916731Y-161538128D01*
X134976639Y-161579909D01*
X135034334Y-161625323D01*
X135089815Y-161674370D01*
X135143083Y-161727050D01*
X135194138Y-161783363D01*
X135221082Y-161815203D01*
X135247203Y-161847954D01*
X135272502Y-161881615D01*
X135296979Y-161916185D01*
X135320634Y-161951666D01*
X135343465Y-161988058D01*
X135365475Y-162025359D01*
X135386662Y-162063571D01*
X135407027Y-162102692D01*
X135426569Y-162142724D01*
X135445289Y-162183667D01*
X135463186Y-162225519D01*
X135480261Y-162268281D01*
X135496514Y-162311954D01*
X135511944Y-162356537D01*
X135526552Y-162402030D01*
X135540338Y-162448433D01*
X135553301Y-162495747D01*
X135565441Y-162543971D01*
X135576759Y-162593104D01*
X135587255Y-162643148D01*
X135596928Y-162694103D01*
X135605779Y-162745967D01*
X135613808Y-162798742D01*
X135621014Y-162852426D01*
X135627398Y-162907021D01*
X135632959Y-162962527D01*
X135637698Y-163018942D01*
X135641614Y-163076267D01*
X135644708Y-163134503D01*
X135646980Y-163193649D01*
X135648429Y-163253705D01*
X135648975Y-163310009D01*
X135648658Y-163365469D01*
X135647479Y-163420086D01*
X135645437Y-163473859D01*
X135642533Y-163526790D01*
X135638767Y-163578876D01*
X135634137Y-163630119D01*
X135628646Y-163680519D01*
X135622292Y-163730076D01*
X135615075Y-163778789D01*
X135606996Y-163826659D01*
X135598054Y-163873685D01*
X135588250Y-163919868D01*
X135577584Y-163965207D01*
X135566055Y-164009703D01*
X135553663Y-164053356D01*
X135540409Y-164096165D01*
X135526293Y-164138131D01*
X135511314Y-164179254D01*
X135495472Y-164219533D01*
X135478768Y-164258969D01*
X135461202Y-164297561D01*
X135442773Y-164335310D01*
X135423482Y-164372215D01*
X135403328Y-164408277D01*
X135382312Y-164443496D01*
X135360433Y-164477871D01*
X135337691Y-164511403D01*
X135314088Y-164544091D01*
X135289621Y-164575937D01*
X135264293Y-164606938D01*
X135238101Y-164637096D01*
X135188261Y-164689506D01*
X135135947Y-164738534D01*
X135081160Y-164784180D01*
X135023900Y-164826446D01*
X134964168Y-164865330D01*
X134901962Y-164900833D01*
X134837284Y-164932955D01*
X134770132Y-164961695D01*
X134700508Y-164987055D01*
X134628410Y-165009033D01*
X134553840Y-165027629D01*
X134476796Y-165042845D01*
X134437347Y-165049185D01*
X134397280Y-165054679D01*
X134356595Y-165059328D01*
X134315291Y-165063132D01*
X134273369Y-165066091D01*
X134230829Y-165068204D01*
X134187670Y-165069472D01*
X134143893Y-165069895D01*
X134094148Y-165069105D01*
X134044563Y-165066735D01*
X133995138Y-165062785D01*
X133945874Y-165057255D01*
X133896769Y-165050146D01*
X133847825Y-165041456D01*
X133799042Y-165031186D01*
X133750418Y-165019337D01*
X133701955Y-165005907D01*
X133653652Y-164990898D01*
X133605510Y-164974308D01*
X133557527Y-164956139D01*
X133509705Y-164936389D01*
X133462044Y-164915060D01*
X133414542Y-164892151D01*
X133367201Y-164867662D01*
X133307495Y-164834559D01*
X133250010Y-164799487D01*
X133194747Y-164762447D01*
X133141704Y-164723436D01*
X133090882Y-164682457D01*
X133042282Y-164639508D01*
X132995902Y-164594591D01*
X132951744Y-164547704D01*
X132909807Y-164498847D01*
X132870091Y-164448022D01*
X132832596Y-164395227D01*
X132797322Y-164340464D01*
X132764269Y-164283731D01*
X132733437Y-164225028D01*
X132704826Y-164164357D01*
X132678436Y-164101716D01*
X132377529Y-164293203D01*
X132407915Y-164364068D01*
X132440212Y-164432684D01*
X132474418Y-164499051D01*
X132510535Y-164563167D01*
X132548561Y-164625034D01*
X132588498Y-164684651D01*
X132630344Y-164742019D01*
X132674101Y-164797137D01*
X132719768Y-164850005D01*
X132767345Y-164900623D01*
X132816831Y-164948992D01*
X132868228Y-164995111D01*
X132921535Y-165038980D01*
X132976752Y-165080600D01*
X133033879Y-165119969D01*
X133092916Y-165157090D01*
X133153864Y-165191960D01*
X133216721Y-165224581D01*
X133281488Y-165254952D01*
X133348165Y-165283073D01*
X133416753Y-165308945D01*
X133487250Y-165332567D01*
X133559658Y-165353939D01*
X133633975Y-165373061D01*
X133710203Y-165389934D01*
X133788341Y-165404557D01*
X133868388Y-165416931D01*
X133950346Y-165427054D01*
X134034214Y-165434928D01*
X134119992Y-165440552D01*
X134207680Y-165443927D01*
X134297278Y-165445052D01*
G37*
G36*
X131951570Y-161380851D02*
G01*
X131932273Y-161380904D01*
X131876557Y-161381706D01*
X131824103Y-161383469D01*
X131774913Y-161386194D01*
X131728986Y-161389880D01*
X131686322Y-161394528D01*
X131646921Y-161400138D01*
X131599461Y-161409114D01*
X131557802Y-161419800D01*
X131513886Y-161435561D01*
X131475418Y-161456505D01*
X131442079Y-161481723D01*
X131413869Y-161511215D01*
X131390788Y-161544982D01*
X131372836Y-161583023D01*
X131360013Y-161625338D01*
X131352320Y-161671927D01*
X131349755Y-161722791D01*
X131349755Y-164792435D01*
X131351344Y-164828001D01*
X131358404Y-164871522D01*
X131371112Y-164910586D01*
X131389469Y-164945192D01*
X131420357Y-164982181D01*
X131451421Y-165006758D01*
X131488134Y-165026878D01*
X131530495Y-165042540D01*
X131544340Y-165045852D01*
X131586835Y-165053199D01*
X131628936Y-165058114D01*
X131678243Y-165062174D01*
X131719951Y-165064659D01*
X131765712Y-165066662D01*
X131815526Y-165068185D01*
X131869393Y-165069227D01*
X131927313Y-165069788D01*
X131968178Y-165069895D01*
X131968178Y-165320000D01*
X129922400Y-165320000D01*
X129922400Y-165066964D01*
X129942407Y-165066632D01*
X129999978Y-165065315D01*
X130053873Y-165063518D01*
X130104094Y-165061239D01*
X130150639Y-165058480D01*
X130193510Y-165055240D01*
X130232705Y-165051519D01*
X130279248Y-165045810D01*
X130319258Y-165039246D01*
X130360083Y-165029839D01*
X130392383Y-165019020D01*
X130430508Y-165001709D01*
X130470221Y-164975434D01*
X130501110Y-164944007D01*
X130523173Y-164907428D01*
X130536410Y-164865696D01*
X130540823Y-164818813D01*
X130540823Y-163506741D01*
X129337194Y-163506741D01*
X129292477Y-163506423D01*
X129248450Y-163505470D01*
X129205114Y-163503881D01*
X129162469Y-163501657D01*
X129120515Y-163498798D01*
X129079251Y-163495303D01*
X129038678Y-163491173D01*
X128998796Y-163486407D01*
X128921104Y-163474970D01*
X128846174Y-163460991D01*
X128774008Y-163444470D01*
X128704605Y-163425408D01*
X128637965Y-163403804D01*
X128574088Y-163379658D01*
X128512974Y-163352971D01*
X128454623Y-163323742D01*
X128399035Y-163291971D01*
X128346209Y-163257659D01*
X128296147Y-163220805D01*
X128248848Y-163181409D01*
X128209216Y-163142601D01*
X128172141Y-163101893D01*
X128137622Y-163059284D01*
X128105661Y-163014774D01*
X128076256Y-162968364D01*
X128049409Y-162920054D01*
X128025118Y-162869843D01*
X128003384Y-162817732D01*
X127984207Y-162763720D01*
X127967587Y-162707807D01*
X127953524Y-162649994D01*
X127942018Y-162590280D01*
X127933069Y-162528666D01*
X127926676Y-162465152D01*
X127922841Y-162399737D01*
X127921563Y-162332421D01*
X127922599Y-162285526D01*
X128741242Y-162285526D01*
X128741883Y-162342038D01*
X128743806Y-162396535D01*
X128747012Y-162449016D01*
X128751500Y-162499483D01*
X128757270Y-162547935D01*
X128764323Y-162594371D01*
X128772657Y-162638793D01*
X128782274Y-162681200D01*
X128793174Y-162721591D01*
X128805355Y-162759968D01*
X128826032Y-162813755D01*
X128849594Y-162863008D01*
X128876041Y-162907727D01*
X128905373Y-162947913D01*
X128930507Y-162977726D01*
X128958038Y-163005615D01*
X128987965Y-163031581D01*
X129020289Y-163055624D01*
X129055010Y-163077743D01*
X129092127Y-163097939D01*
X129131641Y-163116212D01*
X129173551Y-163132561D01*
X129217859Y-163146986D01*
X129264562Y-163159488D01*
X129313663Y-163170067D01*
X129365160Y-163178722D01*
X129419054Y-163185454D01*
X129475344Y-163190263D01*
X129534031Y-163193148D01*
X129595115Y-163194110D01*
X130540823Y-163194110D01*
X130540823Y-161613370D01*
X130540615Y-161601589D01*
X130535623Y-161558206D01*
X130520024Y-161512391D01*
X130494026Y-161475926D01*
X130457628Y-161448811D01*
X130421022Y-161433852D01*
X130377760Y-161424876D01*
X130327843Y-161421884D01*
X129534542Y-161421884D01*
X129485736Y-161422727D01*
X129438479Y-161425257D01*
X129392771Y-161429474D01*
X129348613Y-161435378D01*
X129306004Y-161442969D01*
X129264944Y-161452246D01*
X129225434Y-161463210D01*
X129187473Y-161475861D01*
X129151062Y-161490199D01*
X129082888Y-161523935D01*
X129020911Y-161564418D01*
X128965132Y-161611649D01*
X128915551Y-161665627D01*
X128872167Y-161726351D01*
X128834981Y-161793824D01*
X128818712Y-161830090D01*
X128803993Y-161868043D01*
X128790823Y-161907683D01*
X128779202Y-161949009D01*
X128769131Y-161992023D01*
X128760609Y-162036723D01*
X128753637Y-162083110D01*
X128748214Y-162131184D01*
X128744340Y-162180945D01*
X128742016Y-162232392D01*
X128741242Y-162285526D01*
X127922599Y-162285526D01*
X127923036Y-162265727D01*
X127927455Y-162200713D01*
X127934820Y-162137378D01*
X127945132Y-162075722D01*
X127958390Y-162015745D01*
X127974594Y-161957447D01*
X127993744Y-161900829D01*
X128015840Y-161845889D01*
X128040883Y-161792629D01*
X128068872Y-161741048D01*
X128099807Y-161691146D01*
X128133688Y-161642923D01*
X128170515Y-161596380D01*
X128210288Y-161551516D01*
X128253008Y-161508330D01*
X128298674Y-161466824D01*
X128323902Y-161446148D01*
X128376254Y-161406764D01*
X128431132Y-161370005D01*
X128488537Y-161335872D01*
X128548468Y-161304365D01*
X128610926Y-161275483D01*
X128675910Y-161249227D01*
X128743420Y-161225596D01*
X128813456Y-161204591D01*
X128886019Y-161186212D01*
X128961109Y-161170459D01*
X128999601Y-161163566D01*
X129038725Y-161157330D01*
X129078480Y-161151751D01*
X129118867Y-161146828D01*
X129159885Y-161142561D01*
X129201535Y-161138951D01*
X129243817Y-161135997D01*
X129286730Y-161133700D01*
X129330275Y-161132059D01*
X129374452Y-161131074D01*
X129419260Y-161130746D01*
X131951570Y-161130746D01*
X131951570Y-161380851D01*
G37*
G36*
X125266154Y-165445052D02*
G01*
X125337045Y-165444439D01*
X125406834Y-165442602D01*
X125475523Y-165439539D01*
X125543111Y-165435252D01*
X125609597Y-165429739D01*
X125674983Y-165423001D01*
X125739267Y-165415039D01*
X125802451Y-165405851D01*
X125864533Y-165395438D01*
X125925515Y-165383800D01*
X125985395Y-165370937D01*
X126044175Y-165356850D01*
X126101853Y-165341537D01*
X126158431Y-165324999D01*
X126213907Y-165307236D01*
X126268283Y-165288248D01*
X126321557Y-165268035D01*
X126373731Y-165246597D01*
X126424803Y-165223934D01*
X126474775Y-165200046D01*
X126523645Y-165174933D01*
X126571415Y-165148594D01*
X126618083Y-165121031D01*
X126663651Y-165092243D01*
X126708117Y-165062230D01*
X126751483Y-165030992D01*
X126793747Y-164998528D01*
X126834911Y-164964840D01*
X126874973Y-164929926D01*
X126913935Y-164893788D01*
X126951795Y-164856425D01*
X126988555Y-164817836D01*
X127020532Y-164782677D01*
X127051493Y-164746685D01*
X127081440Y-164709862D01*
X127110371Y-164672206D01*
X127138287Y-164633719D01*
X127165188Y-164594400D01*
X127191074Y-164554249D01*
X127215945Y-164513265D01*
X127239801Y-164471450D01*
X127262641Y-164428803D01*
X127284467Y-164385324D01*
X127305277Y-164341013D01*
X127325072Y-164295870D01*
X127343852Y-164249895D01*
X127361617Y-164203088D01*
X127378367Y-164155450D01*
X127394101Y-164106979D01*
X127408821Y-164057676D01*
X127422525Y-164007541D01*
X127435214Y-163956575D01*
X127446888Y-163904776D01*
X127457547Y-163852146D01*
X127467191Y-163798683D01*
X127475819Y-163744389D01*
X127483433Y-163689263D01*
X127490031Y-163633304D01*
X127495615Y-163576514D01*
X127500183Y-163518892D01*
X127503736Y-163460438D01*
X127506273Y-163401151D01*
X127507796Y-163341033D01*
X127508304Y-163280083D01*
X127507732Y-163219069D01*
X127506018Y-163158759D01*
X127503160Y-163099154D01*
X127499160Y-163040252D01*
X127494017Y-162982054D01*
X127487730Y-162924561D01*
X127480301Y-162867772D01*
X127471728Y-162811687D01*
X127462013Y-162756305D01*
X127451155Y-162701628D01*
X127439153Y-162647656D01*
X127426009Y-162594387D01*
X127411722Y-162541822D01*
X127396292Y-162489961D01*
X127379718Y-162438805D01*
X127362002Y-162388353D01*
X127343143Y-162338604D01*
X127323141Y-162289560D01*
X127301996Y-162241220D01*
X127279708Y-162193584D01*
X127256277Y-162146652D01*
X127231703Y-162100425D01*
X127205985Y-162054901D01*
X127179125Y-162010081D01*
X127151122Y-161965966D01*
X127121976Y-161922555D01*
X127091687Y-161879848D01*
X127060256Y-161837844D01*
X127027681Y-161796546D01*
X126993963Y-161755951D01*
X126959102Y-161716060D01*
X126923098Y-161676873D01*
X126882978Y-161635580D01*
X126841876Y-161595598D01*
X126799791Y-161556926D01*
X126756723Y-161519566D01*
X126712672Y-161483516D01*
X126667639Y-161448777D01*
X126621623Y-161415349D01*
X126574624Y-161383232D01*
X126526643Y-161352426D01*
X126477679Y-161322931D01*
X126427732Y-161294747D01*
X126376803Y-161267873D01*
X126324891Y-161242311D01*
X126271996Y-161218059D01*
X126218119Y-161195118D01*
X126163258Y-161173489D01*
X126107416Y-161153170D01*
X126050590Y-161134162D01*
X125992782Y-161116465D01*
X125933991Y-161100078D01*
X125874217Y-161085003D01*
X125813461Y-161071239D01*
X125751722Y-161058785D01*
X125689000Y-161047643D01*
X125625295Y-161037811D01*
X125560608Y-161029290D01*
X125494938Y-161022080D01*
X125428286Y-161016181D01*
X125360651Y-161011593D01*
X125292033Y-161008316D01*
X125222432Y-161006349D01*
X125151849Y-161005694D01*
X125088033Y-161006705D01*
X125023835Y-161009739D01*
X124959256Y-161014796D01*
X124894295Y-161021875D01*
X124828952Y-161030977D01*
X124763228Y-161042101D01*
X124697122Y-161055248D01*
X124630635Y-161070418D01*
X124563765Y-161087611D01*
X124496515Y-161106826D01*
X124428882Y-161128063D01*
X124360868Y-161151324D01*
X124292473Y-161176607D01*
X124223695Y-161203912D01*
X124154537Y-161233240D01*
X124084996Y-161264591D01*
X124048176Y-161278759D01*
X124007266Y-161289063D01*
X123966355Y-161293643D01*
X123954082Y-161293900D01*
X123906202Y-161289655D01*
X123862090Y-161276918D01*
X123821747Y-161255690D01*
X123785173Y-161225970D01*
X123758627Y-161196081D01*
X123734492Y-161160758D01*
X123712770Y-161120000D01*
X123472435Y-161120000D01*
X123472435Y-162335352D01*
X123740125Y-162335352D01*
X123756390Y-162272421D01*
X123773678Y-162212101D01*
X123791989Y-162154391D01*
X123811322Y-162099291D01*
X123831678Y-162046802D01*
X123853057Y-161996923D01*
X123875459Y-161949654D01*
X123898883Y-161904996D01*
X123923330Y-161862948D01*
X123948800Y-161823510D01*
X123975293Y-161786683D01*
X124002808Y-161752466D01*
X124031347Y-161720860D01*
X124060908Y-161691864D01*
X124091491Y-161665478D01*
X124123098Y-161641702D01*
X124170459Y-161608870D01*
X124216189Y-161578149D01*
X124260287Y-161549542D01*
X124302754Y-161523046D01*
X124343589Y-161498663D01*
X124382793Y-161476392D01*
X124420365Y-161456233D01*
X124456306Y-161438187D01*
X124501690Y-161417411D01*
X124544173Y-161400390D01*
X124587069Y-161385724D01*
X124631493Y-161372501D01*
X124677446Y-161360720D01*
X124724928Y-161350382D01*
X124773937Y-161341486D01*
X124824476Y-161334033D01*
X124876542Y-161328022D01*
X124930137Y-161323454D01*
X124985261Y-161320328D01*
X125041913Y-161318645D01*
X125080530Y-161318325D01*
X125122935Y-161318779D01*
X125164786Y-161320141D01*
X125206084Y-161322412D01*
X125246829Y-161325591D01*
X125287020Y-161329678D01*
X125326658Y-161334674D01*
X125365743Y-161340578D01*
X125404274Y-161347390D01*
X125479676Y-161363739D01*
X125552865Y-161383721D01*
X125623840Y-161407336D01*
X125692602Y-161434584D01*
X125759151Y-161465466D01*
X125823486Y-161499980D01*
X125885608Y-161538128D01*
X125945516Y-161579909D01*
X126003211Y-161625323D01*
X126058692Y-161674370D01*
X126111960Y-161727050D01*
X126163014Y-161783363D01*
X126189958Y-161815203D01*
X126216080Y-161847954D01*
X126241379Y-161881615D01*
X126265856Y-161916185D01*
X126289510Y-161951666D01*
X126312342Y-161988058D01*
X126334351Y-162025359D01*
X126355539Y-162063571D01*
X126375903Y-162102692D01*
X126395446Y-162142724D01*
X126414165Y-162183667D01*
X126432063Y-162225519D01*
X126449138Y-162268281D01*
X126465391Y-162311954D01*
X126480821Y-162356537D01*
X126495429Y-162402030D01*
X126509214Y-162448433D01*
X126522177Y-162495747D01*
X126534318Y-162543971D01*
X126545636Y-162593104D01*
X126556132Y-162643148D01*
X126565805Y-162694103D01*
X126574656Y-162745967D01*
X126582684Y-162798742D01*
X126589891Y-162852426D01*
X126596274Y-162907021D01*
X126601836Y-162962527D01*
X126606574Y-163018942D01*
X126610491Y-163076267D01*
X126613585Y-163134503D01*
X126615857Y-163193649D01*
X126617306Y-163253705D01*
X126617852Y-163310009D01*
X126617535Y-163365469D01*
X126616356Y-163420086D01*
X126614314Y-163473859D01*
X126611410Y-163526790D01*
X126607643Y-163578876D01*
X126603014Y-163630119D01*
X126597522Y-163680519D01*
X126591168Y-163730076D01*
X126583951Y-163778789D01*
X126575872Y-163826659D01*
X126566931Y-163873685D01*
X126557127Y-163919868D01*
X126546460Y-163965207D01*
X126534931Y-164009703D01*
X126522540Y-164053356D01*
X126509286Y-164096165D01*
X126495169Y-164138131D01*
X126480190Y-164179254D01*
X126464349Y-164219533D01*
X126447645Y-164258969D01*
X126430078Y-164297561D01*
X126411650Y-164335310D01*
X126392358Y-164372215D01*
X126372204Y-164408277D01*
X126351188Y-164443496D01*
X126329309Y-164477871D01*
X126306568Y-164511403D01*
X126282964Y-164544091D01*
X126258498Y-164575937D01*
X126233169Y-164606938D01*
X126206978Y-164637096D01*
X126157137Y-164689506D01*
X126104823Y-164738534D01*
X126050037Y-164784180D01*
X125992777Y-164826446D01*
X125933044Y-164865330D01*
X125870839Y-164900833D01*
X125806160Y-164932955D01*
X125739009Y-164961695D01*
X125669384Y-164987055D01*
X125597287Y-165009033D01*
X125522716Y-165027629D01*
X125445673Y-165042845D01*
X125406224Y-165049185D01*
X125366157Y-165054679D01*
X125325471Y-165059328D01*
X125284167Y-165063132D01*
X125242245Y-165066091D01*
X125199705Y-165068204D01*
X125156547Y-165069472D01*
X125112770Y-165069895D01*
X125063025Y-165069105D01*
X125013439Y-165066735D01*
X124964015Y-165062785D01*
X124914750Y-165057255D01*
X124865646Y-165050146D01*
X124816702Y-165041456D01*
X124767918Y-165031186D01*
X124719295Y-165019337D01*
X124670832Y-165005907D01*
X124622529Y-164990898D01*
X124574386Y-164974308D01*
X124526404Y-164956139D01*
X124478582Y-164936389D01*
X124430920Y-164915060D01*
X124383419Y-164892151D01*
X124336078Y-164867662D01*
X124276372Y-164834559D01*
X124218887Y-164799487D01*
X124163623Y-164762447D01*
X124110580Y-164723436D01*
X124059759Y-164682457D01*
X124011158Y-164639508D01*
X123964779Y-164594591D01*
X123920621Y-164547704D01*
X123878683Y-164498847D01*
X123838967Y-164448022D01*
X123801472Y-164395227D01*
X123766198Y-164340464D01*
X123733145Y-164283731D01*
X123702313Y-164225028D01*
X123673703Y-164164357D01*
X123647313Y-164101716D01*
X123346406Y-164293203D01*
X123376792Y-164364068D01*
X123409088Y-164432684D01*
X123443295Y-164499051D01*
X123479411Y-164563167D01*
X123517438Y-164625034D01*
X123557374Y-164684651D01*
X123599221Y-164742019D01*
X123642978Y-164797137D01*
X123688644Y-164850005D01*
X123736221Y-164900623D01*
X123785708Y-164948992D01*
X123837105Y-164995111D01*
X123890412Y-165038980D01*
X123945629Y-165080600D01*
X124002756Y-165119969D01*
X124061793Y-165157090D01*
X124122740Y-165191960D01*
X124185597Y-165224581D01*
X124250365Y-165254952D01*
X124317042Y-165283073D01*
X124385629Y-165308945D01*
X124456127Y-165332567D01*
X124528534Y-165353939D01*
X124602852Y-165373061D01*
X124679080Y-165389934D01*
X124757217Y-165404557D01*
X124837265Y-165416931D01*
X124919223Y-165427054D01*
X125003091Y-165434928D01*
X125088868Y-165440552D01*
X125176556Y-165443927D01*
X125266154Y-165445052D01*
G37*
G36*
X122931193Y-161380851D02*
G01*
X122883534Y-161381048D01*
X122838743Y-161381641D01*
X122796820Y-161382628D01*
X122745384Y-161384559D01*
X122699047Y-161387193D01*
X122657808Y-161390528D01*
X122613429Y-161395685D01*
X122570690Y-161403321D01*
X122556866Y-161406193D01*
X122505956Y-161420161D01*
X122462069Y-161438097D01*
X122425204Y-161460003D01*
X122388997Y-161492966D01*
X122363761Y-161532131D01*
X122349498Y-161577497D01*
X122345987Y-161618255D01*
X122341102Y-164830537D01*
X122342545Y-164861580D01*
X122351360Y-164908817D01*
X122368190Y-164950424D01*
X122393034Y-164986402D01*
X122425893Y-165016751D01*
X122466765Y-165041471D01*
X122505233Y-165057194D01*
X122521044Y-165061854D01*
X122567484Y-165072602D01*
X122611745Y-165080272D01*
X122662326Y-165087119D01*
X122704410Y-165091713D01*
X122750048Y-165095843D01*
X122799241Y-165099509D01*
X122851988Y-165102712D01*
X122908291Y-165105451D01*
X122947801Y-165107020D01*
X122947801Y-165382526D01*
X120514166Y-165382526D01*
X120457254Y-165382285D01*
X120401314Y-165381564D01*
X120346345Y-165380362D01*
X120292347Y-165378679D01*
X120239321Y-165376515D01*
X120187266Y-165373870D01*
X120136182Y-165370745D01*
X120086069Y-165367138D01*
X120036927Y-165363051D01*
X119988757Y-165358483D01*
X119941558Y-165353434D01*
X119895331Y-165347904D01*
X119850074Y-165341894D01*
X119805789Y-165335402D01*
X119762475Y-165328430D01*
X119720132Y-165320976D01*
X119678761Y-165313042D01*
X119638360Y-165304627D01*
X119598931Y-165295732D01*
X119560474Y-165286355D01*
X119486472Y-165266159D01*
X119416355Y-165244040D01*
X119350123Y-165219997D01*
X119287776Y-165194031D01*
X119229315Y-165166142D01*
X119174738Y-165136329D01*
X119126908Y-165105688D01*
X119081849Y-165072872D01*
X119039561Y-165037880D01*
X119000043Y-165000713D01*
X118963296Y-164961371D01*
X118929320Y-164919853D01*
X118898114Y-164876161D01*
X118869678Y-164830293D01*
X118844014Y-164782249D01*
X118821120Y-164732031D01*
X118800997Y-164679637D01*
X118783644Y-164625068D01*
X118769062Y-164568323D01*
X118757250Y-164509403D01*
X118748210Y-164448308D01*
X118741939Y-164385038D01*
X118738867Y-164329270D01*
X118737711Y-164274320D01*
X118738470Y-164220185D01*
X118740984Y-164170104D01*
X119568457Y-164170104D01*
X119569224Y-164225078D01*
X119571526Y-164278136D01*
X119575361Y-164329278D01*
X119580730Y-164378504D01*
X119587634Y-164425815D01*
X119596072Y-164471210D01*
X119606044Y-164514689D01*
X119617550Y-164556252D01*
X119630590Y-164595900D01*
X119645165Y-164633631D01*
X119669903Y-164686637D01*
X119698093Y-164735332D01*
X119729735Y-164779716D01*
X119764829Y-164819790D01*
X119797011Y-164850076D01*
X119832011Y-164878408D01*
X119869826Y-164904787D01*
X119910458Y-164929211D01*
X119953907Y-164951681D01*
X120000172Y-164972198D01*
X120049253Y-164990760D01*
X120101151Y-165007369D01*
X120155865Y-165022023D01*
X120213396Y-165034724D01*
X120273743Y-165045471D01*
X120336906Y-165054263D01*
X120402886Y-165061102D01*
X120471683Y-165065987D01*
X120543295Y-165068918D01*
X120617725Y-165069895D01*
X121307466Y-165069895D01*
X121347449Y-165068074D01*
X121394641Y-165059984D01*
X121434842Y-165045421D01*
X121468051Y-165024386D01*
X121499731Y-164988989D01*
X121517210Y-164953391D01*
X121527697Y-164911320D01*
X121531193Y-164862777D01*
X121531193Y-163319162D01*
X120448709Y-163319162D01*
X120416895Y-163319391D01*
X120355094Y-163321223D01*
X120295728Y-163324887D01*
X120238796Y-163330382D01*
X120184299Y-163337709D01*
X120132238Y-163346868D01*
X120082610Y-163357859D01*
X120035418Y-163370682D01*
X119990661Y-163385337D01*
X119948338Y-163401823D01*
X119908450Y-163420141D01*
X119870997Y-163440291D01*
X119835979Y-163462273D01*
X119803395Y-163486087D01*
X119773246Y-163511732D01*
X119732588Y-163553635D01*
X119712713Y-163579056D01*
X119685305Y-163620463D01*
X119660781Y-163665804D01*
X119639143Y-163715077D01*
X119620389Y-163768283D01*
X119609490Y-163805938D01*
X119599873Y-163845341D01*
X119591538Y-163886492D01*
X119584486Y-163929391D01*
X119578715Y-163974038D01*
X119574228Y-164020433D01*
X119571022Y-164068575D01*
X119569098Y-164118466D01*
X119568457Y-164170104D01*
X118740984Y-164170104D01*
X118741146Y-164166868D01*
X118745737Y-164114367D01*
X118752243Y-164062683D01*
X118760666Y-164011816D01*
X118771004Y-163961765D01*
X118783259Y-163912531D01*
X118797428Y-163864114D01*
X118813514Y-163816513D01*
X118831516Y-163769729D01*
X118851433Y-163723762D01*
X118873266Y-163678611D01*
X118897015Y-163634277D01*
X118922679Y-163590760D01*
X118941172Y-163563423D01*
X118980304Y-163511056D01*
X119022299Y-163461765D01*
X119067156Y-163415549D01*
X119114874Y-163372410D01*
X119165456Y-163332346D01*
X119218899Y-163295359D01*
X119275205Y-163261447D01*
X119334372Y-163230612D01*
X119396403Y-163202852D01*
X119461295Y-163178168D01*
X119529049Y-163156560D01*
X119599666Y-163138028D01*
X119673145Y-163122572D01*
X119749486Y-163110192D01*
X119788730Y-163105156D01*
X119828689Y-163100888D01*
X119869364Y-163097390D01*
X119822706Y-163083113D01*
X119777254Y-163067638D01*
X119733008Y-163050964D01*
X119689968Y-163033093D01*
X119648134Y-163014023D01*
X119607506Y-162993754D01*
X119568083Y-162972288D01*
X119529867Y-162949623D01*
X119492856Y-162925759D01*
X119457052Y-162900698D01*
X119422453Y-162874438D01*
X119389061Y-162846980D01*
X119356874Y-162818323D01*
X119325894Y-162788468D01*
X119296119Y-162757415D01*
X119267550Y-162725163D01*
X119254447Y-162709717D01*
X119229488Y-162678469D01*
X119206194Y-162646748D01*
X119174371Y-162598279D01*
X119146293Y-162548746D01*
X119121958Y-162498147D01*
X119101368Y-162446484D01*
X119084521Y-162393756D01*
X119071417Y-162339964D01*
X119062058Y-162285107D01*
X119056442Y-162229185D01*
X119054570Y-162172198D01*
X119055152Y-162143866D01*
X119846894Y-162143866D01*
X119847642Y-162196940D01*
X119849886Y-162248329D01*
X119853626Y-162298033D01*
X119858862Y-162346053D01*
X119865594Y-162392387D01*
X119873822Y-162437037D01*
X119883546Y-162480002D01*
X119894766Y-162521282D01*
X119907482Y-162560877D01*
X119921693Y-162598787D01*
X119937401Y-162635012D01*
X119973305Y-162702408D01*
X120015193Y-162763064D01*
X120063064Y-162816981D01*
X120116920Y-162864158D01*
X120176759Y-162904595D01*
X120242583Y-162938293D01*
X120314390Y-162965251D01*
X120352538Y-162976203D01*
X120392182Y-162985470D01*
X120433321Y-162993052D01*
X120475957Y-162998949D01*
X120520088Y-163003161D01*
X120565716Y-163005689D01*
X120612840Y-163006531D01*
X121520446Y-163006531D01*
X121520446Y-161592854D01*
X121519507Y-161567181D01*
X121511997Y-161520806D01*
X121496976Y-161481055D01*
X121474445Y-161447930D01*
X121444403Y-161421430D01*
X121406850Y-161401554D01*
X121361787Y-161388304D01*
X121323062Y-161382714D01*
X121280111Y-161380851D01*
X120497557Y-161380851D01*
X120418766Y-161383831D01*
X120345058Y-161392773D01*
X120276433Y-161407676D01*
X120212892Y-161428539D01*
X120154434Y-161455364D01*
X120101059Y-161488150D01*
X120052768Y-161526897D01*
X120009560Y-161571605D01*
X119971435Y-161622273D01*
X119938394Y-161678903D01*
X119910435Y-161741495D01*
X119887561Y-161810047D01*
X119869769Y-161884560D01*
X119862779Y-161924052D01*
X119857061Y-161965034D01*
X119852613Y-162007506D01*
X119849436Y-162051469D01*
X119847530Y-162096922D01*
X119846894Y-162143866D01*
X119055152Y-162143866D01*
X119055765Y-162113988D01*
X119059348Y-162057327D01*
X119065321Y-162002216D01*
X119073682Y-161948654D01*
X119084433Y-161896642D01*
X119097572Y-161846179D01*
X119113101Y-161797266D01*
X119131018Y-161749902D01*
X119151325Y-161704087D01*
X119174020Y-161659822D01*
X119199105Y-161617106D01*
X119226578Y-161575940D01*
X119256441Y-161536323D01*
X119288692Y-161498255D01*
X119323333Y-161461737D01*
X119360362Y-161426769D01*
X119403292Y-161390922D01*
X119448794Y-161357388D01*
X119496867Y-161326167D01*
X119547513Y-161297259D01*
X119600732Y-161270663D01*
X119656522Y-161246380D01*
X119714885Y-161224410D01*
X119775819Y-161204752D01*
X119839326Y-161187407D01*
X119905406Y-161172374D01*
X119974057Y-161159655D01*
X120045280Y-161149248D01*
X120119076Y-161141153D01*
X120195444Y-161135372D01*
X120234592Y-161133348D01*
X120274384Y-161131903D01*
X120314819Y-161131035D01*
X120355896Y-161130746D01*
X122931193Y-161130746D01*
X122931193Y-161380851D01*
G37*
G36*
X145865813Y-143777650D02*
G01*
X145925920Y-143888723D01*
X145991904Y-144000979D01*
X146063764Y-144114419D01*
X146141502Y-144229041D01*
X146225117Y-144344846D01*
X146314609Y-144461835D01*
X146409979Y-144580006D01*
X146511225Y-144699361D01*
X146618348Y-144819899D01*
X146731349Y-144941619D01*
X146850226Y-145064523D01*
X146974981Y-145188610D01*
X147105613Y-145313880D01*
X147242122Y-145440333D01*
X147384508Y-145567969D01*
X147411570Y-145593850D01*
X147476786Y-145674329D01*
X147521150Y-145768735D01*
X147535938Y-145868387D01*
X147534068Y-145910806D01*
X147513031Y-146014013D01*
X147468619Y-146113165D01*
X147400832Y-146208262D01*
X147329772Y-146281420D01*
X147243753Y-146351984D01*
X147142774Y-146419952D01*
X147057222Y-146469225D01*
X147006093Y-146495844D01*
X146904809Y-146543929D01*
X146804822Y-146585145D01*
X146706133Y-146619491D01*
X146608741Y-146646969D01*
X146512646Y-146667577D01*
X146394353Y-146683677D01*
X146278087Y-146689043D01*
X146185428Y-146685609D01*
X146078619Y-146671655D01*
X145981828Y-146646969D01*
X145878903Y-146603177D01*
X145790403Y-146543929D01*
X145716329Y-146469225D01*
X145637179Y-146369123D01*
X145577316Y-146283679D01*
X145517023Y-146189347D01*
X145456301Y-146086129D01*
X145395150Y-145974023D01*
X145333569Y-145853029D01*
X145271559Y-145723149D01*
X145229980Y-145631625D01*
X145188211Y-145536150D01*
X145146251Y-145436726D01*
X145104100Y-145333353D01*
X145061758Y-145226029D01*
X145043020Y-145179134D01*
X145006689Y-145086073D01*
X144971884Y-144993986D01*
X144922540Y-144857680D01*
X144876630Y-144723564D01*
X144834154Y-144591637D01*
X144795114Y-144461899D01*
X144759508Y-144334352D01*
X144727336Y-144208993D01*
X144698599Y-144085825D01*
X144673297Y-143964846D01*
X144651430Y-143846057D01*
X145811584Y-143667759D01*
X145865813Y-143777650D01*
G37*
G36*
X143667131Y-143899790D02*
G01*
X143641963Y-143998241D01*
X143617749Y-144102474D01*
X143594488Y-144212488D01*
X143572182Y-144328284D01*
X143550830Y-144449861D01*
X143530432Y-144577221D01*
X143510988Y-144710362D01*
X143492498Y-144849284D01*
X143474962Y-144993989D01*
X143458380Y-145144475D01*
X143442752Y-145300742D01*
X143428079Y-145462792D01*
X143414359Y-145630623D01*
X143401594Y-145804236D01*
X143389782Y-145983630D01*
X143378925Y-146168806D01*
X143372943Y-146223522D01*
X143345236Y-146322364D01*
X143281087Y-146426060D01*
X143206154Y-146493132D01*
X143110231Y-146546083D01*
X142993319Y-146584913D01*
X142891861Y-146604770D01*
X142778595Y-146616684D01*
X142653524Y-146620655D01*
X142548614Y-146617870D01*
X142445154Y-146609512D01*
X142343144Y-146595582D01*
X142242585Y-146576081D01*
X142143476Y-146551008D01*
X142045817Y-146520363D01*
X141949608Y-146484147D01*
X141854849Y-146442358D01*
X141809302Y-146419813D01*
X141708289Y-146361198D01*
X141625643Y-146299362D01*
X141550710Y-146220908D01*
X141496714Y-146123519D01*
X141478715Y-146019818D01*
X141485776Y-145938607D01*
X141506956Y-145839078D01*
X141542257Y-145721231D01*
X141577999Y-145620824D01*
X141621683Y-145510114D01*
X141673311Y-145389099D01*
X141732881Y-145257780D01*
X141777007Y-145164510D01*
X141824663Y-145066660D01*
X141875849Y-144964231D01*
X141930565Y-144857222D01*
X141982695Y-144756834D01*
X142033452Y-144660836D01*
X142082835Y-144569225D01*
X142130844Y-144482004D01*
X142200281Y-144359401D01*
X142266628Y-144246672D01*
X142329883Y-144143818D01*
X142390047Y-144050839D01*
X142465457Y-143942227D01*
X142535371Y-143851171D01*
X142599790Y-143777669D01*
X143667131Y-143899790D01*
G37*
G36*
X140794836Y-143789881D02*
G01*
X140760568Y-143850782D01*
X140712272Y-143946208D01*
X140661000Y-144057892D01*
X140620593Y-144152324D01*
X140578511Y-144255901D01*
X140534755Y-144368622D01*
X140489324Y-144490488D01*
X140442219Y-144621499D01*
X140409886Y-144713920D01*
X140376808Y-144810406D01*
X140342986Y-144910956D01*
X140326071Y-144959303D01*
X140293327Y-145053909D01*
X140246930Y-145190595D01*
X140203796Y-145321012D01*
X140163926Y-145445160D01*
X140127318Y-145563041D01*
X140093973Y-145674653D01*
X140063891Y-145779997D01*
X140037072Y-145879073D01*
X140006389Y-146001424D01*
X139981507Y-146112630D01*
X139951282Y-146212236D01*
X139890316Y-146318066D01*
X139803591Y-146403146D01*
X139715664Y-146456269D01*
X139611250Y-146496111D01*
X139490350Y-146522672D01*
X139388855Y-146533878D01*
X139278087Y-146537613D01*
X139169743Y-146534636D01*
X139063306Y-146525706D01*
X138958778Y-146510823D01*
X138856158Y-146489986D01*
X138755446Y-146463195D01*
X138656642Y-146430451D01*
X138559746Y-146391754D01*
X138464759Y-146347103D01*
X138376602Y-146298179D01*
X138282936Y-146233373D01*
X138207636Y-146164513D01*
X138141519Y-146076528D01*
X138101848Y-145982705D01*
X138088625Y-145883042D01*
X138096105Y-145810380D01*
X138127704Y-145716957D01*
X138174074Y-145629695D01*
X138220678Y-145543764D01*
X138314588Y-145375895D01*
X138409432Y-145213349D01*
X138505211Y-145056127D01*
X138601926Y-144904229D01*
X138699575Y-144757655D01*
X138798160Y-144616404D01*
X138897679Y-144480478D01*
X138998134Y-144349874D01*
X139099523Y-144224595D01*
X139201847Y-144104639D01*
X139305107Y-143990007D01*
X139409301Y-143880699D01*
X139514431Y-143776715D01*
X139620495Y-143678054D01*
X139727494Y-143584717D01*
X140794836Y-143789881D01*
G37*
G36*
X140521284Y-142109490D02*
G01*
X140516284Y-142231917D01*
X140501286Y-142350069D01*
X140476289Y-142463948D01*
X140441294Y-142573551D01*
X140396300Y-142678881D01*
X140341307Y-142779937D01*
X140276316Y-142876718D01*
X140201325Y-142969225D01*
X140116375Y-143054595D01*
X140022723Y-143129967D01*
X139920370Y-143195340D01*
X139809316Y-143250715D01*
X139689560Y-143296091D01*
X139594034Y-143323561D01*
X139493613Y-143345407D01*
X139388297Y-143361628D01*
X139278087Y-143372226D01*
X139200259Y-143377335D01*
X139049324Y-143387066D01*
X138904687Y-143396149D01*
X138766346Y-143404583D01*
X138634302Y-143412368D01*
X138508555Y-143419505D01*
X138389105Y-143425992D01*
X138275952Y-143431831D01*
X138169096Y-143437022D01*
X138068537Y-143441563D01*
X137929504Y-143447159D01*
X137804640Y-143451294D01*
X137693944Y-143453971D01*
X137568387Y-143455268D01*
X137508975Y-143453587D01*
X137392712Y-143450209D01*
X137279864Y-143446813D01*
X137170431Y-143443397D01*
X137064415Y-143439962D01*
X136961814Y-143436509D01*
X136814316Y-143431292D01*
X136674504Y-143426033D01*
X136590753Y-143422672D01*
X137663642Y-143679972D01*
X137575762Y-143817339D01*
X137489810Y-143955890D01*
X137405785Y-144095623D01*
X137323687Y-144236540D01*
X137243516Y-144378640D01*
X137165272Y-144521922D01*
X137088956Y-144666388D01*
X137014567Y-144812037D01*
X136942105Y-144958869D01*
X136871570Y-145106884D01*
X136802963Y-145256082D01*
X136736283Y-145406463D01*
X136671530Y-145558027D01*
X136608704Y-145710775D01*
X136547805Y-145864705D01*
X136488834Y-146019818D01*
X136470134Y-146065957D01*
X136409360Y-146168281D01*
X136328550Y-146252001D01*
X136227704Y-146317117D01*
X136132602Y-146355814D01*
X136024677Y-146382605D01*
X135903930Y-146397488D01*
X135804954Y-146400837D01*
X135696304Y-146397211D01*
X135588952Y-146386335D01*
X135482897Y-146368208D01*
X135378140Y-146342829D01*
X135274680Y-146310200D01*
X135172518Y-146270320D01*
X135071653Y-146223188D01*
X134972086Y-146168806D01*
X134947593Y-146154249D01*
X134857394Y-146094925D01*
X134762142Y-146018301D01*
X134686329Y-145938934D01*
X134629955Y-145856824D01*
X134587966Y-145754671D01*
X134573970Y-145648569D01*
X134577243Y-145595141D01*
X134600684Y-145495917D01*
X134642358Y-145404326D01*
X134684035Y-145341019D01*
X134771065Y-145214661D01*
X134863000Y-145088647D01*
X134959838Y-144962976D01*
X135061581Y-144837649D01*
X135168227Y-144712666D01*
X135279777Y-144588025D01*
X135396231Y-144463729D01*
X135517590Y-144339776D01*
X135643852Y-144216166D01*
X135775018Y-144092899D01*
X135911088Y-143969977D01*
X136052062Y-143847397D01*
X136197939Y-143725161D01*
X136348721Y-143603269D01*
X136425951Y-143542451D01*
X136504407Y-143481720D01*
X136582428Y-143422338D01*
X136542377Y-143420731D01*
X136417935Y-143415386D01*
X136301177Y-143409997D01*
X136192105Y-143404566D01*
X136090718Y-143399092D01*
X135913556Y-143387252D01*
X135747824Y-143365776D01*
X135593522Y-143334664D01*
X135450649Y-143293915D01*
X135319207Y-143243531D01*
X135199194Y-143183510D01*
X135090611Y-143113853D01*
X134993457Y-143034560D01*
X134907734Y-142945631D01*
X134833440Y-142847065D01*
X134770576Y-142738864D01*
X134719142Y-142621026D01*
X134679138Y-142493552D01*
X134650563Y-142356442D01*
X134633419Y-142209696D01*
X134627704Y-142053314D01*
X134627704Y-141069016D01*
X135968597Y-140768597D01*
X135969436Y-140895870D01*
X135971955Y-141024899D01*
X135974946Y-141122823D01*
X135978882Y-141221734D01*
X135983762Y-141321633D01*
X135989586Y-141422519D01*
X135996356Y-141524393D01*
X136004069Y-141627254D01*
X136012728Y-141731102D01*
X136022330Y-141835938D01*
X136030573Y-141867556D01*
X136078659Y-141966498D01*
X136156664Y-142047208D01*
X136247339Y-142101877D01*
X136339693Y-142137201D01*
X136447313Y-142163224D01*
X136570152Y-142170644D01*
X136687711Y-142177334D01*
X136799989Y-142183295D01*
X136906985Y-142188526D01*
X137008702Y-142193026D01*
X137136109Y-142197892D01*
X137254128Y-142201460D01*
X137362758Y-142203731D01*
X137485345Y-142204745D01*
X137593079Y-142203867D01*
X137703790Y-142201234D01*
X137817477Y-142196845D01*
X137934141Y-142190701D01*
X138053782Y-142182801D01*
X138176400Y-142173146D01*
X138301994Y-142161735D01*
X138430565Y-142148569D01*
X138466944Y-142142816D01*
X138575787Y-142109006D01*
X138664973Y-142044320D01*
X138716608Y-141951851D01*
X138730983Y-141848150D01*
X138730983Y-140890718D01*
X138565743Y-140866902D01*
X138403412Y-140843081D01*
X138243991Y-140819256D01*
X138087480Y-140795425D01*
X137933879Y-140771590D01*
X137783188Y-140747750D01*
X137635406Y-140723906D01*
X137490535Y-140700056D01*
X137348574Y-140676202D01*
X137209522Y-140652343D01*
X137073381Y-140628479D01*
X136940149Y-140604611D01*
X136809827Y-140580737D01*
X136682416Y-140556859D01*
X136557914Y-140532976D01*
X136436322Y-140509089D01*
X136317640Y-140485196D01*
X136201868Y-140461299D01*
X136089006Y-140437397D01*
X135979053Y-140413491D01*
X135872011Y-140389579D01*
X135767879Y-140365663D01*
X135666656Y-140341742D01*
X135568344Y-140317816D01*
X135380449Y-140269950D01*
X135204193Y-140222065D01*
X135039577Y-140174161D01*
X134886601Y-140126238D01*
X135612002Y-138951430D01*
X135687214Y-138982988D01*
X135841946Y-139045862D01*
X136002421Y-139108411D01*
X136168640Y-139170636D01*
X136340602Y-139232536D01*
X136518308Y-139294112D01*
X136701757Y-139355363D01*
X136795636Y-139385867D01*
X136890950Y-139416291D01*
X136987700Y-139446632D01*
X137085886Y-139476893D01*
X137185508Y-139507073D01*
X137286566Y-139537172D01*
X137389060Y-139567189D01*
X137492989Y-139597126D01*
X137598355Y-139626981D01*
X137705156Y-139656755D01*
X137813394Y-139686448D01*
X137923067Y-139716060D01*
X138034176Y-139745591D01*
X138146721Y-139775041D01*
X138260701Y-139804410D01*
X138376118Y-139833698D01*
X138492971Y-139862904D01*
X138611259Y-139892030D01*
X138730983Y-139921074D01*
X138730983Y-138868387D01*
X140521284Y-138868387D01*
X140521284Y-142109490D01*
G37*
G36*
X146825191Y-143418632D02*
G01*
X145088625Y-143418632D01*
X145088625Y-141423168D01*
X143010118Y-141423168D01*
X143010118Y-142058199D01*
X143015232Y-142129182D01*
X143048792Y-142230629D01*
X143125499Y-142311076D01*
X143226178Y-142350413D01*
X143337404Y-142361060D01*
X144253314Y-142361060D01*
X143979762Y-143611584D01*
X142614445Y-143611584D01*
X142576225Y-143611257D01*
X142464541Y-143606355D01*
X142357322Y-143595572D01*
X142254568Y-143578907D01*
X142156279Y-143556359D01*
X142062456Y-143527930D01*
X141944303Y-143480876D01*
X141834089Y-143423364D01*
X141731812Y-143355396D01*
X141637473Y-143276971D01*
X141552179Y-143189921D01*
X141478258Y-143097300D01*
X141415708Y-142999106D01*
X141364532Y-142895341D01*
X141324728Y-142786005D01*
X141296297Y-142671096D01*
X141279238Y-142550616D01*
X141273551Y-142424563D01*
X141273551Y-139860013D01*
X143010118Y-139860013D01*
X143010118Y-140797906D01*
X145088625Y-140797906D01*
X145088625Y-139860013D01*
X143010118Y-139860013D01*
X141273551Y-139860013D01*
X141273551Y-138296859D01*
X143010118Y-138296859D01*
X143010118Y-139234752D01*
X145088625Y-139234752D01*
X145088625Y-138296859D01*
X143010118Y-138296859D01*
X141273551Y-138296859D01*
X141273551Y-137671598D01*
X146825191Y-137671598D01*
X146825191Y-143418632D01*
G37*
G36*
X140494417Y-137351639D02*
G01*
X140489551Y-137479428D01*
X140474954Y-137599622D01*
X140450625Y-137712222D01*
X140416564Y-137817227D01*
X140372772Y-137914638D01*
X140319249Y-138004455D01*
X140255994Y-138086677D01*
X140183007Y-138161304D01*
X140100289Y-138228338D01*
X140007839Y-138287776D01*
X139905658Y-138339621D01*
X139793745Y-138383871D01*
X139672101Y-138420526D01*
X139540725Y-138449587D01*
X139399617Y-138471054D01*
X139248778Y-138484926D01*
X139115704Y-138496413D01*
X138986370Y-138507061D01*
X138860776Y-138516869D01*
X138738921Y-138525837D01*
X138620807Y-138533966D01*
X138506433Y-138541255D01*
X138395798Y-138547704D01*
X138288904Y-138553314D01*
X138185749Y-138558085D01*
X138086335Y-138562015D01*
X137944226Y-138566337D01*
X137810531Y-138568770D01*
X137685252Y-138569314D01*
X137568387Y-138567969D01*
X137514125Y-138567041D01*
X137407917Y-138565114D01*
X137304801Y-138563091D01*
X137204776Y-138560973D01*
X137060534Y-138557617D01*
X136923248Y-138554046D01*
X136792916Y-138550261D01*
X136669540Y-138546261D01*
X136553120Y-138542047D01*
X136443654Y-138537617D01*
X136341144Y-138532973D01*
X136215282Y-138526448D01*
X136124015Y-138520084D01*
X135991767Y-138506138D01*
X135865099Y-138486911D01*
X135744013Y-138462403D01*
X135628508Y-138432614D01*
X135518584Y-138397545D01*
X135414242Y-138357195D01*
X135315481Y-138311564D01*
X135222301Y-138260652D01*
X135134703Y-138204460D01*
X135052686Y-138142986D01*
X134966247Y-138062653D01*
X134891333Y-137977970D01*
X134827945Y-137888936D01*
X134776081Y-137795551D01*
X134735743Y-137697815D01*
X134706930Y-137595730D01*
X134689642Y-137489293D01*
X134683879Y-137378506D01*
X134683879Y-136352686D01*
X135995464Y-136106001D01*
X135996761Y-136226748D01*
X136000654Y-136349633D01*
X136007141Y-136474655D01*
X136016224Y-136601814D01*
X136027902Y-136731110D01*
X136038363Y-136829484D01*
X136050285Y-136929061D01*
X136063666Y-137029840D01*
X136078506Y-137131821D01*
X136105068Y-137199484D01*
X136174677Y-137277947D01*
X136267642Y-137335582D01*
X136371140Y-137376798D01*
X136474180Y-137405373D01*
X136582944Y-137411670D01*
X136696746Y-137417127D01*
X136815585Y-137421745D01*
X136939462Y-137425523D01*
X137068377Y-137428461D01*
X137168368Y-137430114D01*
X137271194Y-137431295D01*
X137376852Y-137432003D01*
X137485345Y-137432240D01*
X137593909Y-137431875D01*
X137698867Y-137430780D01*
X137800218Y-137428955D01*
X137897963Y-137426401D01*
X138022679Y-137421859D01*
X138140984Y-137416020D01*
X138252878Y-137408884D01*
X138358360Y-137400450D01*
X138457431Y-137390718D01*
X138492036Y-137386501D01*
X138595569Y-137358218D01*
X138680406Y-137300134D01*
X138729521Y-137214572D01*
X138743196Y-137117166D01*
X138743196Y-136257431D01*
X138574005Y-136234407D01*
X138408068Y-136211436D01*
X138245384Y-136188516D01*
X138085953Y-136165650D01*
X137929776Y-136142835D01*
X137776853Y-136120073D01*
X137627182Y-136097364D01*
X137480765Y-136074707D01*
X137337602Y-136052103D01*
X137197692Y-136029551D01*
X137061035Y-136007052D01*
X136927632Y-135984605D01*
X136797482Y-135962210D01*
X136670585Y-135939868D01*
X136546942Y-135917579D01*
X136426552Y-135895341D01*
X136309416Y-135873157D01*
X136195533Y-135851025D01*
X136084903Y-135828945D01*
X135977527Y-135806918D01*
X135873404Y-135784943D01*
X135772535Y-135763021D01*
X135580556Y-135719334D01*
X135401591Y-135675857D01*
X135235639Y-135632590D01*
X135082701Y-135589532D01*
X134942777Y-135546685D01*
X135680390Y-134410956D01*
X135819151Y-134475661D01*
X135964933Y-134539717D01*
X136117738Y-134603125D01*
X136277564Y-134665884D01*
X136444412Y-134727994D01*
X136618283Y-134789456D01*
X136799175Y-134850268D01*
X136892255Y-134880431D01*
X136987090Y-134910432D01*
X137083680Y-134940271D01*
X137182026Y-134969947D01*
X137282127Y-134999462D01*
X137383984Y-135028814D01*
X137487597Y-135058003D01*
X137592964Y-135087031D01*
X137700088Y-135115897D01*
X137808967Y-135144600D01*
X137919601Y-135173141D01*
X138031991Y-135201520D01*
X138146136Y-135229737D01*
X138262037Y-135257791D01*
X138379694Y-135285684D01*
X138499105Y-135313414D01*
X138620273Y-135340982D01*
X138743196Y-135368387D01*
X138743196Y-134301046D01*
X140494417Y-134301046D01*
X140494417Y-137351639D01*
G37*
G36*
X145428838Y-134308259D02*
G01*
X145495709Y-134449576D01*
X145562790Y-134588222D01*
X145630081Y-134724197D01*
X145697581Y-134857500D01*
X145765292Y-134988132D01*
X145833212Y-135116092D01*
X145901343Y-135241381D01*
X145969683Y-135363999D01*
X146038233Y-135483945D01*
X146106993Y-135601220D01*
X146175963Y-135715823D01*
X146245143Y-135827755D01*
X146314533Y-135937015D01*
X146384133Y-136043604D01*
X146453942Y-136147522D01*
X146579613Y-136147522D01*
X146702612Y-136147522D01*
X146822940Y-136147522D01*
X146940596Y-136147522D01*
X147055581Y-136147522D01*
X147167895Y-136147522D01*
X147277537Y-136147522D01*
X147384508Y-136147522D01*
X147179344Y-137268597D01*
X147050369Y-137263168D01*
X146919902Y-137257262D01*
X146787942Y-137250880D01*
X146654489Y-137244020D01*
X146519542Y-137236683D01*
X146383102Y-137228869D01*
X146245170Y-137220578D01*
X146105744Y-137211810D01*
X145964825Y-137202565D01*
X145822412Y-137192843D01*
X145678507Y-137182644D01*
X145533109Y-137171968D01*
X145386217Y-137160815D01*
X145237832Y-137149185D01*
X145087955Y-137137078D01*
X144936584Y-137124494D01*
X144783720Y-137111432D01*
X144629362Y-137097894D01*
X144473512Y-137083879D01*
X144316169Y-137069386D01*
X144157332Y-137054417D01*
X143997002Y-137038970D01*
X143835180Y-137023047D01*
X143671864Y-137006646D01*
X143507055Y-136989769D01*
X143340752Y-136972414D01*
X143172957Y-136954583D01*
X143003669Y-136936274D01*
X142832887Y-136917488D01*
X142660612Y-136898225D01*
X142486845Y-136878486D01*
X142311584Y-136858269D01*
X142270272Y-136937075D01*
X142228136Y-137025966D01*
X142189462Y-137117166D01*
X142182366Y-137132343D01*
X142120006Y-137225091D01*
X142035439Y-137294230D01*
X141945279Y-137334702D01*
X141838804Y-137357829D01*
X141737613Y-137363852D01*
X141673456Y-137362005D01*
X141566338Y-137350724D01*
X141458980Y-137329185D01*
X141351385Y-137297391D01*
X141243551Y-137255340D01*
X141135478Y-137203033D01*
X141048848Y-137153803D01*
X141006554Y-137127165D01*
X140912757Y-137059903D01*
X140836013Y-136991687D01*
X140766433Y-136908568D01*
X140716294Y-136809859D01*
X140699581Y-136709281D01*
X140700595Y-136691785D01*
X140741102Y-136599371D01*
X140788491Y-136500424D01*
X140845172Y-136398367D01*
X140911147Y-136293200D01*
X140986413Y-136184922D01*
X141070973Y-136073534D01*
X141164825Y-135959035D01*
X141267970Y-135841427D01*
X141380408Y-135720708D01*
X141502138Y-135596879D01*
X141633161Y-135469939D01*
X141773477Y-135339889D01*
X141847119Y-135273698D01*
X141923085Y-135206729D01*
X142001374Y-135138983D01*
X142081986Y-135070459D01*
X142164921Y-135001157D01*
X142250179Y-134931078D01*
X142337761Y-134860222D01*
X142427666Y-134788587D01*
X142519894Y-134716176D01*
X142614445Y-134642986D01*
X143405792Y-135053314D01*
X143363106Y-135105197D01*
X143299293Y-135185239D01*
X143235737Y-135267943D01*
X143172439Y-135353308D01*
X143109399Y-135441336D01*
X143046616Y-135532025D01*
X142984091Y-135625377D01*
X142921823Y-135721390D01*
X142859813Y-135820065D01*
X142798061Y-135921402D01*
X142736566Y-136025401D01*
X142862971Y-136032070D01*
X142992449Y-136038643D01*
X143124998Y-136045121D01*
X143260620Y-136051504D01*
X143399313Y-136057792D01*
X143541079Y-136063983D01*
X143685917Y-136070080D01*
X143833827Y-136076081D01*
X143984809Y-136081987D01*
X144138864Y-136087797D01*
X144295990Y-136093512D01*
X144456188Y-136099132D01*
X144619459Y-136104656D01*
X144785802Y-136110084D01*
X144955217Y-136115418D01*
X145127704Y-136120655D01*
X145032458Y-136019476D01*
X144937843Y-135917438D01*
X144843857Y-135814541D01*
X144750501Y-135710785D01*
X144657775Y-135606171D01*
X144565678Y-135500698D01*
X144474211Y-135394367D01*
X144383374Y-135287177D01*
X144293166Y-135179128D01*
X144203588Y-135070220D01*
X144114640Y-134960454D01*
X144026321Y-134849829D01*
X143938632Y-134738346D01*
X143851573Y-134626004D01*
X143765143Y-134512803D01*
X143679344Y-134398743D01*
X145362177Y-134164270D01*
X145428838Y-134308259D01*
G37*
G36*
X125825191Y-136421074D02*
G01*
X128394626Y-136421074D01*
X128311584Y-137202651D01*
X125825191Y-137202651D01*
X125825191Y-139703698D01*
X128736566Y-139703698D01*
X128641311Y-140485275D01*
X126206210Y-140485275D01*
X126261174Y-140640493D01*
X126319821Y-140795349D01*
X126382151Y-140949842D01*
X126448163Y-141103973D01*
X126517858Y-141257741D01*
X126591236Y-141411146D01*
X126668297Y-141564189D01*
X126749040Y-141716870D01*
X126833466Y-141869188D01*
X126921575Y-142021143D01*
X127013366Y-142172736D01*
X127108840Y-142323966D01*
X127207997Y-142474833D01*
X127310837Y-142625339D01*
X127417359Y-142775481D01*
X127527564Y-142925261D01*
X127640145Y-143073391D01*
X127754405Y-143218582D01*
X127870344Y-143360834D01*
X127987962Y-143500148D01*
X128107259Y-143636523D01*
X128228236Y-143769960D01*
X128350891Y-143900458D01*
X128475226Y-144028018D01*
X128601240Y-144152639D01*
X128728934Y-144274321D01*
X128858306Y-144393065D01*
X128989357Y-144508871D01*
X129122088Y-144621738D01*
X129256498Y-144731666D01*
X129392587Y-144838656D01*
X129530355Y-144942707D01*
X128873342Y-145707187D01*
X128782064Y-145655269D01*
X128691105Y-145602096D01*
X128600465Y-145547668D01*
X128510145Y-145491986D01*
X128420145Y-145435050D01*
X128330465Y-145376858D01*
X128241104Y-145317412D01*
X128152062Y-145256712D01*
X128063341Y-145194757D01*
X127974939Y-145131547D01*
X127886856Y-145067083D01*
X127799093Y-145001364D01*
X127711650Y-144934390D01*
X127624527Y-144866162D01*
X127537723Y-144796679D01*
X127451238Y-144725942D01*
X127365073Y-144653950D01*
X127279228Y-144580703D01*
X127193703Y-144506202D01*
X127108497Y-144430446D01*
X127023610Y-144353435D01*
X126939044Y-144275170D01*
X126854797Y-144195651D01*
X126770869Y-144114877D01*
X126687261Y-144032848D01*
X126603973Y-143949564D01*
X126521004Y-143865026D01*
X126438355Y-143779233D01*
X126356026Y-143692186D01*
X126274016Y-143603884D01*
X126192326Y-143514328D01*
X126110956Y-143423517D01*
X126045947Y-143345235D01*
X125975651Y-143258223D01*
X125913770Y-143178768D01*
X125852211Y-143095621D01*
X125795882Y-143013189D01*
X125795882Y-146471667D01*
X124061758Y-146471667D01*
X124061758Y-142302442D01*
X124006157Y-142418305D01*
X123948958Y-142533557D01*
X123890161Y-142648198D01*
X123829766Y-142762229D01*
X123767772Y-142875649D01*
X123704181Y-142988459D01*
X123638991Y-143100658D01*
X123572204Y-143212247D01*
X123503818Y-143323224D01*
X123433834Y-143433592D01*
X123362253Y-143543348D01*
X123289073Y-143652494D01*
X123214295Y-143761030D01*
X123137919Y-143868954D01*
X123059945Y-143976269D01*
X122980373Y-144082972D01*
X122899203Y-144189065D01*
X122816434Y-144294548D01*
X122732068Y-144399419D01*
X122646104Y-144503681D01*
X122558541Y-144607331D01*
X122469381Y-144710371D01*
X122378622Y-144812800D01*
X122286265Y-144914619D01*
X122192310Y-145015827D01*
X122096758Y-145116425D01*
X121999607Y-145216412D01*
X121900858Y-145315788D01*
X121800511Y-145414554D01*
X121698565Y-145512709D01*
X121595022Y-145610253D01*
X121489881Y-145707187D01*
X120151430Y-144339427D01*
X120284447Y-144257482D01*
X120417273Y-144172235D01*
X120549908Y-144083688D01*
X120682353Y-143991839D01*
X120814607Y-143896689D01*
X120946670Y-143798239D01*
X121078542Y-143696487D01*
X121210223Y-143591434D01*
X121341713Y-143483079D01*
X121473013Y-143371424D01*
X121604122Y-143256468D01*
X121735040Y-143138210D01*
X121865767Y-143016652D01*
X121996303Y-142891792D01*
X122126649Y-142763632D01*
X122256803Y-142632170D01*
X122390612Y-142490690D01*
X122519097Y-142350184D01*
X122642259Y-142210651D01*
X122760096Y-142072090D01*
X122872610Y-141934503D01*
X122979800Y-141797890D01*
X123081667Y-141662249D01*
X123178210Y-141527581D01*
X123269429Y-141393887D01*
X123355324Y-141261166D01*
X123435895Y-141129418D01*
X123511143Y-140998643D01*
X123581067Y-140868841D01*
X123645667Y-140740013D01*
X123704944Y-140612157D01*
X123758897Y-140485275D01*
X121052686Y-140485275D01*
X121024887Y-140484894D01*
X120922515Y-140475734D01*
X120814406Y-140447112D01*
X120713799Y-140387578D01*
X120644963Y-140300566D01*
X120611868Y-140207067D01*
X120600837Y-140094487D01*
X120601118Y-140079720D01*
X120618850Y-139978624D01*
X120664164Y-139881502D01*
X120724957Y-139801417D01*
X120806015Y-139724251D01*
X120889043Y-139662177D01*
X121558269Y-139171249D01*
X122227494Y-139703698D01*
X123993370Y-139703698D01*
X123993370Y-137202651D01*
X121477669Y-137202651D01*
X121448968Y-137202296D01*
X121343276Y-137193766D01*
X121231661Y-137167112D01*
X121142825Y-137122688D01*
X121066289Y-137045923D01*
X121022554Y-136943570D01*
X121011165Y-136838729D01*
X121011432Y-136823200D01*
X121028262Y-136716761D01*
X121071272Y-136614296D01*
X121128974Y-136529631D01*
X121205910Y-136447886D01*
X121284717Y-136381995D01*
X121968597Y-135888625D01*
X122530355Y-136421074D01*
X123993370Y-136421074D01*
X123993370Y-134288834D01*
X125825191Y-134288834D01*
X125825191Y-136421074D01*
G37*
G36*
X133084089Y-144344312D02*
G01*
X131430565Y-144344312D01*
X131430565Y-143455268D01*
X128858688Y-143455268D01*
X128858688Y-135795812D01*
X130500000Y-135795812D01*
X130500000Y-142673691D01*
X131430565Y-142673691D01*
X131430565Y-135795812D01*
X130500000Y-135795812D01*
X128858688Y-135795812D01*
X128858688Y-135014235D01*
X133084089Y-135014235D01*
X133084089Y-144344312D01*
G37*
G36*
X112616538Y-137202651D02*
G01*
X113764480Y-137202651D01*
X113683879Y-137827913D01*
X112699581Y-137827913D01*
X112717365Y-137992185D01*
X112736523Y-138157107D01*
X112757054Y-138322676D01*
X112778960Y-138488895D01*
X112802239Y-138655763D01*
X112826892Y-138823279D01*
X112852920Y-138991444D01*
X112880321Y-139160258D01*
X112909095Y-139329720D01*
X112939244Y-139499832D01*
X112970767Y-139670592D01*
X113003663Y-139842001D01*
X113037933Y-140014058D01*
X113073578Y-140186765D01*
X113110596Y-140360120D01*
X113148988Y-140534124D01*
X113173934Y-140633376D01*
X113199010Y-140731159D01*
X113224214Y-140827473D01*
X113249547Y-140922317D01*
X113300599Y-141107598D01*
X113352167Y-141287002D01*
X113404250Y-141460529D01*
X113456848Y-141628179D01*
X113509961Y-141789952D01*
X113563590Y-141945847D01*
X113617734Y-142095866D01*
X113672392Y-142240007D01*
X113727567Y-142378272D01*
X113783256Y-142510659D01*
X113839460Y-142637169D01*
X113896180Y-142757802D01*
X113953415Y-142872558D01*
X114011165Y-142981437D01*
X114011165Y-142830006D01*
X115146894Y-142830006D01*
X117948360Y-142830006D01*
X117948360Y-141872575D01*
X117799371Y-142024005D01*
X117737860Y-141944636D01*
X117678195Y-141861927D01*
X117620375Y-141775879D01*
X117564402Y-141686492D01*
X117510275Y-141593766D01*
X117457994Y-141497700D01*
X117407560Y-141398295D01*
X117358971Y-141295551D01*
X117312229Y-141189467D01*
X117267332Y-141080045D01*
X117224282Y-140967283D01*
X117183078Y-140851181D01*
X117143720Y-140731741D01*
X117106208Y-140608961D01*
X117070543Y-140482842D01*
X117036723Y-140353384D01*
X117004750Y-140220587D01*
X116974623Y-140084450D01*
X116946341Y-139944974D01*
X116919906Y-139802158D01*
X116895318Y-139656004D01*
X116872575Y-139506510D01*
X116851678Y-139353677D01*
X116832628Y-139197505D01*
X116815423Y-139037993D01*
X116800065Y-138875142D01*
X116786553Y-138708952D01*
X116774887Y-138539423D01*
X116765067Y-138366554D01*
X116757094Y-138190346D01*
X116750966Y-138010799D01*
X116746685Y-137827913D01*
X117511165Y-137827913D01*
X117513314Y-137972801D01*
X117516403Y-138115289D01*
X117520431Y-138255378D01*
X117525400Y-138393068D01*
X117531308Y-138528358D01*
X117538156Y-138661249D01*
X117545943Y-138791740D01*
X117554671Y-138919831D01*
X117564338Y-139045523D01*
X117574945Y-139168816D01*
X117586491Y-139289709D01*
X117598978Y-139408202D01*
X117612404Y-139524296D01*
X117626770Y-139637991D01*
X117642076Y-139749286D01*
X117658321Y-139858182D01*
X117675506Y-139964678D01*
X117693631Y-140068774D01*
X117712696Y-140170471D01*
X117732701Y-140269769D01*
X117775529Y-140461166D01*
X117822117Y-140642964D01*
X117872463Y-140815165D01*
X117926569Y-140977768D01*
X117984433Y-141130773D01*
X118046057Y-141274180D01*
X118046057Y-137827913D01*
X117511165Y-137827913D01*
X116746685Y-137827913D01*
X116184926Y-137827913D01*
X116184926Y-140683112D01*
X116182369Y-140772728D01*
X116168945Y-140896312D01*
X116144016Y-141006886D01*
X116107579Y-141104452D01*
X116041100Y-141214304D01*
X115954164Y-141301030D01*
X115846774Y-141364628D01*
X115752807Y-141397150D01*
X115647334Y-141416663D01*
X115530355Y-141423168D01*
X115146894Y-141423168D01*
X115146894Y-142830006D01*
X114011165Y-142830006D01*
X114011165Y-137827913D01*
X114953942Y-137827913D01*
X114953942Y-140641591D01*
X115132240Y-140641591D01*
X115170393Y-140640589D01*
X115284545Y-140621305D01*
X115378083Y-140569212D01*
X115432236Y-140485063D01*
X115447313Y-140385136D01*
X115447313Y-137827913D01*
X114953942Y-137827913D01*
X114011165Y-137827913D01*
X114011165Y-137046336D01*
X115378925Y-137046336D01*
X115378925Y-135483182D01*
X116184926Y-135483182D01*
X116184926Y-137046336D01*
X116746685Y-137046336D01*
X116746685Y-135483182D01*
X116184926Y-135483182D01*
X115378925Y-135483182D01*
X113957431Y-135483182D01*
X113933840Y-135482895D01*
X113827115Y-135472878D01*
X113723760Y-135441966D01*
X113637256Y-135379855D01*
X113587451Y-135289696D01*
X113573970Y-135190090D01*
X113580291Y-135125225D01*
X113616698Y-135024666D01*
X113675102Y-134939932D01*
X113744883Y-134869722D01*
X113832868Y-134801744D01*
X114367759Y-134432937D01*
X114873342Y-134857920D01*
X119357641Y-134857920D01*
X119262386Y-135483182D01*
X117594207Y-135483182D01*
X117594207Y-137046336D01*
X119057222Y-137046336D01*
X119057222Y-146496092D01*
X117950802Y-146496092D01*
X117950802Y-145800000D01*
X115146894Y-145800000D01*
X115146894Y-146496092D01*
X114011165Y-146496092D01*
X114011165Y-143455268D01*
X115146894Y-143455268D01*
X115146894Y-145018422D01*
X117948360Y-145018422D01*
X117948360Y-143455268D01*
X115146894Y-143455268D01*
X114011165Y-143455268D01*
X114011165Y-143384438D01*
X113517794Y-143816748D01*
X113456743Y-143725758D01*
X113396322Y-143631695D01*
X113336530Y-143534561D01*
X113277368Y-143434355D01*
X113218835Y-143331076D01*
X113160933Y-143224726D01*
X113103660Y-143115303D01*
X113047016Y-143002808D01*
X112991003Y-142887241D01*
X112935619Y-142768602D01*
X112880864Y-142646891D01*
X112826740Y-142522108D01*
X112773245Y-142394252D01*
X112720380Y-142263325D01*
X112668144Y-142129325D01*
X112616538Y-141992254D01*
X112616538Y-146591346D01*
X111236566Y-146591346D01*
X111236566Y-143870481D01*
X110647941Y-144410258D01*
X110566749Y-144295998D01*
X110486817Y-144179754D01*
X110408144Y-144061525D01*
X110330730Y-143941311D01*
X110254576Y-143819114D01*
X110179682Y-143694931D01*
X110106046Y-143568765D01*
X110033670Y-143440614D01*
X109962553Y-143310478D01*
X109892696Y-143178358D01*
X109824098Y-143044253D01*
X109756760Y-142908164D01*
X109690681Y-142770091D01*
X109625861Y-142630033D01*
X109562301Y-142487990D01*
X109500000Y-142343963D01*
X109500000Y-146591346D01*
X108120027Y-146591346D01*
X108120027Y-141938520D01*
X108091708Y-142035103D01*
X108063231Y-142130680D01*
X108034597Y-142225250D01*
X108005806Y-142318814D01*
X107947750Y-142502921D01*
X107889065Y-142683003D01*
X107829751Y-142859058D01*
X107769806Y-143031087D01*
X107709232Y-143199090D01*
X107648028Y-143363066D01*
X107586195Y-143523017D01*
X107523731Y-143678941D01*
X107460639Y-143830839D01*
X107396916Y-143978711D01*
X107332564Y-144122557D01*
X107267582Y-144262376D01*
X107201970Y-144398170D01*
X107135729Y-144529937D01*
X106190509Y-143411304D01*
X106263565Y-143293276D01*
X106335576Y-143173664D01*
X106406542Y-143052468D01*
X106476464Y-142929688D01*
X106545341Y-142805325D01*
X106613173Y-142679377D01*
X106679961Y-142551846D01*
X106745703Y-142422732D01*
X106810402Y-142292033D01*
X106874055Y-142159751D01*
X106936664Y-142025885D01*
X106998228Y-141890435D01*
X107058747Y-141753401D01*
X107118221Y-141614784D01*
X107176651Y-141474583D01*
X107234036Y-141332798D01*
X107290377Y-141189429D01*
X107345673Y-141044477D01*
X107399924Y-140897941D01*
X107453130Y-140749821D01*
X107505292Y-140600117D01*
X107556408Y-140448830D01*
X107606481Y-140295958D01*
X107655508Y-140141503D01*
X107703491Y-139985465D01*
X107750429Y-139827842D01*
X107796322Y-139668636D01*
X107841171Y-139507846D01*
X107884975Y-139345472D01*
X107927734Y-139181514D01*
X107969448Y-139015973D01*
X108010118Y-138848848D01*
X108026795Y-138794122D01*
X108053960Y-138696516D01*
X108078554Y-138596572D01*
X108100576Y-138494290D01*
X108120027Y-138389672D01*
X108120027Y-137984228D01*
X106901256Y-137984228D01*
X106856595Y-137982845D01*
X106739903Y-137962094D01*
X106649142Y-137916441D01*
X106576029Y-137831708D01*
X106541453Y-137732103D01*
X106532449Y-137630076D01*
X106534746Y-137580588D01*
X106553121Y-137484189D01*
X106589872Y-137391224D01*
X106644999Y-137301694D01*
X106718500Y-137215598D01*
X106793789Y-137146475D01*
X107216329Y-136833845D01*
X107653524Y-137202651D01*
X108120027Y-137202651D01*
X108120027Y-134428053D01*
X109500000Y-134428053D01*
X109500000Y-137202651D01*
X110335310Y-137202651D01*
X110237613Y-137984228D01*
X109553733Y-137984228D01*
X109576764Y-138175530D01*
X109601284Y-138364751D01*
X109627292Y-138551893D01*
X109654788Y-138736954D01*
X109683773Y-138919936D01*
X109714246Y-139100838D01*
X109746208Y-139279660D01*
X109779658Y-139456402D01*
X109814596Y-139631064D01*
X109851022Y-139803647D01*
X109888937Y-139974149D01*
X109928340Y-140142572D01*
X109969232Y-140308915D01*
X110011612Y-140473177D01*
X110055480Y-140635360D01*
X110100837Y-140795464D01*
X110135071Y-140911691D01*
X110169387Y-141026206D01*
X110203784Y-141139009D01*
X110238262Y-141250099D01*
X110272821Y-141359476D01*
X110307461Y-141467141D01*
X110342182Y-141573093D01*
X110376984Y-141677333D01*
X110411867Y-141779860D01*
X110446832Y-141880675D01*
X110481877Y-141979777D01*
X110517004Y-142077166D01*
X110552212Y-142172843D01*
X110587500Y-142266807D01*
X110658321Y-142449598D01*
X110729466Y-142625539D01*
X110800936Y-142794629D01*
X110872730Y-142956870D01*
X110944849Y-143112260D01*
X111017291Y-143260799D01*
X111090059Y-143402489D01*
X111163150Y-143537328D01*
X111236566Y-143665317D01*
X111236566Y-140016329D01*
X111214661Y-140082723D01*
X111183233Y-140181706D01*
X111153524Y-140279959D01*
X111125531Y-140377482D01*
X111099256Y-140474275D01*
X111074698Y-140570338D01*
X111051857Y-140665671D01*
X111024075Y-140791647D01*
X110999345Y-140916326D01*
X110977669Y-141039706D01*
X110943976Y-141119648D01*
X110873866Y-141193579D01*
X110773616Y-141235053D01*
X110674808Y-141244870D01*
X110592044Y-141238676D01*
X110487351Y-141212508D01*
X110395913Y-141172056D01*
X110306001Y-141115422D01*
X110245408Y-141064217D01*
X110178024Y-140977427D01*
X110138847Y-140878659D01*
X110127704Y-140780809D01*
X110134764Y-140697576D01*
X110155944Y-140598085D01*
X110191245Y-140482337D01*
X110226987Y-140384857D01*
X110270672Y-140278232D01*
X110322299Y-140162462D01*
X110381869Y-140037547D01*
X110425995Y-139949191D01*
X110473651Y-139856770D01*
X110524837Y-139760284D01*
X110579553Y-139659734D01*
X110622190Y-139582006D01*
X110685753Y-139468168D01*
X110748844Y-139357636D01*
X110811462Y-139250411D01*
X110873608Y-139146490D01*
X110935282Y-139045876D01*
X110996483Y-138948568D01*
X111057212Y-138854565D01*
X111117469Y-138763869D01*
X111177254Y-138676478D01*
X111236566Y-138592393D01*
X111236566Y-137827913D01*
X110674808Y-137827913D01*
X110594665Y-137823524D01*
X110494488Y-137800483D01*
X110408001Y-137748641D01*
X110349230Y-137656478D01*
X110332868Y-137547034D01*
X110338890Y-137485150D01*
X110373580Y-137385888D01*
X110429229Y-137298784D01*
X110495718Y-137223937D01*
X110579553Y-137148918D01*
X110867759Y-136902233D01*
X111182833Y-137202651D01*
X111236566Y-137202651D01*
X111236566Y-134415840D01*
X112616538Y-134415840D01*
X112616538Y-137202651D01*
G37*
X120476191Y-174304819D02*
X120666667Y-174304819D01*
X120666667Y-174304819D02*
X120761905Y-174257200D01*
X120761905Y-174257200D02*
X120809524Y-174209580D01*
X120809524Y-174209580D02*
X120904762Y-174066723D01*
X120904762Y-174066723D02*
X120952381Y-173876247D01*
X120952381Y-173876247D02*
X120952381Y-173495295D01*
X120952381Y-173495295D02*
X120904762Y-173400057D01*
X120904762Y-173400057D02*
X120857143Y-173352438D01*
X120857143Y-173352438D02*
X120761905Y-173304819D01*
X120761905Y-173304819D02*
X120571429Y-173304819D01*
X120571429Y-173304819D02*
X120476191Y-173352438D01*
X120476191Y-173352438D02*
X120428572Y-173400057D01*
X120428572Y-173400057D02*
X120380953Y-173495295D01*
X120380953Y-173495295D02*
X120380953Y-173733390D01*
X120380953Y-173733390D02*
X120428572Y-173828628D01*
X120428572Y-173828628D02*
X120476191Y-173876247D01*
X120476191Y-173876247D02*
X120571429Y-173923866D01*
X120571429Y-173923866D02*
X120761905Y-173923866D01*
X120761905Y-173923866D02*
X120857143Y-173876247D01*
X120857143Y-173876247D02*
X120904762Y-173828628D01*
X120904762Y-173828628D02*
X120952381Y-173733390D01*
X121571429Y-173304819D02*
X121666667Y-173304819D01*
X121666667Y-173304819D02*
X121761905Y-173352438D01*
X121761905Y-173352438D02*
X121809524Y-173400057D01*
X121809524Y-173400057D02*
X121857143Y-173495295D01*
X121857143Y-173495295D02*
X121904762Y-173685771D01*
X121904762Y-173685771D02*
X121904762Y-173923866D01*
X121904762Y-173923866D02*
X121857143Y-174114342D01*
X121857143Y-174114342D02*
X121809524Y-174209580D01*
X121809524Y-174209580D02*
X121761905Y-174257200D01*
X121761905Y-174257200D02*
X121666667Y-174304819D01*
X121666667Y-174304819D02*
X121571429Y-174304819D01*
X121571429Y-174304819D02*
X121476191Y-174257200D01*
X121476191Y-174257200D02*
X121428572Y-174209580D01*
X121428572Y-174209580D02*
X121380953Y-174114342D01*
X121380953Y-174114342D02*
X121333334Y-173923866D01*
X121333334Y-173923866D02*
X121333334Y-173685771D01*
X121333334Y-173685771D02*
X121380953Y-173495295D01*
X121380953Y-173495295D02*
X121428572Y-173400057D01*
X121428572Y-173400057D02*
X121476191Y-173352438D01*
X121476191Y-173352438D02*
X121571429Y-173304819D01*
X122333334Y-174209580D02*
X122380953Y-174257200D01*
X122380953Y-174257200D02*
X122333334Y-174304819D01*
X122333334Y-174304819D02*
X122285715Y-174257200D01*
X122285715Y-174257200D02*
X122333334Y-174209580D01*
X122333334Y-174209580D02*
X122333334Y-174304819D01*
X123000000Y-173304819D02*
X123095238Y-173304819D01*
X123095238Y-173304819D02*
X123190476Y-173352438D01*
X123190476Y-173352438D02*
X123238095Y-173400057D01*
X123238095Y-173400057D02*
X123285714Y-173495295D01*
X123285714Y-173495295D02*
X123333333Y-173685771D01*
X123333333Y-173685771D02*
X123333333Y-173923866D01*
X123333333Y-173923866D02*
X123285714Y-174114342D01*
X123285714Y-174114342D02*
X123238095Y-174209580D01*
X123238095Y-174209580D02*
X123190476Y-174257200D01*
X123190476Y-174257200D02*
X123095238Y-174304819D01*
X123095238Y-174304819D02*
X123000000Y-174304819D01*
X123000000Y-174304819D02*
X122904762Y-174257200D01*
X122904762Y-174257200D02*
X122857143Y-174209580D01*
X122857143Y-174209580D02*
X122809524Y-174114342D01*
X122809524Y-174114342D02*
X122761905Y-173923866D01*
X122761905Y-173923866D02*
X122761905Y-173685771D01*
X122761905Y-173685771D02*
X122809524Y-173495295D01*
X122809524Y-173495295D02*
X122857143Y-173400057D01*
X122857143Y-173400057D02*
X122904762Y-173352438D01*
X122904762Y-173352438D02*
X123000000Y-173304819D01*
X123952381Y-173304819D02*
X124047619Y-173304819D01*
X124047619Y-173304819D02*
X124142857Y-173352438D01*
X124142857Y-173352438D02*
X124190476Y-173400057D01*
X124190476Y-173400057D02*
X124238095Y-173495295D01*
X124238095Y-173495295D02*
X124285714Y-173685771D01*
X124285714Y-173685771D02*
X124285714Y-173923866D01*
X124285714Y-173923866D02*
X124238095Y-174114342D01*
X124238095Y-174114342D02*
X124190476Y-174209580D01*
X124190476Y-174209580D02*
X124142857Y-174257200D01*
X124142857Y-174257200D02*
X124047619Y-174304819D01*
X124047619Y-174304819D02*
X123952381Y-174304819D01*
X123952381Y-174304819D02*
X123857143Y-174257200D01*
X123857143Y-174257200D02*
X123809524Y-174209580D01*
X123809524Y-174209580D02*
X123761905Y-174114342D01*
X123761905Y-174114342D02*
X123714286Y-173923866D01*
X123714286Y-173923866D02*
X123714286Y-173685771D01*
X123714286Y-173685771D02*
X123761905Y-173495295D01*
X123761905Y-173495295D02*
X123809524Y-173400057D01*
X123809524Y-173400057D02*
X123857143Y-173352438D01*
X123857143Y-173352438D02*
X123952381Y-173304819D01*
X124904762Y-173304819D02*
X125000000Y-173304819D01*
X125000000Y-173304819D02*
X125095238Y-173352438D01*
X125095238Y-173352438D02*
X125142857Y-173400057D01*
X125142857Y-173400057D02*
X125190476Y-173495295D01*
X125190476Y-173495295D02*
X125238095Y-173685771D01*
X125238095Y-173685771D02*
X125238095Y-173923866D01*
X125238095Y-173923866D02*
X125190476Y-174114342D01*
X125190476Y-174114342D02*
X125142857Y-174209580D01*
X125142857Y-174209580D02*
X125095238Y-174257200D01*
X125095238Y-174257200D02*
X125000000Y-174304819D01*
X125000000Y-174304819D02*
X124904762Y-174304819D01*
X124904762Y-174304819D02*
X124809524Y-174257200D01*
X124809524Y-174257200D02*
X124761905Y-174209580D01*
X124761905Y-174209580D02*
X124714286Y-174114342D01*
X124714286Y-174114342D02*
X124666667Y-173923866D01*
X124666667Y-173923866D02*
X124666667Y-173685771D01*
X124666667Y-173685771D02*
X124714286Y-173495295D01*
X124714286Y-173495295D02*
X124761905Y-173400057D01*
X124761905Y-173400057D02*
X124809524Y-173352438D01*
X124809524Y-173352438D02*
X124904762Y-173304819D01*
X125857143Y-173304819D02*
X125952381Y-173304819D01*
X125952381Y-173304819D02*
X126047619Y-173352438D01*
X126047619Y-173352438D02*
X126095238Y-173400057D01*
X126095238Y-173400057D02*
X126142857Y-173495295D01*
X126142857Y-173495295D02*
X126190476Y-173685771D01*
X126190476Y-173685771D02*
X126190476Y-173923866D01*
X126190476Y-173923866D02*
X126142857Y-174114342D01*
X126142857Y-174114342D02*
X126095238Y-174209580D01*
X126095238Y-174209580D02*
X126047619Y-174257200D01*
X126047619Y-174257200D02*
X125952381Y-174304819D01*
X125952381Y-174304819D02*
X125857143Y-174304819D01*
X125857143Y-174304819D02*
X125761905Y-174257200D01*
X125761905Y-174257200D02*
X125714286Y-174209580D01*
X125714286Y-174209580D02*
X125666667Y-174114342D01*
X125666667Y-174114342D02*
X125619048Y-173923866D01*
X125619048Y-173923866D02*
X125619048Y-173685771D01*
X125619048Y-173685771D02*
X125666667Y-173495295D01*
X125666667Y-173495295D02*
X125714286Y-173400057D01*
X125714286Y-173400057D02*
X125761905Y-173352438D01*
X125761905Y-173352438D02*
X125857143Y-173304819D01*
X127380953Y-174304819D02*
X127380953Y-173638152D01*
X127380953Y-173733390D02*
X127428572Y-173685771D01*
X127428572Y-173685771D02*
X127523810Y-173638152D01*
X127523810Y-173638152D02*
X127666667Y-173638152D01*
X127666667Y-173638152D02*
X127761905Y-173685771D01*
X127761905Y-173685771D02*
X127809524Y-173781009D01*
X127809524Y-173781009D02*
X127809524Y-174304819D01*
X127809524Y-173781009D02*
X127857143Y-173685771D01*
X127857143Y-173685771D02*
X127952381Y-173638152D01*
X127952381Y-173638152D02*
X128095238Y-173638152D01*
X128095238Y-173638152D02*
X128190477Y-173685771D01*
X128190477Y-173685771D02*
X128238096Y-173781009D01*
X128238096Y-173781009D02*
X128238096Y-174304819D01*
X128714286Y-174304819D02*
X128714286Y-173638152D01*
X128714286Y-173733390D02*
X128761905Y-173685771D01*
X128761905Y-173685771D02*
X128857143Y-173638152D01*
X128857143Y-173638152D02*
X129000000Y-173638152D01*
X129000000Y-173638152D02*
X129095238Y-173685771D01*
X129095238Y-173685771D02*
X129142857Y-173781009D01*
X129142857Y-173781009D02*
X129142857Y-174304819D01*
X129142857Y-173781009D02*
X129190476Y-173685771D01*
X129190476Y-173685771D02*
X129285714Y-173638152D01*
X129285714Y-173638152D02*
X129428571Y-173638152D01*
X129428571Y-173638152D02*
X129523810Y-173685771D01*
X129523810Y-173685771D02*
X129571429Y-173781009D01*
X129571429Y-173781009D02*
X129571429Y-174304819D01*
X80000000Y-184500000D02*
X80000000Y-174413580D01*
X170000000Y-184500000D02*
X170000000Y-174413580D01*
X80000000Y-175000000D02*
X170000000Y-175000000D01*
X80000000Y-175000000D02*
X170000000Y-175000000D01*
X80000000Y-175000000D02*
X81126504Y-174413579D01*
X80000000Y-175000000D02*
X81126504Y-175586421D01*
X170000000Y-175000000D02*
X168873496Y-175586421D01*
X170000000Y-175000000D02*
X168873496Y-174413579D01*
X93804819Y-156642856D02*
X93804819Y-156833332D01*
X93804819Y-156833332D02*
X93852438Y-156928570D01*
X93852438Y-156928570D02*
X93900057Y-156976189D01*
X93900057Y-156976189D02*
X94042914Y-157071427D01*
X94042914Y-157071427D02*
X94233390Y-157119046D01*
X94233390Y-157119046D02*
X94614342Y-157119046D01*
X94614342Y-157119046D02*
X94709580Y-157071427D01*
X94709580Y-157071427D02*
X94757200Y-157023808D01*
X94757200Y-157023808D02*
X94804819Y-156928570D01*
X94804819Y-156928570D02*
X94804819Y-156738094D01*
X94804819Y-156738094D02*
X94757200Y-156642856D01*
X94757200Y-156642856D02*
X94709580Y-156595237D01*
X94709580Y-156595237D02*
X94614342Y-156547618D01*
X94614342Y-156547618D02*
X94376247Y-156547618D01*
X94376247Y-156547618D02*
X94281009Y-156595237D01*
X94281009Y-156595237D02*
X94233390Y-156642856D01*
X94233390Y-156642856D02*
X94185771Y-156738094D01*
X94185771Y-156738094D02*
X94185771Y-156928570D01*
X94185771Y-156928570D02*
X94233390Y-157023808D01*
X94233390Y-157023808D02*
X94281009Y-157071427D01*
X94281009Y-157071427D02*
X94376247Y-157119046D01*
X93804819Y-155642856D02*
X93804819Y-156119046D01*
X93804819Y-156119046D02*
X94281009Y-156166665D01*
X94281009Y-156166665D02*
X94233390Y-156119046D01*
X94233390Y-156119046D02*
X94185771Y-156023808D01*
X94185771Y-156023808D02*
X94185771Y-155785713D01*
X94185771Y-155785713D02*
X94233390Y-155690475D01*
X94233390Y-155690475D02*
X94281009Y-155642856D01*
X94281009Y-155642856D02*
X94376247Y-155595237D01*
X94376247Y-155595237D02*
X94614342Y-155595237D01*
X94614342Y-155595237D02*
X94709580Y-155642856D01*
X94709580Y-155642856D02*
X94757200Y-155690475D01*
X94757200Y-155690475D02*
X94804819Y-155785713D01*
X94804819Y-155785713D02*
X94804819Y-156023808D01*
X94804819Y-156023808D02*
X94757200Y-156119046D01*
X94757200Y-156119046D02*
X94709580Y-156166665D01*
X94709580Y-155166665D02*
X94757200Y-155119046D01*
X94757200Y-155119046D02*
X94804819Y-155166665D01*
X94804819Y-155166665D02*
X94757200Y-155214284D01*
X94757200Y-155214284D02*
X94709580Y-155166665D01*
X94709580Y-155166665D02*
X94804819Y-155166665D01*
X93804819Y-154499999D02*
X93804819Y-154404761D01*
X93804819Y-154404761D02*
X93852438Y-154309523D01*
X93852438Y-154309523D02*
X93900057Y-154261904D01*
X93900057Y-154261904D02*
X93995295Y-154214285D01*
X93995295Y-154214285D02*
X94185771Y-154166666D01*
X94185771Y-154166666D02*
X94423866Y-154166666D01*
X94423866Y-154166666D02*
X94614342Y-154214285D01*
X94614342Y-154214285D02*
X94709580Y-154261904D01*
X94709580Y-154261904D02*
X94757200Y-154309523D01*
X94757200Y-154309523D02*
X94804819Y-154404761D01*
X94804819Y-154404761D02*
X94804819Y-154499999D01*
X94804819Y-154499999D02*
X94757200Y-154595237D01*
X94757200Y-154595237D02*
X94709580Y-154642856D01*
X94709580Y-154642856D02*
X94614342Y-154690475D01*
X94614342Y-154690475D02*
X94423866Y-154738094D01*
X94423866Y-154738094D02*
X94185771Y-154738094D01*
X94185771Y-154738094D02*
X93995295Y-154690475D01*
X93995295Y-154690475D02*
X93900057Y-154642856D01*
X93900057Y-154642856D02*
X93852438Y-154595237D01*
X93852438Y-154595237D02*
X93804819Y-154499999D01*
X93804819Y-153547618D02*
X93804819Y-153452380D01*
X93804819Y-153452380D02*
X93852438Y-153357142D01*
X93852438Y-153357142D02*
X93900057Y-153309523D01*
X93900057Y-153309523D02*
X93995295Y-153261904D01*
X93995295Y-153261904D02*
X94185771Y-153214285D01*
X94185771Y-153214285D02*
X94423866Y-153214285D01*
X94423866Y-153214285D02*
X94614342Y-153261904D01*
X94614342Y-153261904D02*
X94709580Y-153309523D01*
X94709580Y-153309523D02*
X94757200Y-153357142D01*
X94757200Y-153357142D02*
X94804819Y-153452380D01*
X94804819Y-153452380D02*
X94804819Y-153547618D01*
X94804819Y-153547618D02*
X94757200Y-153642856D01*
X94757200Y-153642856D02*
X94709580Y-153690475D01*
X94709580Y-153690475D02*
X94614342Y-153738094D01*
X94614342Y-153738094D02*
X94423866Y-153785713D01*
X94423866Y-153785713D02*
X94185771Y-153785713D01*
X94185771Y-153785713D02*
X93995295Y-153738094D01*
X93995295Y-153738094D02*
X93900057Y-153690475D01*
X93900057Y-153690475D02*
X93852438Y-153642856D01*
X93852438Y-153642856D02*
X93804819Y-153547618D01*
X93804819Y-152595237D02*
X93804819Y-152499999D01*
X93804819Y-152499999D02*
X93852438Y-152404761D01*
X93852438Y-152404761D02*
X93900057Y-152357142D01*
X93900057Y-152357142D02*
X93995295Y-152309523D01*
X93995295Y-152309523D02*
X94185771Y-152261904D01*
X94185771Y-152261904D02*
X94423866Y-152261904D01*
X94423866Y-152261904D02*
X94614342Y-152309523D01*
X94614342Y-152309523D02*
X94709580Y-152357142D01*
X94709580Y-152357142D02*
X94757200Y-152404761D01*
X94757200Y-152404761D02*
X94804819Y-152499999D01*
X94804819Y-152499999D02*
X94804819Y-152595237D01*
X94804819Y-152595237D02*
X94757200Y-152690475D01*
X94757200Y-152690475D02*
X94709580Y-152738094D01*
X94709580Y-152738094D02*
X94614342Y-152785713D01*
X94614342Y-152785713D02*
X94423866Y-152833332D01*
X94423866Y-152833332D02*
X94185771Y-152833332D01*
X94185771Y-152833332D02*
X93995295Y-152785713D01*
X93995295Y-152785713D02*
X93900057Y-152738094D01*
X93900057Y-152738094D02*
X93852438Y-152690475D01*
X93852438Y-152690475D02*
X93804819Y-152595237D01*
X93804819Y-151642856D02*
X93804819Y-151547618D01*
X93804819Y-151547618D02*
X93852438Y-151452380D01*
X93852438Y-151452380D02*
X93900057Y-151404761D01*
X93900057Y-151404761D02*
X93995295Y-151357142D01*
X93995295Y-151357142D02*
X94185771Y-151309523D01*
X94185771Y-151309523D02*
X94423866Y-151309523D01*
X94423866Y-151309523D02*
X94614342Y-151357142D01*
X94614342Y-151357142D02*
X94709580Y-151404761D01*
X94709580Y-151404761D02*
X94757200Y-151452380D01*
X94757200Y-151452380D02*
X94804819Y-151547618D01*
X94804819Y-151547618D02*
X94804819Y-151642856D01*
X94804819Y-151642856D02*
X94757200Y-151738094D01*
X94757200Y-151738094D02*
X94709580Y-151785713D01*
X94709580Y-151785713D02*
X94614342Y-151833332D01*
X94614342Y-151833332D02*
X94423866Y-151880951D01*
X94423866Y-151880951D02*
X94185771Y-151880951D01*
X94185771Y-151880951D02*
X93995295Y-151833332D01*
X93995295Y-151833332D02*
X93900057Y-151785713D01*
X93900057Y-151785713D02*
X93852438Y-151738094D01*
X93852438Y-151738094D02*
X93804819Y-151642856D01*
X94804819Y-150119046D02*
X94138152Y-150119046D01*
X94233390Y-150119046D02*
X94185771Y-150071427D01*
X94185771Y-150071427D02*
X94138152Y-149976189D01*
X94138152Y-149976189D02*
X94138152Y-149833332D01*
X94138152Y-149833332D02*
X94185771Y-149738094D01*
X94185771Y-149738094D02*
X94281009Y-149690475D01*
X94281009Y-149690475D02*
X94804819Y-149690475D01*
X94281009Y-149690475D02*
X94185771Y-149642856D01*
X94185771Y-149642856D02*
X94138152Y-149547618D01*
X94138152Y-149547618D02*
X94138152Y-149404761D01*
X94138152Y-149404761D02*
X94185771Y-149309522D01*
X94185771Y-149309522D02*
X94281009Y-149261903D01*
X94281009Y-149261903D02*
X94804819Y-149261903D01*
X94804819Y-148785713D02*
X94138152Y-148785713D01*
X94233390Y-148785713D02*
X94185771Y-148738094D01*
X94185771Y-148738094D02*
X94138152Y-148642856D01*
X94138152Y-148642856D02*
X94138152Y-148499999D01*
X94138152Y-148499999D02*
X94185771Y-148404761D01*
X94185771Y-148404761D02*
X94281009Y-148357142D01*
X94281009Y-148357142D02*
X94804819Y-148357142D01*
X94281009Y-148357142D02*
X94185771Y-148309523D01*
X94185771Y-148309523D02*
X94138152Y-148214285D01*
X94138152Y-148214285D02*
X94138152Y-148071428D01*
X94138152Y-148071428D02*
X94185771Y-147976189D01*
X94185771Y-147976189D02*
X94281009Y-147928570D01*
X94281009Y-147928570D02*
X94804819Y-147928570D01*
X80500000Y-120000000D02*
X96086420Y-120000000D01*
X80500000Y-185000000D02*
X96086420Y-185000000D01*
X95500000Y-120000000D02*
X95500000Y-185000000D01*
X95500000Y-120000000D02*
X95500000Y-185000000D01*
X95500000Y-120000000D02*
X96086421Y-121126504D01*
X95500000Y-120000000D02*
X94913579Y-121126504D01*
X95500000Y-185000000D02*
X94913579Y-183873496D01*
X95500000Y-185000000D02*
X96086421Y-183873496D01*
X78304819Y-157166665D02*
X78304819Y-156499999D01*
X78304819Y-156499999D02*
X79304819Y-156928570D01*
X78304819Y-155642856D02*
X78304819Y-156119046D01*
X78304819Y-156119046D02*
X78781009Y-156166665D01*
X78781009Y-156166665D02*
X78733390Y-156119046D01*
X78733390Y-156119046D02*
X78685771Y-156023808D01*
X78685771Y-156023808D02*
X78685771Y-155785713D01*
X78685771Y-155785713D02*
X78733390Y-155690475D01*
X78733390Y-155690475D02*
X78781009Y-155642856D01*
X78781009Y-155642856D02*
X78876247Y-155595237D01*
X78876247Y-155595237D02*
X79114342Y-155595237D01*
X79114342Y-155595237D02*
X79209580Y-155642856D01*
X79209580Y-155642856D02*
X79257200Y-155690475D01*
X79257200Y-155690475D02*
X79304819Y-155785713D01*
X79304819Y-155785713D02*
X79304819Y-156023808D01*
X79304819Y-156023808D02*
X79257200Y-156119046D01*
X79257200Y-156119046D02*
X79209580Y-156166665D01*
X79209580Y-155166665D02*
X79257200Y-155119046D01*
X79257200Y-155119046D02*
X79304819Y-155166665D01*
X79304819Y-155166665D02*
X79257200Y-155214284D01*
X79257200Y-155214284D02*
X79209580Y-155166665D01*
X79209580Y-155166665D02*
X79304819Y-155166665D01*
X78304819Y-154499999D02*
X78304819Y-154404761D01*
X78304819Y-154404761D02*
X78352438Y-154309523D01*
X78352438Y-154309523D02*
X78400057Y-154261904D01*
X78400057Y-154261904D02*
X78495295Y-154214285D01*
X78495295Y-154214285D02*
X78685771Y-154166666D01*
X78685771Y-154166666D02*
X78923866Y-154166666D01*
X78923866Y-154166666D02*
X79114342Y-154214285D01*
X79114342Y-154214285D02*
X79209580Y-154261904D01*
X79209580Y-154261904D02*
X79257200Y-154309523D01*
X79257200Y-154309523D02*
X79304819Y-154404761D01*
X79304819Y-154404761D02*
X79304819Y-154499999D01*
X79304819Y-154499999D02*
X79257200Y-154595237D01*
X79257200Y-154595237D02*
X79209580Y-154642856D01*
X79209580Y-154642856D02*
X79114342Y-154690475D01*
X79114342Y-154690475D02*
X78923866Y-154738094D01*
X78923866Y-154738094D02*
X78685771Y-154738094D01*
X78685771Y-154738094D02*
X78495295Y-154690475D01*
X78495295Y-154690475D02*
X78400057Y-154642856D01*
X78400057Y-154642856D02*
X78352438Y-154595237D01*
X78352438Y-154595237D02*
X78304819Y-154499999D01*
X78304819Y-153547618D02*
X78304819Y-153452380D01*
X78304819Y-153452380D02*
X78352438Y-153357142D01*
X78352438Y-153357142D02*
X78400057Y-153309523D01*
X78400057Y-153309523D02*
X78495295Y-153261904D01*
X78495295Y-153261904D02*
X78685771Y-153214285D01*
X78685771Y-153214285D02*
X78923866Y-153214285D01*
X78923866Y-153214285D02*
X79114342Y-153261904D01*
X79114342Y-153261904D02*
X79209580Y-153309523D01*
X79209580Y-153309523D02*
X79257200Y-153357142D01*
X79257200Y-153357142D02*
X79304819Y-153452380D01*
X79304819Y-153452380D02*
X79304819Y-153547618D01*
X79304819Y-153547618D02*
X79257200Y-153642856D01*
X79257200Y-153642856D02*
X79209580Y-153690475D01*
X79209580Y-153690475D02*
X79114342Y-153738094D01*
X79114342Y-153738094D02*
X78923866Y-153785713D01*
X78923866Y-153785713D02*
X78685771Y-153785713D01*
X78685771Y-153785713D02*
X78495295Y-153738094D01*
X78495295Y-153738094D02*
X78400057Y-153690475D01*
X78400057Y-153690475D02*
X78352438Y-153642856D01*
X78352438Y-153642856D02*
X78304819Y-153547618D01*
X78304819Y-152595237D02*
X78304819Y-152499999D01*
X78304819Y-152499999D02*
X78352438Y-152404761D01*
X78352438Y-152404761D02*
X78400057Y-152357142D01*
X78400057Y-152357142D02*
X78495295Y-152309523D01*
X78495295Y-152309523D02*
X78685771Y-152261904D01*
X78685771Y-152261904D02*
X78923866Y-152261904D01*
X78923866Y-152261904D02*
X79114342Y-152309523D01*
X79114342Y-152309523D02*
X79209580Y-152357142D01*
X79209580Y-152357142D02*
X79257200Y-152404761D01*
X79257200Y-152404761D02*
X79304819Y-152499999D01*
X79304819Y-152499999D02*
X79304819Y-152595237D01*
X79304819Y-152595237D02*
X79257200Y-152690475D01*
X79257200Y-152690475D02*
X79209580Y-152738094D01*
X79209580Y-152738094D02*
X79114342Y-152785713D01*
X79114342Y-152785713D02*
X78923866Y-152833332D01*
X78923866Y-152833332D02*
X78685771Y-152833332D01*
X78685771Y-152833332D02*
X78495295Y-152785713D01*
X78495295Y-152785713D02*
X78400057Y-152738094D01*
X78400057Y-152738094D02*
X78352438Y-152690475D01*
X78352438Y-152690475D02*
X78304819Y-152595237D01*
X78304819Y-151642856D02*
X78304819Y-151547618D01*
X78304819Y-151547618D02*
X78352438Y-151452380D01*
X78352438Y-151452380D02*
X78400057Y-151404761D01*
X78400057Y-151404761D02*
X78495295Y-151357142D01*
X78495295Y-151357142D02*
X78685771Y-151309523D01*
X78685771Y-151309523D02*
X78923866Y-151309523D01*
X78923866Y-151309523D02*
X79114342Y-151357142D01*
X79114342Y-151357142D02*
X79209580Y-151404761D01*
X79209580Y-151404761D02*
X79257200Y-151452380D01*
X79257200Y-151452380D02*
X79304819Y-151547618D01*
X79304819Y-151547618D02*
X79304819Y-151642856D01*
X79304819Y-151642856D02*
X79257200Y-151738094D01*
X79257200Y-151738094D02*
X79209580Y-151785713D01*
X79209580Y-151785713D02*
X79114342Y-151833332D01*
X79114342Y-151833332D02*
X78923866Y-151880951D01*
X78923866Y-151880951D02*
X78685771Y-151880951D01*
X78685771Y-151880951D02*
X78495295Y-151833332D01*
X78495295Y-151833332D02*
X78400057Y-151785713D01*
X78400057Y-151785713D02*
X78352438Y-151738094D01*
X78352438Y-151738094D02*
X78304819Y-151642856D01*
X79304819Y-150119046D02*
X78638152Y-150119046D01*
X78733390Y-150119046D02*
X78685771Y-150071427D01*
X78685771Y-150071427D02*
X78638152Y-149976189D01*
X78638152Y-149976189D02*
X78638152Y-149833332D01*
X78638152Y-149833332D02*
X78685771Y-149738094D01*
X78685771Y-149738094D02*
X78781009Y-149690475D01*
X78781009Y-149690475D02*
X79304819Y-149690475D01*
X78781009Y-149690475D02*
X78685771Y-149642856D01*
X78685771Y-149642856D02*
X78638152Y-149547618D01*
X78638152Y-149547618D02*
X78638152Y-149404761D01*
X78638152Y-149404761D02*
X78685771Y-149309522D01*
X78685771Y-149309522D02*
X78781009Y-149261903D01*
X78781009Y-149261903D02*
X79304819Y-149261903D01*
X79304819Y-148785713D02*
X78638152Y-148785713D01*
X78733390Y-148785713D02*
X78685771Y-148738094D01*
X78685771Y-148738094D02*
X78638152Y-148642856D01*
X78638152Y-148642856D02*
X78638152Y-148499999D01*
X78638152Y-148499999D02*
X78685771Y-148404761D01*
X78685771Y-148404761D02*
X78781009Y-148357142D01*
X78781009Y-148357142D02*
X79304819Y-148357142D01*
X78781009Y-148357142D02*
X78685771Y-148309523D01*
X78685771Y-148309523D02*
X78638152Y-148214285D01*
X78638152Y-148214285D02*
X78638152Y-148071428D01*
X78638152Y-148071428D02*
X78685771Y-147976189D01*
X78685771Y-147976189D02*
X78781009Y-147928570D01*
X78781009Y-147928570D02*
X79304819Y-147928570D01*
X75500000Y-190000000D02*
X80586420Y-190000000D01*
X75500000Y-115000000D02*
X80586420Y-115000000D01*
X80000000Y-190000000D02*
X80000000Y-115000000D01*
X80000000Y-190000000D02*
X80000000Y-115000000D01*
X80000000Y-190000000D02*
X79413579Y-188873496D01*
X80000000Y-190000000D02*
X80586421Y-188873496D01*
X80000000Y-115000000D02*
X80586421Y-116126504D01*
X80000000Y-115000000D02*
X79413579Y-116126504D01*
X120476190Y-129304818D02*
X119904762Y-129304818D01*
X120190476Y-129304818D02*
X120190476Y-128304818D01*
X120190476Y-128304818D02*
X120095238Y-128447675D01*
X120095238Y-128447675D02*
X120000000Y-128542913D01*
X120000000Y-128542913D02*
X119904762Y-128590532D01*
X121095238Y-128304818D02*
X121190476Y-128304818D01*
X121190476Y-128304818D02*
X121285714Y-128352437D01*
X121285714Y-128352437D02*
X121333333Y-128400056D01*
X121333333Y-128400056D02*
X121380952Y-128495294D01*
X121380952Y-128495294D02*
X121428571Y-128685770D01*
X121428571Y-128685770D02*
X121428571Y-128923865D01*
X121428571Y-128923865D02*
X121380952Y-129114341D01*
X121380952Y-129114341D02*
X121333333Y-129209579D01*
X121333333Y-129209579D02*
X121285714Y-129257199D01*
X121285714Y-129257199D02*
X121190476Y-129304818D01*
X121190476Y-129304818D02*
X121095238Y-129304818D01*
X121095238Y-129304818D02*
X121000000Y-129257199D01*
X121000000Y-129257199D02*
X120952381Y-129209579D01*
X120952381Y-129209579D02*
X120904762Y-129114341D01*
X120904762Y-129114341D02*
X120857143Y-128923865D01*
X120857143Y-128923865D02*
X120857143Y-128685770D01*
X120857143Y-128685770D02*
X120904762Y-128495294D01*
X120904762Y-128495294D02*
X120952381Y-128400056D01*
X120952381Y-128400056D02*
X121000000Y-128352437D01*
X121000000Y-128352437D02*
X121095238Y-128304818D01*
X122047619Y-128304818D02*
X122142857Y-128304818D01*
X122142857Y-128304818D02*
X122238095Y-128352437D01*
X122238095Y-128352437D02*
X122285714Y-128400056D01*
X122285714Y-128400056D02*
X122333333Y-128495294D01*
X122333333Y-128495294D02*
X122380952Y-128685770D01*
X122380952Y-128685770D02*
X122380952Y-128923865D01*
X122380952Y-128923865D02*
X122333333Y-129114341D01*
X122333333Y-129114341D02*
X122285714Y-129209579D01*
X122285714Y-129209579D02*
X122238095Y-129257199D01*
X122238095Y-129257199D02*
X122142857Y-129304818D01*
X122142857Y-129304818D02*
X122047619Y-129304818D01*
X122047619Y-129304818D02*
X121952381Y-129257199D01*
X121952381Y-129257199D02*
X121904762Y-129209579D01*
X121904762Y-129209579D02*
X121857143Y-129114341D01*
X121857143Y-129114341D02*
X121809524Y-128923865D01*
X121809524Y-128923865D02*
X121809524Y-128685770D01*
X121809524Y-128685770D02*
X121857143Y-128495294D01*
X121857143Y-128495294D02*
X121904762Y-128400056D01*
X121904762Y-128400056D02*
X121952381Y-128352437D01*
X121952381Y-128352437D02*
X122047619Y-128304818D01*
X122809524Y-129209579D02*
X122857143Y-129257199D01*
X122857143Y-129257199D02*
X122809524Y-129304818D01*
X122809524Y-129304818D02*
X122761905Y-129257199D01*
X122761905Y-129257199D02*
X122809524Y-129209579D01*
X122809524Y-129209579D02*
X122809524Y-129304818D01*
X123476190Y-128304818D02*
X123571428Y-128304818D01*
X123571428Y-128304818D02*
X123666666Y-128352437D01*
X123666666Y-128352437D02*
X123714285Y-128400056D01*
X123714285Y-128400056D02*
X123761904Y-128495294D01*
X123761904Y-128495294D02*
X123809523Y-128685770D01*
X123809523Y-128685770D02*
X123809523Y-128923865D01*
X123809523Y-128923865D02*
X123761904Y-129114341D01*
X123761904Y-129114341D02*
X123714285Y-129209579D01*
X123714285Y-129209579D02*
X123666666Y-129257199D01*
X123666666Y-129257199D02*
X123571428Y-129304818D01*
X123571428Y-129304818D02*
X123476190Y-129304818D01*
X123476190Y-129304818D02*
X123380952Y-129257199D01*
X123380952Y-129257199D02*
X123333333Y-129209579D01*
X123333333Y-129209579D02*
X123285714Y-129114341D01*
X123285714Y-129114341D02*
X123238095Y-128923865D01*
X123238095Y-128923865D02*
X123238095Y-128685770D01*
X123238095Y-128685770D02*
X123285714Y-128495294D01*
X123285714Y-128495294D02*
X123333333Y-128400056D01*
X123333333Y-128400056D02*
X123380952Y-128352437D01*
X123380952Y-128352437D02*
X123476190Y-128304818D01*
X124428571Y-128304818D02*
X124523809Y-128304818D01*
X124523809Y-128304818D02*
X124619047Y-128352437D01*
X124619047Y-128352437D02*
X124666666Y-128400056D01*
X124666666Y-128400056D02*
X124714285Y-128495294D01*
X124714285Y-128495294D02*
X124761904Y-128685770D01*
X124761904Y-128685770D02*
X124761904Y-128923865D01*
X124761904Y-128923865D02*
X124714285Y-129114341D01*
X124714285Y-129114341D02*
X124666666Y-129209579D01*
X124666666Y-129209579D02*
X124619047Y-129257199D01*
X124619047Y-129257199D02*
X124523809Y-129304818D01*
X124523809Y-129304818D02*
X124428571Y-129304818D01*
X124428571Y-129304818D02*
X124333333Y-129257199D01*
X124333333Y-129257199D02*
X124285714Y-129209579D01*
X124285714Y-129209579D02*
X124238095Y-129114341D01*
X124238095Y-129114341D02*
X124190476Y-128923865D01*
X124190476Y-128923865D02*
X124190476Y-128685770D01*
X124190476Y-128685770D02*
X124238095Y-128495294D01*
X124238095Y-128495294D02*
X124285714Y-128400056D01*
X124285714Y-128400056D02*
X124333333Y-128352437D01*
X124333333Y-128352437D02*
X124428571Y-128304818D01*
X125380952Y-128304818D02*
X125476190Y-128304818D01*
X125476190Y-128304818D02*
X125571428Y-128352437D01*
X125571428Y-128352437D02*
X125619047Y-128400056D01*
X125619047Y-128400056D02*
X125666666Y-128495294D01*
X125666666Y-128495294D02*
X125714285Y-128685770D01*
X125714285Y-128685770D02*
X125714285Y-128923865D01*
X125714285Y-128923865D02*
X125666666Y-129114341D01*
X125666666Y-129114341D02*
X125619047Y-129209579D01*
X125619047Y-129209579D02*
X125571428Y-129257199D01*
X125571428Y-129257199D02*
X125476190Y-129304818D01*
X125476190Y-129304818D02*
X125380952Y-129304818D01*
X125380952Y-129304818D02*
X125285714Y-129257199D01*
X125285714Y-129257199D02*
X125238095Y-129209579D01*
X125238095Y-129209579D02*
X125190476Y-129114341D01*
X125190476Y-129114341D02*
X125142857Y-128923865D01*
X125142857Y-128923865D02*
X125142857Y-128685770D01*
X125142857Y-128685770D02*
X125190476Y-128495294D01*
X125190476Y-128495294D02*
X125238095Y-128400056D01*
X125238095Y-128400056D02*
X125285714Y-128352437D01*
X125285714Y-128352437D02*
X125380952Y-128304818D01*
X126333333Y-128304818D02*
X126428571Y-128304818D01*
X126428571Y-128304818D02*
X126523809Y-128352437D01*
X126523809Y-128352437D02*
X126571428Y-128400056D01*
X126571428Y-128400056D02*
X126619047Y-128495294D01*
X126619047Y-128495294D02*
X126666666Y-128685770D01*
X126666666Y-128685770D02*
X126666666Y-128923865D01*
X126666666Y-128923865D02*
X126619047Y-129114341D01*
X126619047Y-129114341D02*
X126571428Y-129209579D01*
X126571428Y-129209579D02*
X126523809Y-129257199D01*
X126523809Y-129257199D02*
X126428571Y-129304818D01*
X126428571Y-129304818D02*
X126333333Y-129304818D01*
X126333333Y-129304818D02*
X126238095Y-129257199D01*
X126238095Y-129257199D02*
X126190476Y-129209579D01*
X126190476Y-129209579D02*
X126142857Y-129114341D01*
X126142857Y-129114341D02*
X126095238Y-128923865D01*
X126095238Y-128923865D02*
X126095238Y-128685770D01*
X126095238Y-128685770D02*
X126142857Y-128495294D01*
X126142857Y-128495294D02*
X126190476Y-128400056D01*
X126190476Y-128400056D02*
X126238095Y-128352437D01*
X126238095Y-128352437D02*
X126333333Y-128304818D01*
X127857143Y-129304818D02*
X127857143Y-128638151D01*
X127857143Y-128733389D02*
X127904762Y-128685770D01*
X127904762Y-128685770D02*
X128000000Y-128638151D01*
X128000000Y-128638151D02*
X128142857Y-128638151D01*
X128142857Y-128638151D02*
X128238095Y-128685770D01*
X128238095Y-128685770D02*
X128285714Y-128781008D01*
X128285714Y-128781008D02*
X128285714Y-129304818D01*
X128285714Y-128781008D02*
X128333333Y-128685770D01*
X128333333Y-128685770D02*
X128428571Y-128638151D01*
X128428571Y-128638151D02*
X128571428Y-128638151D01*
X128571428Y-128638151D02*
X128666667Y-128685770D01*
X128666667Y-128685770D02*
X128714286Y-128781008D01*
X128714286Y-128781008D02*
X128714286Y-129304818D01*
X129190476Y-129304818D02*
X129190476Y-128638151D01*
X129190476Y-128733389D02*
X129238095Y-128685770D01*
X129238095Y-128685770D02*
X129333333Y-128638151D01*
X129333333Y-128638151D02*
X129476190Y-128638151D01*
X129476190Y-128638151D02*
X129571428Y-128685770D01*
X129571428Y-128685770D02*
X129619047Y-128781008D01*
X129619047Y-128781008D02*
X129619047Y-129304818D01*
X129619047Y-128781008D02*
X129666666Y-128685770D01*
X129666666Y-128685770D02*
X129761904Y-128638151D01*
X129761904Y-128638151D02*
X129904761Y-128638151D01*
X129904761Y-128638151D02*
X130000000Y-128685770D01*
X130000000Y-128685770D02*
X130047619Y-128781008D01*
X130047619Y-128781008D02*
X130047619Y-129304818D01*
X75000000Y-115500000D02*
X75000000Y-130586419D01*
X175000000Y-115500000D02*
X175000000Y-130586419D01*
X75000000Y-129999999D02*
X175000000Y-129999999D01*
X75000000Y-129999999D02*
X175000000Y-129999999D01*
X75000000Y-129999999D02*
X76126504Y-129413578D01*
X75000000Y-129999999D02*
X76126504Y-130586420D01*
X175000000Y-129999999D02*
X173873496Y-130586420D01*
X175000000Y-129999999D02*
X173873496Y-129413578D01*
%LPC*%
D11*
%TO.C,J4*%
X103000000Y-183080000D03*
X103000000Y-180540000D03*
D12*
X103000000Y-178000000D03*
%TD*%
D13*
%TO.C,M1*%
X166370000Y-142914000D03*
D14*
X166370000Y-150114000D03*
D15*
X172370000Y-153264000D03*
X172370000Y-139764000D03*
%TD*%
D12*
%TO.C,J3*%
X86121000Y-187681000D03*
D11*
X88661000Y-187681000D03*
X91201000Y-187681000D03*
X93741000Y-187681000D03*
X96281000Y-187681000D03*
X98821000Y-187681000D03*
X101361000Y-187681000D03*
X103901000Y-187681000D03*
%TD*%
D16*
%TO.C,J2*%
X110954000Y-180679700D03*
X135954000Y-180679700D03*
D17*
X128994000Y-179259700D03*
D18*
X126224000Y-179259700D03*
X123454000Y-179259700D03*
X120684000Y-179259700D03*
X117914000Y-179259700D03*
X127609000Y-182099700D03*
X124839000Y-182099700D03*
X122069000Y-182099700D03*
X119299000Y-182099700D03*
%TD*%
D19*
%TO.C,J1*%
X153524000Y-183578000D03*
D13*
X149924000Y-179928000D03*
D20*
X157124000Y-179928000D03*
D21*
X146774000Y-185928000D03*
X160274000Y-185928000D03*
%TD*%
D22*
%TO.C,H4*%
X80000000Y-185000000D03*
%TD*%
%TO.C,H3*%
X80000000Y-120000000D03*
%TD*%
%TO.C,H2*%
X170000000Y-185000000D03*
%TD*%
%TO.C,H1*%
X170000000Y-120000000D03*
%TD*%
%LPD*%
M02*
