M48
; DRILL file {KiCad 7.0.9} date Sun Mar 24 03:36:48 2024
; FORMAT={-:-/ absolute / inch / decimal}
; #@! TF.CreationDate,2024-03-24T03:36:48+09:00
; #@! TF.GenerationSoftware,Kicad,Pcbnew,7.0.9
; #@! TF.FileFunction,Plated,1,2,PTH
FMAT,2
INCH
; #@! TA.AperFunction,Plated,PTH,ViaDrill
T1C0.0157
; #@! TA.AperFunction,Plated,PTH,ComponentDrill
T2C0.0236
; #@! TA.AperFunction,Plated,PTH,ComponentDrill
T3C0.0394
; #@! TA.AperFunction,Plated,PTH,ComponentDrill
T4C0.1063
; #@! TA.AperFunction,Plated,PTH,ComponentDrill
T5C0.1260
%
G90
G05
T1
X2.52Y-5.43
X2.6Y-5.63
X2.68Y-5.38
X2.7Y-5.63
X2.7Y-5.81
X2.75Y-5.29
X2.78Y-5.12
X2.79Y-5.75
X2.81Y-4.61
X2.81Y-4.72
X2.81Y-5.16
X2.81Y-5.43
X2.81Y-5.5
X2.83Y-3.83
X2.83Y-5.75
X2.84Y-4.41
X2.86Y-3.79
X2.87Y-3.45
X2.87Y-3.56
X2.88Y-4.26
X2.88Y-5.72
X2.8848Y-4.4932
X2.8854Y-4.328
X2.89Y-5.33
X2.89Y-5.44
X2.9Y-5.54
X2.9175Y-4.7619
X2.9317Y-4.5494
X2.94Y-5.11
X2.95Y-3.75
X2.96Y-3.63
X2.96Y-4.02
X2.9663Y-4.9466
X2.97Y-3.35
X2.97Y-3.48
X2.97Y-5.57
X2.9717Y-4.2409
X2.98Y-3.77
X2.98Y-4.13
X2.9843Y-4.3673
X2.99Y-3.88
X2.99Y-4.19
X3.0076Y-4.8369
X3.01Y-3.44
X3.0268Y-4.0213
X3.0296Y-4.4118
X3.03Y-4.66
X3.03Y-5.2
X3.0321Y-4.4532
X3.04Y-3.83
X3.05Y-3.44
X3.05Y-5.59
X3.06Y-4.14
X3.0659Y-4.3358
X3.07Y-3.97
X3.07Y-4.07
X3.08Y-5.25
X3.0809Y-5.1574
X3.1063Y-4.2949
X3.11Y-4.37
X3.12Y-5.11
X3.13Y-5.31
X3.1354Y-4.2061
X3.14Y-3.74
X3.14Y-3.85
X3.15Y-4.05
X3.16Y-3.51
X3.16Y-3.62
X3.16Y-4.55
X3.16Y-4.66
X3.16Y-4.78
X3.18Y-4.92
X3.18Y-4.97
X3.18Y-5.02
X3.18Y-5.36
X3.2Y-4.24
X3.2Y-4.27
X3.2Y-5.61
X3.21Y-4.15
X3.23Y-5.99
X3.24Y-3.52
X3.24Y-3.65
X3.24Y-5.41
X3.25Y-4.42
X3.25Y-5.56
X3.27Y-6.25
X3.27Y-6.38
X3.2781Y-4.2355
X3.28Y-3.72
X3.28Y-3.83
X3.2856Y-4.8385
X3.2892Y-5.3995
X3.29Y-4.32
X3.29Y-4.66
X3.29Y-5.09
X3.29Y-5.75
X3.3Y-4.91
X3.31Y-3.55
X3.31Y-4.05
X3.31Y-4.15
X3.33Y-6.3
X3.34Y-4.01
X3.3444Y-4.3253
X3.35Y-3.65
X3.35Y-3.84
X3.35Y-4.96
X3.35Y-5.99
X3.3623Y-4.8489
X3.37Y-3.51
X3.3718Y-4.4198
X3.3721Y-5.3166
X3.3784Y-4.1435
X3.3799Y-4.7447
X3.38Y-3.62
X3.38Y-5.14
X3.3865Y-4.487
X3.42Y-4.38
X3.42Y-5.21
X3.42Y-6.25
X3.4205Y-4.8711
X3.4254Y-3.7953
X3.43Y-5.04
X3.4349Y-4.5989
X3.44Y-3.74
X3.4449Y-5.3962
X3.45Y-3.64
X3.458Y-4.4707
X3.46Y-3.89
X3.46Y-5.55
X3.4677Y-4.705
X3.47Y-4.3
X3.47Y-5.15
X3.47Y-5.94
X3.4717Y-5.33
X3.4739Y-4.8366
X3.48Y-3.92
X3.48Y-6.3
X3.49Y-3.99
X3.4938Y-4.0677
X3.5Y-5.5
X3.51Y-5.71
X3.5152Y-5.4588
X3.52Y-3.62
X3.52Y-4.99
X3.5244Y-4.474
X3.53Y-4.74
X3.54Y-3.53
X3.56Y-3.49
X3.56Y-4.23
X3.56Y-4.3
X3.56Y-5.03
X3.56Y-5.08
X3.56Y-5.19
X3.56Y-5.36
X3.57Y-4.37
X3.5826Y-4.4883
X3.5964Y-3.9943
X3.6Y-3.52
X3.6Y-4.67
X3.6Y-4.78
X3.6Y-4.91
X3.6Y-5.81
X3.61Y-3.67
X3.61Y-3.84
X3.6166Y-3.6175
X3.64Y-5.44
X3.64Y-5.73
X3.68Y-3.35
X3.68Y-3.74
X3.68Y-3.85
X3.6882Y-4.3342
X3.69Y-3.61
X3.7Y-4.47
X3.71Y-4.04
X3.71Y-4.66
X3.71Y-4.83
X3.71Y-4.91
X3.72Y-4.54
X3.73Y-4.22
X3.74Y-3.44
X3.76Y-3.95
X3.76Y-4.08
X3.76Y-4.41
X3.78Y-4.16
X3.7846Y-4.6259
X3.81Y-4.03
X3.82Y-4.54
X3.84Y-3.95
X3.85Y-4.3
X3.86Y-5.43
X3.88Y-3.81
X3.89Y-3.59
X3.89Y-3.9
X3.89Y-4.27
X3.89Y-4.58
X3.89Y-4.66
X3.95Y-4.06
X3.95Y-4.31
X3.9516Y-4.186
X3.96Y-4.7
X3.96Y-4.76
X3.96Y-4.79
X3.96Y-5.29
X3.96Y-5.73
X3.98Y-3.48
X3.99Y-4.37
X3.99Y-5.52
X4.01Y-5.6
X4.0161Y-3.9185
X4.0197Y-4.1812
X4.02Y-5.55
X4.03Y-3.8
X4.03Y-3.99
X4.04Y-5.06
X4.04Y-5.25
X4.04Y-5.3
X4.06Y-4.28
X4.07Y-4.19
X4.07Y-4.71
X4.08Y-5.04
X4.09Y-4.59
X4.09Y-5.81
X4.11Y-3.41
X4.11Y-3.56
X4.11Y-3.64
X4.11Y-3.74
X4.11Y-4.39
X4.12Y-4.14
X4.13Y-4.26
X4.13Y-5.36
X4.1312Y-5.4091
X4.1497Y-4.8072
X4.15Y-5.22
X4.17Y-4.07
X4.17Y-5.54
X4.17Y-5.6
X4.18Y-3.89
X4.18Y-3.92
X4.18Y-5.48
X4.18Y-5.81
X4.19Y-4.32
X4.2Y-5.12
X4.21Y-3.74
X4.21Y-5.36
X4.22Y-5.27
X4.25Y-3.82
X4.28Y-4.37
X4.2805Y-5.2646
X4.29Y-5.21
X4.3Y-3.64
X4.3Y-4.56
X4.31Y-5.7
X4.32Y-3.74
X4.34Y-5.31
X4.35Y-3.55
X4.37Y-4.56
X4.37Y-5.5
X4.39Y-6.17
X4.42Y-3.64
X4.45Y-3.44
X4.45Y-3.64
X4.45Y-3.82
X4.45Y-3.88
X4.45Y-4.26
X4.45Y-4.3
X4.45Y-4.64
X4.46Y-3.74
X4.46Y-4.07
X4.46Y-4.2
X4.46Y-4.83
X4.46Y-4.87
X4.46Y-4.91
X4.46Y-4.95
X4.46Y-4.99
X4.46Y-5.03
X4.46Y-5.07
X4.46Y-5.11
X4.47Y-5.4
X4.48Y-3.41
X4.49Y-4.45
X4.49Y-4.51
X4.5Y-4.83
X4.5Y-4.87
X4.5Y-4.91
X4.5Y-4.95
X4.5Y-4.99
X4.5Y-5.03
X4.5Y-5.07
X4.5Y-5.11
X4.5Y-5.5
X4.5Y-5.6
X4.54Y-3.74
X4.54Y-4.83
X4.54Y-4.87
X4.54Y-4.91
X4.54Y-4.95
X4.54Y-4.99
X4.54Y-5.03
X4.54Y-5.07
X4.54Y-5.11
X4.55Y-3.56
X4.55Y-3.64
X4.55Y-3.82
X4.55Y-3.88
X4.56Y-3.92
X4.57Y-5.69
X4.58Y-4.07
X4.58Y-4.28
X4.59Y-6.29
X4.6Y-4.71
X4.6009Y-3.9956
X4.61Y-3.56
X4.61Y-5.4
X4.64Y-4.56
X4.68Y-6.25
X4.71Y-3.82
X4.73Y-5.25
X4.74Y-4.45
X4.74Y-4.56
X4.74Y-5.32
X4.76Y-4.34
X4.76Y-4.73
X4.78Y-4.29
X4.81Y-3.55
X4.82Y-4.37
X4.82Y-5.63
X4.85Y-3.64
X4.85Y-3.83
X4.85Y-3.88
X4.86Y-3.74
X4.86Y-4.21
X4.87Y-5.25
X4.9Y-5.59
X4.91Y-5.32
X4.91Y-5.42
X4.92Y-5.72
X4.93Y-5.5
X4.95Y-3.54
X4.954Y-3.5982
X4.96Y-3.74
X4.97Y-4.06
X4.98Y-3.41
X4.98Y-3.65
X5.01Y-3.74
X5.04Y-3.41
X5.04Y-4.2
X5.04Y-5.24
X5.04Y-5.41
X5.05Y-3.54
X5.05Y-4.72
X5.06Y-3.65
X5.0909Y-3.7809
X5.1Y-4.68
X5.1Y-4.72
X5.1Y-4.76
X5.1Y-4.8
X5.1Y-5.54
X5.13Y-3.9
X5.13Y-5.5
X5.14Y-4.68
X5.14Y-4.72
X5.14Y-4.76
X5.14Y-4.8
X5.16Y-3.39
X5.18Y-4.06
X5.18Y-4.68
X5.18Y-4.72
X5.18Y-4.76
X5.18Y-4.8
X5.22Y-3.65
X5.22Y-4.68
X5.22Y-4.72
X5.22Y-4.76
X5.22Y-4.8
X5.23Y-3.41
X5.26Y-4.68
X5.26Y-4.72
X5.26Y-4.76
X5.26Y-4.8
X5.28Y-3.97
X5.29Y-4.08
X5.29Y-5.23
X5.32Y-4.09
X5.32Y-5.18
X5.32Y-6.16
X5.33Y-6.39
X5.35Y-5.72
X5.35Y-5.81
X5.35Y-6.25
X5.35Y-6.31
X5.36Y-4.67
X5.38Y-5.19
X5.39Y-3.89
X5.4Y-3.73
X5.4Y-3.82
X5.41Y-3.41
X5.41Y-3.46
X5.41Y-3.54
X5.45Y-3.97
X5.47Y-3.79
X5.48Y-6.02
X5.5Y-4.01
X5.51Y-3.66
X5.53Y-5.88
X5.54Y-4.14
X5.55Y-6.09
X5.59Y-3.63
X5.59Y-3.68
X5.59Y-5.5
X5.59Y-5.55
X5.6Y-3.78
X5.6Y-3.86
X5.6Y-4.02
X5.61Y-5.67
X5.61Y-5.74
X5.63Y-6.19
X5.64Y-6.01
X5.64Y-6.3
X5.65Y-6.39
X5.68Y-3.77
X5.69Y-6.25
X5.7Y-6.01
X5.71Y-4.8
X5.71Y-4.91
X5.72Y-4.25
X5.72Y-5.67
X5.72Y-5.74
X5.73Y-3.54
X5.73Y-6.25
X5.81Y-5.82
X5.81Y-5.9
X5.81Y-6.09
X5.82Y-5.23
X5.83Y-3.53
X5.83Y-5.97
X5.86Y-3.51
X5.86Y-4.24
X5.87Y-3.68
X5.87Y-6.36
X5.89Y-4.01
X5.89Y-6.15
X5.92Y-3.62
X5.92Y-3.76
X5.92Y-3.87
X5.92Y-3.98
X5.96Y-3.61
X5.99Y-6.04
X6.03Y-6.04
X6.05Y-4.78
X6.05Y-5.48
X6.06Y-4.91
X6.06Y-5.15
X6.06Y-5.24
X6.06Y-5.94
X6.17Y-5.97
X6.17Y-6.11
T3
X2.52Y-5.34
X2.5235Y-5.5183
X2.5235Y-5.6883
X2.7989Y-5.6601
X2.96Y-5.66
X3.12Y-5.66
X3.123Y-3.44
X3.1323Y-6.0575
X3.1868Y-6.1693
X3.223Y-3.44
X3.2413Y-6.0575
X3.2959Y-6.1693
X3.323Y-3.44
X3.3504Y-6.0575
X3.4049Y-6.1693
X3.423Y-3.44
X3.4594Y-6.0575
X3.514Y-6.1693
X3.523Y-3.44
X3.5685Y-6.0575
X3.623Y-3.44
X3.8299Y-3.4106
X3.9299Y-3.4106
X4.0299Y-3.4106
X4.4218Y-6.0582
X4.4763Y-6.17
X4.5309Y-6.0582
X4.5854Y-6.17
X4.6399Y-6.0582
X4.6944Y-6.17
X4.749Y-6.0582
X4.8035Y-6.17
X4.858Y-6.0582
T4
X5.9163Y-4.3783
X5.9163Y-4.6617
X5.926Y-5.0783
X5.926Y-5.3617
T5
X2.4803Y-3.4646
X2.4803Y-6.2992
X2.8583Y-6.1134
X3.8425Y-6.1134
X4.1478Y-6.1141
X5.132Y-6.1141
X6.0236Y-3.4646
X6.0236Y-6.2992
T2
G00X6.1742Y-4.2543
M15
G01X6.1309Y-4.2543
M16
G05
G00X6.1742Y-4.7857
M15
G01X6.1309Y-4.7857
M16
G05
G00X6.1839Y-4.9543
M15
G01X6.1406Y-4.9543
M16
G05
G00X6.1839Y-5.4857
M15
G01X6.1406Y-5.4857
M16
G05
T3
G00X6.06Y-4.5003
M15
G01X6.06Y-4.5397
M16
G05
T0
M30
