M48
; DRILL file {KiCad 7.0.9} date Sat May  4 16:18:37 2024
; FORMAT={-:-/ absolute / inch / decimal}
; #@! TF.CreationDate,2024-05-04T16:18:37+09:00
; #@! TF.GenerationSoftware,Kicad,Pcbnew,7.0.9
; #@! TF.FileFunction,Plated,1,2,PTH
FMAT,2
INCH
; #@! TA.AperFunction,Plated,PTH,ViaDrill
T1C0.0157
; #@! TA.AperFunction,Plated,PTH,ComponentDrill
T2C0.0236
; #@! TA.AperFunction,Plated,PTH,ComponentDrill
T3C0.0394
; #@! TA.AperFunction,Plated,PTH,ComponentDrill
T4C0.1063
; #@! TA.AperFunction,Plated,PTH,ViaDrill
T5C0.1260
; #@! TA.AperFunction,Plated,PTH,ComponentDrill
T6C0.1260
%
G90
G05
T1
X3.2992Y-6.6102
X3.3031Y-6.0118
X3.3898Y-6.5669
X3.3937Y-6.0276
X3.4961Y-5.4961
X3.5512Y-5.6142
X3.5827Y-5.0748
X3.6181Y-5.6299
X3.6299Y-6.1772
X3.6378Y-5.3583
X3.6457Y-5.7795
X3.6654Y-5.5669
X3.6929Y-6.2835
X3.7008Y-5.0866
X3.7087Y-5.4094
X3.7087Y-5.7362
X3.7165Y-6.3661
X3.7244Y-5.0039
X3.7323Y-5.2677
X3.7362Y-6.2874
X3.7874Y-6.8031
X3.811Y-6.1614
X3.815Y-6.3937
X3.8279Y-5.5488
X3.8583Y-6.7795
X3.9094Y-6.6181
X3.9252Y-5.7402
X3.9266Y-5.9116
X3.9567Y-5.5827
X3.9606Y-5.5157
X3.965Y-6.0152
X3.9843Y-5.3858
X4.0039Y-5.2717
X4.0039Y-6.4213
X4.0309Y-5.6235
X4.0354Y-5.6929
X4.0354Y-6.7126
X4.0484Y-6.3941
X4.0503Y-5.2641
X4.0878Y-5.3811
X4.1184Y-5.6077
X4.122Y-6.626
X4.126Y-6.7874
X4.1299Y-5.4213
X4.1299Y-6.0709
X4.1417Y-6.1496
X4.1593Y-5.7573
X4.1614Y-5.9213
X4.1654Y-5.2795
X4.1659Y-5.6137
X4.1719Y-5.4816
X4.2008Y-5.7476
X4.2008Y-5.9685
X4.2333Y-5.7201
X4.2443Y-5.4713
X4.248Y-5.3622
X4.2795Y-6.6772
X4.2827Y-5.848
X4.2874Y-6.7953
X4.2913Y-5.2874
X4.3189Y-5.6417
X4.3268Y-6.0551
X4.3543Y-5.3583
X4.3543Y-6.6575
X4.3622Y-5.9843
X4.378Y-5.7165
X4.3858Y-5.5551
X4.4094Y-5.1693
X4.4291Y-5.5276
X4.4535Y-6.0966
X4.4567Y-5.2441
X4.4606Y-5.8898
X4.4646Y-5.7795
X4.4843Y-5.6693
X4.4921Y-6.0118
X4.5039Y-6.4449
X4.524Y-6.2398
X4.5394Y-6.6614
X4.5433Y-6.7323
X4.5827Y-6.4134
X4.5865Y-6.2377
X4.5874Y-6.1021
X4.5906Y-5.248
X4.5906Y-5.7913
X4.5984Y-5.122
X4.6299Y-5.6417
X4.6339Y-5.811
X4.6417Y-5.4764
X4.6535Y-6.3858
X4.6535Y-6.8031
X4.6575Y-5.7441
X4.6575Y-5.7835
X4.6654Y-5.8386
X4.6672Y-5.93
X4.6693Y-5.2992
X4.6702Y-6.0395
X4.685Y-5.874
X4.6929Y-5.7441
X4.6969Y-5.9803
X4.7283Y-5.811
X4.7283Y-5.8543
X4.7323Y-5.7441
X4.7633Y-5.586
X4.7638Y-5.7087
X4.7638Y-5.8307
X4.7677Y-5.6378
X4.7717Y-5.7598
X4.7756Y-5.9449
X4.8031Y-5.8071
X4.8031Y-5.8465
X4.8071Y-5.4409
X4.8189Y-5.5709
X4.8228Y-6.1339
X4.8268Y-6.0354
X4.8386Y-5.4882
X4.8425Y-5.8071
X4.8425Y-5.8465
X4.8425Y-6.6496
X4.8583Y-6.0984
X4.8622Y-6.2126
X4.8701Y-6.0276
X4.878Y-5.5709
X4.8858Y-5.8031
X4.8858Y-5.8465
X4.8937Y-6.2717
X4.9409Y-6.3583
X4.9764Y-5.7638
X5.0031Y-6.1313
X5.0079Y-5.6969
X5.0157Y-6.3543
X5.0276Y-5.6142
X5.0315Y-6.4606
X5.0945Y-6.9882
X5.1153Y-6.3043
X5.151Y-5.528
X5.155Y-6.5115
X5.1693Y-6.8819
X5.1772Y-6.4724
X5.2246Y-5.2658
X5.248Y-5.6299
X5.248Y-5.6693
X5.248Y-5.7087
X5.248Y-5.748
X5.248Y-5.7874
X5.248Y-5.8268
X5.248Y-5.8898
X5.248Y-5.9291
X5.248Y-5.9685
X5.248Y-6.0079
X5.248Y-6.0472
X5.248Y-6.0866
X5.248Y-6.5354
X5.2874Y-5.6299
X5.2874Y-5.6693
X5.2874Y-5.7087
X5.2874Y-5.748
X5.2874Y-5.7874
X5.2874Y-5.8268
X5.2874Y-5.8898
X5.2874Y-5.9291
X5.2874Y-5.9685
X5.2874Y-6.0079
X5.2874Y-6.0472
X5.2874Y-6.0866
X5.3268Y-5.6299
X5.3268Y-5.6693
X5.3268Y-5.7087
X5.3268Y-5.748
X5.3268Y-5.7874
X5.3268Y-5.8268
X5.3268Y-5.8898
X5.3268Y-5.9291
X5.3268Y-5.9685
X5.3268Y-6.0079
X5.3268Y-6.0472
X5.3268Y-6.0866
X5.3504Y-5.2835
X5.3661Y-5.6299
X5.3661Y-5.6693
X5.3661Y-5.7087
X5.3661Y-5.748
X5.3661Y-5.7874
X5.3661Y-5.8268
X5.3661Y-5.8898
X5.3661Y-5.9291
X5.3661Y-5.9685
X5.3661Y-6.0079
X5.3661Y-6.0472
X5.3661Y-6.0866
X5.4055Y-5.6299
X5.4055Y-5.6693
X5.4055Y-5.7087
X5.4055Y-5.748
X5.4055Y-5.7874
X5.4055Y-5.8268
X5.4055Y-5.8898
X5.4055Y-5.9291
X5.4055Y-5.9685
X5.4055Y-6.0079
X5.4055Y-6.0472
X5.4055Y-6.0866
X5.4449Y-5.6299
X5.4449Y-5.6693
X5.4449Y-5.7087
X5.4449Y-5.748
X5.4449Y-5.7874
X5.4449Y-5.8268
X5.4449Y-5.8898
X5.4449Y-5.9291
X5.4449Y-5.9685
X5.4449Y-6.0079
X5.4449Y-6.0472
X5.4449Y-6.0866
X5.4843Y-5.6299
X5.4843Y-5.6693
X5.4843Y-5.7087
X5.4843Y-5.748
X5.4843Y-5.7874
X5.4843Y-5.8268
X5.4843Y-5.8898
X5.4843Y-5.9291
X5.4843Y-5.9685
X5.4843Y-6.0079
X5.4843Y-6.0472
X5.4843Y-6.0866
X5.5236Y-5.6299
X5.5236Y-5.6693
X5.5236Y-5.7087
X5.5236Y-5.748
X5.5236Y-5.7874
X5.5236Y-5.8268
X5.5236Y-5.8898
X5.5236Y-5.9291
X5.5236Y-5.9685
X5.5236Y-6.0079
X5.5236Y-6.0472
X5.5236Y-6.0866
X5.563Y-5.6299
X5.563Y-5.6693
X5.563Y-5.7087
X5.563Y-5.748
X5.563Y-5.7874
X5.563Y-5.8268
X5.563Y-5.8898
X5.563Y-5.9291
X5.563Y-5.9685
X5.563Y-6.0079
X5.563Y-6.0472
X5.563Y-6.0866
X5.5748Y-5.4843
X5.6024Y-5.6299
X5.6024Y-5.6693
X5.6024Y-5.7087
X5.6024Y-5.748
X5.6024Y-5.7874
X5.6024Y-5.8268
X5.6024Y-5.8898
X5.6024Y-5.9291
X5.6024Y-5.9685
X5.6024Y-6.0079
X5.6024Y-6.0472
X5.6024Y-6.0866
X5.6417Y-5.6299
X5.6417Y-5.6693
X5.6417Y-5.7087
X5.6417Y-5.748
X5.6417Y-5.7874
X5.6417Y-5.8268
X5.6417Y-5.8898
X5.6417Y-5.9291
X5.6417Y-5.9685
X5.6417Y-6.0079
X5.6417Y-6.0472
X5.6417Y-6.0866
X5.6811Y-5.6299
X5.6811Y-5.6693
X5.6811Y-5.7087
X5.6811Y-5.748
X5.6811Y-5.7874
X5.6811Y-5.8268
X5.6811Y-5.8898
X5.6811Y-5.9291
X5.6811Y-5.9685
X5.6811Y-6.0079
X5.6811Y-6.0472
X5.6811Y-6.0866
X5.7008Y-7.0039
X5.7087Y-5.4629
X5.7087Y-6.878
X5.7185Y-6.2767
X5.7205Y-5.6299
X5.7205Y-5.6693
X5.7205Y-5.7087
X5.7205Y-5.748
X5.7205Y-5.7874
X5.7205Y-5.8268
X5.7205Y-5.8898
X5.7205Y-5.9291
X5.7205Y-5.9685
X5.7205Y-6.0079
X5.7205Y-6.0472
X5.7205Y-6.0866
X5.7598Y-5.6299
X5.7598Y-5.6693
X5.7598Y-5.7087
X5.7598Y-5.748
X5.7598Y-5.7874
X5.7598Y-5.8268
X5.7598Y-5.8898
X5.7598Y-5.9291
X5.7598Y-5.9685
X5.7598Y-6.0079
X5.7598Y-6.0472
X5.7598Y-6.0866
X5.8036Y-5.6098
T3
X3.3858Y-5.0906
X3.3858Y-5.1906
X3.3858Y-5.2906
X3.3858Y-5.3906
X3.3858Y-5.4906
X3.3858Y-5.5906
X3.3858Y-5.6906
X3.3858Y-5.7906
X3.5856Y-6.3035
X3.5856Y-6.4035
X3.5866Y-5.7701
X3.5866Y-5.8701
X3.5866Y-5.9701
X3.5866Y-6.5787
X3.5866Y-6.6787
X3.5866Y-6.7787
X4.113Y-6.9279
X4.1675Y-7.0398
X4.222Y-6.9279
X4.2766Y-7.0398
X4.3311Y-6.9279
X4.3856Y-7.0398
X4.4402Y-6.9279
X4.4947Y-7.0398
X4.5492Y-6.9279
T4
X6.0236Y-6.935
X6.3071Y-6.935
X6.5492Y-5.7047
X6.5492Y-5.9882
T5
X4.8583Y-5.689
T6
X3.4252Y-4.7244
X3.4252Y-7.0669
X3.839Y-6.9838
X4.8232Y-6.9838
X6.6929Y-4.7244
X6.6929Y-7.0669
T2
G00X5.8996Y-7.1929
M15
G01X5.8996Y-7.1496
M16
G05
G00X6.4311Y-7.1929
M15
G01X6.4311Y-7.1496
M16
G05
G00X6.8071Y-5.5807
M15
G01X6.7638Y-5.5807
M16
G05
G00X6.8071Y-6.1122
M15
G01X6.7638Y-6.1122
M16
G05
T3
G00X6.185Y-7.0787
M15
G01X6.1457Y-7.0787
M16
G05
T0
M30
