M48
; DRILL file {KiCad 7.0.9} date Fri Apr  5 12:05:43 2024
; FORMAT={-:-/ absolute / inch / decimal}
; #@! TF.CreationDate,2024-04-05T12:05:43+09:00
; #@! TF.GenerationSoftware,Kicad,Pcbnew,7.0.9
; #@! TF.FileFunction,Plated,1,2,PTH
FMAT,2
INCH
; #@! TA.AperFunction,Plated,PTH,ViaDrill
T1C0.0157
; #@! TA.AperFunction,Plated,PTH,ComponentDrill
T2C0.0236
; #@! TA.AperFunction,Plated,PTH,ComponentDrill
T3C0.0394
; #@! TA.AperFunction,Plated,PTH,ComponentDrill
T4C0.1063
; #@! TA.AperFunction,Plated,PTH,ViaDrill
T5C0.1181
; #@! TA.AperFunction,Plated,PTH,ComponentDrill
T6C0.1260
; #@! TA.AperFunction,Plated,PTH,ViaDrill
T7C0.1575
%
G90
G05
T1
X3.04Y-6.72
X3.07Y-7.01
X3.11Y-6.7
X3.11Y-6.86
X3.174Y-5.16
X3.18Y-6.6
X3.18Y-6.83
X3.18Y-6.96
X3.181Y-6.711
X3.232Y-5.08
X3.2384Y-6.8252
X3.25Y-7.04
X3.2939Y-5.7886
X3.299Y-7.438
X3.3054Y-5.5393
X3.3058Y-5.2651
X3.31Y-5.93
X3.31Y-6.07
X3.32Y-6.79
X3.32Y-6.87
X3.325Y-6.632
X3.331Y-5.69
X3.34Y-6.0
X3.3406Y-5.0835
X3.3439Y-7.0464
X3.35Y-6.07
X3.3509Y-5.6004
X3.3745Y-5.5284
X3.3819Y-5.0959
X3.3874Y-5.316
X3.3913Y-5.2532
X3.4Y-7.31
X3.41Y-6.16
X3.41Y-6.4
X3.41Y-6.63
X3.4198Y-5.3875
X3.4256Y-6.0361
X3.4365Y-5.7111
X3.44Y-6.87
X3.443Y-5.872
X3.445Y-4.964
X3.445Y-5.762
X3.448Y-7.024
X3.45Y-6.718
X3.45Y-6.79
X3.4529Y-5.6231
X3.4646Y-5.2559
X3.4655Y-5.552
X3.4683Y-5.3935
X3.4881Y-7.0546
X3.508Y-5.269
X3.5084Y-5.1232
X3.5139Y-7.0906
X3.5157Y-5.5867
X3.53Y-7.32
X3.54Y-5.55
X3.549Y-6.689
X3.55Y-5.66
X3.56Y-7.03
X3.574Y-5.749
X3.577Y-6.916
X3.581Y-6.795
X3.59Y-5.43
X3.59Y-6.27
X3.6Y-6.17
X3.6Y-7.08
X3.6Y-7.32
X3.622Y-6.3189
X3.631Y-5.271
X3.6417Y-6.5945
X3.65Y-5.6
X3.67Y-6.92
X3.6727Y-5.0212
X3.69Y-5.5
X3.69Y-6.36
X3.7084Y-5.1127
X3.71Y-6.29
X3.71Y-7.07
X3.71Y-7.32
X3.72Y-5.677
X3.724Y-5.045
X3.744Y-4.568
X3.75Y-4.754
X3.756Y-5.106
X3.768Y-7.023
X3.78Y-5.29
X3.7833Y-5.233
X3.785Y-4.63
X3.8189Y-5.7874
X3.819Y-5.669
X3.83Y-5.24
X3.853Y-7.452
X3.873Y-7.317
X3.878Y-5.689
X3.88Y-5.37
X3.895Y-5.045
X3.92Y-5.43
X3.929Y-6.564
X3.93Y-5.6
X3.9351Y-4.9121
X3.94Y-6.3
X3.951Y-5.915
X3.9567Y-6.6732
X3.96Y-6.36
X3.975Y-5.105
X3.98Y-5.36
X3.98Y-5.49
X4.009Y-5.846
X4.02Y-5.52
X4.0269Y-5.2488
X4.03Y-6.37
X4.0347Y-6.3208
X4.0468Y-5.1791
X4.05Y-5.43
X4.06Y-5.57
X4.0689Y-6.0218
X4.07Y-6.08
X4.08Y-5.66
X4.08Y-5.72
X4.08Y-5.77
X4.08Y-5.82
X4.08Y-5.87
X4.08Y-5.92
X4.08Y-6.59
X4.0881Y-5.4958
X4.1129Y-5.0454
X4.12Y-5.31
X4.13Y-5.43
X4.132Y-4.674
X4.133Y-4.894
X4.136Y-4.75
X4.14Y-6.64
X4.16Y-5.49
X4.18Y-5.97
X4.192Y-5.21
X4.193Y-6.594
X4.2018Y-6.3054
X4.202Y-6.219
X4.2158Y-6.5194
X4.2189Y-6.0009
X4.2285Y-4.896
X4.23Y-6.06
X4.2385Y-5.2321
X4.24Y-5.44
X4.24Y-5.64
X4.2458Y-6.4499
X4.2731Y-6.1346
X4.275Y-5.053
X4.277Y-6.343
X4.283Y-6.255
X4.31Y-5.44
X4.31Y-5.65
X4.319Y-5.053
X4.32Y-5.92
X4.32Y-6.07
X4.346Y-5.2
X4.35Y-6.846
X4.354Y-4.954
X4.355Y-4.903
X4.373Y-6.341
X4.39Y-6.7566
X4.392Y-6.158
X4.392Y-6.243
X4.411Y-6.438
X4.423Y-4.952
X4.4388Y-4.7757
X4.45Y-4.827
X4.471Y-6.593
X4.472Y-6.249
X4.487Y-5.369
X4.488Y-4.775
X4.499Y-6.345
X4.51Y-6.18
X4.519Y-6.636
X4.52Y-5.233
X4.525Y-6.486
X4.544Y-6.554
X4.583Y-5.315
X4.592Y-6.574
X4.593Y-5.371
X4.603Y-6.853
X4.652Y-6.441
X4.6806Y-6.6821
X4.693Y-6.547
X4.7Y-6.5
X4.707Y-5.063
X4.707Y-5.138
X4.711Y-4.996
X4.724Y-6.681
X4.75Y-6.518
X4.78Y-6.43
X4.791Y-6.641
X4.792Y-6.578
X4.803Y-5.316
X4.804Y-6.471
X4.84Y-4.775
X4.84Y-5.25
X4.845Y-5.374
X4.873Y-6.544
X4.8819Y-5.66
X4.888Y-5.315
X4.89Y-5.44
X4.89Y-5.92
X4.9Y-6.18
X4.918Y-4.858
X4.919Y-5.238
X4.929Y-4.758
X4.929Y-6.885
X4.963Y-6.392
X4.968Y-4.802
X4.9781Y-5.2417
X5.01Y-6.863
X5.017Y-4.743
X5.025Y-5.236
X5.0258Y-5.3267
X5.029Y-5.066
X5.029Y-5.143
X5.031Y-5.001
X5.032Y-4.97
X5.109Y-6.251
X5.11Y-5.64
X5.11Y-6.01
X5.113Y-4.949
X5.1281Y-5.5675
X5.137Y-6.538
X5.141Y-4.794
X5.147Y-6.644
X5.15Y-4.561
X5.15Y-5.64
X5.15Y-6.01
X5.151Y-4.987
X5.152Y-4.633
X5.1525Y-5.0405
X5.153Y-4.68
X5.153Y-4.743
X5.155Y-6.293
X5.157Y-4.881
X5.1592Y-4.9381
X5.1825Y-5.2032
X5.2075Y-5.2593
X5.209Y-6.371
X5.2152Y-5.1124
X5.22Y-5.84
X5.22Y-5.88
X5.22Y-5.92
X5.22Y-5.96
X5.2392Y-5.6142
X5.24Y-5.56
X5.24Y-5.66
X5.24Y-5.7
X5.24Y-5.74
X5.26Y-5.84
X5.26Y-5.88
X5.26Y-5.92
X5.26Y-5.96
X5.2663Y-5.2902
X5.2792Y-5.6142
X5.28Y-5.66
X5.28Y-5.7
X5.28Y-5.74
X5.28Y-5.56
X5.3Y-5.84
X5.3Y-5.88
X5.3Y-5.92
X5.3Y-5.96
X5.3192Y-5.6142
X5.32Y-5.56
X5.32Y-5.66
X5.32Y-5.7
X5.32Y-5.74
X5.34Y-5.84
X5.34Y-5.88
X5.34Y-5.92
X5.34Y-5.96
X5.35Y-5.29
X5.3592Y-5.6142
X5.36Y-5.66
X5.36Y-5.7
X5.36Y-5.74
X5.36Y-5.56
X5.38Y-5.84
X5.38Y-5.88
X5.38Y-5.92
X5.3992Y-5.3742
X5.3992Y-5.6142
X5.4Y-5.42
X5.4Y-5.46
X5.4Y-5.5
X5.4Y-5.56
X5.4Y-5.66
X5.4Y-5.7
X5.4Y-5.74
X5.42Y-5.84
X5.42Y-5.88
X5.42Y-5.92
X5.42Y-6.12
X5.42Y-6.16
X5.42Y-6.2
X5.4392Y-5.3742
X5.4392Y-5.6142
X5.44Y-5.42
X5.44Y-5.46
X5.44Y-5.5
X5.44Y-5.66
X5.44Y-5.7
X5.44Y-5.74
X5.44Y-5.56
X5.4523Y-4.7574
X5.46Y-5.84
X5.46Y-5.88
X5.46Y-6.12
X5.46Y-6.16
X5.46Y-6.2
X5.46Y-6.24
X5.46Y-6.28
X5.4792Y-5.3742
X5.4792Y-5.6142
X5.48Y-5.42
X5.48Y-5.46
X5.48Y-5.5
X5.48Y-5.56
X5.48Y-5.66
X5.48Y-5.7
X5.48Y-5.74
X5.5Y-5.84
X5.5Y-5.88
X5.5Y-5.92
X5.5Y-6.12
X5.5Y-6.16
X5.5Y-6.2
X5.5Y-6.24
X5.5Y-6.28
X5.5192Y-5.3742
X5.5192Y-5.6142
X5.52Y-5.42
X5.52Y-5.46
X5.52Y-5.5
X5.52Y-5.66
X5.52Y-5.7
X5.52Y-5.74
X5.52Y-5.56
X5.54Y-5.84
X5.54Y-5.88
X5.54Y-5.92
X5.54Y-5.96
X5.54Y-6.0
X5.54Y-6.04
X5.54Y-6.08
X5.54Y-6.12
X5.54Y-6.16
X5.54Y-6.2
X5.54Y-6.24
X5.54Y-6.28
X5.5592Y-5.3742
X5.5592Y-5.6142
X5.56Y-5.42
X5.56Y-5.46
X5.56Y-5.5
X5.56Y-5.56
X5.56Y-5.66
X5.56Y-5.7
X5.56Y-5.74
X5.58Y-5.84
X5.58Y-5.88
X5.58Y-5.92
X5.58Y-5.96
X5.58Y-6.0
X5.58Y-6.04
X5.58Y-6.08
X5.58Y-6.12
X5.58Y-6.16
X5.58Y-6.2
X5.58Y-6.24
X5.58Y-6.28
X5.586Y-5.161
X5.5992Y-5.3742
X5.5992Y-5.6142
X5.6Y-5.42
X5.6Y-5.46
X5.6Y-5.5
X5.6Y-5.66
X5.6Y-5.7
X5.6Y-5.74
X5.6Y-5.56
X5.62Y-5.299
X5.62Y-5.84
X5.62Y-5.88
X5.62Y-5.92
X5.62Y-5.96
X5.62Y-6.0
X5.62Y-6.04
X5.62Y-6.08
X5.62Y-6.12
X5.62Y-6.16
X5.62Y-6.2
X5.62Y-6.24
X5.62Y-6.28
X5.6392Y-5.3742
X5.6392Y-5.6142
X5.64Y-5.42
X5.64Y-5.46
X5.64Y-5.5
X5.64Y-5.56
X5.64Y-5.66
X5.64Y-5.7
X5.64Y-5.74
X5.66Y-5.84
X5.66Y-5.88
X5.66Y-5.92
X5.66Y-5.96
X5.66Y-6.0
X5.66Y-6.04
X5.66Y-6.08
X5.66Y-6.12
X5.66Y-6.16
X5.66Y-6.2
X5.66Y-6.24
X5.66Y-6.28
X5.6701Y-6.6089
X5.6792Y-5.3742
X5.6792Y-5.6142
X5.68Y-5.42
X5.68Y-5.46
X5.68Y-5.5
X5.68Y-5.66
X5.68Y-5.7
X5.68Y-5.74
X5.68Y-5.56
X5.7192Y-5.3742
X5.7192Y-5.6142
X5.72Y-5.42
X5.72Y-5.46
X5.72Y-5.5
X5.72Y-5.56
X5.72Y-5.66
X5.72Y-5.7
X5.72Y-5.74
X5.7558Y-6.3156
X5.784Y-5.88
X5.787Y-6.342
X5.788Y-6.474
X5.789Y-5.743
X5.794Y-5.017
X5.795Y-5.212
X5.804Y-4.575
X5.813Y-4.823
X5.896Y-6.273
X5.901Y-5.27
X5.905Y-6.468
X5.907Y-4.607
X5.9797Y-5.0803
X5.9797Y-6.3603
X5.98Y-5.04
X5.98Y-5.12
X5.98Y-5.16
X5.98Y-6.28
X5.98Y-6.32
X5.98Y-6.4
X5.98Y-6.44
X6.0197Y-5.0803
X6.0197Y-6.3603
X6.02Y-5.04
X6.02Y-5.12
X6.02Y-5.16
X6.02Y-6.28
X6.02Y-6.32
X6.02Y-6.4
X6.02Y-6.44
X6.0597Y-5.0803
X6.0597Y-6.3603
X6.06Y-5.04
X6.06Y-5.12
X6.06Y-5.16
X6.06Y-6.28
X6.06Y-6.32
X6.06Y-6.4
X6.06Y-6.44
X6.0997Y-5.0803
X6.0997Y-6.3603
X6.1Y-5.04
X6.1Y-5.12
X6.1Y-5.16
X6.1Y-6.28
X6.1Y-6.32
X6.1Y-6.4
X6.1Y-6.44
X6.1165Y-5.5435
X6.1397Y-5.0803
X6.1397Y-6.3603
X6.14Y-5.04
X6.14Y-5.12
X6.14Y-5.16
X6.14Y-6.28
X6.14Y-6.32
X6.14Y-6.4
X6.14Y-6.44
X6.1797Y-5.0803
X6.1797Y-6.3603
X6.18Y-5.04
X6.18Y-5.12
X6.18Y-5.16
X6.18Y-6.28
X6.18Y-6.32
X6.18Y-6.4
X6.18Y-6.44
X6.211Y-5.2248
X6.2197Y-5.0803
X6.2197Y-6.3603
X6.22Y-5.04
X6.22Y-5.12
X6.22Y-5.16
X6.22Y-6.28
X6.22Y-6.32
X6.22Y-6.4
X6.22Y-6.44
X6.2597Y-5.0803
X6.2597Y-6.3603
X6.26Y-5.04
X6.26Y-5.12
X6.26Y-5.16
X6.26Y-6.28
X6.26Y-6.32
X6.26Y-6.4
X6.26Y-6.44
X6.2997Y-5.2797
X6.2997Y-5.0803
X6.2997Y-6.3603
X6.3Y-5.04
X6.3Y-5.12
X6.3Y-5.16
X6.3Y-5.24
X6.3Y-6.28
X6.3Y-6.32
X6.3Y-6.4
X6.3Y-6.44
X6.3003Y-5.1997
X6.3397Y-5.0803
X6.3397Y-6.3603
X6.34Y-5.04
X6.34Y-5.12
X6.34Y-5.16
X6.34Y-5.24
X6.34Y-5.28
X6.34Y-6.28
X6.34Y-6.32
X6.34Y-6.4
X6.34Y-6.44
X6.3403Y-5.1997
X6.3797Y-5.0803
X6.3797Y-5.2403
X6.3797Y-6.3603
X6.38Y-5.04
X6.38Y-5.12
X6.38Y-5.16
X6.38Y-5.2
X6.38Y-5.28
X6.38Y-5.32
X6.38Y-6.28
X6.38Y-6.32
X6.38Y-6.4
X6.38Y-6.44
X6.4Y-6.12
X6.4Y-6.16
X6.4Y-6.2
X6.4Y-6.24
X6.405Y-5.74
X6.4197Y-5.0803
X6.4197Y-5.2403
X6.4197Y-6.3603
X6.42Y-5.04
X6.42Y-5.12
X6.42Y-5.16
X6.42Y-5.2
X6.42Y-5.28
X6.42Y-5.32
X6.42Y-6.28
X6.42Y-6.32
X6.42Y-6.4
X6.42Y-6.44
X6.4597Y-5.0803
X6.4597Y-5.2403
X6.4597Y-6.3603
X6.46Y-5.04
X6.46Y-5.12
X6.46Y-5.16
X6.46Y-5.2
X6.46Y-5.28
X6.46Y-5.32
X6.46Y-6.12
X6.46Y-6.16
X6.46Y-6.2
X6.46Y-6.24
X6.46Y-6.28
X6.46Y-6.32
X6.46Y-6.4
X6.46Y-6.44
X6.534Y-4.604
X6.535Y-6.97
X6.545Y-5.516
X6.555Y-6.059
X6.664Y-6.971
T3
X3.3906Y-7.389
X3.4906Y-7.389
X3.5906Y-7.389
X3.6906Y-7.389
X3.7906Y-7.389
X3.8906Y-7.389
X3.9906Y-7.389
X4.0551Y-7.0079
X4.0551Y-7.1079
X4.0551Y-7.2079
X4.0906Y-7.389
X4.6423Y-7.0575
X4.6968Y-7.1693
X4.7513Y-7.0575
X4.8059Y-7.1693
X4.8604Y-7.0575
X4.9149Y-7.1693
X4.9694Y-7.0575
X5.024Y-7.1693
X5.0785Y-7.0575
T4
X5.9025Y-7.0838
X6.186Y-7.0838
X6.55Y-5.6265
X6.55Y-5.91
T5
X5.4528Y-4.9409
X5.4528Y-6.0039
T6
X3.1496Y-4.7244
X3.1496Y-7.2835
X4.3683Y-7.1134
X5.3525Y-7.1134
X6.6929Y-4.7244
X6.6929Y-7.2835
T7
X6.28Y-6.14
X6.3Y-5.43
T2
G00X5.7785Y-7.3417
M15
G01X5.7785Y-7.2983
M16
G05
G00X6.31Y-7.3417
M15
G01X6.31Y-7.2983
M16
G05
G00X6.8079Y-5.5025
M15
G01X6.7646Y-5.5025
M16
G05
G00X6.8079Y-6.034
M15
G01X6.7646Y-6.034
M16
G05
T3
G00X6.0639Y-7.2275
M15
G01X6.0246Y-7.2275
M16
G05
T0
M30
