%TF.GenerationSoftware,KiCad,Pcbnew,7.0.9*%
%TF.CreationDate,2024-04-05T12:05:42+09:00*%
%TF.ProjectId,motordriver2,6d6f746f-7264-4726-9976-6572322e6b69,rev?*%
%TF.SameCoordinates,Original*%
%TF.FileFunction,Legend,Top*%
%TF.FilePolarity,Positive*%
%FSLAX46Y46*%
G04 Gerber Fmt 4.6, Leading zero omitted, Abs format (unit mm)*
G04 Created by KiCad (PCBNEW 7.0.9) date 2024-04-05 12:05:42*
%MOMM*%
%LPD*%
G01*
G04 APERTURE LIST*
G04 Aperture macros list*
%AMRoundRect*
0 Rectangle with rounded corners*
0 $1 Rounding radius*
0 $2 $3 $4 $5 $6 $7 $8 $9 X,Y pos of 4 corners*
0 Add a 4 corners polygon primitive as box body*
4,1,4,$2,$3,$4,$5,$6,$7,$8,$9,$2,$3,0*
0 Add four circle primitives for the rounded corners*
1,1,$1+$1,$2,$3*
1,1,$1+$1,$4,$5*
1,1,$1+$1,$6,$7*
1,1,$1+$1,$8,$9*
0 Add four rect primitives between the rounded corners*
20,1,$1+$1,$2,$3,$4,$5,0*
20,1,$1+$1,$4,$5,$6,$7,0*
20,1,$1+$1,$6,$7,$8,$9,0*
20,1,$1+$1,$8,$9,$2,$3,0*%
G04 Aperture macros list end*
%ADD10C,0.150000*%
%ADD11C,0.120000*%
%ADD12C,0.152400*%
%ADD13RoundRect,0.200000X-0.200000X-0.275000X0.200000X-0.275000X0.200000X0.275000X-0.200000X0.275000X0*%
%ADD14RoundRect,0.150000X-0.587500X-0.150000X0.587500X-0.150000X0.587500X0.150000X-0.587500X0.150000X0*%
%ADD15O,1.700000X1.700000*%
%ADD16R,1.700000X1.700000*%
%ADD17R,0.660400X0.381000*%
%ADD18R,2.215100X2.595250*%
%ADD19RoundRect,0.515500X0.515500X-3.556000X0.515500X3.556000X-0.515500X3.556000X-0.515500X-3.556000X0*%
%ADD20R,0.750000X1.000000*%
%ADD21RoundRect,0.135000X-0.135000X-0.185000X0.135000X-0.185000X0.135000X0.185000X-0.135000X0.185000X0*%
%ADD22RoundRect,0.225000X-0.225000X-0.250000X0.225000X-0.250000X0.225000X0.250000X-0.225000X0.250000X0*%
%ADD23RoundRect,0.250000X0.850000X0.350000X-0.850000X0.350000X-0.850000X-0.350000X0.850000X-0.350000X0*%
%ADD24RoundRect,0.249997X2.950003X2.650003X-2.950003X2.650003X-2.950003X-2.650003X2.950003X-2.650003X0*%
%ADD25R,0.450000X1.450000*%
%ADD26RoundRect,0.150000X-0.825000X-0.150000X0.825000X-0.150000X0.825000X0.150000X-0.825000X0.150000X0*%
%ADD27RoundRect,0.125000X-0.125000X0.825000X-0.125000X-0.825000X0.125000X-0.825000X0.125000X0.825000X0*%
%ADD28RoundRect,0.150000X-0.150000X0.825000X-0.150000X-0.825000X0.150000X-0.825000X0.150000X0.825000X0*%
%ADD29RoundRect,0.200000X-0.275000X0.200000X-0.275000X-0.200000X0.275000X-0.200000X0.275000X0.200000X0*%
%ADD30RoundRect,0.135000X0.135000X0.185000X-0.135000X0.185000X-0.135000X-0.185000X0.135000X-0.185000X0*%
%ADD31RoundRect,0.200000X0.275000X-0.200000X0.275000X0.200000X-0.275000X0.200000X-0.275000X-0.200000X0*%
%ADD32RoundRect,0.250000X-0.262500X-0.450000X0.262500X-0.450000X0.262500X0.450000X-0.262500X0.450000X0*%
%ADD33RoundRect,0.135000X-0.185000X0.135000X-0.185000X-0.135000X0.185000X-0.135000X0.185000X0.135000X0*%
%ADD34RoundRect,0.200000X0.200000X0.275000X-0.200000X0.275000X-0.200000X-0.275000X0.200000X-0.275000X0*%
%ADD35RoundRect,0.135000X0.185000X-0.135000X0.185000X0.135000X-0.185000X0.135000X-0.185000X-0.135000X0*%
%ADD36C,4.100000*%
%ADD37RoundRect,1.025000X-1.025000X1.025000X-1.025000X-1.025000X1.025000X-1.025000X1.025000X1.025000X0*%
%ADD38R,2.000000X0.900000*%
%ADD39C,4.000000*%
%ADD40R,1.600000X1.600000*%
%ADD41C,1.600000*%
%ADD42R,2.300000X1.300000*%
%ADD43RoundRect,1.025000X1.025000X1.025000X-1.025000X1.025000X-1.025000X-1.025000X1.025000X-1.025000X0*%
%ADD44R,0.900000X2.000000*%
%ADD45C,6.400000*%
%ADD46RoundRect,0.250000X1.100000X-0.500000X1.100000X0.500000X-1.100000X0.500000X-1.100000X-0.500000X0*%
%ADD47R,0.900000X1.500000*%
%ADD48RoundRect,0.250000X0.500000X1.100000X-0.500000X1.100000X-0.500000X-1.100000X0.500000X-1.100000X0*%
%ADD49RoundRect,0.250000X0.250000X0.475000X-0.250000X0.475000X-0.250000X-0.475000X0.250000X-0.475000X0*%
%ADD50RoundRect,0.250000X-0.650000X0.325000X-0.650000X-0.325000X0.650000X-0.325000X0.650000X0.325000X0*%
%ADD51RoundRect,0.225000X0.225000X0.250000X-0.225000X0.250000X-0.225000X-0.250000X0.225000X-0.250000X0*%
%ADD52RoundRect,0.225000X-0.250000X0.225000X-0.250000X-0.225000X0.250000X-0.225000X0.250000X0.225000X0*%
%ADD53RoundRect,0.250000X0.475000X-0.250000X0.475000X0.250000X-0.475000X0.250000X-0.475000X-0.250000X0*%
G04 APERTURE END LIST*
D10*
X138500000Y-115000000D02*
X138500000Y-176000000D01*
X104500000Y-160500000D02*
G75*
G03*
X104500000Y-160500000I-500000J0D01*
G01*
X91500000Y-133000000D02*
G75*
G03*
X91500000Y-133000000I-500000J0D01*
G01*
X101369819Y-176091792D02*
X100893628Y-176425125D01*
X101369819Y-176663220D02*
X100369819Y-176663220D01*
X100369819Y-176663220D02*
X100369819Y-176282268D01*
X100369819Y-176282268D02*
X100417438Y-176187030D01*
X100417438Y-176187030D02*
X100465057Y-176139411D01*
X100465057Y-176139411D02*
X100560295Y-176091792D01*
X100560295Y-176091792D02*
X100703152Y-176091792D01*
X100703152Y-176091792D02*
X100798390Y-176139411D01*
X100798390Y-176139411D02*
X100846009Y-176187030D01*
X100846009Y-176187030D02*
X100893628Y-176282268D01*
X100893628Y-176282268D02*
X100893628Y-176663220D01*
X100846009Y-175663220D02*
X100846009Y-175329887D01*
X101369819Y-175187030D02*
X101369819Y-175663220D01*
X101369819Y-175663220D02*
X100369819Y-175663220D01*
X100369819Y-175663220D02*
X100369819Y-175187030D01*
X101322200Y-174806077D02*
X101369819Y-174663220D01*
X101369819Y-174663220D02*
X101369819Y-174425125D01*
X101369819Y-174425125D02*
X101322200Y-174329887D01*
X101322200Y-174329887D02*
X101274580Y-174282268D01*
X101274580Y-174282268D02*
X101179342Y-174234649D01*
X101179342Y-174234649D02*
X101084104Y-174234649D01*
X101084104Y-174234649D02*
X100988866Y-174282268D01*
X100988866Y-174282268D02*
X100941247Y-174329887D01*
X100941247Y-174329887D02*
X100893628Y-174425125D01*
X100893628Y-174425125D02*
X100846009Y-174615601D01*
X100846009Y-174615601D02*
X100798390Y-174710839D01*
X100798390Y-174710839D02*
X100750771Y-174758458D01*
X100750771Y-174758458D02*
X100655533Y-174806077D01*
X100655533Y-174806077D02*
X100560295Y-174806077D01*
X100560295Y-174806077D02*
X100465057Y-174758458D01*
X100465057Y-174758458D02*
X100417438Y-174710839D01*
X100417438Y-174710839D02*
X100369819Y-174615601D01*
X100369819Y-174615601D02*
X100369819Y-174377506D01*
X100369819Y-174377506D02*
X100417438Y-174234649D01*
X100846009Y-173806077D02*
X100846009Y-173472744D01*
X101369819Y-173329887D02*
X101369819Y-173806077D01*
X101369819Y-173806077D02*
X100369819Y-173806077D01*
X100369819Y-173806077D02*
X100369819Y-173329887D01*
X100369819Y-173044172D02*
X100369819Y-172472744D01*
X101369819Y-172758458D02*
X100369819Y-172758458D01*
X126000000Y-152500000D02*
X156000000Y-152500000D01*
X121304819Y-138416665D02*
X121304819Y-137797618D01*
X121304819Y-137797618D02*
X121685771Y-138130951D01*
X121685771Y-138130951D02*
X121685771Y-137988094D01*
X121685771Y-137988094D02*
X121733390Y-137892856D01*
X121733390Y-137892856D02*
X121781009Y-137845237D01*
X121781009Y-137845237D02*
X121876247Y-137797618D01*
X121876247Y-137797618D02*
X122114342Y-137797618D01*
X122114342Y-137797618D02*
X122209580Y-137845237D01*
X122209580Y-137845237D02*
X122257200Y-137892856D01*
X122257200Y-137892856D02*
X122304819Y-137988094D01*
X122304819Y-137988094D02*
X122304819Y-138273808D01*
X122304819Y-138273808D02*
X122257200Y-138369046D01*
X122257200Y-138369046D02*
X122209580Y-138416665D01*
X121304819Y-137464284D02*
X121304819Y-136797618D01*
X121304819Y-136797618D02*
X122304819Y-137226189D01*
X122209580Y-136416665D02*
X122257200Y-136369046D01*
X122257200Y-136369046D02*
X122304819Y-136416665D01*
X122304819Y-136416665D02*
X122257200Y-136464284D01*
X122257200Y-136464284D02*
X122209580Y-136416665D01*
X122209580Y-136416665D02*
X122304819Y-136416665D01*
X121304819Y-135464285D02*
X121304819Y-135940475D01*
X121304819Y-135940475D02*
X121781009Y-135988094D01*
X121781009Y-135988094D02*
X121733390Y-135940475D01*
X121733390Y-135940475D02*
X121685771Y-135845237D01*
X121685771Y-135845237D02*
X121685771Y-135607142D01*
X121685771Y-135607142D02*
X121733390Y-135511904D01*
X121733390Y-135511904D02*
X121781009Y-135464285D01*
X121781009Y-135464285D02*
X121876247Y-135416666D01*
X121876247Y-135416666D02*
X122114342Y-135416666D01*
X122114342Y-135416666D02*
X122209580Y-135464285D01*
X122209580Y-135464285D02*
X122257200Y-135511904D01*
X122257200Y-135511904D02*
X122304819Y-135607142D01*
X122304819Y-135607142D02*
X122304819Y-135845237D01*
X122304819Y-135845237D02*
X122257200Y-135940475D01*
X122257200Y-135940475D02*
X122209580Y-135988094D01*
X121304819Y-134797618D02*
X121304819Y-134702380D01*
X121304819Y-134702380D02*
X121352438Y-134607142D01*
X121352438Y-134607142D02*
X121400057Y-134559523D01*
X121400057Y-134559523D02*
X121495295Y-134511904D01*
X121495295Y-134511904D02*
X121685771Y-134464285D01*
X121685771Y-134464285D02*
X121923866Y-134464285D01*
X121923866Y-134464285D02*
X122114342Y-134511904D01*
X122114342Y-134511904D02*
X122209580Y-134559523D01*
X122209580Y-134559523D02*
X122257200Y-134607142D01*
X122257200Y-134607142D02*
X122304819Y-134702380D01*
X122304819Y-134702380D02*
X122304819Y-134797618D01*
X122304819Y-134797618D02*
X122257200Y-134892856D01*
X122257200Y-134892856D02*
X122209580Y-134940475D01*
X122209580Y-134940475D02*
X122114342Y-134988094D01*
X122114342Y-134988094D02*
X121923866Y-135035713D01*
X121923866Y-135035713D02*
X121685771Y-135035713D01*
X121685771Y-135035713D02*
X121495295Y-134988094D01*
X121495295Y-134988094D02*
X121400057Y-134940475D01*
X121400057Y-134940475D02*
X121352438Y-134892856D01*
X121352438Y-134892856D02*
X121304819Y-134797618D01*
X121304819Y-133845237D02*
X121304819Y-133749999D01*
X121304819Y-133749999D02*
X121352438Y-133654761D01*
X121352438Y-133654761D02*
X121400057Y-133607142D01*
X121400057Y-133607142D02*
X121495295Y-133559523D01*
X121495295Y-133559523D02*
X121685771Y-133511904D01*
X121685771Y-133511904D02*
X121923866Y-133511904D01*
X121923866Y-133511904D02*
X122114342Y-133559523D01*
X122114342Y-133559523D02*
X122209580Y-133607142D01*
X122209580Y-133607142D02*
X122257200Y-133654761D01*
X122257200Y-133654761D02*
X122304819Y-133749999D01*
X122304819Y-133749999D02*
X122304819Y-133845237D01*
X122304819Y-133845237D02*
X122257200Y-133940475D01*
X122257200Y-133940475D02*
X122209580Y-133988094D01*
X122209580Y-133988094D02*
X122114342Y-134035713D01*
X122114342Y-134035713D02*
X121923866Y-134083332D01*
X121923866Y-134083332D02*
X121685771Y-134083332D01*
X121685771Y-134083332D02*
X121495295Y-134035713D01*
X121495295Y-134035713D02*
X121400057Y-133988094D01*
X121400057Y-133988094D02*
X121352438Y-133940475D01*
X121352438Y-133940475D02*
X121304819Y-133845237D01*
X121304819Y-132892856D02*
X121304819Y-132797618D01*
X121304819Y-132797618D02*
X121352438Y-132702380D01*
X121352438Y-132702380D02*
X121400057Y-132654761D01*
X121400057Y-132654761D02*
X121495295Y-132607142D01*
X121495295Y-132607142D02*
X121685771Y-132559523D01*
X121685771Y-132559523D02*
X121923866Y-132559523D01*
X121923866Y-132559523D02*
X122114342Y-132607142D01*
X122114342Y-132607142D02*
X122209580Y-132654761D01*
X122209580Y-132654761D02*
X122257200Y-132702380D01*
X122257200Y-132702380D02*
X122304819Y-132797618D01*
X122304819Y-132797618D02*
X122304819Y-132892856D01*
X122304819Y-132892856D02*
X122257200Y-132988094D01*
X122257200Y-132988094D02*
X122209580Y-133035713D01*
X122209580Y-133035713D02*
X122114342Y-133083332D01*
X122114342Y-133083332D02*
X121923866Y-133130951D01*
X121923866Y-133130951D02*
X121685771Y-133130951D01*
X121685771Y-133130951D02*
X121495295Y-133083332D01*
X121495295Y-133083332D02*
X121400057Y-133035713D01*
X121400057Y-133035713D02*
X121352438Y-132988094D01*
X121352438Y-132988094D02*
X121304819Y-132892856D01*
X122304819Y-131369046D02*
X121638152Y-131369046D01*
X121733390Y-131369046D02*
X121685771Y-131321427D01*
X121685771Y-131321427D02*
X121638152Y-131226189D01*
X121638152Y-131226189D02*
X121638152Y-131083332D01*
X121638152Y-131083332D02*
X121685771Y-130988094D01*
X121685771Y-130988094D02*
X121781009Y-130940475D01*
X121781009Y-130940475D02*
X122304819Y-130940475D01*
X121781009Y-130940475D02*
X121685771Y-130892856D01*
X121685771Y-130892856D02*
X121638152Y-130797618D01*
X121638152Y-130797618D02*
X121638152Y-130654761D01*
X121638152Y-130654761D02*
X121685771Y-130559522D01*
X121685771Y-130559522D02*
X121781009Y-130511903D01*
X121781009Y-130511903D02*
X122304819Y-130511903D01*
X122304819Y-130035713D02*
X121638152Y-130035713D01*
X121733390Y-130035713D02*
X121685771Y-129988094D01*
X121685771Y-129988094D02*
X121638152Y-129892856D01*
X121638152Y-129892856D02*
X121638152Y-129749999D01*
X121638152Y-129749999D02*
X121685771Y-129654761D01*
X121685771Y-129654761D02*
X121781009Y-129607142D01*
X121781009Y-129607142D02*
X122304819Y-129607142D01*
X121781009Y-129607142D02*
X121685771Y-129559523D01*
X121685771Y-129559523D02*
X121638152Y-129464285D01*
X121638152Y-129464285D02*
X121638152Y-129321428D01*
X121638152Y-129321428D02*
X121685771Y-129226189D01*
X121685771Y-129226189D02*
X121781009Y-129178570D01*
X121781009Y-129178570D02*
X122304819Y-129178570D01*
X125500000Y-115000000D02*
X122413580Y-115000000D01*
X125500000Y-152500000D02*
X122413580Y-152500000D01*
X123000000Y-115000000D02*
X123000000Y-152500000D01*
X123000000Y-115000000D02*
X123000000Y-152500000D01*
X123000000Y-115000000D02*
X123586421Y-116126504D01*
X123000000Y-115000000D02*
X122413579Y-116126504D01*
X123000000Y-152500000D02*
X122413579Y-151373496D01*
X123000000Y-152500000D02*
X123586421Y-151373496D01*
X126000000Y-125500000D02*
X156000000Y-125500000D01*
X128202381Y-117804819D02*
X127630953Y-117804819D01*
X127916667Y-117804819D02*
X127916667Y-116804819D01*
X127916667Y-116804819D02*
X127821429Y-116947676D01*
X127821429Y-116947676D02*
X127726191Y-117042914D01*
X127726191Y-117042914D02*
X127630953Y-117090533D01*
X128583334Y-116900057D02*
X128630953Y-116852438D01*
X128630953Y-116852438D02*
X128726191Y-116804819D01*
X128726191Y-116804819D02*
X128964286Y-116804819D01*
X128964286Y-116804819D02*
X129059524Y-116852438D01*
X129059524Y-116852438D02*
X129107143Y-116900057D01*
X129107143Y-116900057D02*
X129154762Y-116995295D01*
X129154762Y-116995295D02*
X129154762Y-117090533D01*
X129154762Y-117090533D02*
X129107143Y-117233390D01*
X129107143Y-117233390D02*
X128535715Y-117804819D01*
X128535715Y-117804819D02*
X129154762Y-117804819D01*
X129583334Y-117709580D02*
X129630953Y-117757200D01*
X129630953Y-117757200D02*
X129583334Y-117804819D01*
X129583334Y-117804819D02*
X129535715Y-117757200D01*
X129535715Y-117757200D02*
X129583334Y-117709580D01*
X129583334Y-117709580D02*
X129583334Y-117804819D01*
X130535714Y-116804819D02*
X130059524Y-116804819D01*
X130059524Y-116804819D02*
X130011905Y-117281009D01*
X130011905Y-117281009D02*
X130059524Y-117233390D01*
X130059524Y-117233390D02*
X130154762Y-117185771D01*
X130154762Y-117185771D02*
X130392857Y-117185771D01*
X130392857Y-117185771D02*
X130488095Y-117233390D01*
X130488095Y-117233390D02*
X130535714Y-117281009D01*
X130535714Y-117281009D02*
X130583333Y-117376247D01*
X130583333Y-117376247D02*
X130583333Y-117614342D01*
X130583333Y-117614342D02*
X130535714Y-117709580D01*
X130535714Y-117709580D02*
X130488095Y-117757200D01*
X130488095Y-117757200D02*
X130392857Y-117804819D01*
X130392857Y-117804819D02*
X130154762Y-117804819D01*
X130154762Y-117804819D02*
X130059524Y-117757200D01*
X130059524Y-117757200D02*
X130011905Y-117709580D01*
X131202381Y-116804819D02*
X131297619Y-116804819D01*
X131297619Y-116804819D02*
X131392857Y-116852438D01*
X131392857Y-116852438D02*
X131440476Y-116900057D01*
X131440476Y-116900057D02*
X131488095Y-116995295D01*
X131488095Y-116995295D02*
X131535714Y-117185771D01*
X131535714Y-117185771D02*
X131535714Y-117423866D01*
X131535714Y-117423866D02*
X131488095Y-117614342D01*
X131488095Y-117614342D02*
X131440476Y-117709580D01*
X131440476Y-117709580D02*
X131392857Y-117757200D01*
X131392857Y-117757200D02*
X131297619Y-117804819D01*
X131297619Y-117804819D02*
X131202381Y-117804819D01*
X131202381Y-117804819D02*
X131107143Y-117757200D01*
X131107143Y-117757200D02*
X131059524Y-117709580D01*
X131059524Y-117709580D02*
X131011905Y-117614342D01*
X131011905Y-117614342D02*
X130964286Y-117423866D01*
X130964286Y-117423866D02*
X130964286Y-117185771D01*
X130964286Y-117185771D02*
X131011905Y-116995295D01*
X131011905Y-116995295D02*
X131059524Y-116900057D01*
X131059524Y-116900057D02*
X131107143Y-116852438D01*
X131107143Y-116852438D02*
X131202381Y-116804819D01*
X132154762Y-116804819D02*
X132250000Y-116804819D01*
X132250000Y-116804819D02*
X132345238Y-116852438D01*
X132345238Y-116852438D02*
X132392857Y-116900057D01*
X132392857Y-116900057D02*
X132440476Y-116995295D01*
X132440476Y-116995295D02*
X132488095Y-117185771D01*
X132488095Y-117185771D02*
X132488095Y-117423866D01*
X132488095Y-117423866D02*
X132440476Y-117614342D01*
X132440476Y-117614342D02*
X132392857Y-117709580D01*
X132392857Y-117709580D02*
X132345238Y-117757200D01*
X132345238Y-117757200D02*
X132250000Y-117804819D01*
X132250000Y-117804819D02*
X132154762Y-117804819D01*
X132154762Y-117804819D02*
X132059524Y-117757200D01*
X132059524Y-117757200D02*
X132011905Y-117709580D01*
X132011905Y-117709580D02*
X131964286Y-117614342D01*
X131964286Y-117614342D02*
X131916667Y-117423866D01*
X131916667Y-117423866D02*
X131916667Y-117185771D01*
X131916667Y-117185771D02*
X131964286Y-116995295D01*
X131964286Y-116995295D02*
X132011905Y-116900057D01*
X132011905Y-116900057D02*
X132059524Y-116852438D01*
X132059524Y-116852438D02*
X132154762Y-116804819D01*
X133107143Y-116804819D02*
X133202381Y-116804819D01*
X133202381Y-116804819D02*
X133297619Y-116852438D01*
X133297619Y-116852438D02*
X133345238Y-116900057D01*
X133345238Y-116900057D02*
X133392857Y-116995295D01*
X133392857Y-116995295D02*
X133440476Y-117185771D01*
X133440476Y-117185771D02*
X133440476Y-117423866D01*
X133440476Y-117423866D02*
X133392857Y-117614342D01*
X133392857Y-117614342D02*
X133345238Y-117709580D01*
X133345238Y-117709580D02*
X133297619Y-117757200D01*
X133297619Y-117757200D02*
X133202381Y-117804819D01*
X133202381Y-117804819D02*
X133107143Y-117804819D01*
X133107143Y-117804819D02*
X133011905Y-117757200D01*
X133011905Y-117757200D02*
X132964286Y-117709580D01*
X132964286Y-117709580D02*
X132916667Y-117614342D01*
X132916667Y-117614342D02*
X132869048Y-117423866D01*
X132869048Y-117423866D02*
X132869048Y-117185771D01*
X132869048Y-117185771D02*
X132916667Y-116995295D01*
X132916667Y-116995295D02*
X132964286Y-116900057D01*
X132964286Y-116900057D02*
X133011905Y-116852438D01*
X133011905Y-116852438D02*
X133107143Y-116804819D01*
X134630953Y-117804819D02*
X134630953Y-117138152D01*
X134630953Y-117233390D02*
X134678572Y-117185771D01*
X134678572Y-117185771D02*
X134773810Y-117138152D01*
X134773810Y-117138152D02*
X134916667Y-117138152D01*
X134916667Y-117138152D02*
X135011905Y-117185771D01*
X135011905Y-117185771D02*
X135059524Y-117281009D01*
X135059524Y-117281009D02*
X135059524Y-117804819D01*
X135059524Y-117281009D02*
X135107143Y-117185771D01*
X135107143Y-117185771D02*
X135202381Y-117138152D01*
X135202381Y-117138152D02*
X135345238Y-117138152D01*
X135345238Y-117138152D02*
X135440477Y-117185771D01*
X135440477Y-117185771D02*
X135488096Y-117281009D01*
X135488096Y-117281009D02*
X135488096Y-117804819D01*
X135964286Y-117804819D02*
X135964286Y-117138152D01*
X135964286Y-117233390D02*
X136011905Y-117185771D01*
X136011905Y-117185771D02*
X136107143Y-117138152D01*
X136107143Y-117138152D02*
X136250000Y-117138152D01*
X136250000Y-117138152D02*
X136345238Y-117185771D01*
X136345238Y-117185771D02*
X136392857Y-117281009D01*
X136392857Y-117281009D02*
X136392857Y-117804819D01*
X136392857Y-117281009D02*
X136440476Y-117185771D01*
X136440476Y-117185771D02*
X136535714Y-117138152D01*
X136535714Y-117138152D02*
X136678571Y-117138152D01*
X136678571Y-117138152D02*
X136773810Y-117185771D01*
X136773810Y-117185771D02*
X136821429Y-117281009D01*
X136821429Y-117281009D02*
X136821429Y-117804819D01*
X126000000Y-115500000D02*
X126000000Y-119086420D01*
X138500000Y-115500000D02*
X138500000Y-119086420D01*
X126000000Y-118500000D02*
X138500000Y-118500000D01*
X126000000Y-118500000D02*
X138500000Y-118500000D01*
X126000000Y-118500000D02*
X127126504Y-117913579D01*
X126000000Y-118500000D02*
X127126504Y-119086421D01*
X138500000Y-118500000D02*
X137373496Y-119086421D01*
X138500000Y-118500000D02*
X137373496Y-117913579D01*
X120304819Y-124297618D02*
X120304819Y-124869046D01*
X120304819Y-124583332D02*
X119304819Y-124583332D01*
X119304819Y-124583332D02*
X119447676Y-124678570D01*
X119447676Y-124678570D02*
X119542914Y-124773808D01*
X119542914Y-124773808D02*
X119590533Y-124869046D01*
X119304819Y-123678570D02*
X119304819Y-123583332D01*
X119304819Y-123583332D02*
X119352438Y-123488094D01*
X119352438Y-123488094D02*
X119400057Y-123440475D01*
X119400057Y-123440475D02*
X119495295Y-123392856D01*
X119495295Y-123392856D02*
X119685771Y-123345237D01*
X119685771Y-123345237D02*
X119923866Y-123345237D01*
X119923866Y-123345237D02*
X120114342Y-123392856D01*
X120114342Y-123392856D02*
X120209580Y-123440475D01*
X120209580Y-123440475D02*
X120257200Y-123488094D01*
X120257200Y-123488094D02*
X120304819Y-123583332D01*
X120304819Y-123583332D02*
X120304819Y-123678570D01*
X120304819Y-123678570D02*
X120257200Y-123773808D01*
X120257200Y-123773808D02*
X120209580Y-123821427D01*
X120209580Y-123821427D02*
X120114342Y-123869046D01*
X120114342Y-123869046D02*
X119923866Y-123916665D01*
X119923866Y-123916665D02*
X119685771Y-123916665D01*
X119685771Y-123916665D02*
X119495295Y-123869046D01*
X119495295Y-123869046D02*
X119400057Y-123821427D01*
X119400057Y-123821427D02*
X119352438Y-123773808D01*
X119352438Y-123773808D02*
X119304819Y-123678570D01*
X120209580Y-122916665D02*
X120257200Y-122869046D01*
X120257200Y-122869046D02*
X120304819Y-122916665D01*
X120304819Y-122916665D02*
X120257200Y-122964284D01*
X120257200Y-122964284D02*
X120209580Y-122916665D01*
X120209580Y-122916665D02*
X120304819Y-122916665D01*
X119304819Y-121964285D02*
X119304819Y-122440475D01*
X119304819Y-122440475D02*
X119781009Y-122488094D01*
X119781009Y-122488094D02*
X119733390Y-122440475D01*
X119733390Y-122440475D02*
X119685771Y-122345237D01*
X119685771Y-122345237D02*
X119685771Y-122107142D01*
X119685771Y-122107142D02*
X119733390Y-122011904D01*
X119733390Y-122011904D02*
X119781009Y-121964285D01*
X119781009Y-121964285D02*
X119876247Y-121916666D01*
X119876247Y-121916666D02*
X120114342Y-121916666D01*
X120114342Y-121916666D02*
X120209580Y-121964285D01*
X120209580Y-121964285D02*
X120257200Y-122011904D01*
X120257200Y-122011904D02*
X120304819Y-122107142D01*
X120304819Y-122107142D02*
X120304819Y-122345237D01*
X120304819Y-122345237D02*
X120257200Y-122440475D01*
X120257200Y-122440475D02*
X120209580Y-122488094D01*
X119304819Y-121297618D02*
X119304819Y-121202380D01*
X119304819Y-121202380D02*
X119352438Y-121107142D01*
X119352438Y-121107142D02*
X119400057Y-121059523D01*
X119400057Y-121059523D02*
X119495295Y-121011904D01*
X119495295Y-121011904D02*
X119685771Y-120964285D01*
X119685771Y-120964285D02*
X119923866Y-120964285D01*
X119923866Y-120964285D02*
X120114342Y-121011904D01*
X120114342Y-121011904D02*
X120209580Y-121059523D01*
X120209580Y-121059523D02*
X120257200Y-121107142D01*
X120257200Y-121107142D02*
X120304819Y-121202380D01*
X120304819Y-121202380D02*
X120304819Y-121297618D01*
X120304819Y-121297618D02*
X120257200Y-121392856D01*
X120257200Y-121392856D02*
X120209580Y-121440475D01*
X120209580Y-121440475D02*
X120114342Y-121488094D01*
X120114342Y-121488094D02*
X119923866Y-121535713D01*
X119923866Y-121535713D02*
X119685771Y-121535713D01*
X119685771Y-121535713D02*
X119495295Y-121488094D01*
X119495295Y-121488094D02*
X119400057Y-121440475D01*
X119400057Y-121440475D02*
X119352438Y-121392856D01*
X119352438Y-121392856D02*
X119304819Y-121297618D01*
X119304819Y-120345237D02*
X119304819Y-120249999D01*
X119304819Y-120249999D02*
X119352438Y-120154761D01*
X119352438Y-120154761D02*
X119400057Y-120107142D01*
X119400057Y-120107142D02*
X119495295Y-120059523D01*
X119495295Y-120059523D02*
X119685771Y-120011904D01*
X119685771Y-120011904D02*
X119923866Y-120011904D01*
X119923866Y-120011904D02*
X120114342Y-120059523D01*
X120114342Y-120059523D02*
X120209580Y-120107142D01*
X120209580Y-120107142D02*
X120257200Y-120154761D01*
X120257200Y-120154761D02*
X120304819Y-120249999D01*
X120304819Y-120249999D02*
X120304819Y-120345237D01*
X120304819Y-120345237D02*
X120257200Y-120440475D01*
X120257200Y-120440475D02*
X120209580Y-120488094D01*
X120209580Y-120488094D02*
X120114342Y-120535713D01*
X120114342Y-120535713D02*
X119923866Y-120583332D01*
X119923866Y-120583332D02*
X119685771Y-120583332D01*
X119685771Y-120583332D02*
X119495295Y-120535713D01*
X119495295Y-120535713D02*
X119400057Y-120488094D01*
X119400057Y-120488094D02*
X119352438Y-120440475D01*
X119352438Y-120440475D02*
X119304819Y-120345237D01*
X119304819Y-119392856D02*
X119304819Y-119297618D01*
X119304819Y-119297618D02*
X119352438Y-119202380D01*
X119352438Y-119202380D02*
X119400057Y-119154761D01*
X119400057Y-119154761D02*
X119495295Y-119107142D01*
X119495295Y-119107142D02*
X119685771Y-119059523D01*
X119685771Y-119059523D02*
X119923866Y-119059523D01*
X119923866Y-119059523D02*
X120114342Y-119107142D01*
X120114342Y-119107142D02*
X120209580Y-119154761D01*
X120209580Y-119154761D02*
X120257200Y-119202380D01*
X120257200Y-119202380D02*
X120304819Y-119297618D01*
X120304819Y-119297618D02*
X120304819Y-119392856D01*
X120304819Y-119392856D02*
X120257200Y-119488094D01*
X120257200Y-119488094D02*
X120209580Y-119535713D01*
X120209580Y-119535713D02*
X120114342Y-119583332D01*
X120114342Y-119583332D02*
X119923866Y-119630951D01*
X119923866Y-119630951D02*
X119685771Y-119630951D01*
X119685771Y-119630951D02*
X119495295Y-119583332D01*
X119495295Y-119583332D02*
X119400057Y-119535713D01*
X119400057Y-119535713D02*
X119352438Y-119488094D01*
X119352438Y-119488094D02*
X119304819Y-119392856D01*
X120304819Y-117869046D02*
X119638152Y-117869046D01*
X119733390Y-117869046D02*
X119685771Y-117821427D01*
X119685771Y-117821427D02*
X119638152Y-117726189D01*
X119638152Y-117726189D02*
X119638152Y-117583332D01*
X119638152Y-117583332D02*
X119685771Y-117488094D01*
X119685771Y-117488094D02*
X119781009Y-117440475D01*
X119781009Y-117440475D02*
X120304819Y-117440475D01*
X119781009Y-117440475D02*
X119685771Y-117392856D01*
X119685771Y-117392856D02*
X119638152Y-117297618D01*
X119638152Y-117297618D02*
X119638152Y-117154761D01*
X119638152Y-117154761D02*
X119685771Y-117059522D01*
X119685771Y-117059522D02*
X119781009Y-117011903D01*
X119781009Y-117011903D02*
X120304819Y-117011903D01*
X120304819Y-116535713D02*
X119638152Y-116535713D01*
X119733390Y-116535713D02*
X119685771Y-116488094D01*
X119685771Y-116488094D02*
X119638152Y-116392856D01*
X119638152Y-116392856D02*
X119638152Y-116249999D01*
X119638152Y-116249999D02*
X119685771Y-116154761D01*
X119685771Y-116154761D02*
X119781009Y-116107142D01*
X119781009Y-116107142D02*
X120304819Y-116107142D01*
X119781009Y-116107142D02*
X119685771Y-116059523D01*
X119685771Y-116059523D02*
X119638152Y-115964285D01*
X119638152Y-115964285D02*
X119638152Y-115821428D01*
X119638152Y-115821428D02*
X119685771Y-115726189D01*
X119685771Y-115726189D02*
X119781009Y-115678570D01*
X119781009Y-115678570D02*
X120304819Y-115678570D01*
X125500000Y-115000000D02*
X120413580Y-115000000D01*
X125500000Y-125500000D02*
X120413580Y-125500000D01*
X121000000Y-115000000D02*
X121000000Y-125500000D01*
X121000000Y-115000000D02*
X121000000Y-125500000D01*
X121000000Y-115000000D02*
X121586421Y-116126504D01*
X121000000Y-115000000D02*
X120413579Y-116126504D01*
X121000000Y-125500000D02*
X120413579Y-124373496D01*
X121000000Y-125500000D02*
X121586421Y-124373496D01*
X126000000Y-115000000D02*
X156000000Y-115000000D01*
X156000000Y-176000000D01*
X126000000Y-176000000D01*
X126000000Y-115000000D01*
X91333333Y-163024819D02*
X91000000Y-162548628D01*
X90761905Y-163024819D02*
X90761905Y-162024819D01*
X90761905Y-162024819D02*
X91142857Y-162024819D01*
X91142857Y-162024819D02*
X91238095Y-162072438D01*
X91238095Y-162072438D02*
X91285714Y-162120057D01*
X91285714Y-162120057D02*
X91333333Y-162215295D01*
X91333333Y-162215295D02*
X91333333Y-162358152D01*
X91333333Y-162358152D02*
X91285714Y-162453390D01*
X91285714Y-162453390D02*
X91238095Y-162501009D01*
X91238095Y-162501009D02*
X91142857Y-162548628D01*
X91142857Y-162548628D02*
X90761905Y-162548628D01*
X91666667Y-162024819D02*
X92333333Y-162024819D01*
X92333333Y-162024819D02*
X91904762Y-163024819D01*
X88842261Y-165100057D02*
X88747023Y-165052438D01*
X88747023Y-165052438D02*
X88651785Y-164957200D01*
X88651785Y-164957200D02*
X88508928Y-164814342D01*
X88508928Y-164814342D02*
X88413690Y-164766723D01*
X88413690Y-164766723D02*
X88318452Y-164766723D01*
X88366071Y-165004819D02*
X88270833Y-164957200D01*
X88270833Y-164957200D02*
X88175595Y-164861961D01*
X88175595Y-164861961D02*
X88127976Y-164671485D01*
X88127976Y-164671485D02*
X88127976Y-164338152D01*
X88127976Y-164338152D02*
X88175595Y-164147676D01*
X88175595Y-164147676D02*
X88270833Y-164052438D01*
X88270833Y-164052438D02*
X88366071Y-164004819D01*
X88366071Y-164004819D02*
X88556547Y-164004819D01*
X88556547Y-164004819D02*
X88651785Y-164052438D01*
X88651785Y-164052438D02*
X88747023Y-164147676D01*
X88747023Y-164147676D02*
X88794642Y-164338152D01*
X88794642Y-164338152D02*
X88794642Y-164671485D01*
X88794642Y-164671485D02*
X88747023Y-164861961D01*
X88747023Y-164861961D02*
X88651785Y-164957200D01*
X88651785Y-164957200D02*
X88556547Y-165004819D01*
X88556547Y-165004819D02*
X88366071Y-165004819D01*
X89699404Y-164004819D02*
X89223214Y-164004819D01*
X89223214Y-164004819D02*
X89175595Y-164481009D01*
X89175595Y-164481009D02*
X89223214Y-164433390D01*
X89223214Y-164433390D02*
X89318452Y-164385771D01*
X89318452Y-164385771D02*
X89556547Y-164385771D01*
X89556547Y-164385771D02*
X89651785Y-164433390D01*
X89651785Y-164433390D02*
X89699404Y-164481009D01*
X89699404Y-164481009D02*
X89747023Y-164576247D01*
X89747023Y-164576247D02*
X89747023Y-164814342D01*
X89747023Y-164814342D02*
X89699404Y-164909580D01*
X89699404Y-164909580D02*
X89651785Y-164957200D01*
X89651785Y-164957200D02*
X89556547Y-165004819D01*
X89556547Y-165004819D02*
X89318452Y-165004819D01*
X89318452Y-165004819D02*
X89223214Y-164957200D01*
X89223214Y-164957200D02*
X89175595Y-164909580D01*
X102666666Y-174684819D02*
X102666666Y-175399104D01*
X102666666Y-175399104D02*
X102619047Y-175541961D01*
X102619047Y-175541961D02*
X102523809Y-175637200D01*
X102523809Y-175637200D02*
X102380952Y-175684819D01*
X102380952Y-175684819D02*
X102285714Y-175684819D01*
X103571428Y-175018152D02*
X103571428Y-175684819D01*
X103333333Y-174637200D02*
X103095238Y-175351485D01*
X103095238Y-175351485D02*
X103714285Y-175351485D01*
X133290261Y-153686657D02*
X133195023Y-153639038D01*
X133195023Y-153639038D02*
X133099785Y-153543800D01*
X133099785Y-153543800D02*
X132956928Y-153400942D01*
X132956928Y-153400942D02*
X132861690Y-153353323D01*
X132861690Y-153353323D02*
X132766452Y-153353323D01*
X132814071Y-153591419D02*
X132718833Y-153543800D01*
X132718833Y-153543800D02*
X132623595Y-153448561D01*
X132623595Y-153448561D02*
X132575976Y-153258085D01*
X132575976Y-153258085D02*
X132575976Y-152924752D01*
X132575976Y-152924752D02*
X132623595Y-152734276D01*
X132623595Y-152734276D02*
X132718833Y-152639038D01*
X132718833Y-152639038D02*
X132814071Y-152591419D01*
X132814071Y-152591419D02*
X133004547Y-152591419D01*
X133004547Y-152591419D02*
X133099785Y-152639038D01*
X133099785Y-152639038D02*
X133195023Y-152734276D01*
X133195023Y-152734276D02*
X133242642Y-152924752D01*
X133242642Y-152924752D02*
X133242642Y-153258085D01*
X133242642Y-153258085D02*
X133195023Y-153448561D01*
X133195023Y-153448561D02*
X133099785Y-153543800D01*
X133099785Y-153543800D02*
X133004547Y-153591419D01*
X133004547Y-153591419D02*
X132814071Y-153591419D01*
X134099785Y-152924752D02*
X134099785Y-153591419D01*
X133861690Y-152543800D02*
X133623595Y-153258085D01*
X133623595Y-153258085D02*
X134242642Y-153258085D01*
X131277300Y-153808819D02*
X131277300Y-154046914D01*
X131039205Y-153951676D02*
X131277300Y-154046914D01*
X131277300Y-154046914D02*
X131515395Y-153951676D01*
X131134443Y-154237390D02*
X131277300Y-154046914D01*
X131277300Y-154046914D02*
X131420157Y-154237390D01*
X131277300Y-153808819D02*
X131277300Y-154046914D01*
X131039205Y-153951676D02*
X131277300Y-154046914D01*
X131277300Y-154046914D02*
X131515395Y-153951676D01*
X131134443Y-154237390D02*
X131277300Y-154046914D01*
X131277300Y-154046914D02*
X131420157Y-154237390D01*
X152406361Y-153839057D02*
X152311123Y-153791438D01*
X152311123Y-153791438D02*
X152215885Y-153696200D01*
X152215885Y-153696200D02*
X152073028Y-153553342D01*
X152073028Y-153553342D02*
X151977790Y-153505723D01*
X151977790Y-153505723D02*
X151882552Y-153505723D01*
X151930171Y-153743819D02*
X151834933Y-153696200D01*
X151834933Y-153696200D02*
X151739695Y-153600961D01*
X151739695Y-153600961D02*
X151692076Y-153410485D01*
X151692076Y-153410485D02*
X151692076Y-153077152D01*
X151692076Y-153077152D02*
X151739695Y-152886676D01*
X151739695Y-152886676D02*
X151834933Y-152791438D01*
X151834933Y-152791438D02*
X151930171Y-152743819D01*
X151930171Y-152743819D02*
X152120647Y-152743819D01*
X152120647Y-152743819D02*
X152215885Y-152791438D01*
X152215885Y-152791438D02*
X152311123Y-152886676D01*
X152311123Y-152886676D02*
X152358742Y-153077152D01*
X152358742Y-153077152D02*
X152358742Y-153410485D01*
X152358742Y-153410485D02*
X152311123Y-153600961D01*
X152311123Y-153600961D02*
X152215885Y-153696200D01*
X152215885Y-153696200D02*
X152120647Y-153743819D01*
X152120647Y-153743819D02*
X151930171Y-153743819D01*
X152692076Y-152743819D02*
X153311123Y-152743819D01*
X153311123Y-152743819D02*
X152977790Y-153124771D01*
X152977790Y-153124771D02*
X153120647Y-153124771D01*
X153120647Y-153124771D02*
X153215885Y-153172390D01*
X153215885Y-153172390D02*
X153263504Y-153220009D01*
X153263504Y-153220009D02*
X153311123Y-153315247D01*
X153311123Y-153315247D02*
X153311123Y-153553342D01*
X153311123Y-153553342D02*
X153263504Y-153648580D01*
X153263504Y-153648580D02*
X153215885Y-153696200D01*
X153215885Y-153696200D02*
X153120647Y-153743819D01*
X153120647Y-153743819D02*
X152834933Y-153743819D01*
X152834933Y-153743819D02*
X152739695Y-153696200D01*
X152739695Y-153696200D02*
X152692076Y-153648580D01*
X150368800Y-153808819D02*
X150368800Y-154046914D01*
X150130705Y-153951676D02*
X150368800Y-154046914D01*
X150368800Y-154046914D02*
X150606895Y-153951676D01*
X150225943Y-154237390D02*
X150368800Y-154046914D01*
X150368800Y-154046914D02*
X150511657Y-154237390D01*
X150368800Y-153808819D02*
X150368800Y-154046914D01*
X150130705Y-153951676D02*
X150368800Y-154046914D01*
X150368800Y-154046914D02*
X150606895Y-153951676D01*
X150225943Y-154237390D02*
X150368800Y-154046914D01*
X150368800Y-154046914D02*
X150511657Y-154237390D01*
X133280161Y-135982857D02*
X133184923Y-135935238D01*
X133184923Y-135935238D02*
X133089685Y-135840000D01*
X133089685Y-135840000D02*
X132946828Y-135697142D01*
X132946828Y-135697142D02*
X132851590Y-135649523D01*
X132851590Y-135649523D02*
X132756352Y-135649523D01*
X132803971Y-135887619D02*
X132708733Y-135840000D01*
X132708733Y-135840000D02*
X132613495Y-135744761D01*
X132613495Y-135744761D02*
X132565876Y-135554285D01*
X132565876Y-135554285D02*
X132565876Y-135220952D01*
X132565876Y-135220952D02*
X132613495Y-135030476D01*
X132613495Y-135030476D02*
X132708733Y-134935238D01*
X132708733Y-134935238D02*
X132803971Y-134887619D01*
X132803971Y-134887619D02*
X132994447Y-134887619D01*
X132994447Y-134887619D02*
X133089685Y-134935238D01*
X133089685Y-134935238D02*
X133184923Y-135030476D01*
X133184923Y-135030476D02*
X133232542Y-135220952D01*
X133232542Y-135220952D02*
X133232542Y-135554285D01*
X133232542Y-135554285D02*
X133184923Y-135744761D01*
X133184923Y-135744761D02*
X133089685Y-135840000D01*
X133089685Y-135840000D02*
X132994447Y-135887619D01*
X132994447Y-135887619D02*
X132803971Y-135887619D01*
X133613495Y-134982857D02*
X133661114Y-134935238D01*
X133661114Y-134935238D02*
X133756352Y-134887619D01*
X133756352Y-134887619D02*
X133994447Y-134887619D01*
X133994447Y-134887619D02*
X134089685Y-134935238D01*
X134089685Y-134935238D02*
X134137304Y-134982857D01*
X134137304Y-134982857D02*
X134184923Y-135078095D01*
X134184923Y-135078095D02*
X134184923Y-135173333D01*
X134184923Y-135173333D02*
X134137304Y-135316190D01*
X134137304Y-135316190D02*
X133565876Y-135887619D01*
X133565876Y-135887619D02*
X134184923Y-135887619D01*
X131241800Y-135743819D02*
X131241800Y-135981914D01*
X131003705Y-135886676D02*
X131241800Y-135981914D01*
X131241800Y-135981914D02*
X131479895Y-135886676D01*
X131098943Y-136172390D02*
X131241800Y-135981914D01*
X131241800Y-135981914D02*
X131384657Y-136172390D01*
X131241800Y-135743819D02*
X131241800Y-135981914D01*
X131003705Y-135886676D02*
X131241800Y-135981914D01*
X131241800Y-135981914D02*
X131479895Y-135886676D01*
X131098943Y-136172390D02*
X131241800Y-135981914D01*
X131241800Y-135981914D02*
X131384657Y-136172390D01*
X152330161Y-135881257D02*
X152234923Y-135833638D01*
X152234923Y-135833638D02*
X152139685Y-135738400D01*
X152139685Y-135738400D02*
X151996828Y-135595542D01*
X151996828Y-135595542D02*
X151901590Y-135547923D01*
X151901590Y-135547923D02*
X151806352Y-135547923D01*
X151853971Y-135786019D02*
X151758733Y-135738400D01*
X151758733Y-135738400D02*
X151663495Y-135643161D01*
X151663495Y-135643161D02*
X151615876Y-135452685D01*
X151615876Y-135452685D02*
X151615876Y-135119352D01*
X151615876Y-135119352D02*
X151663495Y-134928876D01*
X151663495Y-134928876D02*
X151758733Y-134833638D01*
X151758733Y-134833638D02*
X151853971Y-134786019D01*
X151853971Y-134786019D02*
X152044447Y-134786019D01*
X152044447Y-134786019D02*
X152139685Y-134833638D01*
X152139685Y-134833638D02*
X152234923Y-134928876D01*
X152234923Y-134928876D02*
X152282542Y-135119352D01*
X152282542Y-135119352D02*
X152282542Y-135452685D01*
X152282542Y-135452685D02*
X152234923Y-135643161D01*
X152234923Y-135643161D02*
X152139685Y-135738400D01*
X152139685Y-135738400D02*
X152044447Y-135786019D01*
X152044447Y-135786019D02*
X151853971Y-135786019D01*
X153234923Y-135786019D02*
X152663495Y-135786019D01*
X152949209Y-135786019D02*
X152949209Y-134786019D01*
X152949209Y-134786019D02*
X152853971Y-134928876D01*
X152853971Y-134928876D02*
X152758733Y-135024114D01*
X152758733Y-135024114D02*
X152663495Y-135071733D01*
X150327300Y-135616819D02*
X150327300Y-135854914D01*
X150089205Y-135759676D02*
X150327300Y-135854914D01*
X150327300Y-135854914D02*
X150565395Y-135759676D01*
X150184443Y-136045390D02*
X150327300Y-135854914D01*
X150327300Y-135854914D02*
X150470157Y-136045390D01*
X150327300Y-135616819D02*
X150327300Y-135854914D01*
X150089205Y-135759676D02*
X150327300Y-135854914D01*
X150327300Y-135854914D02*
X150565395Y-135759676D01*
X150184443Y-136045390D02*
X150327300Y-135854914D01*
X150327300Y-135854914D02*
X150470157Y-136045390D01*
X113833333Y-147704819D02*
X113500000Y-147228628D01*
X113261905Y-147704819D02*
X113261905Y-146704819D01*
X113261905Y-146704819D02*
X113642857Y-146704819D01*
X113642857Y-146704819D02*
X113738095Y-146752438D01*
X113738095Y-146752438D02*
X113785714Y-146800057D01*
X113785714Y-146800057D02*
X113833333Y-146895295D01*
X113833333Y-146895295D02*
X113833333Y-147038152D01*
X113833333Y-147038152D02*
X113785714Y-147133390D01*
X113785714Y-147133390D02*
X113738095Y-147181009D01*
X113738095Y-147181009D02*
X113642857Y-147228628D01*
X113642857Y-147228628D02*
X113261905Y-147228628D01*
X114690476Y-146704819D02*
X114500000Y-146704819D01*
X114500000Y-146704819D02*
X114404762Y-146752438D01*
X114404762Y-146752438D02*
X114357143Y-146800057D01*
X114357143Y-146800057D02*
X114261905Y-146942914D01*
X114261905Y-146942914D02*
X114214286Y-147133390D01*
X114214286Y-147133390D02*
X114214286Y-147514342D01*
X114214286Y-147514342D02*
X114261905Y-147609580D01*
X114261905Y-147609580D02*
X114309524Y-147657200D01*
X114309524Y-147657200D02*
X114404762Y-147704819D01*
X114404762Y-147704819D02*
X114595238Y-147704819D01*
X114595238Y-147704819D02*
X114690476Y-147657200D01*
X114690476Y-147657200D02*
X114738095Y-147609580D01*
X114738095Y-147609580D02*
X114785714Y-147514342D01*
X114785714Y-147514342D02*
X114785714Y-147276247D01*
X114785714Y-147276247D02*
X114738095Y-147181009D01*
X114738095Y-147181009D02*
X114690476Y-147133390D01*
X114690476Y-147133390D02*
X114595238Y-147085771D01*
X114595238Y-147085771D02*
X114404762Y-147085771D01*
X114404762Y-147085771D02*
X114309524Y-147133390D01*
X114309524Y-147133390D02*
X114261905Y-147181009D01*
X114261905Y-147181009D02*
X114214286Y-147276247D01*
X93080200Y-175529332D02*
X93127819Y-175386475D01*
X93127819Y-175386475D02*
X93127819Y-175148380D01*
X93127819Y-175148380D02*
X93080200Y-175053142D01*
X93080200Y-175053142D02*
X93032580Y-175005523D01*
X93032580Y-175005523D02*
X92937342Y-174957904D01*
X92937342Y-174957904D02*
X92842104Y-174957904D01*
X92842104Y-174957904D02*
X92746866Y-175005523D01*
X92746866Y-175005523D02*
X92699247Y-175053142D01*
X92699247Y-175053142D02*
X92651628Y-175148380D01*
X92651628Y-175148380D02*
X92604009Y-175338856D01*
X92604009Y-175338856D02*
X92556390Y-175434094D01*
X92556390Y-175434094D02*
X92508771Y-175481713D01*
X92508771Y-175481713D02*
X92413533Y-175529332D01*
X92413533Y-175529332D02*
X92318295Y-175529332D01*
X92318295Y-175529332D02*
X92223057Y-175481713D01*
X92223057Y-175481713D02*
X92175438Y-175434094D01*
X92175438Y-175434094D02*
X92127819Y-175338856D01*
X92127819Y-175338856D02*
X92127819Y-175100761D01*
X92127819Y-175100761D02*
X92175438Y-174957904D01*
X92127819Y-174624570D02*
X93127819Y-174386475D01*
X93127819Y-174386475D02*
X92413533Y-174195999D01*
X92413533Y-174195999D02*
X93127819Y-174005523D01*
X93127819Y-174005523D02*
X92127819Y-173767428D01*
X92127819Y-173481713D02*
X92127819Y-172862666D01*
X92127819Y-172862666D02*
X92508771Y-173195999D01*
X92508771Y-173195999D02*
X92508771Y-173053142D01*
X92508771Y-173053142D02*
X92556390Y-172957904D01*
X92556390Y-172957904D02*
X92604009Y-172910285D01*
X92604009Y-172910285D02*
X92699247Y-172862666D01*
X92699247Y-172862666D02*
X92937342Y-172862666D01*
X92937342Y-172862666D02*
X93032580Y-172910285D01*
X93032580Y-172910285D02*
X93080200Y-172957904D01*
X93080200Y-172957904D02*
X93127819Y-173053142D01*
X93127819Y-173053142D02*
X93127819Y-173338856D01*
X93127819Y-173338856D02*
X93080200Y-173434094D01*
X93080200Y-173434094D02*
X93032580Y-173481713D01*
X95924761Y-179370819D02*
X95591428Y-178894628D01*
X95353333Y-179370819D02*
X95353333Y-178370819D01*
X95353333Y-178370819D02*
X95734285Y-178370819D01*
X95734285Y-178370819D02*
X95829523Y-178418438D01*
X95829523Y-178418438D02*
X95877142Y-178466057D01*
X95877142Y-178466057D02*
X95924761Y-178561295D01*
X95924761Y-178561295D02*
X95924761Y-178704152D01*
X95924761Y-178704152D02*
X95877142Y-178799390D01*
X95877142Y-178799390D02*
X95829523Y-178847009D01*
X95829523Y-178847009D02*
X95734285Y-178894628D01*
X95734285Y-178894628D02*
X95353333Y-178894628D01*
X96210476Y-178370819D02*
X96543809Y-179370819D01*
X96543809Y-179370819D02*
X96877142Y-178370819D01*
X97115238Y-178370819D02*
X97781904Y-178370819D01*
X97781904Y-178370819D02*
X97353333Y-179370819D01*
X95877142Y-182063580D02*
X95829523Y-182111200D01*
X95829523Y-182111200D02*
X95686666Y-182158819D01*
X95686666Y-182158819D02*
X95591428Y-182158819D01*
X95591428Y-182158819D02*
X95448571Y-182111200D01*
X95448571Y-182111200D02*
X95353333Y-182015961D01*
X95353333Y-182015961D02*
X95305714Y-181920723D01*
X95305714Y-181920723D02*
X95258095Y-181730247D01*
X95258095Y-181730247D02*
X95258095Y-181587390D01*
X95258095Y-181587390D02*
X95305714Y-181396914D01*
X95305714Y-181396914D02*
X95353333Y-181301676D01*
X95353333Y-181301676D02*
X95448571Y-181206438D01*
X95448571Y-181206438D02*
X95591428Y-181158819D01*
X95591428Y-181158819D02*
X95686666Y-181158819D01*
X95686666Y-181158819D02*
X95829523Y-181206438D01*
X95829523Y-181206438D02*
X95877142Y-181254057D01*
X96829523Y-182158819D02*
X96258095Y-182158819D01*
X96543809Y-182158819D02*
X96543809Y-181158819D01*
X96543809Y-181158819D02*
X96448571Y-181301676D01*
X96448571Y-181301676D02*
X96353333Y-181396914D01*
X96353333Y-181396914D02*
X96258095Y-181444533D01*
X97686666Y-181492152D02*
X97686666Y-182158819D01*
X97448571Y-181111200D02*
X97210476Y-181825485D01*
X97210476Y-181825485D02*
X97829523Y-181825485D01*
X138470095Y-175552819D02*
X138470095Y-176362342D01*
X138470095Y-176362342D02*
X138517714Y-176457580D01*
X138517714Y-176457580D02*
X138565333Y-176505200D01*
X138565333Y-176505200D02*
X138660571Y-176552819D01*
X138660571Y-176552819D02*
X138851047Y-176552819D01*
X138851047Y-176552819D02*
X138946285Y-176505200D01*
X138946285Y-176505200D02*
X138993904Y-176457580D01*
X138993904Y-176457580D02*
X139041523Y-176362342D01*
X139041523Y-176362342D02*
X139041523Y-175552819D01*
X139946285Y-175552819D02*
X139755809Y-175552819D01*
X139755809Y-175552819D02*
X139660571Y-175600438D01*
X139660571Y-175600438D02*
X139612952Y-175648057D01*
X139612952Y-175648057D02*
X139517714Y-175790914D01*
X139517714Y-175790914D02*
X139470095Y-175981390D01*
X139470095Y-175981390D02*
X139470095Y-176362342D01*
X139470095Y-176362342D02*
X139517714Y-176457580D01*
X139517714Y-176457580D02*
X139565333Y-176505200D01*
X139565333Y-176505200D02*
X139660571Y-176552819D01*
X139660571Y-176552819D02*
X139851047Y-176552819D01*
X139851047Y-176552819D02*
X139946285Y-176505200D01*
X139946285Y-176505200D02*
X139993904Y-176457580D01*
X139993904Y-176457580D02*
X140041523Y-176362342D01*
X140041523Y-176362342D02*
X140041523Y-176124247D01*
X140041523Y-176124247D02*
X139993904Y-176029009D01*
X139993904Y-176029009D02*
X139946285Y-175981390D01*
X139946285Y-175981390D02*
X139851047Y-175933771D01*
X139851047Y-175933771D02*
X139660571Y-175933771D01*
X139660571Y-175933771D02*
X139565333Y-175981390D01*
X139565333Y-175981390D02*
X139517714Y-176029009D01*
X139517714Y-176029009D02*
X139470095Y-176124247D01*
X132002819Y-132333904D02*
X132812342Y-132333904D01*
X132812342Y-132333904D02*
X132907580Y-132286285D01*
X132907580Y-132286285D02*
X132955200Y-132238666D01*
X132955200Y-132238666D02*
X133002819Y-132143428D01*
X133002819Y-132143428D02*
X133002819Y-131952952D01*
X133002819Y-131952952D02*
X132955200Y-131857714D01*
X132955200Y-131857714D02*
X132907580Y-131810095D01*
X132907580Y-131810095D02*
X132812342Y-131762476D01*
X132812342Y-131762476D02*
X132002819Y-131762476D01*
X132002819Y-130810095D02*
X132002819Y-131286285D01*
X132002819Y-131286285D02*
X132479009Y-131333904D01*
X132479009Y-131333904D02*
X132431390Y-131286285D01*
X132431390Y-131286285D02*
X132383771Y-131191047D01*
X132383771Y-131191047D02*
X132383771Y-130952952D01*
X132383771Y-130952952D02*
X132431390Y-130857714D01*
X132431390Y-130857714D02*
X132479009Y-130810095D01*
X132479009Y-130810095D02*
X132574247Y-130762476D01*
X132574247Y-130762476D02*
X132812342Y-130762476D01*
X132812342Y-130762476D02*
X132907580Y-130810095D01*
X132907580Y-130810095D02*
X132955200Y-130857714D01*
X132955200Y-130857714D02*
X133002819Y-130952952D01*
X133002819Y-130952952D02*
X133002819Y-131191047D01*
X133002819Y-131191047D02*
X132955200Y-131286285D01*
X132955200Y-131286285D02*
X132907580Y-131333904D01*
X106934095Y-160138819D02*
X106934095Y-160948342D01*
X106934095Y-160948342D02*
X106981714Y-161043580D01*
X106981714Y-161043580D02*
X107029333Y-161091200D01*
X107029333Y-161091200D02*
X107124571Y-161138819D01*
X107124571Y-161138819D02*
X107315047Y-161138819D01*
X107315047Y-161138819D02*
X107410285Y-161091200D01*
X107410285Y-161091200D02*
X107457904Y-161043580D01*
X107457904Y-161043580D02*
X107505523Y-160948342D01*
X107505523Y-160948342D02*
X107505523Y-160138819D01*
X108410285Y-160472152D02*
X108410285Y-161138819D01*
X108172190Y-160091200D02*
X107934095Y-160805485D01*
X107934095Y-160805485D02*
X108553142Y-160805485D01*
X90405819Y-136087904D02*
X91215342Y-136087904D01*
X91215342Y-136087904D02*
X91310580Y-136040285D01*
X91310580Y-136040285D02*
X91358200Y-135992666D01*
X91358200Y-135992666D02*
X91405819Y-135897428D01*
X91405819Y-135897428D02*
X91405819Y-135706952D01*
X91405819Y-135706952D02*
X91358200Y-135611714D01*
X91358200Y-135611714D02*
X91310580Y-135564095D01*
X91310580Y-135564095D02*
X91215342Y-135516476D01*
X91215342Y-135516476D02*
X90405819Y-135516476D01*
X90405819Y-135135523D02*
X90405819Y-134516476D01*
X90405819Y-134516476D02*
X90786771Y-134849809D01*
X90786771Y-134849809D02*
X90786771Y-134706952D01*
X90786771Y-134706952D02*
X90834390Y-134611714D01*
X90834390Y-134611714D02*
X90882009Y-134564095D01*
X90882009Y-134564095D02*
X90977247Y-134516476D01*
X90977247Y-134516476D02*
X91215342Y-134516476D01*
X91215342Y-134516476D02*
X91310580Y-134564095D01*
X91310580Y-134564095D02*
X91358200Y-134611714D01*
X91358200Y-134611714D02*
X91405819Y-134706952D01*
X91405819Y-134706952D02*
X91405819Y-134992666D01*
X91405819Y-134992666D02*
X91358200Y-135087904D01*
X91358200Y-135087904D02*
X91310580Y-135135523D01*
X108139095Y-124946819D02*
X108139095Y-125756342D01*
X108139095Y-125756342D02*
X108186714Y-125851580D01*
X108186714Y-125851580D02*
X108234333Y-125899200D01*
X108234333Y-125899200D02*
X108329571Y-125946819D01*
X108329571Y-125946819D02*
X108520047Y-125946819D01*
X108520047Y-125946819D02*
X108615285Y-125899200D01*
X108615285Y-125899200D02*
X108662904Y-125851580D01*
X108662904Y-125851580D02*
X108710523Y-125756342D01*
X108710523Y-125756342D02*
X108710523Y-124946819D01*
X109139095Y-125042057D02*
X109186714Y-124994438D01*
X109186714Y-124994438D02*
X109281952Y-124946819D01*
X109281952Y-124946819D02*
X109520047Y-124946819D01*
X109520047Y-124946819D02*
X109615285Y-124994438D01*
X109615285Y-124994438D02*
X109662904Y-125042057D01*
X109662904Y-125042057D02*
X109710523Y-125137295D01*
X109710523Y-125137295D02*
X109710523Y-125232533D01*
X109710523Y-125232533D02*
X109662904Y-125375390D01*
X109662904Y-125375390D02*
X109091476Y-125946819D01*
X109091476Y-125946819D02*
X109710523Y-125946819D01*
X147126819Y-124205904D02*
X147936342Y-124205904D01*
X147936342Y-124205904D02*
X148031580Y-124158285D01*
X148031580Y-124158285D02*
X148079200Y-124110666D01*
X148079200Y-124110666D02*
X148126819Y-124015428D01*
X148126819Y-124015428D02*
X148126819Y-123824952D01*
X148126819Y-123824952D02*
X148079200Y-123729714D01*
X148079200Y-123729714D02*
X148031580Y-123682095D01*
X148031580Y-123682095D02*
X147936342Y-123634476D01*
X147936342Y-123634476D02*
X147126819Y-123634476D01*
X148126819Y-122634476D02*
X148126819Y-123205904D01*
X148126819Y-122920190D02*
X147126819Y-122920190D01*
X147126819Y-122920190D02*
X147269676Y-123015428D01*
X147269676Y-123015428D02*
X147364914Y-123110666D01*
X147364914Y-123110666D02*
X147412533Y-123205904D01*
X84578200Y-165369332D02*
X84625819Y-165226475D01*
X84625819Y-165226475D02*
X84625819Y-164988380D01*
X84625819Y-164988380D02*
X84578200Y-164893142D01*
X84578200Y-164893142D02*
X84530580Y-164845523D01*
X84530580Y-164845523D02*
X84435342Y-164797904D01*
X84435342Y-164797904D02*
X84340104Y-164797904D01*
X84340104Y-164797904D02*
X84244866Y-164845523D01*
X84244866Y-164845523D02*
X84197247Y-164893142D01*
X84197247Y-164893142D02*
X84149628Y-164988380D01*
X84149628Y-164988380D02*
X84102009Y-165178856D01*
X84102009Y-165178856D02*
X84054390Y-165274094D01*
X84054390Y-165274094D02*
X84006771Y-165321713D01*
X84006771Y-165321713D02*
X83911533Y-165369332D01*
X83911533Y-165369332D02*
X83816295Y-165369332D01*
X83816295Y-165369332D02*
X83721057Y-165321713D01*
X83721057Y-165321713D02*
X83673438Y-165274094D01*
X83673438Y-165274094D02*
X83625819Y-165178856D01*
X83625819Y-165178856D02*
X83625819Y-164940761D01*
X83625819Y-164940761D02*
X83673438Y-164797904D01*
X83625819Y-164464570D02*
X84625819Y-164226475D01*
X84625819Y-164226475D02*
X83911533Y-164035999D01*
X83911533Y-164035999D02*
X84625819Y-163845523D01*
X84625819Y-163845523D02*
X83625819Y-163607428D01*
X84625819Y-162702666D02*
X84625819Y-163274094D01*
X84625819Y-162988380D02*
X83625819Y-162988380D01*
X83625819Y-162988380D02*
X83768676Y-163083618D01*
X83768676Y-163083618D02*
X83863914Y-163178856D01*
X83863914Y-163178856D02*
X83911533Y-163274094D01*
X140916819Y-182205238D02*
X140440628Y-182538571D01*
X140916819Y-182776666D02*
X139916819Y-182776666D01*
X139916819Y-182776666D02*
X139916819Y-182395714D01*
X139916819Y-182395714D02*
X139964438Y-182300476D01*
X139964438Y-182300476D02*
X140012057Y-182252857D01*
X140012057Y-182252857D02*
X140107295Y-182205238D01*
X140107295Y-182205238D02*
X140250152Y-182205238D01*
X140250152Y-182205238D02*
X140345390Y-182252857D01*
X140345390Y-182252857D02*
X140393009Y-182300476D01*
X140393009Y-182300476D02*
X140440628Y-182395714D01*
X140440628Y-182395714D02*
X140440628Y-182776666D01*
X139916819Y-181919523D02*
X140916819Y-181586190D01*
X140916819Y-181586190D02*
X139916819Y-181252857D01*
X139916819Y-180490952D02*
X139916819Y-180681428D01*
X139916819Y-180681428D02*
X139964438Y-180776666D01*
X139964438Y-180776666D02*
X140012057Y-180824285D01*
X140012057Y-180824285D02*
X140154914Y-180919523D01*
X140154914Y-180919523D02*
X140345390Y-180967142D01*
X140345390Y-180967142D02*
X140726342Y-180967142D01*
X140726342Y-180967142D02*
X140821580Y-180919523D01*
X140821580Y-180919523D02*
X140869200Y-180871904D01*
X140869200Y-180871904D02*
X140916819Y-180776666D01*
X140916819Y-180776666D02*
X140916819Y-180586190D01*
X140916819Y-180586190D02*
X140869200Y-180490952D01*
X140869200Y-180490952D02*
X140821580Y-180443333D01*
X140821580Y-180443333D02*
X140726342Y-180395714D01*
X140726342Y-180395714D02*
X140488247Y-180395714D01*
X140488247Y-180395714D02*
X140393009Y-180443333D01*
X140393009Y-180443333D02*
X140345390Y-180490952D01*
X140345390Y-180490952D02*
X140297771Y-180586190D01*
X140297771Y-180586190D02*
X140297771Y-180776666D01*
X140297771Y-180776666D02*
X140345390Y-180871904D01*
X140345390Y-180871904D02*
X140393009Y-180919523D01*
X140393009Y-180919523D02*
X140488247Y-180967142D01*
X79317761Y-159310819D02*
X78984428Y-158834628D01*
X78746333Y-159310819D02*
X78746333Y-158310819D01*
X78746333Y-158310819D02*
X79127285Y-158310819D01*
X79127285Y-158310819D02*
X79222523Y-158358438D01*
X79222523Y-158358438D02*
X79270142Y-158406057D01*
X79270142Y-158406057D02*
X79317761Y-158501295D01*
X79317761Y-158501295D02*
X79317761Y-158644152D01*
X79317761Y-158644152D02*
X79270142Y-158739390D01*
X79270142Y-158739390D02*
X79222523Y-158787009D01*
X79222523Y-158787009D02*
X79127285Y-158834628D01*
X79127285Y-158834628D02*
X78746333Y-158834628D01*
X79603476Y-158310819D02*
X79936809Y-159310819D01*
X79936809Y-159310819D02*
X80270142Y-158310819D01*
X81032047Y-158644152D02*
X81032047Y-159310819D01*
X80793952Y-158263200D02*
X80555857Y-158977485D01*
X80555857Y-158977485D02*
X81174904Y-158977485D01*
X163174819Y-146645238D02*
X162698628Y-146978571D01*
X163174819Y-147216666D02*
X162174819Y-147216666D01*
X162174819Y-147216666D02*
X162174819Y-146835714D01*
X162174819Y-146835714D02*
X162222438Y-146740476D01*
X162222438Y-146740476D02*
X162270057Y-146692857D01*
X162270057Y-146692857D02*
X162365295Y-146645238D01*
X162365295Y-146645238D02*
X162508152Y-146645238D01*
X162508152Y-146645238D02*
X162603390Y-146692857D01*
X162603390Y-146692857D02*
X162651009Y-146740476D01*
X162651009Y-146740476D02*
X162698628Y-146835714D01*
X162698628Y-146835714D02*
X162698628Y-147216666D01*
X162174819Y-146359523D02*
X163174819Y-146026190D01*
X163174819Y-146026190D02*
X162174819Y-145692857D01*
X162174819Y-145454761D02*
X162174819Y-144835714D01*
X162174819Y-144835714D02*
X162555771Y-145169047D01*
X162555771Y-145169047D02*
X162555771Y-145026190D01*
X162555771Y-145026190D02*
X162603390Y-144930952D01*
X162603390Y-144930952D02*
X162651009Y-144883333D01*
X162651009Y-144883333D02*
X162746247Y-144835714D01*
X162746247Y-144835714D02*
X162984342Y-144835714D01*
X162984342Y-144835714D02*
X163079580Y-144883333D01*
X163079580Y-144883333D02*
X163127200Y-144930952D01*
X163127200Y-144930952D02*
X163174819Y-145026190D01*
X163174819Y-145026190D02*
X163174819Y-145311904D01*
X163174819Y-145311904D02*
X163127200Y-145407142D01*
X163127200Y-145407142D02*
X163079580Y-145454761D01*
X125422819Y-135469238D02*
X124946628Y-135802571D01*
X125422819Y-136040666D02*
X124422819Y-136040666D01*
X124422819Y-136040666D02*
X124422819Y-135659714D01*
X124422819Y-135659714D02*
X124470438Y-135564476D01*
X124470438Y-135564476D02*
X124518057Y-135516857D01*
X124518057Y-135516857D02*
X124613295Y-135469238D01*
X124613295Y-135469238D02*
X124756152Y-135469238D01*
X124756152Y-135469238D02*
X124851390Y-135516857D01*
X124851390Y-135516857D02*
X124899009Y-135564476D01*
X124899009Y-135564476D02*
X124946628Y-135659714D01*
X124946628Y-135659714D02*
X124946628Y-136040666D01*
X124422819Y-135183523D02*
X125422819Y-134850190D01*
X125422819Y-134850190D02*
X124422819Y-134516857D01*
X124518057Y-134231142D02*
X124470438Y-134183523D01*
X124470438Y-134183523D02*
X124422819Y-134088285D01*
X124422819Y-134088285D02*
X124422819Y-133850190D01*
X124422819Y-133850190D02*
X124470438Y-133754952D01*
X124470438Y-133754952D02*
X124518057Y-133707333D01*
X124518057Y-133707333D02*
X124613295Y-133659714D01*
X124613295Y-133659714D02*
X124708533Y-133659714D01*
X124708533Y-133659714D02*
X124851390Y-133707333D01*
X124851390Y-133707333D02*
X125422819Y-134278761D01*
X125422819Y-134278761D02*
X125422819Y-133659714D01*
X147106819Y-135469238D02*
X146630628Y-135802571D01*
X147106819Y-136040666D02*
X146106819Y-136040666D01*
X146106819Y-136040666D02*
X146106819Y-135659714D01*
X146106819Y-135659714D02*
X146154438Y-135564476D01*
X146154438Y-135564476D02*
X146202057Y-135516857D01*
X146202057Y-135516857D02*
X146297295Y-135469238D01*
X146297295Y-135469238D02*
X146440152Y-135469238D01*
X146440152Y-135469238D02*
X146535390Y-135516857D01*
X146535390Y-135516857D02*
X146583009Y-135564476D01*
X146583009Y-135564476D02*
X146630628Y-135659714D01*
X146630628Y-135659714D02*
X146630628Y-136040666D01*
X146106819Y-135183523D02*
X147106819Y-134850190D01*
X147106819Y-134850190D02*
X146106819Y-134516857D01*
X147106819Y-133659714D02*
X147106819Y-134231142D01*
X147106819Y-133945428D02*
X146106819Y-133945428D01*
X146106819Y-133945428D02*
X146249676Y-134040666D01*
X146249676Y-134040666D02*
X146344914Y-134135904D01*
X146344914Y-134135904D02*
X146392533Y-134231142D01*
X92067142Y-181176819D02*
X91733809Y-180700628D01*
X91495714Y-181176819D02*
X91495714Y-180176819D01*
X91495714Y-180176819D02*
X91876666Y-180176819D01*
X91876666Y-180176819D02*
X91971904Y-180224438D01*
X91971904Y-180224438D02*
X92019523Y-180272057D01*
X92019523Y-180272057D02*
X92067142Y-180367295D01*
X92067142Y-180367295D02*
X92067142Y-180510152D01*
X92067142Y-180510152D02*
X92019523Y-180605390D01*
X92019523Y-180605390D02*
X91971904Y-180653009D01*
X91971904Y-180653009D02*
X91876666Y-180700628D01*
X91876666Y-180700628D02*
X91495714Y-180700628D01*
X92448095Y-180272057D02*
X92495714Y-180224438D01*
X92495714Y-180224438D02*
X92590952Y-180176819D01*
X92590952Y-180176819D02*
X92829047Y-180176819D01*
X92829047Y-180176819D02*
X92924285Y-180224438D01*
X92924285Y-180224438D02*
X92971904Y-180272057D01*
X92971904Y-180272057D02*
X93019523Y-180367295D01*
X93019523Y-180367295D02*
X93019523Y-180462533D01*
X93019523Y-180462533D02*
X92971904Y-180605390D01*
X92971904Y-180605390D02*
X92400476Y-181176819D01*
X92400476Y-181176819D02*
X93019523Y-181176819D01*
X93876666Y-180176819D02*
X93686190Y-180176819D01*
X93686190Y-180176819D02*
X93590952Y-180224438D01*
X93590952Y-180224438D02*
X93543333Y-180272057D01*
X93543333Y-180272057D02*
X93448095Y-180414914D01*
X93448095Y-180414914D02*
X93400476Y-180605390D01*
X93400476Y-180605390D02*
X93400476Y-180986342D01*
X93400476Y-180986342D02*
X93448095Y-181081580D01*
X93448095Y-181081580D02*
X93495714Y-181129200D01*
X93495714Y-181129200D02*
X93590952Y-181176819D01*
X93590952Y-181176819D02*
X93781428Y-181176819D01*
X93781428Y-181176819D02*
X93876666Y-181129200D01*
X93876666Y-181129200D02*
X93924285Y-181081580D01*
X93924285Y-181081580D02*
X93971904Y-180986342D01*
X93971904Y-180986342D02*
X93971904Y-180748247D01*
X93971904Y-180748247D02*
X93924285Y-180653009D01*
X93924285Y-180653009D02*
X93876666Y-180605390D01*
X93876666Y-180605390D02*
X93781428Y-180557771D01*
X93781428Y-180557771D02*
X93590952Y-180557771D01*
X93590952Y-180557771D02*
X93495714Y-180605390D01*
X93495714Y-180605390D02*
X93448095Y-180653009D01*
X93448095Y-180653009D02*
X93400476Y-180748247D01*
X87749142Y-181176819D02*
X87415809Y-180700628D01*
X87177714Y-181176819D02*
X87177714Y-180176819D01*
X87177714Y-180176819D02*
X87558666Y-180176819D01*
X87558666Y-180176819D02*
X87653904Y-180224438D01*
X87653904Y-180224438D02*
X87701523Y-180272057D01*
X87701523Y-180272057D02*
X87749142Y-180367295D01*
X87749142Y-180367295D02*
X87749142Y-180510152D01*
X87749142Y-180510152D02*
X87701523Y-180605390D01*
X87701523Y-180605390D02*
X87653904Y-180653009D01*
X87653904Y-180653009D02*
X87558666Y-180700628D01*
X87558666Y-180700628D02*
X87177714Y-180700628D01*
X88130095Y-180272057D02*
X88177714Y-180224438D01*
X88177714Y-180224438D02*
X88272952Y-180176819D01*
X88272952Y-180176819D02*
X88511047Y-180176819D01*
X88511047Y-180176819D02*
X88606285Y-180224438D01*
X88606285Y-180224438D02*
X88653904Y-180272057D01*
X88653904Y-180272057D02*
X88701523Y-180367295D01*
X88701523Y-180367295D02*
X88701523Y-180462533D01*
X88701523Y-180462533D02*
X88653904Y-180605390D01*
X88653904Y-180605390D02*
X88082476Y-181176819D01*
X88082476Y-181176819D02*
X88701523Y-181176819D01*
X89606285Y-180176819D02*
X89130095Y-180176819D01*
X89130095Y-180176819D02*
X89082476Y-180653009D01*
X89082476Y-180653009D02*
X89130095Y-180605390D01*
X89130095Y-180605390D02*
X89225333Y-180557771D01*
X89225333Y-180557771D02*
X89463428Y-180557771D01*
X89463428Y-180557771D02*
X89558666Y-180605390D01*
X89558666Y-180605390D02*
X89606285Y-180653009D01*
X89606285Y-180653009D02*
X89653904Y-180748247D01*
X89653904Y-180748247D02*
X89653904Y-180986342D01*
X89653904Y-180986342D02*
X89606285Y-181081580D01*
X89606285Y-181081580D02*
X89558666Y-181129200D01*
X89558666Y-181129200D02*
X89463428Y-181176819D01*
X89463428Y-181176819D02*
X89225333Y-181176819D01*
X89225333Y-181176819D02*
X89130095Y-181129200D01*
X89130095Y-181129200D02*
X89082476Y-181081580D01*
X83685142Y-179144819D02*
X83351809Y-178668628D01*
X83113714Y-179144819D02*
X83113714Y-178144819D01*
X83113714Y-178144819D02*
X83494666Y-178144819D01*
X83494666Y-178144819D02*
X83589904Y-178192438D01*
X83589904Y-178192438D02*
X83637523Y-178240057D01*
X83637523Y-178240057D02*
X83685142Y-178335295D01*
X83685142Y-178335295D02*
X83685142Y-178478152D01*
X83685142Y-178478152D02*
X83637523Y-178573390D01*
X83637523Y-178573390D02*
X83589904Y-178621009D01*
X83589904Y-178621009D02*
X83494666Y-178668628D01*
X83494666Y-178668628D02*
X83113714Y-178668628D01*
X84066095Y-178240057D02*
X84113714Y-178192438D01*
X84113714Y-178192438D02*
X84208952Y-178144819D01*
X84208952Y-178144819D02*
X84447047Y-178144819D01*
X84447047Y-178144819D02*
X84542285Y-178192438D01*
X84542285Y-178192438D02*
X84589904Y-178240057D01*
X84589904Y-178240057D02*
X84637523Y-178335295D01*
X84637523Y-178335295D02*
X84637523Y-178430533D01*
X84637523Y-178430533D02*
X84589904Y-178573390D01*
X84589904Y-178573390D02*
X84018476Y-179144819D01*
X84018476Y-179144819D02*
X84637523Y-179144819D01*
X85494666Y-178478152D02*
X85494666Y-179144819D01*
X85256571Y-178097200D02*
X85018476Y-178811485D01*
X85018476Y-178811485D02*
X85637523Y-178811485D01*
X84077819Y-158328857D02*
X83601628Y-158662190D01*
X84077819Y-158900285D02*
X83077819Y-158900285D01*
X83077819Y-158900285D02*
X83077819Y-158519333D01*
X83077819Y-158519333D02*
X83125438Y-158424095D01*
X83125438Y-158424095D02*
X83173057Y-158376476D01*
X83173057Y-158376476D02*
X83268295Y-158328857D01*
X83268295Y-158328857D02*
X83411152Y-158328857D01*
X83411152Y-158328857D02*
X83506390Y-158376476D01*
X83506390Y-158376476D02*
X83554009Y-158424095D01*
X83554009Y-158424095D02*
X83601628Y-158519333D01*
X83601628Y-158519333D02*
X83601628Y-158900285D01*
X83173057Y-157947904D02*
X83125438Y-157900285D01*
X83125438Y-157900285D02*
X83077819Y-157805047D01*
X83077819Y-157805047D02*
X83077819Y-157566952D01*
X83077819Y-157566952D02*
X83125438Y-157471714D01*
X83125438Y-157471714D02*
X83173057Y-157424095D01*
X83173057Y-157424095D02*
X83268295Y-157376476D01*
X83268295Y-157376476D02*
X83363533Y-157376476D01*
X83363533Y-157376476D02*
X83506390Y-157424095D01*
X83506390Y-157424095D02*
X84077819Y-157995523D01*
X84077819Y-157995523D02*
X84077819Y-157376476D01*
X83173057Y-156995523D02*
X83125438Y-156947904D01*
X83125438Y-156947904D02*
X83077819Y-156852666D01*
X83077819Y-156852666D02*
X83077819Y-156614571D01*
X83077819Y-156614571D02*
X83125438Y-156519333D01*
X83125438Y-156519333D02*
X83173057Y-156471714D01*
X83173057Y-156471714D02*
X83268295Y-156424095D01*
X83268295Y-156424095D02*
X83363533Y-156424095D01*
X83363533Y-156424095D02*
X83506390Y-156471714D01*
X83506390Y-156471714D02*
X84077819Y-157043142D01*
X84077819Y-157043142D02*
X84077819Y-156424095D01*
X112068142Y-169077819D02*
X111734809Y-168601628D01*
X111496714Y-169077819D02*
X111496714Y-168077819D01*
X111496714Y-168077819D02*
X111877666Y-168077819D01*
X111877666Y-168077819D02*
X111972904Y-168125438D01*
X111972904Y-168125438D02*
X112020523Y-168173057D01*
X112020523Y-168173057D02*
X112068142Y-168268295D01*
X112068142Y-168268295D02*
X112068142Y-168411152D01*
X112068142Y-168411152D02*
X112020523Y-168506390D01*
X112020523Y-168506390D02*
X111972904Y-168554009D01*
X111972904Y-168554009D02*
X111877666Y-168601628D01*
X111877666Y-168601628D02*
X111496714Y-168601628D01*
X113020523Y-169077819D02*
X112449095Y-169077819D01*
X112734809Y-169077819D02*
X112734809Y-168077819D01*
X112734809Y-168077819D02*
X112639571Y-168220676D01*
X112639571Y-168220676D02*
X112544333Y-168315914D01*
X112544333Y-168315914D02*
X112449095Y-168363533D01*
X113353857Y-168077819D02*
X114020523Y-168077819D01*
X114020523Y-168077819D02*
X113591952Y-169077819D01*
X115357819Y-166123857D02*
X114881628Y-166457190D01*
X115357819Y-166695285D02*
X114357819Y-166695285D01*
X114357819Y-166695285D02*
X114357819Y-166314333D01*
X114357819Y-166314333D02*
X114405438Y-166219095D01*
X114405438Y-166219095D02*
X114453057Y-166171476D01*
X114453057Y-166171476D02*
X114548295Y-166123857D01*
X114548295Y-166123857D02*
X114691152Y-166123857D01*
X114691152Y-166123857D02*
X114786390Y-166171476D01*
X114786390Y-166171476D02*
X114834009Y-166219095D01*
X114834009Y-166219095D02*
X114881628Y-166314333D01*
X114881628Y-166314333D02*
X114881628Y-166695285D01*
X115357819Y-165171476D02*
X115357819Y-165742904D01*
X115357819Y-165457190D02*
X114357819Y-165457190D01*
X114357819Y-165457190D02*
X114500676Y-165552428D01*
X114500676Y-165552428D02*
X114595914Y-165647666D01*
X114595914Y-165647666D02*
X114643533Y-165742904D01*
X114357819Y-164314333D02*
X114357819Y-164504809D01*
X114357819Y-164504809D02*
X114405438Y-164600047D01*
X114405438Y-164600047D02*
X114453057Y-164647666D01*
X114453057Y-164647666D02*
X114595914Y-164742904D01*
X114595914Y-164742904D02*
X114786390Y-164790523D01*
X114786390Y-164790523D02*
X115167342Y-164790523D01*
X115167342Y-164790523D02*
X115262580Y-164742904D01*
X115262580Y-164742904D02*
X115310200Y-164695285D01*
X115310200Y-164695285D02*
X115357819Y-164600047D01*
X115357819Y-164600047D02*
X115357819Y-164409571D01*
X115357819Y-164409571D02*
X115310200Y-164314333D01*
X115310200Y-164314333D02*
X115262580Y-164266714D01*
X115262580Y-164266714D02*
X115167342Y-164219095D01*
X115167342Y-164219095D02*
X114929247Y-164219095D01*
X114929247Y-164219095D02*
X114834009Y-164266714D01*
X114834009Y-164266714D02*
X114786390Y-164314333D01*
X114786390Y-164314333D02*
X114738771Y-164409571D01*
X114738771Y-164409571D02*
X114738771Y-164600047D01*
X114738771Y-164600047D02*
X114786390Y-164695285D01*
X114786390Y-164695285D02*
X114834009Y-164742904D01*
X114834009Y-164742904D02*
X114929247Y-164790523D01*
X112751819Y-173743857D02*
X112275628Y-174077190D01*
X112751819Y-174315285D02*
X111751819Y-174315285D01*
X111751819Y-174315285D02*
X111751819Y-173934333D01*
X111751819Y-173934333D02*
X111799438Y-173839095D01*
X111799438Y-173839095D02*
X111847057Y-173791476D01*
X111847057Y-173791476D02*
X111942295Y-173743857D01*
X111942295Y-173743857D02*
X112085152Y-173743857D01*
X112085152Y-173743857D02*
X112180390Y-173791476D01*
X112180390Y-173791476D02*
X112228009Y-173839095D01*
X112228009Y-173839095D02*
X112275628Y-173934333D01*
X112275628Y-173934333D02*
X112275628Y-174315285D01*
X112751819Y-172791476D02*
X112751819Y-173362904D01*
X112751819Y-173077190D02*
X111751819Y-173077190D01*
X111751819Y-173077190D02*
X111894676Y-173172428D01*
X111894676Y-173172428D02*
X111989914Y-173267666D01*
X111989914Y-173267666D02*
X112037533Y-173362904D01*
X111751819Y-171886714D02*
X111751819Y-172362904D01*
X111751819Y-172362904D02*
X112228009Y-172410523D01*
X112228009Y-172410523D02*
X112180390Y-172362904D01*
X112180390Y-172362904D02*
X112132771Y-172267666D01*
X112132771Y-172267666D02*
X112132771Y-172029571D01*
X112132771Y-172029571D02*
X112180390Y-171934333D01*
X112180390Y-171934333D02*
X112228009Y-171886714D01*
X112228009Y-171886714D02*
X112323247Y-171839095D01*
X112323247Y-171839095D02*
X112561342Y-171839095D01*
X112561342Y-171839095D02*
X112656580Y-171886714D01*
X112656580Y-171886714D02*
X112704200Y-171934333D01*
X112704200Y-171934333D02*
X112751819Y-172029571D01*
X112751819Y-172029571D02*
X112751819Y-172267666D01*
X112751819Y-172267666D02*
X112704200Y-172362904D01*
X112704200Y-172362904D02*
X112656580Y-172410523D01*
X116195142Y-170159819D02*
X115861809Y-169683628D01*
X115623714Y-170159819D02*
X115623714Y-169159819D01*
X115623714Y-169159819D02*
X116004666Y-169159819D01*
X116004666Y-169159819D02*
X116099904Y-169207438D01*
X116099904Y-169207438D02*
X116147523Y-169255057D01*
X116147523Y-169255057D02*
X116195142Y-169350295D01*
X116195142Y-169350295D02*
X116195142Y-169493152D01*
X116195142Y-169493152D02*
X116147523Y-169588390D01*
X116147523Y-169588390D02*
X116099904Y-169636009D01*
X116099904Y-169636009D02*
X116004666Y-169683628D01*
X116004666Y-169683628D02*
X115623714Y-169683628D01*
X117147523Y-170159819D02*
X116576095Y-170159819D01*
X116861809Y-170159819D02*
X116861809Y-169159819D01*
X116861809Y-169159819D02*
X116766571Y-169302676D01*
X116766571Y-169302676D02*
X116671333Y-169397914D01*
X116671333Y-169397914D02*
X116576095Y-169445533D01*
X118004666Y-169493152D02*
X118004666Y-170159819D01*
X117766571Y-169112200D02*
X117528476Y-169826485D01*
X117528476Y-169826485D02*
X118147523Y-169826485D01*
X143375142Y-131104819D02*
X143041809Y-130628628D01*
X142803714Y-131104819D02*
X142803714Y-130104819D01*
X142803714Y-130104819D02*
X143184666Y-130104819D01*
X143184666Y-130104819D02*
X143279904Y-130152438D01*
X143279904Y-130152438D02*
X143327523Y-130200057D01*
X143327523Y-130200057D02*
X143375142Y-130295295D01*
X143375142Y-130295295D02*
X143375142Y-130438152D01*
X143375142Y-130438152D02*
X143327523Y-130533390D01*
X143327523Y-130533390D02*
X143279904Y-130581009D01*
X143279904Y-130581009D02*
X143184666Y-130628628D01*
X143184666Y-130628628D02*
X142803714Y-130628628D01*
X144327523Y-131104819D02*
X143756095Y-131104819D01*
X144041809Y-131104819D02*
X144041809Y-130104819D01*
X144041809Y-130104819D02*
X143946571Y-130247676D01*
X143946571Y-130247676D02*
X143851333Y-130342914D01*
X143851333Y-130342914D02*
X143756095Y-130390533D01*
X144660857Y-130104819D02*
X145279904Y-130104819D01*
X145279904Y-130104819D02*
X144946571Y-130485771D01*
X144946571Y-130485771D02*
X145089428Y-130485771D01*
X145089428Y-130485771D02*
X145184666Y-130533390D01*
X145184666Y-130533390D02*
X145232285Y-130581009D01*
X145232285Y-130581009D02*
X145279904Y-130676247D01*
X145279904Y-130676247D02*
X145279904Y-130914342D01*
X145279904Y-130914342D02*
X145232285Y-131009580D01*
X145232285Y-131009580D02*
X145184666Y-131057200D01*
X145184666Y-131057200D02*
X145089428Y-131104819D01*
X145089428Y-131104819D02*
X144803714Y-131104819D01*
X144803714Y-131104819D02*
X144708476Y-131057200D01*
X144708476Y-131057200D02*
X144660857Y-131009580D01*
X144058819Y-135516857D02*
X143582628Y-135850190D01*
X144058819Y-136088285D02*
X143058819Y-136088285D01*
X143058819Y-136088285D02*
X143058819Y-135707333D01*
X143058819Y-135707333D02*
X143106438Y-135612095D01*
X143106438Y-135612095D02*
X143154057Y-135564476D01*
X143154057Y-135564476D02*
X143249295Y-135516857D01*
X143249295Y-135516857D02*
X143392152Y-135516857D01*
X143392152Y-135516857D02*
X143487390Y-135564476D01*
X143487390Y-135564476D02*
X143535009Y-135612095D01*
X143535009Y-135612095D02*
X143582628Y-135707333D01*
X143582628Y-135707333D02*
X143582628Y-136088285D01*
X144058819Y-134564476D02*
X144058819Y-135135904D01*
X144058819Y-134850190D02*
X143058819Y-134850190D01*
X143058819Y-134850190D02*
X143201676Y-134945428D01*
X143201676Y-134945428D02*
X143296914Y-135040666D01*
X143296914Y-135040666D02*
X143344533Y-135135904D01*
X143154057Y-134183523D02*
X143106438Y-134135904D01*
X143106438Y-134135904D02*
X143058819Y-134040666D01*
X143058819Y-134040666D02*
X143058819Y-133802571D01*
X143058819Y-133802571D02*
X143106438Y-133707333D01*
X143106438Y-133707333D02*
X143154057Y-133659714D01*
X143154057Y-133659714D02*
X143249295Y-133612095D01*
X143249295Y-133612095D02*
X143344533Y-133612095D01*
X143344533Y-133612095D02*
X143487390Y-133659714D01*
X143487390Y-133659714D02*
X144058819Y-134231142D01*
X144058819Y-134231142D02*
X144058819Y-133612095D01*
X113259819Y-137916857D02*
X112783628Y-138250190D01*
X113259819Y-138488285D02*
X112259819Y-138488285D01*
X112259819Y-138488285D02*
X112259819Y-138107333D01*
X112259819Y-138107333D02*
X112307438Y-138012095D01*
X112307438Y-138012095D02*
X112355057Y-137964476D01*
X112355057Y-137964476D02*
X112450295Y-137916857D01*
X112450295Y-137916857D02*
X112593152Y-137916857D01*
X112593152Y-137916857D02*
X112688390Y-137964476D01*
X112688390Y-137964476D02*
X112736009Y-138012095D01*
X112736009Y-138012095D02*
X112783628Y-138107333D01*
X112783628Y-138107333D02*
X112783628Y-138488285D01*
X113259819Y-136964476D02*
X113259819Y-137535904D01*
X113259819Y-137250190D02*
X112259819Y-137250190D01*
X112259819Y-137250190D02*
X112402676Y-137345428D01*
X112402676Y-137345428D02*
X112497914Y-137440666D01*
X112497914Y-137440666D02*
X112545533Y-137535904D01*
X113259819Y-136012095D02*
X113259819Y-136583523D01*
X113259819Y-136297809D02*
X112259819Y-136297809D01*
X112259819Y-136297809D02*
X112402676Y-136393047D01*
X112402676Y-136393047D02*
X112497914Y-136488285D01*
X112497914Y-136488285D02*
X112545533Y-136583523D01*
X117593142Y-131980819D02*
X117259809Y-131504628D01*
X117021714Y-131980819D02*
X117021714Y-130980819D01*
X117021714Y-130980819D02*
X117402666Y-130980819D01*
X117402666Y-130980819D02*
X117497904Y-131028438D01*
X117497904Y-131028438D02*
X117545523Y-131076057D01*
X117545523Y-131076057D02*
X117593142Y-131171295D01*
X117593142Y-131171295D02*
X117593142Y-131314152D01*
X117593142Y-131314152D02*
X117545523Y-131409390D01*
X117545523Y-131409390D02*
X117497904Y-131457009D01*
X117497904Y-131457009D02*
X117402666Y-131504628D01*
X117402666Y-131504628D02*
X117021714Y-131504628D01*
X118545523Y-131980819D02*
X117974095Y-131980819D01*
X118259809Y-131980819D02*
X118259809Y-130980819D01*
X118259809Y-130980819D02*
X118164571Y-131123676D01*
X118164571Y-131123676D02*
X118069333Y-131218914D01*
X118069333Y-131218914D02*
X117974095Y-131266533D01*
X119164571Y-130980819D02*
X119259809Y-130980819D01*
X119259809Y-130980819D02*
X119355047Y-131028438D01*
X119355047Y-131028438D02*
X119402666Y-131076057D01*
X119402666Y-131076057D02*
X119450285Y-131171295D01*
X119450285Y-131171295D02*
X119497904Y-131361771D01*
X119497904Y-131361771D02*
X119497904Y-131599866D01*
X119497904Y-131599866D02*
X119450285Y-131790342D01*
X119450285Y-131790342D02*
X119402666Y-131885580D01*
X119402666Y-131885580D02*
X119355047Y-131933200D01*
X119355047Y-131933200D02*
X119259809Y-131980819D01*
X119259809Y-131980819D02*
X119164571Y-131980819D01*
X119164571Y-131980819D02*
X119069333Y-131933200D01*
X119069333Y-131933200D02*
X119021714Y-131885580D01*
X119021714Y-131885580D02*
X118974095Y-131790342D01*
X118974095Y-131790342D02*
X118926476Y-131599866D01*
X118926476Y-131599866D02*
X118926476Y-131361771D01*
X118926476Y-131361771D02*
X118974095Y-131171295D01*
X118974095Y-131171295D02*
X119021714Y-131076057D01*
X119021714Y-131076057D02*
X119069333Y-131028438D01*
X119069333Y-131028438D02*
X119164571Y-130980819D01*
X114068333Y-133250819D02*
X113735000Y-132774628D01*
X113496905Y-133250819D02*
X113496905Y-132250819D01*
X113496905Y-132250819D02*
X113877857Y-132250819D01*
X113877857Y-132250819D02*
X113973095Y-132298438D01*
X113973095Y-132298438D02*
X114020714Y-132346057D01*
X114020714Y-132346057D02*
X114068333Y-132441295D01*
X114068333Y-132441295D02*
X114068333Y-132584152D01*
X114068333Y-132584152D02*
X114020714Y-132679390D01*
X114020714Y-132679390D02*
X113973095Y-132727009D01*
X113973095Y-132727009D02*
X113877857Y-132774628D01*
X113877857Y-132774628D02*
X113496905Y-132774628D01*
X114544524Y-133250819D02*
X114735000Y-133250819D01*
X114735000Y-133250819D02*
X114830238Y-133203200D01*
X114830238Y-133203200D02*
X114877857Y-133155580D01*
X114877857Y-133155580D02*
X114973095Y-133012723D01*
X114973095Y-133012723D02*
X115020714Y-132822247D01*
X115020714Y-132822247D02*
X115020714Y-132441295D01*
X115020714Y-132441295D02*
X114973095Y-132346057D01*
X114973095Y-132346057D02*
X114925476Y-132298438D01*
X114925476Y-132298438D02*
X114830238Y-132250819D01*
X114830238Y-132250819D02*
X114639762Y-132250819D01*
X114639762Y-132250819D02*
X114544524Y-132298438D01*
X114544524Y-132298438D02*
X114496905Y-132346057D01*
X114496905Y-132346057D02*
X114449286Y-132441295D01*
X114449286Y-132441295D02*
X114449286Y-132679390D01*
X114449286Y-132679390D02*
X114496905Y-132774628D01*
X114496905Y-132774628D02*
X114544524Y-132822247D01*
X114544524Y-132822247D02*
X114639762Y-132869866D01*
X114639762Y-132869866D02*
X114830238Y-132869866D01*
X114830238Y-132869866D02*
X114925476Y-132822247D01*
X114925476Y-132822247D02*
X114973095Y-132774628D01*
X114973095Y-132774628D02*
X115020714Y-132679390D01*
X116881819Y-130011666D02*
X116405628Y-130344999D01*
X116881819Y-130583094D02*
X115881819Y-130583094D01*
X115881819Y-130583094D02*
X115881819Y-130202142D01*
X115881819Y-130202142D02*
X115929438Y-130106904D01*
X115929438Y-130106904D02*
X115977057Y-130059285D01*
X115977057Y-130059285D02*
X116072295Y-130011666D01*
X116072295Y-130011666D02*
X116215152Y-130011666D01*
X116215152Y-130011666D02*
X116310390Y-130059285D01*
X116310390Y-130059285D02*
X116358009Y-130106904D01*
X116358009Y-130106904D02*
X116405628Y-130202142D01*
X116405628Y-130202142D02*
X116405628Y-130583094D01*
X116310390Y-129440237D02*
X116262771Y-129535475D01*
X116262771Y-129535475D02*
X116215152Y-129583094D01*
X116215152Y-129583094D02*
X116119914Y-129630713D01*
X116119914Y-129630713D02*
X116072295Y-129630713D01*
X116072295Y-129630713D02*
X115977057Y-129583094D01*
X115977057Y-129583094D02*
X115929438Y-129535475D01*
X115929438Y-129535475D02*
X115881819Y-129440237D01*
X115881819Y-129440237D02*
X115881819Y-129249761D01*
X115881819Y-129249761D02*
X115929438Y-129154523D01*
X115929438Y-129154523D02*
X115977057Y-129106904D01*
X115977057Y-129106904D02*
X116072295Y-129059285D01*
X116072295Y-129059285D02*
X116119914Y-129059285D01*
X116119914Y-129059285D02*
X116215152Y-129106904D01*
X116215152Y-129106904D02*
X116262771Y-129154523D01*
X116262771Y-129154523D02*
X116310390Y-129249761D01*
X116310390Y-129249761D02*
X116310390Y-129440237D01*
X116310390Y-129440237D02*
X116358009Y-129535475D01*
X116358009Y-129535475D02*
X116405628Y-129583094D01*
X116405628Y-129583094D02*
X116500866Y-129630713D01*
X116500866Y-129630713D02*
X116691342Y-129630713D01*
X116691342Y-129630713D02*
X116786580Y-129583094D01*
X116786580Y-129583094D02*
X116834200Y-129535475D01*
X116834200Y-129535475D02*
X116881819Y-129440237D01*
X116881819Y-129440237D02*
X116881819Y-129249761D01*
X116881819Y-129249761D02*
X116834200Y-129154523D01*
X116834200Y-129154523D02*
X116786580Y-129106904D01*
X116786580Y-129106904D02*
X116691342Y-129059285D01*
X116691342Y-129059285D02*
X116500866Y-129059285D01*
X116500866Y-129059285D02*
X116405628Y-129106904D01*
X116405628Y-129106904D02*
X116358009Y-129154523D01*
X116358009Y-129154523D02*
X116310390Y-129249761D01*
X88765333Y-129640819D02*
X88432000Y-129164628D01*
X88193905Y-129640819D02*
X88193905Y-128640819D01*
X88193905Y-128640819D02*
X88574857Y-128640819D01*
X88574857Y-128640819D02*
X88670095Y-128688438D01*
X88670095Y-128688438D02*
X88717714Y-128736057D01*
X88717714Y-128736057D02*
X88765333Y-128831295D01*
X88765333Y-128831295D02*
X88765333Y-128974152D01*
X88765333Y-128974152D02*
X88717714Y-129069390D01*
X88717714Y-129069390D02*
X88670095Y-129117009D01*
X88670095Y-129117009D02*
X88574857Y-129164628D01*
X88574857Y-129164628D02*
X88193905Y-129164628D01*
X89670095Y-128640819D02*
X89193905Y-128640819D01*
X89193905Y-128640819D02*
X89146286Y-129117009D01*
X89146286Y-129117009D02*
X89193905Y-129069390D01*
X89193905Y-129069390D02*
X89289143Y-129021771D01*
X89289143Y-129021771D02*
X89527238Y-129021771D01*
X89527238Y-129021771D02*
X89622476Y-129069390D01*
X89622476Y-129069390D02*
X89670095Y-129117009D01*
X89670095Y-129117009D02*
X89717714Y-129212247D01*
X89717714Y-129212247D02*
X89717714Y-129450342D01*
X89717714Y-129450342D02*
X89670095Y-129545580D01*
X89670095Y-129545580D02*
X89622476Y-129593200D01*
X89622476Y-129593200D02*
X89527238Y-129640819D01*
X89527238Y-129640819D02*
X89289143Y-129640819D01*
X89289143Y-129640819D02*
X89193905Y-129593200D01*
X89193905Y-129593200D02*
X89146286Y-129545580D01*
X145375333Y-116626819D02*
X145042000Y-116150628D01*
X144803905Y-116626819D02*
X144803905Y-115626819D01*
X144803905Y-115626819D02*
X145184857Y-115626819D01*
X145184857Y-115626819D02*
X145280095Y-115674438D01*
X145280095Y-115674438D02*
X145327714Y-115722057D01*
X145327714Y-115722057D02*
X145375333Y-115817295D01*
X145375333Y-115817295D02*
X145375333Y-115960152D01*
X145375333Y-115960152D02*
X145327714Y-116055390D01*
X145327714Y-116055390D02*
X145280095Y-116103009D01*
X145280095Y-116103009D02*
X145184857Y-116150628D01*
X145184857Y-116150628D02*
X144803905Y-116150628D01*
X146232476Y-115960152D02*
X146232476Y-116626819D01*
X145994381Y-115579200D02*
X145756286Y-116293485D01*
X145756286Y-116293485D02*
X146375333Y-116293485D01*
X141565333Y-116626819D02*
X141232000Y-116150628D01*
X140993905Y-116626819D02*
X140993905Y-115626819D01*
X140993905Y-115626819D02*
X141374857Y-115626819D01*
X141374857Y-115626819D02*
X141470095Y-115674438D01*
X141470095Y-115674438D02*
X141517714Y-115722057D01*
X141517714Y-115722057D02*
X141565333Y-115817295D01*
X141565333Y-115817295D02*
X141565333Y-115960152D01*
X141565333Y-115960152D02*
X141517714Y-116055390D01*
X141517714Y-116055390D02*
X141470095Y-116103009D01*
X141470095Y-116103009D02*
X141374857Y-116150628D01*
X141374857Y-116150628D02*
X140993905Y-116150628D01*
X141898667Y-115626819D02*
X142517714Y-115626819D01*
X142517714Y-115626819D02*
X142184381Y-116007771D01*
X142184381Y-116007771D02*
X142327238Y-116007771D01*
X142327238Y-116007771D02*
X142422476Y-116055390D01*
X142422476Y-116055390D02*
X142470095Y-116103009D01*
X142470095Y-116103009D02*
X142517714Y-116198247D01*
X142517714Y-116198247D02*
X142517714Y-116436342D01*
X142517714Y-116436342D02*
X142470095Y-116531580D01*
X142470095Y-116531580D02*
X142422476Y-116579200D01*
X142422476Y-116579200D02*
X142327238Y-116626819D01*
X142327238Y-116626819D02*
X142041524Y-116626819D01*
X142041524Y-116626819D02*
X141946286Y-116579200D01*
X141946286Y-116579200D02*
X141898667Y-116531580D01*
X82626819Y-143170666D02*
X82150628Y-143503999D01*
X82626819Y-143742094D02*
X81626819Y-143742094D01*
X81626819Y-143742094D02*
X81626819Y-143361142D01*
X81626819Y-143361142D02*
X81674438Y-143265904D01*
X81674438Y-143265904D02*
X81722057Y-143218285D01*
X81722057Y-143218285D02*
X81817295Y-143170666D01*
X81817295Y-143170666D02*
X81960152Y-143170666D01*
X81960152Y-143170666D02*
X82055390Y-143218285D01*
X82055390Y-143218285D02*
X82103009Y-143265904D01*
X82103009Y-143265904D02*
X82150628Y-143361142D01*
X82150628Y-143361142D02*
X82150628Y-143742094D01*
X81722057Y-142789713D02*
X81674438Y-142742094D01*
X81674438Y-142742094D02*
X81626819Y-142646856D01*
X81626819Y-142646856D02*
X81626819Y-142408761D01*
X81626819Y-142408761D02*
X81674438Y-142313523D01*
X81674438Y-142313523D02*
X81722057Y-142265904D01*
X81722057Y-142265904D02*
X81817295Y-142218285D01*
X81817295Y-142218285D02*
X81912533Y-142218285D01*
X81912533Y-142218285D02*
X82055390Y-142265904D01*
X82055390Y-142265904D02*
X82626819Y-142837332D01*
X82626819Y-142837332D02*
X82626819Y-142218285D01*
X85420819Y-143168666D02*
X84944628Y-143501999D01*
X85420819Y-143740094D02*
X84420819Y-143740094D01*
X84420819Y-143740094D02*
X84420819Y-143359142D01*
X84420819Y-143359142D02*
X84468438Y-143263904D01*
X84468438Y-143263904D02*
X84516057Y-143216285D01*
X84516057Y-143216285D02*
X84611295Y-143168666D01*
X84611295Y-143168666D02*
X84754152Y-143168666D01*
X84754152Y-143168666D02*
X84849390Y-143216285D01*
X84849390Y-143216285D02*
X84897009Y-143263904D01*
X84897009Y-143263904D02*
X84944628Y-143359142D01*
X84944628Y-143359142D02*
X84944628Y-143740094D01*
X85420819Y-142216285D02*
X85420819Y-142787713D01*
X85420819Y-142501999D02*
X84420819Y-142501999D01*
X84420819Y-142501999D02*
X84563676Y-142597237D01*
X84563676Y-142597237D02*
X84658914Y-142692475D01*
X84658914Y-142692475D02*
X84706533Y-142787713D01*
X183324819Y-147323523D02*
X182324819Y-147323523D01*
X182324819Y-147323523D02*
X183039104Y-146990190D01*
X183039104Y-146990190D02*
X182324819Y-146656857D01*
X182324819Y-146656857D02*
X183324819Y-146656857D01*
X183324819Y-145656857D02*
X183324819Y-146228285D01*
X183324819Y-145942571D02*
X182324819Y-145942571D01*
X182324819Y-145942571D02*
X182467676Y-146037809D01*
X182467676Y-146037809D02*
X182562914Y-146133047D01*
X182562914Y-146133047D02*
X182610533Y-146228285D01*
X163984700Y-141185428D02*
X163984700Y-140042571D01*
X164556128Y-140613999D02*
X163413271Y-140613999D01*
X163943866Y-153294951D02*
X163943866Y-152533047D01*
X82805819Y-188014333D02*
X83520104Y-188014333D01*
X83520104Y-188014333D02*
X83662961Y-188061952D01*
X83662961Y-188061952D02*
X83758200Y-188157190D01*
X83758200Y-188157190D02*
X83805819Y-188300047D01*
X83805819Y-188300047D02*
X83805819Y-188395285D01*
X82805819Y-187633380D02*
X82805819Y-187014333D01*
X82805819Y-187014333D02*
X83186771Y-187347666D01*
X83186771Y-187347666D02*
X83186771Y-187204809D01*
X83186771Y-187204809D02*
X83234390Y-187109571D01*
X83234390Y-187109571D02*
X83282009Y-187061952D01*
X83282009Y-187061952D02*
X83377247Y-187014333D01*
X83377247Y-187014333D02*
X83615342Y-187014333D01*
X83615342Y-187014333D02*
X83710580Y-187061952D01*
X83710580Y-187061952D02*
X83758200Y-187109571D01*
X83758200Y-187109571D02*
X83805819Y-187204809D01*
X83805819Y-187204809D02*
X83805819Y-187490523D01*
X83805819Y-187490523D02*
X83758200Y-187585761D01*
X83758200Y-187585761D02*
X83710580Y-187633380D01*
X123120666Y-175914519D02*
X123120666Y-176628804D01*
X123120666Y-176628804D02*
X123073047Y-176771661D01*
X123073047Y-176771661D02*
X122977809Y-176866900D01*
X122977809Y-176866900D02*
X122834952Y-176914519D01*
X122834952Y-176914519D02*
X122739714Y-176914519D01*
X123549238Y-176009757D02*
X123596857Y-175962138D01*
X123596857Y-175962138D02*
X123692095Y-175914519D01*
X123692095Y-175914519D02*
X123930190Y-175914519D01*
X123930190Y-175914519D02*
X124025428Y-175962138D01*
X124025428Y-175962138D02*
X124073047Y-176009757D01*
X124073047Y-176009757D02*
X124120666Y-176104995D01*
X124120666Y-176104995D02*
X124120666Y-176200233D01*
X124120666Y-176200233D02*
X124073047Y-176343090D01*
X124073047Y-176343090D02*
X123501619Y-176914519D01*
X123501619Y-176914519D02*
X124120666Y-176914519D01*
X153190666Y-196882819D02*
X153190666Y-197597104D01*
X153190666Y-197597104D02*
X153143047Y-197739961D01*
X153143047Y-197739961D02*
X153047809Y-197835200D01*
X153047809Y-197835200D02*
X152904952Y-197882819D01*
X152904952Y-197882819D02*
X152809714Y-197882819D01*
X154190666Y-197882819D02*
X153619238Y-197882819D01*
X153904952Y-197882819D02*
X153904952Y-196882819D01*
X153904952Y-196882819D02*
X153809714Y-197025676D01*
X153809714Y-197025676D02*
X153714476Y-197120914D01*
X153714476Y-197120914D02*
X153619238Y-197168533D01*
X159352571Y-178142700D02*
X160495429Y-178142700D01*
X147052571Y-178142700D02*
X148195429Y-178142700D01*
X147624000Y-178714128D02*
X147624000Y-177571271D01*
X79238095Y-181254819D02*
X79238095Y-180254819D01*
X79238095Y-180731009D02*
X79809523Y-180731009D01*
X79809523Y-181254819D02*
X79809523Y-180254819D01*
X80714285Y-180588152D02*
X80714285Y-181254819D01*
X80476190Y-180207200D02*
X80238095Y-180921485D01*
X80238095Y-180921485D02*
X80857142Y-180921485D01*
X79238095Y-116254819D02*
X79238095Y-115254819D01*
X79238095Y-115731009D02*
X79809523Y-115731009D01*
X79809523Y-116254819D02*
X79809523Y-115254819D01*
X80190476Y-115254819D02*
X80809523Y-115254819D01*
X80809523Y-115254819D02*
X80476190Y-115635771D01*
X80476190Y-115635771D02*
X80619047Y-115635771D01*
X80619047Y-115635771D02*
X80714285Y-115683390D01*
X80714285Y-115683390D02*
X80761904Y-115731009D01*
X80761904Y-115731009D02*
X80809523Y-115826247D01*
X80809523Y-115826247D02*
X80809523Y-116064342D01*
X80809523Y-116064342D02*
X80761904Y-116159580D01*
X80761904Y-116159580D02*
X80714285Y-116207200D01*
X80714285Y-116207200D02*
X80619047Y-116254819D01*
X80619047Y-116254819D02*
X80333333Y-116254819D01*
X80333333Y-116254819D02*
X80238095Y-116207200D01*
X80238095Y-116207200D02*
X80190476Y-116159580D01*
X169238095Y-181254819D02*
X169238095Y-180254819D01*
X169238095Y-180731009D02*
X169809523Y-180731009D01*
X169809523Y-181254819D02*
X169809523Y-180254819D01*
X170238095Y-180350057D02*
X170285714Y-180302438D01*
X170285714Y-180302438D02*
X170380952Y-180254819D01*
X170380952Y-180254819D02*
X170619047Y-180254819D01*
X170619047Y-180254819D02*
X170714285Y-180302438D01*
X170714285Y-180302438D02*
X170761904Y-180350057D01*
X170761904Y-180350057D02*
X170809523Y-180445295D01*
X170809523Y-180445295D02*
X170809523Y-180540533D01*
X170809523Y-180540533D02*
X170761904Y-180683390D01*
X170761904Y-180683390D02*
X170190476Y-181254819D01*
X170190476Y-181254819D02*
X170809523Y-181254819D01*
X169238095Y-116254819D02*
X169238095Y-115254819D01*
X169238095Y-115731009D02*
X169809523Y-115731009D01*
X169809523Y-116254819D02*
X169809523Y-115254819D01*
X170809523Y-116254819D02*
X170238095Y-116254819D01*
X170523809Y-116254819D02*
X170523809Y-115254819D01*
X170523809Y-115254819D02*
X170428571Y-115397676D01*
X170428571Y-115397676D02*
X170333333Y-115492914D01*
X170333333Y-115492914D02*
X170238095Y-115540533D01*
X148068819Y-168886094D02*
X147068819Y-168886094D01*
X147068819Y-168886094D02*
X147068819Y-168647999D01*
X147068819Y-168647999D02*
X147116438Y-168505142D01*
X147116438Y-168505142D02*
X147211676Y-168409904D01*
X147211676Y-168409904D02*
X147306914Y-168362285D01*
X147306914Y-168362285D02*
X147497390Y-168314666D01*
X147497390Y-168314666D02*
X147640247Y-168314666D01*
X147640247Y-168314666D02*
X147830723Y-168362285D01*
X147830723Y-168362285D02*
X147925961Y-168409904D01*
X147925961Y-168409904D02*
X148021200Y-168505142D01*
X148021200Y-168505142D02*
X148068819Y-168647999D01*
X148068819Y-168647999D02*
X148068819Y-168886094D01*
X148068819Y-167838475D02*
X148068819Y-167647999D01*
X148068819Y-167647999D02*
X148021200Y-167552761D01*
X148021200Y-167552761D02*
X147973580Y-167505142D01*
X147973580Y-167505142D02*
X147830723Y-167409904D01*
X147830723Y-167409904D02*
X147640247Y-167362285D01*
X147640247Y-167362285D02*
X147259295Y-167362285D01*
X147259295Y-167362285D02*
X147164057Y-167409904D01*
X147164057Y-167409904D02*
X147116438Y-167457523D01*
X147116438Y-167457523D02*
X147068819Y-167552761D01*
X147068819Y-167552761D02*
X147068819Y-167743237D01*
X147068819Y-167743237D02*
X147116438Y-167838475D01*
X147116438Y-167838475D02*
X147164057Y-167886094D01*
X147164057Y-167886094D02*
X147259295Y-167933713D01*
X147259295Y-167933713D02*
X147497390Y-167933713D01*
X147497390Y-167933713D02*
X147592628Y-167886094D01*
X147592628Y-167886094D02*
X147640247Y-167838475D01*
X147640247Y-167838475D02*
X147687866Y-167743237D01*
X147687866Y-167743237D02*
X147687866Y-167552761D01*
X147687866Y-167552761D02*
X147640247Y-167457523D01*
X147640247Y-167457523D02*
X147592628Y-167409904D01*
X147592628Y-167409904D02*
X147497390Y-167362285D01*
X77472819Y-174892094D02*
X76472819Y-174892094D01*
X76472819Y-174892094D02*
X76472819Y-174653999D01*
X76472819Y-174653999D02*
X76520438Y-174511142D01*
X76520438Y-174511142D02*
X76615676Y-174415904D01*
X76615676Y-174415904D02*
X76710914Y-174368285D01*
X76710914Y-174368285D02*
X76901390Y-174320666D01*
X76901390Y-174320666D02*
X77044247Y-174320666D01*
X77044247Y-174320666D02*
X77234723Y-174368285D01*
X77234723Y-174368285D02*
X77329961Y-174415904D01*
X77329961Y-174415904D02*
X77425200Y-174511142D01*
X77425200Y-174511142D02*
X77472819Y-174653999D01*
X77472819Y-174653999D02*
X77472819Y-174892094D01*
X76901390Y-173749237D02*
X76853771Y-173844475D01*
X76853771Y-173844475D02*
X76806152Y-173892094D01*
X76806152Y-173892094D02*
X76710914Y-173939713D01*
X76710914Y-173939713D02*
X76663295Y-173939713D01*
X76663295Y-173939713D02*
X76568057Y-173892094D01*
X76568057Y-173892094D02*
X76520438Y-173844475D01*
X76520438Y-173844475D02*
X76472819Y-173749237D01*
X76472819Y-173749237D02*
X76472819Y-173558761D01*
X76472819Y-173558761D02*
X76520438Y-173463523D01*
X76520438Y-173463523D02*
X76568057Y-173415904D01*
X76568057Y-173415904D02*
X76663295Y-173368285D01*
X76663295Y-173368285D02*
X76710914Y-173368285D01*
X76710914Y-173368285D02*
X76806152Y-173415904D01*
X76806152Y-173415904D02*
X76853771Y-173463523D01*
X76853771Y-173463523D02*
X76901390Y-173558761D01*
X76901390Y-173558761D02*
X76901390Y-173749237D01*
X76901390Y-173749237D02*
X76949009Y-173844475D01*
X76949009Y-173844475D02*
X76996628Y-173892094D01*
X76996628Y-173892094D02*
X77091866Y-173939713D01*
X77091866Y-173939713D02*
X77282342Y-173939713D01*
X77282342Y-173939713D02*
X77377580Y-173892094D01*
X77377580Y-173892094D02*
X77425200Y-173844475D01*
X77425200Y-173844475D02*
X77472819Y-173749237D01*
X77472819Y-173749237D02*
X77472819Y-173558761D01*
X77472819Y-173558761D02*
X77425200Y-173463523D01*
X77425200Y-173463523D02*
X77377580Y-173415904D01*
X77377580Y-173415904D02*
X77282342Y-173368285D01*
X77282342Y-173368285D02*
X77091866Y-173368285D01*
X77091866Y-173368285D02*
X76996628Y-173415904D01*
X76996628Y-173415904D02*
X76949009Y-173463523D01*
X76949009Y-173463523D02*
X76901390Y-173558761D01*
X79372819Y-178018285D02*
X79372819Y-178589713D01*
X79372819Y-178303999D02*
X78372819Y-178303999D01*
X78372819Y-178303999D02*
X78515676Y-178399237D01*
X78515676Y-178399237D02*
X78610914Y-178494475D01*
X78610914Y-178494475D02*
X78658533Y-178589713D01*
X84838819Y-174892094D02*
X83838819Y-174892094D01*
X83838819Y-174892094D02*
X83838819Y-174653999D01*
X83838819Y-174653999D02*
X83886438Y-174511142D01*
X83886438Y-174511142D02*
X83981676Y-174415904D01*
X83981676Y-174415904D02*
X84076914Y-174368285D01*
X84076914Y-174368285D02*
X84267390Y-174320666D01*
X84267390Y-174320666D02*
X84410247Y-174320666D01*
X84410247Y-174320666D02*
X84600723Y-174368285D01*
X84600723Y-174368285D02*
X84695961Y-174415904D01*
X84695961Y-174415904D02*
X84791200Y-174511142D01*
X84791200Y-174511142D02*
X84838819Y-174653999D01*
X84838819Y-174653999D02*
X84838819Y-174892094D01*
X83838819Y-173987332D02*
X83838819Y-173320666D01*
X83838819Y-173320666D02*
X84838819Y-173749237D01*
X110182819Y-128492285D02*
X110182819Y-129063713D01*
X110182819Y-128777999D02*
X109182819Y-128777999D01*
X109182819Y-128777999D02*
X109325676Y-128873237D01*
X109325676Y-128873237D02*
X109420914Y-128968475D01*
X109420914Y-128968475D02*
X109468533Y-129063713D01*
X106892905Y-159799819D02*
X106892905Y-158799819D01*
X106892905Y-158799819D02*
X107131000Y-158799819D01*
X107131000Y-158799819D02*
X107273857Y-158847438D01*
X107273857Y-158847438D02*
X107369095Y-158942676D01*
X107369095Y-158942676D02*
X107416714Y-159037914D01*
X107416714Y-159037914D02*
X107464333Y-159228390D01*
X107464333Y-159228390D02*
X107464333Y-159371247D01*
X107464333Y-159371247D02*
X107416714Y-159561723D01*
X107416714Y-159561723D02*
X107369095Y-159656961D01*
X107369095Y-159656961D02*
X107273857Y-159752200D01*
X107273857Y-159752200D02*
X107131000Y-159799819D01*
X107131000Y-159799819D02*
X106892905Y-159799819D01*
X108321476Y-158799819D02*
X108131000Y-158799819D01*
X108131000Y-158799819D02*
X108035762Y-158847438D01*
X108035762Y-158847438D02*
X107988143Y-158895057D01*
X107988143Y-158895057D02*
X107892905Y-159037914D01*
X107892905Y-159037914D02*
X107845286Y-159228390D01*
X107845286Y-159228390D02*
X107845286Y-159609342D01*
X107845286Y-159609342D02*
X107892905Y-159704580D01*
X107892905Y-159704580D02*
X107940524Y-159752200D01*
X107940524Y-159752200D02*
X108035762Y-159799819D01*
X108035762Y-159799819D02*
X108226238Y-159799819D01*
X108226238Y-159799819D02*
X108321476Y-159752200D01*
X108321476Y-159752200D02*
X108369095Y-159704580D01*
X108369095Y-159704580D02*
X108416714Y-159609342D01*
X108416714Y-159609342D02*
X108416714Y-159371247D01*
X108416714Y-159371247D02*
X108369095Y-159276009D01*
X108369095Y-159276009D02*
X108321476Y-159228390D01*
X108321476Y-159228390D02*
X108226238Y-159180771D01*
X108226238Y-159180771D02*
X108035762Y-159180771D01*
X108035762Y-159180771D02*
X107940524Y-159228390D01*
X107940524Y-159228390D02*
X107892905Y-159276009D01*
X107892905Y-159276009D02*
X107845286Y-159371247D01*
X108162905Y-124480819D02*
X108162905Y-123480819D01*
X108162905Y-123480819D02*
X108401000Y-123480819D01*
X108401000Y-123480819D02*
X108543857Y-123528438D01*
X108543857Y-123528438D02*
X108639095Y-123623676D01*
X108639095Y-123623676D02*
X108686714Y-123718914D01*
X108686714Y-123718914D02*
X108734333Y-123909390D01*
X108734333Y-123909390D02*
X108734333Y-124052247D01*
X108734333Y-124052247D02*
X108686714Y-124242723D01*
X108686714Y-124242723D02*
X108639095Y-124337961D01*
X108639095Y-124337961D02*
X108543857Y-124433200D01*
X108543857Y-124433200D02*
X108401000Y-124480819D01*
X108401000Y-124480819D02*
X108162905Y-124480819D01*
X109686714Y-124480819D02*
X109115286Y-124480819D01*
X109401000Y-124480819D02*
X109401000Y-123480819D01*
X109401000Y-123480819D02*
X109305762Y-123623676D01*
X109305762Y-123623676D02*
X109210524Y-123718914D01*
X109210524Y-123718914D02*
X109115286Y-123766533D01*
X144137142Y-167393580D02*
X144089523Y-167441200D01*
X144089523Y-167441200D02*
X143946666Y-167488819D01*
X143946666Y-167488819D02*
X143851428Y-167488819D01*
X143851428Y-167488819D02*
X143708571Y-167441200D01*
X143708571Y-167441200D02*
X143613333Y-167345961D01*
X143613333Y-167345961D02*
X143565714Y-167250723D01*
X143565714Y-167250723D02*
X143518095Y-167060247D01*
X143518095Y-167060247D02*
X143518095Y-166917390D01*
X143518095Y-166917390D02*
X143565714Y-166726914D01*
X143565714Y-166726914D02*
X143613333Y-166631676D01*
X143613333Y-166631676D02*
X143708571Y-166536438D01*
X143708571Y-166536438D02*
X143851428Y-166488819D01*
X143851428Y-166488819D02*
X143946666Y-166488819D01*
X143946666Y-166488819D02*
X144089523Y-166536438D01*
X144089523Y-166536438D02*
X144137142Y-166584057D01*
X145089523Y-167488819D02*
X144518095Y-167488819D01*
X144803809Y-167488819D02*
X144803809Y-166488819D01*
X144803809Y-166488819D02*
X144708571Y-166631676D01*
X144708571Y-166631676D02*
X144613333Y-166726914D01*
X144613333Y-166726914D02*
X144518095Y-166774533D01*
X145422857Y-166488819D02*
X146041904Y-166488819D01*
X146041904Y-166488819D02*
X145708571Y-166869771D01*
X145708571Y-166869771D02*
X145851428Y-166869771D01*
X145851428Y-166869771D02*
X145946666Y-166917390D01*
X145946666Y-166917390D02*
X145994285Y-166965009D01*
X145994285Y-166965009D02*
X146041904Y-167060247D01*
X146041904Y-167060247D02*
X146041904Y-167298342D01*
X146041904Y-167298342D02*
X145994285Y-167393580D01*
X145994285Y-167393580D02*
X145946666Y-167441200D01*
X145946666Y-167441200D02*
X145851428Y-167488819D01*
X145851428Y-167488819D02*
X145565714Y-167488819D01*
X145565714Y-167488819D02*
X145470476Y-167441200D01*
X145470476Y-167441200D02*
X145422857Y-167393580D01*
X144703580Y-178696857D02*
X144751200Y-178744476D01*
X144751200Y-178744476D02*
X144798819Y-178887333D01*
X144798819Y-178887333D02*
X144798819Y-178982571D01*
X144798819Y-178982571D02*
X144751200Y-179125428D01*
X144751200Y-179125428D02*
X144655961Y-179220666D01*
X144655961Y-179220666D02*
X144560723Y-179268285D01*
X144560723Y-179268285D02*
X144370247Y-179315904D01*
X144370247Y-179315904D02*
X144227390Y-179315904D01*
X144227390Y-179315904D02*
X144036914Y-179268285D01*
X144036914Y-179268285D02*
X143941676Y-179220666D01*
X143941676Y-179220666D02*
X143846438Y-179125428D01*
X143846438Y-179125428D02*
X143798819Y-178982571D01*
X143798819Y-178982571D02*
X143798819Y-178887333D01*
X143798819Y-178887333D02*
X143846438Y-178744476D01*
X143846438Y-178744476D02*
X143894057Y-178696857D01*
X144798819Y-177744476D02*
X144798819Y-178315904D01*
X144798819Y-178030190D02*
X143798819Y-178030190D01*
X143798819Y-178030190D02*
X143941676Y-178125428D01*
X143941676Y-178125428D02*
X144036914Y-178220666D01*
X144036914Y-178220666D02*
X144084533Y-178315904D01*
X143894057Y-177363523D02*
X143846438Y-177315904D01*
X143846438Y-177315904D02*
X143798819Y-177220666D01*
X143798819Y-177220666D02*
X143798819Y-176982571D01*
X143798819Y-176982571D02*
X143846438Y-176887333D01*
X143846438Y-176887333D02*
X143894057Y-176839714D01*
X143894057Y-176839714D02*
X143989295Y-176792095D01*
X143989295Y-176792095D02*
X144084533Y-176792095D01*
X144084533Y-176792095D02*
X144227390Y-176839714D01*
X144227390Y-176839714D02*
X144798819Y-177411142D01*
X144798819Y-177411142D02*
X144798819Y-176792095D01*
X79283142Y-156681580D02*
X79235523Y-156729200D01*
X79235523Y-156729200D02*
X79092666Y-156776819D01*
X79092666Y-156776819D02*
X78997428Y-156776819D01*
X78997428Y-156776819D02*
X78854571Y-156729200D01*
X78854571Y-156729200D02*
X78759333Y-156633961D01*
X78759333Y-156633961D02*
X78711714Y-156538723D01*
X78711714Y-156538723D02*
X78664095Y-156348247D01*
X78664095Y-156348247D02*
X78664095Y-156205390D01*
X78664095Y-156205390D02*
X78711714Y-156014914D01*
X78711714Y-156014914D02*
X78759333Y-155919676D01*
X78759333Y-155919676D02*
X78854571Y-155824438D01*
X78854571Y-155824438D02*
X78997428Y-155776819D01*
X78997428Y-155776819D02*
X79092666Y-155776819D01*
X79092666Y-155776819D02*
X79235523Y-155824438D01*
X79235523Y-155824438D02*
X79283142Y-155872057D01*
X80235523Y-156776819D02*
X79664095Y-156776819D01*
X79949809Y-156776819D02*
X79949809Y-155776819D01*
X79949809Y-155776819D02*
X79854571Y-155919676D01*
X79854571Y-155919676D02*
X79759333Y-156014914D01*
X79759333Y-156014914D02*
X79664095Y-156062533D01*
X80854571Y-155776819D02*
X80949809Y-155776819D01*
X80949809Y-155776819D02*
X81045047Y-155824438D01*
X81045047Y-155824438D02*
X81092666Y-155872057D01*
X81092666Y-155872057D02*
X81140285Y-155967295D01*
X81140285Y-155967295D02*
X81187904Y-156157771D01*
X81187904Y-156157771D02*
X81187904Y-156395866D01*
X81187904Y-156395866D02*
X81140285Y-156586342D01*
X81140285Y-156586342D02*
X81092666Y-156681580D01*
X81092666Y-156681580D02*
X81045047Y-156729200D01*
X81045047Y-156729200D02*
X80949809Y-156776819D01*
X80949809Y-156776819D02*
X80854571Y-156776819D01*
X80854571Y-156776819D02*
X80759333Y-156729200D01*
X80759333Y-156729200D02*
X80711714Y-156681580D01*
X80711714Y-156681580D02*
X80664095Y-156586342D01*
X80664095Y-156586342D02*
X80616476Y-156395866D01*
X80616476Y-156395866D02*
X80616476Y-156157771D01*
X80616476Y-156157771D02*
X80664095Y-155967295D01*
X80664095Y-155967295D02*
X80711714Y-155872057D01*
X80711714Y-155872057D02*
X80759333Y-155824438D01*
X80759333Y-155824438D02*
X80854571Y-155776819D01*
X134453333Y-131771580D02*
X134405714Y-131819200D01*
X134405714Y-131819200D02*
X134262857Y-131866819D01*
X134262857Y-131866819D02*
X134167619Y-131866819D01*
X134167619Y-131866819D02*
X134024762Y-131819200D01*
X134024762Y-131819200D02*
X133929524Y-131723961D01*
X133929524Y-131723961D02*
X133881905Y-131628723D01*
X133881905Y-131628723D02*
X133834286Y-131438247D01*
X133834286Y-131438247D02*
X133834286Y-131295390D01*
X133834286Y-131295390D02*
X133881905Y-131104914D01*
X133881905Y-131104914D02*
X133929524Y-131009676D01*
X133929524Y-131009676D02*
X134024762Y-130914438D01*
X134024762Y-130914438D02*
X134167619Y-130866819D01*
X134167619Y-130866819D02*
X134262857Y-130866819D01*
X134262857Y-130866819D02*
X134405714Y-130914438D01*
X134405714Y-130914438D02*
X134453333Y-130962057D01*
X134929524Y-131866819D02*
X135120000Y-131866819D01*
X135120000Y-131866819D02*
X135215238Y-131819200D01*
X135215238Y-131819200D02*
X135262857Y-131771580D01*
X135262857Y-131771580D02*
X135358095Y-131628723D01*
X135358095Y-131628723D02*
X135405714Y-131438247D01*
X135405714Y-131438247D02*
X135405714Y-131057295D01*
X135405714Y-131057295D02*
X135358095Y-130962057D01*
X135358095Y-130962057D02*
X135310476Y-130914438D01*
X135310476Y-130914438D02*
X135215238Y-130866819D01*
X135215238Y-130866819D02*
X135024762Y-130866819D01*
X135024762Y-130866819D02*
X134929524Y-130914438D01*
X134929524Y-130914438D02*
X134881905Y-130962057D01*
X134881905Y-130962057D02*
X134834286Y-131057295D01*
X134834286Y-131057295D02*
X134834286Y-131295390D01*
X134834286Y-131295390D02*
X134881905Y-131390628D01*
X134881905Y-131390628D02*
X134929524Y-131438247D01*
X134929524Y-131438247D02*
X135024762Y-131485866D01*
X135024762Y-131485866D02*
X135215238Y-131485866D01*
X135215238Y-131485866D02*
X135310476Y-131438247D01*
X135310476Y-131438247D02*
X135358095Y-131390628D01*
X135358095Y-131390628D02*
X135405714Y-131295390D01*
X103324580Y-164377666D02*
X103372200Y-164425285D01*
X103372200Y-164425285D02*
X103419819Y-164568142D01*
X103419819Y-164568142D02*
X103419819Y-164663380D01*
X103419819Y-164663380D02*
X103372200Y-164806237D01*
X103372200Y-164806237D02*
X103276961Y-164901475D01*
X103276961Y-164901475D02*
X103181723Y-164949094D01*
X103181723Y-164949094D02*
X102991247Y-164996713D01*
X102991247Y-164996713D02*
X102848390Y-164996713D01*
X102848390Y-164996713D02*
X102657914Y-164949094D01*
X102657914Y-164949094D02*
X102562676Y-164901475D01*
X102562676Y-164901475D02*
X102467438Y-164806237D01*
X102467438Y-164806237D02*
X102419819Y-164663380D01*
X102419819Y-164663380D02*
X102419819Y-164568142D01*
X102419819Y-164568142D02*
X102467438Y-164425285D01*
X102467438Y-164425285D02*
X102515057Y-164377666D01*
X102848390Y-163806237D02*
X102800771Y-163901475D01*
X102800771Y-163901475D02*
X102753152Y-163949094D01*
X102753152Y-163949094D02*
X102657914Y-163996713D01*
X102657914Y-163996713D02*
X102610295Y-163996713D01*
X102610295Y-163996713D02*
X102515057Y-163949094D01*
X102515057Y-163949094D02*
X102467438Y-163901475D01*
X102467438Y-163901475D02*
X102419819Y-163806237D01*
X102419819Y-163806237D02*
X102419819Y-163615761D01*
X102419819Y-163615761D02*
X102467438Y-163520523D01*
X102467438Y-163520523D02*
X102515057Y-163472904D01*
X102515057Y-163472904D02*
X102610295Y-163425285D01*
X102610295Y-163425285D02*
X102657914Y-163425285D01*
X102657914Y-163425285D02*
X102753152Y-163472904D01*
X102753152Y-163472904D02*
X102800771Y-163520523D01*
X102800771Y-163520523D02*
X102848390Y-163615761D01*
X102848390Y-163615761D02*
X102848390Y-163806237D01*
X102848390Y-163806237D02*
X102896009Y-163901475D01*
X102896009Y-163901475D02*
X102943628Y-163949094D01*
X102943628Y-163949094D02*
X103038866Y-163996713D01*
X103038866Y-163996713D02*
X103229342Y-163996713D01*
X103229342Y-163996713D02*
X103324580Y-163949094D01*
X103324580Y-163949094D02*
X103372200Y-163901475D01*
X103372200Y-163901475D02*
X103419819Y-163806237D01*
X103419819Y-163806237D02*
X103419819Y-163615761D01*
X103419819Y-163615761D02*
X103372200Y-163520523D01*
X103372200Y-163520523D02*
X103324580Y-163472904D01*
X103324580Y-163472904D02*
X103229342Y-163425285D01*
X103229342Y-163425285D02*
X103038866Y-163425285D01*
X103038866Y-163425285D02*
X102943628Y-163472904D01*
X102943628Y-163472904D02*
X102896009Y-163520523D01*
X102896009Y-163520523D02*
X102848390Y-163615761D01*
X115200580Y-163107666D02*
X115248200Y-163155285D01*
X115248200Y-163155285D02*
X115295819Y-163298142D01*
X115295819Y-163298142D02*
X115295819Y-163393380D01*
X115295819Y-163393380D02*
X115248200Y-163536237D01*
X115248200Y-163536237D02*
X115152961Y-163631475D01*
X115152961Y-163631475D02*
X115057723Y-163679094D01*
X115057723Y-163679094D02*
X114867247Y-163726713D01*
X114867247Y-163726713D02*
X114724390Y-163726713D01*
X114724390Y-163726713D02*
X114533914Y-163679094D01*
X114533914Y-163679094D02*
X114438676Y-163631475D01*
X114438676Y-163631475D02*
X114343438Y-163536237D01*
X114343438Y-163536237D02*
X114295819Y-163393380D01*
X114295819Y-163393380D02*
X114295819Y-163298142D01*
X114295819Y-163298142D02*
X114343438Y-163155285D01*
X114343438Y-163155285D02*
X114391057Y-163107666D01*
X114295819Y-162774332D02*
X114295819Y-162107666D01*
X114295819Y-162107666D02*
X115295819Y-162536237D01*
X92065333Y-130755580D02*
X92017714Y-130803200D01*
X92017714Y-130803200D02*
X91874857Y-130850819D01*
X91874857Y-130850819D02*
X91779619Y-130850819D01*
X91779619Y-130850819D02*
X91636762Y-130803200D01*
X91636762Y-130803200D02*
X91541524Y-130707961D01*
X91541524Y-130707961D02*
X91493905Y-130612723D01*
X91493905Y-130612723D02*
X91446286Y-130422247D01*
X91446286Y-130422247D02*
X91446286Y-130279390D01*
X91446286Y-130279390D02*
X91493905Y-130088914D01*
X91493905Y-130088914D02*
X91541524Y-129993676D01*
X91541524Y-129993676D02*
X91636762Y-129898438D01*
X91636762Y-129898438D02*
X91779619Y-129850819D01*
X91779619Y-129850819D02*
X91874857Y-129850819D01*
X91874857Y-129850819D02*
X92017714Y-129898438D01*
X92017714Y-129898438D02*
X92065333Y-129946057D01*
X92922476Y-129850819D02*
X92732000Y-129850819D01*
X92732000Y-129850819D02*
X92636762Y-129898438D01*
X92636762Y-129898438D02*
X92589143Y-129946057D01*
X92589143Y-129946057D02*
X92493905Y-130088914D01*
X92493905Y-130088914D02*
X92446286Y-130279390D01*
X92446286Y-130279390D02*
X92446286Y-130660342D01*
X92446286Y-130660342D02*
X92493905Y-130755580D01*
X92493905Y-130755580D02*
X92541524Y-130803200D01*
X92541524Y-130803200D02*
X92636762Y-130850819D01*
X92636762Y-130850819D02*
X92827238Y-130850819D01*
X92827238Y-130850819D02*
X92922476Y-130803200D01*
X92922476Y-130803200D02*
X92970095Y-130755580D01*
X92970095Y-130755580D02*
X93017714Y-130660342D01*
X93017714Y-130660342D02*
X93017714Y-130422247D01*
X93017714Y-130422247D02*
X92970095Y-130327009D01*
X92970095Y-130327009D02*
X92922476Y-130279390D01*
X92922476Y-130279390D02*
X92827238Y-130231771D01*
X92827238Y-130231771D02*
X92636762Y-130231771D01*
X92636762Y-130231771D02*
X92541524Y-130279390D01*
X92541524Y-130279390D02*
X92493905Y-130327009D01*
X92493905Y-130327009D02*
X92446286Y-130422247D01*
X116724580Y-128042666D02*
X116772200Y-128090285D01*
X116772200Y-128090285D02*
X116819819Y-128233142D01*
X116819819Y-128233142D02*
X116819819Y-128328380D01*
X116819819Y-128328380D02*
X116772200Y-128471237D01*
X116772200Y-128471237D02*
X116676961Y-128566475D01*
X116676961Y-128566475D02*
X116581723Y-128614094D01*
X116581723Y-128614094D02*
X116391247Y-128661713D01*
X116391247Y-128661713D02*
X116248390Y-128661713D01*
X116248390Y-128661713D02*
X116057914Y-128614094D01*
X116057914Y-128614094D02*
X115962676Y-128566475D01*
X115962676Y-128566475D02*
X115867438Y-128471237D01*
X115867438Y-128471237D02*
X115819819Y-128328380D01*
X115819819Y-128328380D02*
X115819819Y-128233142D01*
X115819819Y-128233142D02*
X115867438Y-128090285D01*
X115867438Y-128090285D02*
X115915057Y-128042666D01*
X115819819Y-127137904D02*
X115819819Y-127614094D01*
X115819819Y-127614094D02*
X116296009Y-127661713D01*
X116296009Y-127661713D02*
X116248390Y-127614094D01*
X116248390Y-127614094D02*
X116200771Y-127518856D01*
X116200771Y-127518856D02*
X116200771Y-127280761D01*
X116200771Y-127280761D02*
X116248390Y-127185523D01*
X116248390Y-127185523D02*
X116296009Y-127137904D01*
X116296009Y-127137904D02*
X116391247Y-127090285D01*
X116391247Y-127090285D02*
X116629342Y-127090285D01*
X116629342Y-127090285D02*
X116724580Y-127137904D01*
X116724580Y-127137904D02*
X116772200Y-127185523D01*
X116772200Y-127185523D02*
X116819819Y-127280761D01*
X116819819Y-127280761D02*
X116819819Y-127518856D01*
X116819819Y-127518856D02*
X116772200Y-127614094D01*
X116772200Y-127614094D02*
X116724580Y-127661713D01*
X92065333Y-127707580D02*
X92017714Y-127755200D01*
X92017714Y-127755200D02*
X91874857Y-127802819D01*
X91874857Y-127802819D02*
X91779619Y-127802819D01*
X91779619Y-127802819D02*
X91636762Y-127755200D01*
X91636762Y-127755200D02*
X91541524Y-127659961D01*
X91541524Y-127659961D02*
X91493905Y-127564723D01*
X91493905Y-127564723D02*
X91446286Y-127374247D01*
X91446286Y-127374247D02*
X91446286Y-127231390D01*
X91446286Y-127231390D02*
X91493905Y-127040914D01*
X91493905Y-127040914D02*
X91541524Y-126945676D01*
X91541524Y-126945676D02*
X91636762Y-126850438D01*
X91636762Y-126850438D02*
X91779619Y-126802819D01*
X91779619Y-126802819D02*
X91874857Y-126802819D01*
X91874857Y-126802819D02*
X92017714Y-126850438D01*
X92017714Y-126850438D02*
X92065333Y-126898057D01*
X92922476Y-127136152D02*
X92922476Y-127802819D01*
X92684381Y-126755200D02*
X92446286Y-127469485D01*
X92446286Y-127469485D02*
X93065333Y-127469485D01*
X129754333Y-125864580D02*
X129706714Y-125912200D01*
X129706714Y-125912200D02*
X129563857Y-125959819D01*
X129563857Y-125959819D02*
X129468619Y-125959819D01*
X129468619Y-125959819D02*
X129325762Y-125912200D01*
X129325762Y-125912200D02*
X129230524Y-125816961D01*
X129230524Y-125816961D02*
X129182905Y-125721723D01*
X129182905Y-125721723D02*
X129135286Y-125531247D01*
X129135286Y-125531247D02*
X129135286Y-125388390D01*
X129135286Y-125388390D02*
X129182905Y-125197914D01*
X129182905Y-125197914D02*
X129230524Y-125102676D01*
X129230524Y-125102676D02*
X129325762Y-125007438D01*
X129325762Y-125007438D02*
X129468619Y-124959819D01*
X129468619Y-124959819D02*
X129563857Y-124959819D01*
X129563857Y-124959819D02*
X129706714Y-125007438D01*
X129706714Y-125007438D02*
X129754333Y-125055057D01*
X130087667Y-124959819D02*
X130706714Y-124959819D01*
X130706714Y-124959819D02*
X130373381Y-125340771D01*
X130373381Y-125340771D02*
X130516238Y-125340771D01*
X130516238Y-125340771D02*
X130611476Y-125388390D01*
X130611476Y-125388390D02*
X130659095Y-125436009D01*
X130659095Y-125436009D02*
X130706714Y-125531247D01*
X130706714Y-125531247D02*
X130706714Y-125769342D01*
X130706714Y-125769342D02*
X130659095Y-125864580D01*
X130659095Y-125864580D02*
X130611476Y-125912200D01*
X130611476Y-125912200D02*
X130516238Y-125959819D01*
X130516238Y-125959819D02*
X130230524Y-125959819D01*
X130230524Y-125959819D02*
X130135286Y-125912200D01*
X130135286Y-125912200D02*
X130087667Y-125864580D01*
X105102580Y-129058666D02*
X105150200Y-129106285D01*
X105150200Y-129106285D02*
X105197819Y-129249142D01*
X105197819Y-129249142D02*
X105197819Y-129344380D01*
X105197819Y-129344380D02*
X105150200Y-129487237D01*
X105150200Y-129487237D02*
X105054961Y-129582475D01*
X105054961Y-129582475D02*
X104959723Y-129630094D01*
X104959723Y-129630094D02*
X104769247Y-129677713D01*
X104769247Y-129677713D02*
X104626390Y-129677713D01*
X104626390Y-129677713D02*
X104435914Y-129630094D01*
X104435914Y-129630094D02*
X104340676Y-129582475D01*
X104340676Y-129582475D02*
X104245438Y-129487237D01*
X104245438Y-129487237D02*
X104197819Y-129344380D01*
X104197819Y-129344380D02*
X104197819Y-129249142D01*
X104197819Y-129249142D02*
X104245438Y-129106285D01*
X104245438Y-129106285D02*
X104293057Y-129058666D01*
X104293057Y-128677713D02*
X104245438Y-128630094D01*
X104245438Y-128630094D02*
X104197819Y-128534856D01*
X104197819Y-128534856D02*
X104197819Y-128296761D01*
X104197819Y-128296761D02*
X104245438Y-128201523D01*
X104245438Y-128201523D02*
X104293057Y-128153904D01*
X104293057Y-128153904D02*
X104388295Y-128106285D01*
X104388295Y-128106285D02*
X104483533Y-128106285D01*
X104483533Y-128106285D02*
X104626390Y-128153904D01*
X104626390Y-128153904D02*
X105197819Y-128725332D01*
X105197819Y-128725332D02*
X105197819Y-128106285D01*
X130516333Y-122816580D02*
X130468714Y-122864200D01*
X130468714Y-122864200D02*
X130325857Y-122911819D01*
X130325857Y-122911819D02*
X130230619Y-122911819D01*
X130230619Y-122911819D02*
X130087762Y-122864200D01*
X130087762Y-122864200D02*
X129992524Y-122768961D01*
X129992524Y-122768961D02*
X129944905Y-122673723D01*
X129944905Y-122673723D02*
X129897286Y-122483247D01*
X129897286Y-122483247D02*
X129897286Y-122340390D01*
X129897286Y-122340390D02*
X129944905Y-122149914D01*
X129944905Y-122149914D02*
X129992524Y-122054676D01*
X129992524Y-122054676D02*
X130087762Y-121959438D01*
X130087762Y-121959438D02*
X130230619Y-121911819D01*
X130230619Y-121911819D02*
X130325857Y-121911819D01*
X130325857Y-121911819D02*
X130468714Y-121959438D01*
X130468714Y-121959438D02*
X130516333Y-122007057D01*
X131468714Y-122911819D02*
X130897286Y-122911819D01*
X131183000Y-122911819D02*
X131183000Y-121911819D01*
X131183000Y-121911819D02*
X131087762Y-122054676D01*
X131087762Y-122054676D02*
X130992524Y-122149914D01*
X130992524Y-122149914D02*
X130897286Y-122197533D01*
D11*
%TO.C,R7*%
X91262742Y-164522500D02*
X91737258Y-164522500D01*
X91262742Y-163477500D02*
X91737258Y-163477500D01*
%TO.C,Q5*%
X88937500Y-168510000D02*
X88287500Y-168510000D01*
X88937500Y-165390000D02*
X87262500Y-165390000D01*
X88937500Y-168510000D02*
X89587500Y-168510000D01*
X88937500Y-165390000D02*
X89587500Y-165390000D01*
%TO.C,J4*%
X101670000Y-184410000D02*
X104330000Y-184410000D01*
X104330000Y-176670000D02*
X104330000Y-178000000D01*
X101670000Y-179270000D02*
X104330000Y-179270000D01*
X101670000Y-179270000D02*
X101670000Y-184410000D01*
X104330000Y-179270000D02*
X104330000Y-184410000D01*
X103000000Y-176670000D02*
X104330000Y-176670000D01*
D12*
%TO.C,Q4*%
X131709100Y-154358600D02*
X131709100Y-154536761D01*
X131709100Y-157533239D02*
X131709100Y-157711400D01*
X131709100Y-157711400D02*
X134020500Y-157711400D01*
X132862260Y-154358600D02*
X131709100Y-154358600D01*
X133908740Y-157711400D02*
X135061900Y-157711400D01*
X135061900Y-154358600D02*
X132862260Y-154358600D01*
X135061900Y-154536761D02*
X135061900Y-154358600D01*
X135061900Y-157711400D02*
X135061900Y-157533239D01*
%TO.C,Q3*%
X150800600Y-154358600D02*
X150800600Y-154536761D01*
X150800600Y-157533239D02*
X150800600Y-157711400D01*
X150800600Y-157711400D02*
X153112000Y-157711400D01*
X151953760Y-154358600D02*
X150800600Y-154358600D01*
X153000240Y-157711400D02*
X154153400Y-157711400D01*
X154153400Y-154358600D02*
X151953760Y-154358600D01*
X154153400Y-154536761D02*
X154153400Y-154358600D01*
X154153400Y-157711400D02*
X154153400Y-157533239D01*
%TO.C,Q2*%
X131673600Y-136293600D02*
X131673600Y-136471761D01*
X131673600Y-139468239D02*
X131673600Y-139646400D01*
X131673600Y-139646400D02*
X133985000Y-139646400D01*
X132826760Y-136293600D02*
X131673600Y-136293600D01*
X133873240Y-139646400D02*
X135026400Y-139646400D01*
X135026400Y-136293600D02*
X132826760Y-136293600D01*
X135026400Y-136471761D02*
X135026400Y-136293600D01*
X135026400Y-139646400D02*
X135026400Y-139468239D01*
%TO.C,Q1*%
X150759100Y-136166600D02*
X150759100Y-136344761D01*
X150759100Y-139341239D02*
X150759100Y-139519400D01*
X150759100Y-139519400D02*
X153070500Y-139519400D01*
X151912260Y-136166600D02*
X150759100Y-136166600D01*
X152958740Y-139519400D02*
X154111900Y-139519400D01*
X154111900Y-136166600D02*
X151912260Y-136166600D01*
X154111900Y-136344761D02*
X154111900Y-136166600D01*
X154111900Y-139519400D02*
X154111900Y-139341239D01*
D11*
%TO.C,SW3*%
X95423000Y-176946000D02*
X97423000Y-176946000D01*
X94123000Y-175946000D02*
X93673000Y-175496000D01*
X98723000Y-175946000D02*
X99173000Y-175496000D01*
X93673000Y-175496000D02*
X93673000Y-172896000D01*
X99173000Y-175496000D02*
X99173000Y-172896000D01*
X94123000Y-172446000D02*
X93673000Y-172896000D01*
X98723000Y-172446000D02*
X99173000Y-172896000D01*
X95423000Y-171446000D02*
X97423000Y-171446000D01*
%TO.C,RV7*%
X96366359Y-179706000D02*
X96673641Y-179706000D01*
X96366359Y-180466000D02*
X96673641Y-180466000D01*
%TO.C,C14*%
X96379420Y-183644000D02*
X96660580Y-183644000D01*
X96379420Y-182624000D02*
X96660580Y-182624000D01*
%TO.C,U6*%
X136122000Y-175048000D02*
X142542000Y-175048000D01*
X142542000Y-175048000D02*
X142542000Y-174778000D01*
X142542000Y-174778000D02*
X145372000Y-174778000D01*
X136122000Y-168148000D02*
X142542000Y-168148000D01*
X142542000Y-168148000D02*
X142542000Y-168418000D01*
X142542000Y-168418000D02*
X143642000Y-168418000D01*
%TO.C,U5*%
X131668000Y-131572000D02*
X131668000Y-128572000D01*
X128428000Y-132572000D02*
X128428000Y-130572000D01*
%TO.C,U4*%
X107696000Y-161524000D02*
X109646000Y-161524000D01*
X107696000Y-166644000D02*
X109646000Y-166644000D01*
X107696000Y-161524000D02*
X104246000Y-161524000D01*
X107696000Y-166644000D02*
X105746000Y-166644000D01*
%TO.C,U3*%
X82691000Y-132566000D02*
X82966000Y-132566000D01*
X90111000Y-135326000D02*
X90111000Y-132566000D01*
X82691000Y-135326000D02*
X82691000Y-132566000D01*
X82691000Y-135326000D02*
X82691000Y-138086000D01*
X90111000Y-138086000D02*
X89836000Y-138086000D01*
X90111000Y-132566000D02*
X89836000Y-132566000D01*
X90111000Y-135326000D02*
X90111000Y-138086000D01*
X82691000Y-138086000D02*
X82966000Y-138086000D01*
X89836000Y-132566000D02*
X89836000Y-130876000D01*
%TO.C,U2*%
X108901000Y-126332000D02*
X110851000Y-126332000D01*
X108901000Y-131452000D02*
X110851000Y-131452000D01*
X108901000Y-126332000D02*
X105451000Y-126332000D01*
X108901000Y-131452000D02*
X106951000Y-131452000D01*
%TO.C,U1*%
X146832000Y-123444000D02*
X146832000Y-125394000D01*
X141712000Y-123444000D02*
X141712000Y-125394000D01*
X146832000Y-123444000D02*
X146832000Y-119994000D01*
X141712000Y-123444000D02*
X141712000Y-121494000D01*
%TO.C,SW1*%
X81421000Y-161286000D02*
X79421000Y-161286000D01*
X82721000Y-162286000D02*
X83171000Y-162736000D01*
X78121000Y-162286000D02*
X77671000Y-162736000D01*
X83171000Y-162736000D02*
X83171000Y-165336000D01*
X77671000Y-162736000D02*
X77671000Y-165336000D01*
X82721000Y-165786000D02*
X83171000Y-165336000D01*
X78121000Y-165786000D02*
X77671000Y-165336000D01*
X81421000Y-166786000D02*
X79421000Y-166786000D01*
%TO.C,RV6*%
X139685500Y-177816742D02*
X139685500Y-178291258D01*
X140730500Y-177816742D02*
X140730500Y-178291258D01*
%TO.C,RV4*%
X80066641Y-158066000D02*
X79759359Y-158066000D01*
X80066641Y-157306000D02*
X79759359Y-157306000D01*
%TO.C,RV3*%
X160767500Y-145812742D02*
X160767500Y-146287258D01*
X161812500Y-145812742D02*
X161812500Y-146287258D01*
%TO.C,RV2*%
X125969500Y-135144742D02*
X125969500Y-135619258D01*
X127014500Y-135144742D02*
X127014500Y-135619258D01*
%TO.C,RV1*%
X148604500Y-135111258D02*
X148604500Y-134636742D01*
X147559500Y-135111258D02*
X147559500Y-134636742D01*
%TO.C,R26*%
X92482936Y-181637000D02*
X92937064Y-181637000D01*
X92482936Y-183107000D02*
X92937064Y-183107000D01*
%TO.C,R25*%
X88164936Y-181637000D02*
X88619064Y-181637000D01*
X88164936Y-183107000D02*
X88619064Y-183107000D01*
%TO.C,R24*%
X84100936Y-179605000D02*
X84555064Y-179605000D01*
X84100936Y-181075000D02*
X84555064Y-181075000D01*
%TO.C,R22*%
X82833000Y-157532359D02*
X82833000Y-157839641D01*
X82073000Y-157532359D02*
X82073000Y-157839641D01*
%TO.C,R17*%
X112473742Y-170575500D02*
X112948258Y-170575500D01*
X112473742Y-169530500D02*
X112948258Y-169530500D01*
%TO.C,R16*%
X112950500Y-165243742D02*
X112950500Y-165718258D01*
X113995500Y-165243742D02*
X113995500Y-165718258D01*
%TO.C,R15*%
X114249500Y-173338258D02*
X114249500Y-172863742D01*
X113204500Y-173338258D02*
X113204500Y-172863742D01*
%TO.C,R14*%
X117075258Y-167752500D02*
X116600742Y-167752500D01*
X117075258Y-168797500D02*
X116600742Y-168797500D01*
%TO.C,R13*%
X143780742Y-132602500D02*
X144255258Y-132602500D01*
X143780742Y-131557500D02*
X144255258Y-131557500D01*
%TO.C,R12*%
X145556500Y-135111258D02*
X145556500Y-134636742D01*
X144511500Y-135111258D02*
X144511500Y-134636742D01*
%TO.C,R11*%
X114728500Y-137511258D02*
X114728500Y-137036742D01*
X115773500Y-137511258D02*
X115773500Y-137036742D01*
%TO.C,R10*%
X117998742Y-133478500D02*
X118473258Y-133478500D01*
X117998742Y-132433500D02*
X118473258Y-132433500D01*
%TO.C,R9*%
X113997742Y-134748500D02*
X114472258Y-134748500D01*
X113997742Y-133703500D02*
X114472258Y-133703500D01*
%TO.C,R8*%
X114474500Y-129607742D02*
X114474500Y-130082258D01*
X115519500Y-129607742D02*
X115519500Y-130082258D01*
%TO.C,R5*%
X89085641Y-128396000D02*
X88778359Y-128396000D01*
X89085641Y-127636000D02*
X88778359Y-127636000D01*
%TO.C,R4*%
X145304742Y-118124500D02*
X145779258Y-118124500D01*
X145304742Y-117079500D02*
X145779258Y-117079500D01*
%TO.C,R3*%
X141494742Y-118124500D02*
X141969258Y-118124500D01*
X141494742Y-117079500D02*
X141969258Y-117079500D01*
%TO.C,R2*%
X82962000Y-143157641D02*
X82962000Y-142850359D01*
X83722000Y-143157641D02*
X83722000Y-142850359D01*
%TO.C,R1*%
X85756000Y-143155641D02*
X85756000Y-142848359D01*
X86516000Y-143155641D02*
X86516000Y-142848359D01*
%TO.C,M1*%
X164997042Y-152380806D02*
G75*
G03*
X168520000Y-154374000I3522958J2116806D01*
G01*
X168520000Y-138654001D02*
G75*
G03*
X164561282Y-141524100I-40002J-4109997D01*
G01*
X181830000Y-153524000D02*
X174130000Y-153524000D01*
X181830000Y-139504000D02*
X174130000Y-139504000D01*
X181830000Y-139504000D02*
X181830000Y-153524000D01*
X174130000Y-154374000D02*
X168520000Y-154374000D01*
X174130000Y-138654000D02*
X174130000Y-139504000D01*
X174130000Y-153524000D02*
X174130000Y-154374000D01*
X174130000Y-138654000D02*
X168520000Y-138654000D01*
X164410000Y-144064000D02*
X164410000Y-147804000D01*
%TO.C,J3*%
X84791000Y-186351000D02*
X86121000Y-186351000D01*
X87391000Y-189011000D02*
X87391000Y-186351000D01*
X87391000Y-186351000D02*
X105231000Y-186351000D01*
X105231000Y-189011000D02*
X105231000Y-186351000D01*
X87391000Y-189011000D02*
X105231000Y-189011000D01*
X84791000Y-187681000D02*
X84791000Y-186351000D01*
%TO.C,J2*%
X128744000Y-176505362D02*
X129244000Y-176505362D01*
X107969000Y-177399700D02*
X138939000Y-177399700D01*
X138939000Y-177399700D02*
X138939000Y-189739700D01*
X107969000Y-189739700D02*
X107969000Y-177399700D01*
X128994000Y-176938375D02*
X128744000Y-176505362D01*
X129244000Y-176505362D02*
X128994000Y-176938375D01*
%TO.C,J1*%
X161383999Y-182078000D02*
G75*
G03*
X159842714Y-178869606I-4110000J-1D01*
G01*
X147204253Y-178870431D02*
G75*
G03*
X145664000Y-182078000I2569747J-3207569D01*
G01*
X147874000Y-178868000D02*
X147204000Y-178868000D01*
X161384000Y-196388000D02*
X161384000Y-182078000D01*
X159834000Y-178868000D02*
X159434000Y-178868000D01*
X161384000Y-196388000D02*
X145664000Y-196388000D01*
X154814000Y-178868000D02*
X152024000Y-178868000D01*
X145664000Y-196388000D02*
X145664000Y-182078000D01*
%TO.C,D9*%
X148504000Y-165748000D02*
X148504000Y-171558000D01*
X148504000Y-171558000D02*
X151724000Y-171558000D01*
X151724000Y-171558000D02*
X151724000Y-165748000D01*
%TO.C,D8*%
X77768000Y-177804000D02*
X77768000Y-170504000D01*
X83268000Y-177804000D02*
X83268000Y-170504000D01*
X83268000Y-170504000D02*
X82118000Y-170504000D01*
%TO.C,D7*%
X85134000Y-177804000D02*
X85134000Y-170504000D01*
X90634000Y-177804000D02*
X90634000Y-170504000D01*
X90634000Y-170504000D02*
X89484000Y-170504000D01*
%TO.C,D6*%
X105231000Y-158455000D02*
X111041000Y-158455000D01*
X111041000Y-158455000D02*
X111041000Y-155235000D01*
X111041000Y-155235000D02*
X105231000Y-155235000D01*
%TO.C,D1*%
X106501000Y-123136000D02*
X112311000Y-123136000D01*
X112311000Y-123136000D02*
X112311000Y-119916000D01*
X112311000Y-119916000D02*
X106501000Y-119916000D01*
%TO.C,C13*%
X145041252Y-164619000D02*
X144518748Y-164619000D01*
X145041252Y-166089000D02*
X144518748Y-166089000D01*
%TO.C,C12*%
X143404000Y-177342748D02*
X143404000Y-178765252D01*
X141584000Y-177342748D02*
X141584000Y-178765252D01*
%TO.C,C10*%
X80066580Y-154382000D02*
X79785420Y-154382000D01*
X80066580Y-155402000D02*
X79785420Y-155402000D01*
%TO.C,C9*%
X134479420Y-133352000D02*
X134760580Y-133352000D01*
X134479420Y-132332000D02*
X134760580Y-132332000D01*
%TO.C,C8*%
X101025000Y-164070420D02*
X101025000Y-164351580D01*
X102045000Y-164070420D02*
X102045000Y-164351580D01*
%TO.C,C7*%
X117256000Y-163202252D02*
X117256000Y-162679748D01*
X115786000Y-163202252D02*
X115786000Y-162679748D01*
%TO.C,C6*%
X92091420Y-132336000D02*
X92372580Y-132336000D01*
X92091420Y-131316000D02*
X92372580Y-131316000D01*
%TO.C,C5*%
X118780000Y-128137252D02*
X118780000Y-127614748D01*
X117310000Y-128137252D02*
X117310000Y-127614748D01*
%TO.C,C4*%
X92091420Y-129288000D02*
X92372580Y-129288000D01*
X92091420Y-128268000D02*
X92372580Y-128268000D01*
%TO.C,C3*%
X129780420Y-127445000D02*
X130061580Y-127445000D01*
X129780420Y-126425000D02*
X130061580Y-126425000D01*
%TO.C,C2*%
X102803000Y-128751420D02*
X102803000Y-129032580D01*
X103823000Y-128751420D02*
X103823000Y-129032580D01*
%TO.C,C1*%
X130542420Y-124397000D02*
X130823580Y-124397000D01*
X130542420Y-123377000D02*
X130823580Y-123377000D01*
%TD*%
%LPC*%
%TO.C,Q4*%
G36*
X134833351Y-157279600D02*
G01*
X132725151Y-157279600D01*
X132725151Y-154790400D01*
X134833351Y-154790400D01*
X134833351Y-157279600D01*
G37*
%TO.C,Q3*%
G36*
X153924851Y-157279600D02*
G01*
X151816651Y-157279600D01*
X151816651Y-154790400D01*
X153924851Y-154790400D01*
X153924851Y-157279600D01*
G37*
%TO.C,Q2*%
G36*
X134797851Y-139214600D02*
G01*
X132689651Y-139214600D01*
X132689651Y-136725400D01*
X134797851Y-136725400D01*
X134797851Y-139214600D01*
G37*
%TO.C,Q1*%
G36*
X153883351Y-139087600D02*
G01*
X151775151Y-139087600D01*
X151775151Y-136598400D01*
X153883351Y-136598400D01*
X153883351Y-139087600D01*
G37*
%TD*%
D13*
%TO.C,R7*%
X90675000Y-164000000D03*
X92325000Y-164000000D03*
%TD*%
D14*
%TO.C,Q5*%
X89875000Y-166950000D03*
X88000000Y-167900000D03*
X88000000Y-166000000D03*
%TD*%
D15*
%TO.C,J4*%
X103000000Y-183080000D03*
X103000000Y-180540000D03*
D16*
X103000000Y-178000000D03*
%TD*%
D17*
%TO.C,Q4*%
X131607500Y-155060001D03*
X131607500Y-155709999D03*
X131607500Y-156360001D03*
X131607500Y-157009999D03*
D18*
X133785500Y-156035000D03*
D17*
X135163500Y-155060001D03*
X135163500Y-155709999D03*
X135163500Y-156360001D03*
X135163500Y-157009999D03*
%TD*%
%TO.C,Q3*%
X150699000Y-155060001D03*
X150699000Y-155709999D03*
X150699000Y-156360001D03*
X150699000Y-157009999D03*
D18*
X152877000Y-156035000D03*
D17*
X154255000Y-155060001D03*
X154255000Y-155709999D03*
X154255000Y-156360001D03*
X154255000Y-157009999D03*
%TD*%
%TO.C,Q2*%
X131572000Y-136995001D03*
X131572000Y-137644999D03*
X131572000Y-138295001D03*
X131572000Y-138944999D03*
D18*
X133750000Y-137970000D03*
D17*
X135128000Y-136995001D03*
X135128000Y-137644999D03*
X135128000Y-138295001D03*
X135128000Y-138944999D03*
%TD*%
%TO.C,Q1*%
X150657500Y-136868001D03*
X150657500Y-137517999D03*
X150657500Y-138168001D03*
X150657500Y-138817999D03*
D18*
X152835500Y-137843000D03*
D17*
X154213500Y-136868001D03*
X154213500Y-137517999D03*
X154213500Y-138168001D03*
X154213500Y-138817999D03*
%TD*%
D19*
%TO.C,R6*%
X125984000Y-147066000D03*
X103984000Y-147066000D03*
%TD*%
D20*
%TO.C,SW3*%
X94548000Y-177196000D03*
X94548000Y-171196000D03*
X98298000Y-177196000D03*
X98298000Y-171196000D03*
%TD*%
D21*
%TO.C,RV7*%
X96010000Y-180086000D03*
X97030000Y-180086000D03*
%TD*%
D22*
%TO.C,C14*%
X95745000Y-183134000D03*
X97295000Y-183134000D03*
%TD*%
D23*
%TO.C,U6*%
X144272000Y-173878000D03*
X144272000Y-169318000D03*
D24*
X137972000Y-171598000D03*
%TD*%
D25*
%TO.C,U5*%
X131023000Y-129372000D03*
X130373000Y-129372000D03*
X129723000Y-129372000D03*
X129073000Y-129372000D03*
X129073000Y-133772000D03*
X129723000Y-133772000D03*
X130373000Y-133772000D03*
X131023000Y-133772000D03*
%TD*%
D26*
%TO.C,U4*%
X105221000Y-162179000D03*
X105221000Y-163449000D03*
X105221000Y-164719000D03*
X105221000Y-165989000D03*
X110171000Y-165989000D03*
X110171000Y-164719000D03*
X110171000Y-163449000D03*
X110171000Y-162179000D03*
%TD*%
D27*
%TO.C,U3*%
X89326000Y-138826000D03*
X88676000Y-138826000D03*
X88026000Y-138826000D03*
X87376000Y-138826000D03*
X86726000Y-138826000D03*
X86076000Y-138826000D03*
X85426000Y-138826000D03*
X84776000Y-138826000D03*
X84126000Y-138826000D03*
X83476000Y-138826000D03*
X83476000Y-131826000D03*
X84126000Y-131826000D03*
X84776000Y-131826000D03*
X85426000Y-131826000D03*
X86076000Y-131826000D03*
X86726000Y-131826000D03*
X87376000Y-131826000D03*
X88026000Y-131826000D03*
X88676000Y-131826000D03*
X89326000Y-131826000D03*
%TD*%
D26*
%TO.C,U2*%
X106426000Y-126987000D03*
X106426000Y-128257000D03*
X106426000Y-129527000D03*
X106426000Y-130797000D03*
X111376000Y-130797000D03*
X111376000Y-129527000D03*
X111376000Y-128257000D03*
X111376000Y-126987000D03*
%TD*%
D28*
%TO.C,U1*%
X146177000Y-120969000D03*
X144907000Y-120969000D03*
X143637000Y-120969000D03*
X142367000Y-120969000D03*
X142367000Y-125919000D03*
X143637000Y-125919000D03*
X144907000Y-125919000D03*
X146177000Y-125919000D03*
%TD*%
D20*
%TO.C,SW1*%
X82296000Y-161036000D03*
X82296000Y-167036000D03*
X78546000Y-161036000D03*
X78546000Y-167036000D03*
%TD*%
D29*
%TO.C,RV6*%
X140208000Y-177229000D03*
X140208000Y-178879000D03*
%TD*%
D30*
%TO.C,RV4*%
X80423000Y-157686000D03*
X79403000Y-157686000D03*
%TD*%
D29*
%TO.C,RV3*%
X161290000Y-145225000D03*
X161290000Y-146875000D03*
%TD*%
%TO.C,RV2*%
X126492000Y-134557000D03*
X126492000Y-136207000D03*
%TD*%
D31*
%TO.C,RV1*%
X148082000Y-135699000D03*
X148082000Y-134049000D03*
%TD*%
D32*
%TO.C,R26*%
X91797500Y-182372000D03*
X93622500Y-182372000D03*
%TD*%
%TO.C,R25*%
X87479500Y-182372000D03*
X89304500Y-182372000D03*
%TD*%
%TO.C,R24*%
X83415500Y-180340000D03*
X85240500Y-180340000D03*
%TD*%
D33*
%TO.C,R22*%
X82453000Y-157176000D03*
X82453000Y-158196000D03*
%TD*%
D13*
%TO.C,R17*%
X111886000Y-170053000D03*
X113536000Y-170053000D03*
%TD*%
D29*
%TO.C,R16*%
X113473000Y-164656000D03*
X113473000Y-166306000D03*
%TD*%
D31*
%TO.C,R15*%
X113727000Y-173926000D03*
X113727000Y-172276000D03*
%TD*%
D34*
%TO.C,R14*%
X117663000Y-168275000D03*
X116013000Y-168275000D03*
%TD*%
D13*
%TO.C,R13*%
X143193000Y-132080000D03*
X144843000Y-132080000D03*
%TD*%
D31*
%TO.C,R12*%
X145034000Y-135699000D03*
X145034000Y-134049000D03*
%TD*%
%TO.C,R11*%
X115251000Y-136449000D03*
X115251000Y-138099000D03*
%TD*%
D13*
%TO.C,R10*%
X117411000Y-132956000D03*
X119061000Y-132956000D03*
%TD*%
%TO.C,R9*%
X113410000Y-134226000D03*
X115060000Y-134226000D03*
%TD*%
D29*
%TO.C,R8*%
X114997000Y-129020000D03*
X114997000Y-130670000D03*
%TD*%
D30*
%TO.C,R5*%
X89442000Y-128016000D03*
X88422000Y-128016000D03*
%TD*%
D13*
%TO.C,R4*%
X144717000Y-117602000D03*
X146367000Y-117602000D03*
%TD*%
%TO.C,R3*%
X140907000Y-117602000D03*
X142557000Y-117602000D03*
%TD*%
D35*
%TO.C,R2*%
X83342000Y-143514000D03*
X83342000Y-142494000D03*
%TD*%
%TO.C,R1*%
X86136000Y-143512000D03*
X86136000Y-142492000D03*
%TD*%
D36*
%TO.C,M1*%
X166370000Y-142914000D03*
D37*
X166370000Y-150114000D03*
D38*
X172370000Y-153264000D03*
X172370000Y-139764000D03*
%TD*%
D16*
%TO.C,J3*%
X86121000Y-187681000D03*
D15*
X88661000Y-187681000D03*
X91201000Y-187681000D03*
X93741000Y-187681000D03*
X96281000Y-187681000D03*
X98821000Y-187681000D03*
X101361000Y-187681000D03*
X103901000Y-187681000D03*
%TD*%
D39*
%TO.C,J2*%
X110954000Y-180679700D03*
X135954000Y-180679700D03*
D40*
X128994000Y-179259700D03*
D41*
X126224000Y-179259700D03*
X123454000Y-179259700D03*
X120684000Y-179259700D03*
X117914000Y-179259700D03*
X127609000Y-182099700D03*
X124839000Y-182099700D03*
X122069000Y-182099700D03*
X119299000Y-182099700D03*
%TD*%
D42*
%TO.C,J1*%
X153524000Y-183578000D03*
D36*
X149924000Y-179928000D03*
D43*
X157124000Y-179928000D03*
D44*
X146774000Y-185928000D03*
X160274000Y-185928000D03*
%TD*%
D45*
%TO.C,H4*%
X80000000Y-185000000D03*
%TD*%
%TO.C,H3*%
X80000000Y-120000000D03*
%TD*%
%TO.C,H2*%
X170000000Y-185000000D03*
%TD*%
%TO.C,H1*%
X170000000Y-120000000D03*
%TD*%
D46*
%TO.C,D9*%
X150114000Y-170548000D03*
X150114000Y-165748000D03*
%TD*%
D47*
%TO.C,D8*%
X78868000Y-176604000D03*
X82168000Y-176604000D03*
X82168000Y-171704000D03*
X78868000Y-171704000D03*
%TD*%
%TO.C,D7*%
X86234000Y-176604000D03*
X89534000Y-176604000D03*
X89534000Y-171704000D03*
X86234000Y-171704000D03*
%TD*%
D48*
%TO.C,D6*%
X110031000Y-156845000D03*
X105231000Y-156845000D03*
%TD*%
%TO.C,D1*%
X111301000Y-121526000D03*
X106501000Y-121526000D03*
%TD*%
D49*
%TO.C,C13*%
X145730000Y-165354000D03*
X143830000Y-165354000D03*
%TD*%
D50*
%TO.C,C12*%
X142494000Y-176579000D03*
X142494000Y-179529000D03*
%TD*%
D51*
%TO.C,C10*%
X80701000Y-154892000D03*
X79151000Y-154892000D03*
%TD*%
D22*
%TO.C,C9*%
X133845000Y-132842000D03*
X135395000Y-132842000D03*
%TD*%
D52*
%TO.C,C8*%
X101535000Y-163436000D03*
X101535000Y-164986000D03*
%TD*%
D53*
%TO.C,C7*%
X116521000Y-163891000D03*
X116521000Y-161991000D03*
%TD*%
D22*
%TO.C,C6*%
X91457000Y-131826000D03*
X93007000Y-131826000D03*
%TD*%
D53*
%TO.C,C5*%
X118045000Y-128826000D03*
X118045000Y-126926000D03*
%TD*%
D22*
%TO.C,C4*%
X91457000Y-128778000D03*
X93007000Y-128778000D03*
%TD*%
%TO.C,C3*%
X129146000Y-126935000D03*
X130696000Y-126935000D03*
%TD*%
D52*
%TO.C,C2*%
X103313000Y-128117000D03*
X103313000Y-129667000D03*
%TD*%
D22*
%TO.C,C1*%
X129908000Y-123887000D03*
X131458000Y-123887000D03*
%TD*%
%LPD*%
M02*
