%TF.GenerationSoftware,KiCad,Pcbnew,7.0.9*%
%TF.CreationDate,2024-04-05T12:05:43+09:00*%
%TF.ProjectId,motordriver2,6d6f746f-7264-4726-9976-6572322e6b69,rev?*%
%TF.SameCoordinates,Original*%
%TF.FileFunction,Profile,NP*%
%FSLAX46Y46*%
G04 Gerber Fmt 4.6, Leading zero omitted, Abs format (unit mm)*
G04 Created by KiCad (PCBNEW 7.0.9) date 2024-04-05 12:05:43*
%MOMM*%
%LPD*%
G01*
G04 APERTURE LIST*
%TA.AperFunction,Profile*%
%ADD10C,0.100000*%
%TD*%
G04 APERTURE END LIST*
D10*
X99000000Y-164250000D02*
G75*
G03*
X100000000Y-164250000I500000J0D01*
G01*
X99000000Y-164250000D02*
X99000000Y-162250000D01*
X100000000Y-162250000D02*
X100000000Y-164250000D01*
X100000000Y-162250000D02*
G75*
G03*
X99000000Y-162250000I-500000J0D01*
G01*
X99750000Y-135250000D02*
G75*
G03*
X100750000Y-135250000I500000J0D01*
G01*
X99750000Y-135250000D02*
X99750000Y-133250000D01*
X100750000Y-133250000D02*
X100750000Y-135250000D01*
X100750000Y-133250000D02*
G75*
G03*
X99750000Y-133250000I-500000J0D01*
G01*
X103000000Y-125625000D02*
G75*
G03*
X104000000Y-125625000I500000J0D01*
G01*
X103000000Y-125625000D02*
X103000000Y-120875000D01*
X104000000Y-120875000D02*
X104000000Y-125625000D01*
X104000000Y-120875000D02*
G75*
G03*
X103000000Y-120875000I-500000J0D01*
G01*
X99000000Y-140000000D02*
X99000000Y-142000000D01*
X99000000Y-140000000D02*
G75*
G03*
X98000000Y-140000000I-500000J0D01*
G01*
X98000000Y-142000000D02*
G75*
G03*
X99000000Y-142000000I500000J0D01*
G01*
X98000000Y-142000000D02*
X98000000Y-140000000D01*
X130000000Y-177250000D02*
X130000000Y-169750000D01*
X131000000Y-169750000D02*
G75*
G03*
X130000000Y-169750000I-500000J0D01*
G01*
X130000000Y-177250000D02*
G75*
G03*
X131000000Y-177250000I500000J0D01*
G01*
X131000000Y-169750000D02*
X131000000Y-177250000D01*
X140250000Y-128000000D02*
X140250000Y-124250000D01*
X141250000Y-124250000D02*
G75*
G03*
X140250000Y-124250000I-500000J0D01*
G01*
X140250000Y-128000000D02*
G75*
G03*
X141250000Y-128000000I500000J0D01*
G01*
X141250000Y-124250000D02*
X141250000Y-128000000D01*
X148250000Y-131000000D02*
X148250000Y-116500000D01*
X149250000Y-116500000D02*
G75*
G03*
X148250000Y-116500000I-500000J0D01*
G01*
X148250000Y-131000000D02*
G75*
G03*
X149250000Y-131000000I500000J0D01*
G01*
X149250000Y-116500000D02*
X149250000Y-131000000D01*
X135500000Y-126250000D02*
X135500000Y-130000000D01*
X135500000Y-126250000D02*
G75*
G03*
X134500000Y-126250000I-500000J0D01*
G01*
X134500000Y-130000000D02*
G75*
G03*
X135500000Y-130000000I500000J0D01*
G01*
X134500000Y-130000000D02*
X134500000Y-126250000D01*
X127000000Y-125500000D02*
X127000000Y-126750000D01*
X127000000Y-125500000D02*
G75*
G03*
X126000000Y-125500000I-500000J0D01*
G01*
X126000000Y-126750000D02*
G75*
G03*
X127000000Y-126750000I500000J0D01*
G01*
X126000000Y-126750000D02*
X126000000Y-125500000D01*
X127000000Y-129000000D02*
G75*
G03*
X126000000Y-129000000I-500000J0D01*
G01*
X127000000Y-129000000D02*
X127000000Y-130250000D01*
X126000000Y-130250000D02*
X126000000Y-129000000D01*
X126000000Y-130250000D02*
G75*
G03*
X127000000Y-130250000I500000J0D01*
G01*
X102000000Y-151500000D02*
G75*
G03*
X101000000Y-151500000I-500000J0D01*
G01*
X102000000Y-151500000D02*
X102000000Y-159000000D01*
X101000000Y-159000000D02*
X101000000Y-151500000D01*
X101000000Y-159000000D02*
G75*
G03*
X102000000Y-159000000I500000J0D01*
G01*
X101000000Y-147000000D02*
G75*
G03*
X102000000Y-147000000I500000J0D01*
G01*
X102000000Y-143750000D02*
G75*
G03*
X101000000Y-143750000I-500000J0D01*
G01*
X101000000Y-147000000D02*
X101000000Y-143750000D01*
X102000000Y-143750000D02*
X102000000Y-147000000D01*
X75000000Y-115000000D02*
X175000000Y-115000000D01*
X175000000Y-190000000D01*
X75000000Y-190000000D01*
X75000000Y-115000000D01*
M02*
