%TF.GenerationSoftware,KiCad,Pcbnew,7.0.9*%
%TF.CreationDate,2024-03-23T03:29:42+09:00*%
%TF.ProjectId,motordriver2,6d6f746f-7264-4726-9976-6572322e6b69,rev?*%
%TF.SameCoordinates,Original*%
%TF.FileFunction,Paste,Top*%
%TF.FilePolarity,Positive*%
%FSLAX46Y46*%
G04 Gerber Fmt 4.6, Leading zero omitted, Abs format (unit mm)*
G04 Created by KiCad (PCBNEW 7.0.9) date 2024-03-23 03:29:42*
%MOMM*%
%LPD*%
G01*
G04 APERTURE LIST*
G04 Aperture macros list*
%AMRoundRect*
0 Rectangle with rounded corners*
0 $1 Rounding radius*
0 $2 $3 $4 $5 $6 $7 $8 $9 X,Y pos of 4 corners*
0 Add a 4 corners polygon primitive as box body*
4,1,4,$2,$3,$4,$5,$6,$7,$8,$9,$2,$3,0*
0 Add four circle primitives for the rounded corners*
1,1,$1+$1,$2,$3*
1,1,$1+$1,$4,$5*
1,1,$1+$1,$6,$7*
1,1,$1+$1,$8,$9*
0 Add four rect primitives between the rounded corners*
20,1,$1+$1,$2,$3,$4,$5,0*
20,1,$1+$1,$4,$5,$6,$7,0*
20,1,$1+$1,$6,$7,$8,$9,0*
20,1,$1+$1,$8,$9,$2,$3,0*%
%AMRotRect*
0 Rectangle, with rotation*
0 The origin of the aperture is its center*
0 $1 length*
0 $2 width*
0 $3 Rotation angle, in degrees counterclockwise*
0 Add horizontal line*
21,1,$1,$2,0,0,$3*%
G04 Aperture macros list end*
%ADD10RoundRect,0.140000X0.021213X-0.219203X0.219203X-0.021213X-0.021213X0.219203X-0.219203X0.021213X0*%
%ADD11R,1.570000X1.235000*%
%ADD12R,1.570000X1.585000*%
%ADD13R,0.490000X0.490000*%
%ADD14RoundRect,0.243750X0.243750X0.456250X-0.243750X0.456250X-0.243750X-0.456250X0.243750X-0.456250X0*%
%ADD15RoundRect,0.250000X-0.450000X0.262500X-0.450000X-0.262500X0.450000X-0.262500X0.450000X0.262500X0*%
%ADD16RoundRect,0.200000X0.335876X0.053033X0.053033X0.335876X-0.335876X-0.053033X-0.053033X-0.335876X0*%
%ADD17RoundRect,0.200000X-0.200000X-0.275000X0.200000X-0.275000X0.200000X0.275000X-0.200000X0.275000X0*%
%ADD18RoundRect,0.250000X-0.500000X-1.100000X0.500000X-1.100000X0.500000X1.100000X-0.500000X1.100000X0*%
%ADD19RoundRect,0.250000X0.475000X-0.250000X0.475000X0.250000X-0.475000X0.250000X-0.475000X-0.250000X0*%
%ADD20RoundRect,0.225000X0.250000X-0.225000X0.250000X0.225000X-0.250000X0.225000X-0.250000X-0.225000X0*%
%ADD21RoundRect,0.250000X-0.262500X-0.450000X0.262500X-0.450000X0.262500X0.450000X-0.262500X0.450000X0*%
%ADD22R,1.460500X0.558800*%
%ADD23RoundRect,0.147500X-0.147500X-0.172500X0.147500X-0.172500X0.147500X0.172500X-0.147500X0.172500X0*%
%ADD24RoundRect,0.250001X1.262499X3.349999X-1.262499X3.349999X-1.262499X-3.349999X1.262499X-3.349999X0*%
%ADD25RoundRect,0.250000X0.250000X0.475000X-0.250000X0.475000X-0.250000X-0.475000X0.250000X-0.475000X0*%
%ADD26RoundRect,0.250000X0.450000X-0.262500X0.450000X0.262500X-0.450000X0.262500X-0.450000X-0.262500X0*%
%ADD27RoundRect,0.140000X-0.140000X-0.170000X0.140000X-0.170000X0.140000X0.170000X-0.140000X0.170000X0*%
%ADD28R,1.000000X0.750000*%
%ADD29RoundRect,0.135000X-0.185000X0.135000X-0.185000X-0.135000X0.185000X-0.135000X0.185000X0.135000X0*%
%ADD30RoundRect,0.135000X-0.135000X-0.185000X0.135000X-0.185000X0.135000X0.185000X-0.135000X0.185000X0*%
%ADD31RoundRect,0.147500X0.226274X0.017678X0.017678X0.226274X-0.226274X-0.017678X-0.017678X-0.226274X0*%
%ADD32RoundRect,0.225000X0.335876X0.017678X0.017678X0.335876X-0.335876X-0.017678X-0.017678X-0.335876X0*%
%ADD33RoundRect,0.112500X0.187500X0.112500X-0.187500X0.112500X-0.187500X-0.112500X0.187500X-0.112500X0*%
%ADD34R,2.000000X1.500000*%
%ADD35R,2.000000X3.800000*%
%ADD36RotRect,1.000000X1.800000X315.000000*%
%ADD37RoundRect,0.112500X-0.187500X-0.112500X0.187500X-0.112500X0.187500X0.112500X-0.187500X0.112500X0*%
%ADD38R,0.750000X1.000000*%
%ADD39RoundRect,0.135000X-0.226274X-0.035355X-0.035355X-0.226274X0.226274X0.035355X0.035355X0.226274X0*%
%ADD40RoundRect,0.075000X-0.415425X-0.521491X0.521491X0.415425X0.415425X0.521491X-0.521491X-0.415425X0*%
%ADD41RoundRect,0.075000X0.415425X-0.521491X0.521491X-0.415425X-0.415425X0.521491X-0.521491X0.415425X0*%
%ADD42RoundRect,0.250000X0.262500X0.450000X-0.262500X0.450000X-0.262500X-0.450000X0.262500X-0.450000X0*%
%ADD43RoundRect,0.112500X-0.112500X0.187500X-0.112500X-0.187500X0.112500X-0.187500X0.112500X0.187500X0*%
%ADD44RoundRect,0.250000X-0.650000X0.325000X-0.650000X-0.325000X0.650000X-0.325000X0.650000X0.325000X0*%
%ADD45RoundRect,0.200000X0.275000X-0.200000X0.275000X0.200000X-0.275000X0.200000X-0.275000X-0.200000X0*%
%ADD46RoundRect,0.225000X-0.225000X-0.250000X0.225000X-0.250000X0.225000X0.250000X-0.225000X0.250000X0*%
%ADD47RoundRect,0.150000X-0.150000X0.825000X-0.150000X-0.825000X0.150000X-0.825000X0.150000X0.825000X0*%
%ADD48RoundRect,0.200000X-0.275000X0.200000X-0.275000X-0.200000X0.275000X-0.200000X0.275000X0.200000X0*%
%ADD49RotRect,1.400000X1.200000X135.000000*%
%ADD50RoundRect,0.200000X0.053033X-0.335876X0.335876X-0.053033X-0.053033X0.335876X-0.335876X0.053033X0*%
%ADD51RoundRect,0.140000X-0.219203X-0.021213X-0.021213X-0.219203X0.219203X0.021213X0.021213X0.219203X0*%
%ADD52RoundRect,0.062500X-0.117500X-0.062500X0.117500X-0.062500X0.117500X0.062500X-0.117500X0.062500X0*%
%ADD53RoundRect,0.250000X0.424264X-1.131371X1.131371X-0.424264X-0.424264X1.131371X-1.131371X0.424264X0*%
%ADD54RoundRect,0.225000X0.017678X-0.335876X0.335876X-0.017678X-0.017678X0.335876X-0.335876X0.017678X0*%
%ADD55RoundRect,0.140000X0.219203X0.021213X0.021213X0.219203X-0.219203X-0.021213X-0.021213X-0.219203X0*%
%ADD56RoundRect,0.140000X-0.021213X0.219203X-0.219203X0.021213X0.021213X-0.219203X0.219203X-0.021213X0*%
%ADD57RoundRect,0.225000X-0.250000X0.225000X-0.250000X-0.225000X0.250000X-0.225000X0.250000X0.225000X0*%
G04 APERTURE END LIST*
D10*
%TO.C,C17*%
X73574589Y-138261411D03*
X74253411Y-137582589D03*
%TD*%
D11*
%TO.C,Q2*%
X134035000Y-137830000D03*
X136225000Y-137830000D03*
D12*
X134035000Y-135920000D03*
X136225000Y-135920000D03*
D13*
X133225000Y-139832500D03*
X134495000Y-139832500D03*
X135765000Y-139832500D03*
X137035000Y-139832500D03*
X133225000Y-134232500D03*
X134495000Y-134232500D03*
X135765000Y-134232500D03*
X137035000Y-134232500D03*
%TD*%
D14*
%TO.C,D12*%
X139097500Y-89900000D03*
X137222500Y-89900000D03*
%TD*%
D15*
%TO.C,R40*%
X81395000Y-93612500D03*
X81395000Y-95437500D03*
%TD*%
D10*
%TO.C,C6*%
X72318189Y-148481211D03*
X72997011Y-147802389D03*
%TD*%
D16*
%TO.C,R25*%
X94817363Y-133171363D03*
X93650637Y-132004637D03*
%TD*%
D17*
%TO.C,R5*%
X122975000Y-133200000D03*
X124625000Y-133200000D03*
%TD*%
D18*
%TO.C,D4*%
X117050000Y-129350000D03*
X121850000Y-129350000D03*
%TD*%
D15*
%TO.C,R30*%
X69900000Y-99037500D03*
X69900000Y-100862500D03*
%TD*%
D14*
%TO.C,D8*%
X139137500Y-96750000D03*
X137262500Y-96750000D03*
%TD*%
D18*
%TO.C,D10*%
X117050000Y-124300000D03*
X121850000Y-124300000D03*
%TD*%
D19*
%TO.C,C10*%
X114100000Y-139100000D03*
X114100000Y-137200000D03*
%TD*%
D20*
%TO.C,C20*%
X103378000Y-135141000D03*
X103378000Y-133591000D03*
%TD*%
D21*
%TO.C,R11*%
X83669500Y-118110000D03*
X85494500Y-118110000D03*
%TD*%
D22*
%TO.C,U2*%
X105575850Y-135795000D03*
X105575850Y-137065000D03*
X105575850Y-138335000D03*
X105575850Y-139605000D03*
X111024150Y-139605000D03*
X111024150Y-138335000D03*
X111024150Y-137065000D03*
X111024150Y-135795000D03*
%TD*%
D23*
%TO.C,D20*%
X109532500Y-167709700D03*
X110502500Y-167709700D03*
%TD*%
D24*
%TO.C,R9*%
X111750000Y-126700000D03*
X105050000Y-126700000D03*
%TD*%
D21*
%TO.C,R17*%
X83669500Y-122174000D03*
X85494500Y-122174000D03*
%TD*%
D25*
%TO.C,C7*%
X108000000Y-120050000D03*
X106100000Y-120050000D03*
%TD*%
D26*
%TO.C,R36*%
X102819100Y-99391300D03*
X102819100Y-97566300D03*
%TD*%
D17*
%TO.C,R16*%
X123025000Y-113100000D03*
X124675000Y-113100000D03*
%TD*%
D27*
%TO.C,C1*%
X103914000Y-148362000D03*
X104874000Y-148362000D03*
%TD*%
D28*
%TO.C,SW4*%
X153750000Y-101075000D03*
X147750000Y-101075000D03*
X153750000Y-97325000D03*
X147750000Y-97325000D03*
%TD*%
D17*
%TO.C,R6*%
X123025000Y-140350000D03*
X124675000Y-140350000D03*
%TD*%
D29*
%TO.C,R33*%
X155500000Y-91340000D03*
X155500000Y-92360000D03*
%TD*%
D30*
%TO.C,R35*%
X68790000Y-89250000D03*
X69810000Y-89250000D03*
%TD*%
D31*
%TO.C,D13*%
X94068947Y-136486947D03*
X93383053Y-135801053D03*
%TD*%
D26*
%TO.C,R26*%
X123405000Y-104487500D03*
X123405000Y-102662500D03*
%TD*%
D18*
%TO.C,D11*%
X117050000Y-116450000D03*
X121850000Y-116450000D03*
%TD*%
D32*
%TO.C,C16*%
X79288008Y-150662008D03*
X78191992Y-149565992D03*
%TD*%
D18*
%TO.C,D5*%
X117050000Y-136650000D03*
X121850000Y-136650000D03*
%TD*%
D17*
%TO.C,R8*%
X123025000Y-143300000D03*
X124675000Y-143300000D03*
%TD*%
D33*
%TO.C,D23*%
X84945000Y-90225000D03*
X82845000Y-90225000D03*
%TD*%
D34*
%TO.C,U7*%
X145200000Y-167350000D03*
X145200000Y-169650000D03*
D35*
X151500000Y-169650000D03*
D34*
X145200000Y-171950000D03*
%TD*%
D14*
%TO.C,D9*%
X139137500Y-93350000D03*
X137262500Y-93350000D03*
%TD*%
D34*
%TO.C,U6*%
X145100000Y-151150000D03*
X145100000Y-153450000D03*
D35*
X151400000Y-153450000D03*
D34*
X145100000Y-155750000D03*
%TD*%
D36*
%TO.C,Y1*%
X74602183Y-146197283D03*
X72834417Y-144429517D03*
%TD*%
D37*
%TO.C,D22*%
X86595000Y-90225000D03*
X88695000Y-90225000D03*
%TD*%
D38*
%TO.C,SW5*%
X69875000Y-91000000D03*
X69875000Y-97000000D03*
X66125000Y-91000000D03*
X66125000Y-97000000D03*
%TD*%
D39*
%TO.C,R2*%
X75917376Y-135958376D03*
X76638624Y-136679624D03*
%TD*%
D17*
%TO.C,R15*%
X123025000Y-120300000D03*
X124675000Y-120300000D03*
%TD*%
D40*
%TO.C,U3*%
X76962124Y-141998788D03*
X77315678Y-142352342D03*
X77669231Y-142705895D03*
X78022785Y-143059449D03*
X78376338Y-143413002D03*
X78729891Y-143766555D03*
X79083445Y-144120109D03*
X79436998Y-144473662D03*
X79790551Y-144827215D03*
X80144105Y-145180769D03*
X80497658Y-145534322D03*
X80851212Y-145887876D03*
D41*
X82848788Y-145887876D03*
X83202342Y-145534322D03*
X83555895Y-145180769D03*
X83909449Y-144827215D03*
X84263002Y-144473662D03*
X84616555Y-144120109D03*
X84970109Y-143766555D03*
X85323662Y-143413002D03*
X85677215Y-143059449D03*
X86030769Y-142705895D03*
X86384322Y-142352342D03*
X86737876Y-141998788D03*
D40*
X86737876Y-140001212D03*
X86384322Y-139647658D03*
X86030769Y-139294105D03*
X85677215Y-138940551D03*
X85323662Y-138586998D03*
X84970109Y-138233445D03*
X84616555Y-137879891D03*
X84263002Y-137526338D03*
X83909449Y-137172785D03*
X83555895Y-136819231D03*
X83202342Y-136465678D03*
X82848788Y-136112124D03*
D41*
X80851212Y-136112124D03*
X80497658Y-136465678D03*
X80144105Y-136819231D03*
X79790551Y-137172785D03*
X79436998Y-137526338D03*
X79083445Y-137879891D03*
X78729891Y-138233445D03*
X78376338Y-138586998D03*
X78022785Y-138940551D03*
X77669231Y-139294105D03*
X77315678Y-139647658D03*
X76962124Y-140001212D03*
%TD*%
D27*
%TO.C,C8*%
X115903000Y-165559700D03*
X116863000Y-165559700D03*
%TD*%
D10*
%TO.C,C4*%
X73821189Y-155228811D03*
X74500011Y-154549989D03*
%TD*%
D23*
%TO.C,D21*%
X76015000Y-167859700D03*
X76985000Y-167859700D03*
%TD*%
D42*
%TO.C,R18*%
X134572500Y-93355000D03*
X132747500Y-93355000D03*
%TD*%
D43*
%TO.C,D17*%
X145650000Y-96200000D03*
X145650000Y-98300000D03*
%TD*%
D17*
%TO.C,R4*%
X119375000Y-140350000D03*
X121025000Y-140350000D03*
%TD*%
D44*
%TO.C,C22*%
X141900000Y-171975000D03*
X141900000Y-174925000D03*
%TD*%
D17*
%TO.C,R20*%
X119450000Y-113100000D03*
X121100000Y-113100000D03*
%TD*%
D45*
%TO.C,R7*%
X123750000Y-137425000D03*
X123750000Y-135775000D03*
%TD*%
D15*
%TO.C,R38*%
X88995000Y-93675000D03*
X88995000Y-95500000D03*
%TD*%
D46*
%TO.C,C11*%
X93206000Y-114799000D03*
X94756000Y-114799000D03*
%TD*%
D47*
%TO.C,U1*%
X106299000Y-150687000D03*
X105029000Y-150687000D03*
X103759000Y-150687000D03*
X102489000Y-150687000D03*
X102489000Y-155637000D03*
X103759000Y-155637000D03*
X105029000Y-155637000D03*
X106299000Y-155637000D03*
%TD*%
D48*
%TO.C,R12*%
X123800000Y-115575000D03*
X123800000Y-117225000D03*
%TD*%
D14*
%TO.C,D7*%
X139137500Y-100225000D03*
X137262500Y-100225000D03*
%TD*%
D42*
%TO.C,R14*%
X134722500Y-96765000D03*
X132897500Y-96765000D03*
%TD*%
D10*
%TO.C,C5*%
X70550389Y-146713411D03*
X71229211Y-146034589D03*
%TD*%
D49*
%TO.C,Y2*%
X75676958Y-150920677D03*
X74121323Y-149365042D03*
X72919242Y-150567123D03*
X74474877Y-152122758D03*
%TD*%
D50*
%TO.C,R23*%
X91215637Y-146554363D03*
X92382363Y-145387637D03*
%TD*%
%TO.C,R22*%
X88740737Y-149029163D03*
X89907463Y-147862437D03*
%TD*%
D42*
%TO.C,R10*%
X134722500Y-100200000D03*
X132897500Y-100200000D03*
%TD*%
D28*
%TO.C,SW3*%
X153750000Y-92475000D03*
X147750000Y-92475000D03*
X153750000Y-88725000D03*
X147750000Y-88725000D03*
%TD*%
D18*
%TO.C,D26*%
X145950000Y-160350000D03*
X150750000Y-160350000D03*
%TD*%
D51*
%TO.C,C15*%
X83480589Y-134534589D03*
X84159411Y-135213411D03*
%TD*%
D11*
%TO.C,Q3*%
X136225000Y-121555000D03*
X134035000Y-121555000D03*
D12*
X136225000Y-123465000D03*
X134035000Y-123465000D03*
D13*
X137035000Y-119552500D03*
X135765000Y-119552500D03*
X134495000Y-119552500D03*
X133225000Y-119552500D03*
X137035000Y-125152500D03*
X135765000Y-125152500D03*
X134495000Y-125152500D03*
X133225000Y-125152500D03*
%TD*%
D33*
%TO.C,D3*%
X115350000Y-167309700D03*
X113250000Y-167309700D03*
%TD*%
D17*
%TO.C,R19*%
X119375000Y-120300000D03*
X121025000Y-120300000D03*
%TD*%
D33*
%TO.C,D2*%
X119300000Y-167309700D03*
X117200000Y-167309700D03*
%TD*%
D19*
%TO.C,C24*%
X142100000Y-169650000D03*
X142100000Y-167750000D03*
%TD*%
D38*
%TO.C,SW2*%
X112930000Y-94675000D03*
X112930000Y-100675000D03*
X109180000Y-94675000D03*
X109180000Y-100675000D03*
%TD*%
D30*
%TO.C,R32*%
X111845000Y-92925000D03*
X112865000Y-92925000D03*
%TD*%
D42*
%TO.C,R21*%
X134582500Y-89895000D03*
X132757500Y-89895000D03*
%TD*%
D22*
%TO.C,U5*%
X105601650Y-113400000D03*
X105601650Y-114670000D03*
X105601650Y-115940000D03*
X105601650Y-117210000D03*
X111049950Y-117210000D03*
X111049950Y-115940000D03*
X111049950Y-114670000D03*
X111049950Y-113400000D03*
%TD*%
D11*
%TO.C,Q4*%
X136230000Y-114202500D03*
X134040000Y-114202500D03*
D12*
X136230000Y-116112500D03*
X134040000Y-116112500D03*
D13*
X137040000Y-112200000D03*
X135770000Y-112200000D03*
X134500000Y-112200000D03*
X133230000Y-112200000D03*
X137040000Y-117800000D03*
X135770000Y-117800000D03*
X134500000Y-117800000D03*
X133230000Y-117800000D03*
%TD*%
D17*
%TO.C,R13*%
X123025000Y-110050000D03*
X124675000Y-110050000D03*
%TD*%
D52*
%TO.C,D1*%
X108747500Y-132200000D03*
X107907500Y-132200000D03*
%TD*%
D42*
%TO.C,R1*%
X111762500Y-120050000D03*
X109937500Y-120050000D03*
%TD*%
D15*
%TO.C,R39*%
X85095000Y-93612500D03*
X85095000Y-95437500D03*
%TD*%
D38*
%TO.C,SW1*%
X123280000Y-94675000D03*
X123280000Y-100675000D03*
X119530000Y-94675000D03*
X119530000Y-100675000D03*
%TD*%
D37*
%TO.C,D19*%
X90345000Y-90225000D03*
X92445000Y-90225000D03*
%TD*%
D16*
%TO.C,R24*%
X97253363Y-135649763D03*
X96086637Y-134483037D03*
%TD*%
D33*
%TO.C,D24*%
X101019100Y-93778800D03*
X98919100Y-93778800D03*
%TD*%
D37*
%TO.C,D14*%
X118505000Y-102825000D03*
X120605000Y-102825000D03*
%TD*%
D21*
%TO.C,R29*%
X143887500Y-101100000D03*
X145712500Y-101100000D03*
%TD*%
D45*
%TO.C,RV1*%
X143950000Y-133425000D03*
X143950000Y-131775000D03*
%TD*%
D19*
%TO.C,C18*%
X114050000Y-115900000D03*
X114050000Y-114000000D03*
%TD*%
D37*
%TO.C,D15*%
X108055000Y-102825000D03*
X110155000Y-102825000D03*
%TD*%
D17*
%TO.C,R3*%
X119375000Y-133200000D03*
X121025000Y-133200000D03*
%TD*%
D26*
%TO.C,R27*%
X113005000Y-104500000D03*
X113005000Y-102675000D03*
%TD*%
D27*
%TO.C,C9*%
X113870000Y-165559700D03*
X114830000Y-165559700D03*
%TD*%
D48*
%TO.C,RV2*%
X143350000Y-114650000D03*
X143350000Y-116300000D03*
%TD*%
D37*
%TO.C,D25*%
X79295000Y-90225000D03*
X81395000Y-90225000D03*
%TD*%
D11*
%TO.C,Q1*%
X134035000Y-130500000D03*
X136225000Y-130500000D03*
D12*
X134035000Y-128590000D03*
X136225000Y-128590000D03*
D13*
X133225000Y-132502500D03*
X134495000Y-132502500D03*
X135765000Y-132502500D03*
X137035000Y-132502500D03*
X133225000Y-126902500D03*
X134495000Y-126902500D03*
X135765000Y-126902500D03*
X137035000Y-126902500D03*
%TD*%
D26*
%TO.C,R37*%
X98919100Y-99391300D03*
X98919100Y-97566300D03*
%TD*%
D19*
%TO.C,C23*%
X142200000Y-153450000D03*
X142200000Y-151550000D03*
%TD*%
D53*
%TO.C,D6*%
X83392944Y-154351056D03*
X86787056Y-150956944D03*
%TD*%
D37*
%TO.C,D28*%
X101119100Y-90978800D03*
X103219100Y-90978800D03*
%TD*%
D29*
%TO.C,R34*%
X155500000Y-99990000D03*
X155500000Y-101010000D03*
%TD*%
D54*
%TO.C,C19*%
X71350692Y-136596208D03*
X72446708Y-135500192D03*
%TD*%
D43*
%TO.C,D16*%
X145700000Y-87550000D03*
X145700000Y-89650000D03*
%TD*%
D10*
%TO.C,C3*%
X70776689Y-152356111D03*
X71455511Y-151677289D03*
%TD*%
D44*
%TO.C,C21*%
X142050000Y-155775000D03*
X142050000Y-158725000D03*
%TD*%
D18*
%TO.C,D27*%
X146250000Y-176650000D03*
X151050000Y-176650000D03*
%TD*%
D55*
%TO.C,C12*%
X79079411Y-148167411D03*
X78400589Y-147488589D03*
%TD*%
%TO.C,C13*%
X75224411Y-141657611D03*
X74545589Y-140978789D03*
%TD*%
D47*
%TO.C,U4*%
X91186000Y-109474000D03*
X89916000Y-109474000D03*
X88646000Y-109474000D03*
X87376000Y-109474000D03*
X87376000Y-114424000D03*
X88646000Y-114424000D03*
X89916000Y-114424000D03*
X91186000Y-114424000D03*
%TD*%
D30*
%TO.C,R31*%
X122195000Y-92925000D03*
X123215000Y-92925000D03*
%TD*%
D56*
%TO.C,C14*%
X88730111Y-143382989D03*
X88051289Y-144061811D03*
%TD*%
D37*
%TO.C,D18*%
X64700000Y-99100000D03*
X66800000Y-99100000D03*
%TD*%
D57*
%TO.C,C2*%
X102300000Y-114575000D03*
X102300000Y-116125000D03*
%TD*%
D21*
%TO.C,R28*%
X143887500Y-92550000D03*
X145712500Y-92550000D03*
%TD*%
M02*
