%TF.GenerationSoftware,KiCad,Pcbnew,7.0.9*%
%TF.CreationDate,2024-03-24T03:36:48+09:00*%
%TF.ProjectId,motordriver2,6d6f746f-7264-4726-9976-6572322e6b69,rev?*%
%TF.SameCoordinates,Original*%
%TF.FileFunction,Legend,Bot*%
%TF.FilePolarity,Positive*%
%FSLAX46Y46*%
G04 Gerber Fmt 4.6, Leading zero omitted, Abs format (unit mm)*
G04 Created by KiCad (PCBNEW 7.0.9) date 2024-03-24 03:36:48*
%MOMM*%
%LPD*%
G01*
G04 APERTURE LIST*
G04 Aperture macros list*
%AMRoundRect*
0 Rectangle with rounded corners*
0 $1 Rounding radius*
0 $2 $3 $4 $5 $6 $7 $8 $9 X,Y pos of 4 corners*
0 Add a 4 corners polygon primitive as box body*
4,1,4,$2,$3,$4,$5,$6,$7,$8,$9,$2,$3,0*
0 Add four circle primitives for the rounded corners*
1,1,$1+$1,$2,$3*
1,1,$1+$1,$4,$5*
1,1,$1+$1,$6,$7*
1,1,$1+$1,$8,$9*
0 Add four rect primitives between the rounded corners*
20,1,$1+$1,$2,$3,$4,$5,0*
20,1,$1+$1,$4,$5,$6,$7,0*
20,1,$1+$1,$6,$7,$8,$9,0*
20,1,$1+$1,$8,$9,$2,$3,0*%
G04 Aperture macros list end*
%ADD10R,1.700000X1.700000*%
%ADD11O,1.700000X1.700000*%
%ADD12C,6.400000*%
%ADD13C,2.000000*%
%ADD14R,2.000000X0.900000*%
%ADD15RoundRect,1.025000X-1.025000X1.025000X-1.025000X-1.025000X1.025000X-1.025000X1.025000X1.025000X0*%
%ADD16C,4.100000*%
%ADD17C,4.000000*%
%ADD18R,1.600000X1.600000*%
%ADD19C,1.600000*%
%ADD20R,1.300000X2.300000*%
G04 APERTURE END LIST*
%LPC*%
D10*
%TO.C,J5*%
X102359100Y-86628800D03*
D11*
X99819100Y-86628800D03*
X97279100Y-86628800D03*
%TD*%
D10*
%TO.C,J4*%
X92025000Y-87376000D03*
D11*
X89485000Y-87376000D03*
X86945000Y-87376000D03*
X84405000Y-87376000D03*
X81865000Y-87376000D03*
X79325000Y-87376000D03*
%TD*%
D12*
%TO.C,H1*%
X63000000Y-160000000D03*
%TD*%
D13*
%TO.C,TP7*%
X79248000Y-143764000D03*
%TD*%
%TO.C,TP4*%
X64096000Y-144482000D03*
%TD*%
%TO.C,TP3*%
X64096000Y-140164000D03*
%TD*%
D14*
%TO.C,M1*%
X156520000Y-125838000D03*
X156520000Y-139338000D03*
D15*
X150520000Y-136188000D03*
D16*
X150520000Y-128988000D03*
%TD*%
D13*
%TO.C,TP5*%
X71092000Y-143766000D03*
%TD*%
D17*
%TO.C,J3*%
X105354000Y-155298000D03*
X130354000Y-155298000D03*
D18*
X123394000Y-153878000D03*
D19*
X120624000Y-153878000D03*
X117854000Y-153878000D03*
X115084000Y-153878000D03*
X112314000Y-153878000D03*
X122009000Y-156718000D03*
X119239000Y-156718000D03*
X116469000Y-156718000D03*
X113699000Y-156718000D03*
%TD*%
D13*
%TO.C,TP2*%
X64008000Y-135636000D03*
%TD*%
D17*
%TO.C,J2*%
X72600000Y-155279700D03*
X97600000Y-155279700D03*
D18*
X90640000Y-153859700D03*
D19*
X87870000Y-153859700D03*
X85100000Y-153859700D03*
X82330000Y-153859700D03*
X79560000Y-153859700D03*
X89255000Y-156699700D03*
X86485000Y-156699700D03*
X83715000Y-156699700D03*
X80945000Y-156699700D03*
%TD*%
D13*
%TO.C,TP6*%
X75184000Y-143764000D03*
%TD*%
D12*
%TO.C,H2*%
X63000000Y-88000000D03*
%TD*%
%TO.C,H4*%
X153000000Y-88000000D03*
%TD*%
D14*
%TO.C,J1*%
X156274000Y-108058000D03*
X156274000Y-121558000D03*
D15*
X150274000Y-111208000D03*
D16*
X150274000Y-118408000D03*
D20*
X153924000Y-114808000D03*
%TD*%
D12*
%TO.C,H3*%
X153000000Y-160000000D03*
%TD*%
%LPD*%
M02*
