%TF.GenerationSoftware,KiCad,Pcbnew,7.0.9*%
%TF.CreationDate,2024-05-04T16:18:37+09:00*%
%TF.ProjectId,motordriver2,6d6f746f-7264-4726-9976-6572322e6b69,rev?*%
%TF.SameCoordinates,Original*%
%TF.FileFunction,Paste,Bot*%
%TF.FilePolarity,Positive*%
%FSLAX46Y46*%
G04 Gerber Fmt 4.6, Leading zero omitted, Abs format (unit mm)*
G04 Created by KiCad (PCBNEW 7.0.9) date 2024-05-04 16:18:37*
%MOMM*%
%LPD*%
G01*
G04 APERTURE LIST*
G04 Aperture macros list*
%AMRoundRect*
0 Rectangle with rounded corners*
0 $1 Rounding radius*
0 $2 $3 $4 $5 $6 $7 $8 $9 X,Y pos of 4 corners*
0 Add a 4 corners polygon primitive as box body*
4,1,4,$2,$3,$4,$5,$6,$7,$8,$9,$2,$3,0*
0 Add four circle primitives for the rounded corners*
1,1,$1+$1,$2,$3*
1,1,$1+$1,$4,$5*
1,1,$1+$1,$6,$7*
1,1,$1+$1,$8,$9*
0 Add four rect primitives between the rounded corners*
20,1,$1+$1,$2,$3,$4,$5,0*
20,1,$1+$1,$4,$5,$6,$7,0*
20,1,$1+$1,$6,$7,$8,$9,0*
20,1,$1+$1,$8,$9,$2,$3,0*%
G04 Aperture macros list end*
%ADD10RoundRect,0.200000X-0.275000X0.200000X-0.275000X-0.200000X0.275000X-0.200000X0.275000X0.200000X0*%
%ADD11RoundRect,0.200000X-0.200000X-0.275000X0.200000X-0.275000X0.200000X0.275000X-0.200000X0.275000X0*%
%ADD12RoundRect,0.250000X-0.475000X0.250000X-0.475000X-0.250000X0.475000X-0.250000X0.475000X0.250000X0*%
%ADD13R,0.450000X1.450000*%
%ADD14RoundRect,0.125000X-0.125000X0.825000X-0.125000X-0.825000X0.125000X-0.825000X0.125000X0.825000X0*%
%ADD15RoundRect,0.200000X0.275000X-0.200000X0.275000X0.200000X-0.275000X0.200000X-0.275000X-0.200000X0*%
%ADD16RoundRect,0.200000X0.200000X0.275000X-0.200000X0.275000X-0.200000X-0.275000X0.200000X-0.275000X0*%
%ADD17RoundRect,0.225000X0.225000X0.250000X-0.225000X0.250000X-0.225000X-0.250000X0.225000X-0.250000X0*%
%ADD18RoundRect,0.225000X-0.250000X0.225000X-0.250000X-0.225000X0.250000X-0.225000X0.250000X0.225000X0*%
%ADD19R,1.460500X0.558800*%
%ADD20RoundRect,0.225000X-0.225000X-0.250000X0.225000X-0.250000X0.225000X0.250000X-0.225000X0.250000X0*%
%ADD21RoundRect,0.150000X0.825000X0.150000X-0.825000X0.150000X-0.825000X-0.150000X0.825000X-0.150000X0*%
G04 APERTURE END LIST*
D10*
%TO.C,R4*%
X120100000Y-158975000D03*
X120100000Y-160625000D03*
%TD*%
D11*
%TO.C,R5*%
X102179000Y-135594000D03*
X103829000Y-135594000D03*
%TD*%
D12*
%TO.C,C8*%
X129424200Y-164985000D03*
X129424200Y-166885000D03*
%TD*%
D10*
%TO.C,R10*%
X145000000Y-139775000D03*
X145000000Y-141425000D03*
%TD*%
D13*
%TO.C,U5*%
X128565000Y-144866000D03*
X129215000Y-144866000D03*
X129865000Y-144866000D03*
X130515000Y-144866000D03*
X130515000Y-149266000D03*
X129865000Y-149266000D03*
X129215000Y-149266000D03*
X128565000Y-149266000D03*
%TD*%
D11*
%TO.C,R8*%
X141775000Y-141200000D03*
X143425000Y-141200000D03*
%TD*%
D14*
%TO.C,U7*%
X102075000Y-140800000D03*
X102725000Y-140800000D03*
X103375000Y-140800000D03*
X104025000Y-140800000D03*
X104675000Y-140800000D03*
X105325000Y-140800000D03*
X105975000Y-140800000D03*
X106625000Y-140800000D03*
X107275000Y-140800000D03*
X107925000Y-140800000D03*
X107925000Y-147800000D03*
X107275000Y-147800000D03*
X106625000Y-147800000D03*
X105975000Y-147800000D03*
X105325000Y-147800000D03*
X104675000Y-147800000D03*
X104025000Y-147800000D03*
X103375000Y-147800000D03*
X102725000Y-147800000D03*
X102075000Y-147800000D03*
%TD*%
D15*
%TO.C,R25*%
X89700000Y-137479000D03*
X89700000Y-135829000D03*
%TD*%
D10*
%TO.C,R14*%
X145000000Y-155775000D03*
X145000000Y-157425000D03*
%TD*%
D16*
%TO.C,R2*%
X109729000Y-151094000D03*
X108079000Y-151094000D03*
%TD*%
D11*
%TO.C,R11*%
X130075000Y-141900000D03*
X131725000Y-141900000D03*
%TD*%
D10*
%TO.C,R15*%
X129900000Y-157175000D03*
X129900000Y-158825000D03*
%TD*%
D16*
%TO.C,R1*%
X108354000Y-153994000D03*
X106704000Y-153994000D03*
%TD*%
D10*
%TO.C,RV3*%
X162000000Y-147875000D03*
X162000000Y-149525000D03*
%TD*%
D17*
%TO.C,C3*%
X117550000Y-153300000D03*
X116000000Y-153300000D03*
%TD*%
D18*
%TO.C,C7*%
X119024200Y-169360000D03*
X119024200Y-170910000D03*
%TD*%
D19*
%TO.C,U2*%
X119975850Y-167105000D03*
X119975850Y-165835000D03*
X119975850Y-164565000D03*
X119975850Y-163295000D03*
X125424150Y-163295000D03*
X125424150Y-164565000D03*
X125424150Y-165835000D03*
X125424150Y-167105000D03*
%TD*%
D11*
%TO.C,R17*%
X126475000Y-158700000D03*
X128125000Y-158700000D03*
%TD*%
%TO.C,R12*%
X116375000Y-157000000D03*
X118025000Y-157000000D03*
%TD*%
%TO.C,R16*%
X141575000Y-156200000D03*
X143225000Y-156200000D03*
%TD*%
D12*
%TO.C,C5*%
X130424200Y-134135000D03*
X130424200Y-136035000D03*
%TD*%
D20*
%TO.C,C9*%
X127450000Y-151600000D03*
X129000000Y-151600000D03*
%TD*%
D11*
%TO.C,R13*%
X101579000Y-154294000D03*
X103229000Y-154294000D03*
%TD*%
D21*
%TO.C,U1*%
X125475000Y-153195000D03*
X125475000Y-154465000D03*
X125475000Y-155735000D03*
X125475000Y-157005000D03*
X120525000Y-157005000D03*
X120525000Y-155735000D03*
X120525000Y-154465000D03*
X120525000Y-153195000D03*
%TD*%
D11*
%TO.C,R9*%
X130075000Y-139000000D03*
X131725000Y-139000000D03*
%TD*%
D15*
%TO.C,R26*%
X89700000Y-133161000D03*
X89700000Y-131511000D03*
%TD*%
%TO.C,RV1*%
X114300000Y-156825000D03*
X114300000Y-155175000D03*
%TD*%
D11*
%TO.C,R3*%
X128375000Y-155300000D03*
X130025000Y-155300000D03*
%TD*%
D17*
%TO.C,C6*%
X98779000Y-139594000D03*
X97229000Y-139594000D03*
%TD*%
%TO.C,C1*%
X117450000Y-150200000D03*
X115900000Y-150200000D03*
%TD*%
D15*
%TO.C,R24*%
X91732000Y-141543000D03*
X91732000Y-139893000D03*
%TD*%
D16*
%TO.C,R18*%
X129425000Y-153500000D03*
X127775000Y-153500000D03*
%TD*%
D18*
%TO.C,C2*%
X120024200Y-138560000D03*
X120024200Y-140110000D03*
%TD*%
D19*
%TO.C,U4*%
X120975850Y-136305000D03*
X120975850Y-135035000D03*
X120975850Y-133765000D03*
X120975850Y-132495000D03*
X126424150Y-132495000D03*
X126424150Y-133765000D03*
X126424150Y-135035000D03*
X126424150Y-136305000D03*
%TD*%
D17*
%TO.C,C4*%
X98779000Y-142394000D03*
X97229000Y-142394000D03*
%TD*%
D11*
%TO.C,R19*%
X100679000Y-151194000D03*
X102329000Y-151194000D03*
%TD*%
M02*
