M48
; DRILL file {KiCad 7.0.9} date Sat Mar 23 03:29:42 2024
; FORMAT={-:-/ absolute / inch / decimal}
; #@! TF.CreationDate,2024-03-23T03:29:42+09:00
; #@! TF.GenerationSoftware,Kicad,Pcbnew,7.0.9
; #@! TF.FileFunction,Plated,1,2,PTH
FMAT,2
INCH
; #@! TA.AperFunction,Plated,PTH,ViaDrill
T1C0.0157
; #@! TA.AperFunction,Plated,PTH,ComponentDrill
T2C0.0236
; #@! TA.AperFunction,Plated,PTH,ComponentDrill
T3C0.0394
; #@! TA.AperFunction,Plated,PTH,ComponentDrill
T4C0.1063
; #@! TA.AperFunction,Plated,PTH,ComponentDrill
T5C0.1260
%
G90
G05
T1
X2.36Y-6.01
X2.38Y-5.86
X2.4Y-6.03
X2.43Y-5.85
X2.45Y-6.03
X2.47Y-5.85
X2.52Y-6.09
X2.59Y-3.94
X2.64Y-6.2
X2.65Y-3.5
X2.65Y-6.1
X2.68Y-3.97
X2.69Y-4.03
X2.7Y-3.63
X2.7Y-6.44
X2.71Y-3.78
X2.72Y-6.25
X2.74Y-6.5
X2.75Y-5.38
X2.78Y-5.33
X2.78Y-5.69
X2.78Y-5.95
X2.79Y-3.52
X2.79Y-5.43
X2.8Y-5.81
X2.8Y-5.88
X2.81Y-3.87
X2.82Y-3.62
X2.82Y-3.96
X2.82Y-4.03
X2.82Y-6.04
X2.83Y-3.52
X2.83Y-3.78
X2.83Y-5.64
X2.83Y-6.1
X2.84Y-5.47
X2.85Y-6.0
X2.86Y-6.25
X2.88Y-5.59
X2.88Y-6.42
X2.89Y-3.62
X2.9Y-5.52
X2.9Y-6.04
X2.92Y-5.36
X2.92Y-5.61
X2.92Y-5.64
X2.95Y-3.86
X2.95Y-3.95
X2.95Y-4.12
X2.95Y-4.29
X2.95Y-4.47
X2.95Y-4.64
X2.95Y-4.82
X2.95Y-4.97
X2.95Y-5.14
X2.95Y-5.3
X2.96Y-3.56
X2.97Y-3.69
X2.98Y-6.52
X2.98Y-6.56
X2.988Y-5.4572
X2.989Y-5.4145
X2.9973Y-3.8991
X2.9998Y-5.6351
X3.01Y-3.83
X3.02Y-5.89
X3.0219Y-5.5463
X3.0247Y-5.2708
X3.03Y-3.61
X3.04Y-4.12
X3.04Y-4.29
X3.04Y-4.47
X3.04Y-4.64
X3.04Y-4.82
X3.04Y-4.96
X3.04Y-5.01
X3.04Y-6.52
X3.04Y-6.55
X3.05Y-3.93
X3.05Y-5.83
X3.05Y-5.97
X3.06Y-5.09
X3.06Y-5.14
X3.06Y-5.2
X3.08Y-3.68
X3.08Y-6.7
X3.08Y-7.01
X3.09Y-3.75
X3.1Y-5.06
X3.1Y-5.55
X3.1Y-6.43
X3.11Y-5.15
X3.11Y-6.16
X3.1201Y-5.2324
X3.13Y-5.52
X3.13Y-5.58
X3.14Y-3.68
X3.14Y-3.82
X3.14Y-5.03
X3.15Y-3.5
X3.15Y-5.11
X3.16Y-3.59
X3.16Y-5.49
X3.16Y-5.55
X3.16Y-5.61
X3.17Y-6.52
X3.18Y-4.99
X3.19Y-5.07
X3.19Y-5.46
X3.19Y-5.52
X3.19Y-5.58
X3.19Y-5.64
X3.19Y-6.23
X3.2Y-6.09
X3.2044Y-5.3377
X3.21Y-7.01
X3.22Y-4.96
X3.22Y-5.43
X3.22Y-5.49
X3.22Y-5.55
X3.22Y-5.61
X3.22Y-5.67
X3.23Y-6.71
X3.24Y-4.81
X3.24Y-5.03
X3.25Y-4.72
X3.25Y-4.93
X3.25Y-5.46
X3.25Y-5.52
X3.25Y-5.58
X3.25Y-5.64
X3.25Y-6.14
X3.25Y-6.31
X3.27Y-3.81
X3.28Y-4.88
X3.28Y-5.49
X3.28Y-5.55
X3.28Y-5.61
X3.28Y-6.39
X3.29Y-3.91
X3.29Y-4.03
X3.29Y-4.15
X3.29Y-4.27
X3.29Y-4.39
X3.29Y-4.49
X3.29Y-4.94
X3.29Y-4.98
X3.31Y-3.48
X3.31Y-5.52
X3.31Y-5.58
X3.3115Y-5.9463
X3.3145Y-5.788
X3.32Y-6.15
X3.32Y-6.22
X3.32Y-6.61
X3.3332Y-3.8015
X3.3386Y-5.2986
X3.34Y-5.55
X3.34Y-7.01
X3.36Y-5.9894
X3.37Y-3.59
X3.3722Y-5.2232
X3.38Y-3.83
X3.38Y-3.88
X3.3818Y-5.28
X3.39Y-6.11
X3.39Y-6.23
X3.4Y-5.77
X3.4Y-5.85
X3.4Y-6.54
X3.41Y-4.39
X3.41Y-6.69
X3.419Y-5.1835
X3.42Y-5.75
X3.42Y-6.89
X3.4241Y-4.7518
X3.43Y-3.7
X3.43Y-6.33
X3.4343Y-5.567
X3.44Y-5.88
X3.45Y-3.48
X3.45Y-3.6
X3.4506Y-4.9826
X3.46Y-3.91
X3.46Y-4.02
X3.46Y-4.12
X3.46Y-4.23
X3.46Y-6.33
X3.46Y-6.48
X3.4637Y-6.0794
X3.47Y-5.81
X3.47Y-6.63
X3.47Y-7.01
X3.4962Y-3.8048
X3.5Y-5.92
X3.5Y-6.74
X3.5087Y-5.3474
X3.51Y-5.06
X3.51Y-5.97
X3.51Y-6.23
X3.52Y-5.61
X3.52Y-6.41
X3.5247Y-5.3042
X3.53Y-6.06
X3.53Y-6.09
X3.53Y-6.57
X3.5325Y-3.5238
X3.5398Y-5.6717
X3.54Y-4.98
X3.54Y-5.06
X3.55Y-3.64
X3.55Y-4.23
X3.55Y-4.38
X3.55Y-6.9
X3.56Y-5.47
X3.56Y-5.61
X3.56Y-6.17
X3.5627Y-5.7379
X3.57Y-3.47
X3.57Y-3.74
X3.57Y-4.67
X3.57Y-4.73
X3.57Y-4.79
X3.57Y-4.85
X3.58Y-4.19
X3.58Y-6.74
X3.5927Y-5.7007
X3.6Y-3.6
X3.6Y-6.49
X3.61Y-4.63
X3.61Y-4.81
X3.62Y-7.01
X3.63Y-4.12
X3.64Y-4.26
X3.64Y-4.46
X3.64Y-4.78
X3.64Y-4.89
X3.64Y-4.96
X3.64Y-5.01
X3.64Y-5.06
X3.64Y-5.11
X3.64Y-6.29
X3.6432Y-5.4063
X3.65Y-4.59
X3.65Y-5.48
X3.66Y-5.09
X3.67Y-4.75
X3.67Y-6.42
X3.68Y-3.63
X3.68Y-4.23
X3.68Y-4.85
X3.68Y-5.79
X3.69Y-3.46
X3.69Y-4.06
X3.69Y-5.06
X3.69Y-6.06
X3.69Y-6.09
X3.6911Y-5.4122
X3.7Y-4.59
X3.7Y-4.72
X3.71Y-4.82
X3.71Y-5.69
X3.72Y-5.03
X3.73Y-4.69
X3.74Y-4.36
X3.74Y-4.79
X3.74Y-5.16
X3.74Y-5.33
X3.75Y-3.4
X3.75Y-4.0
X3.75Y-4.16
X3.75Y-4.59
X3.75Y-5.0
X3.75Y-6.33
X3.76Y-4.66
X3.76Y-5.47
X3.77Y-4.76
X3.77Y-5.88
X3.77Y-6.17
X3.77Y-7.01
X3.78Y-3.48
X3.78Y-4.32
X3.78Y-4.52
X3.78Y-4.97
X3.78Y-5.14
X3.78Y-6.74
X3.79Y-4.63
X3.79Y-5.38
X3.79Y-5.44
X3.79Y-5.61
X3.8Y-4.59
X3.8Y-4.73
X3.8Y-5.18
X3.81Y-3.94
X3.81Y-4.1
X3.81Y-4.94
X3.81Y-5.11
X3.82Y-4.42
X3.82Y-5.8
X3.82Y-6.9
X3.83Y-4.7
X3.84Y-4.55
X3.84Y-4.91
X3.84Y-5.08
X3.84Y-5.21
X3.84Y-6.09
X3.85Y-3.48
X3.85Y-4.38
X3.85Y-6.33
X3.86Y-5.37
X3.87Y-4.52
X3.87Y-4.67
X3.87Y-4.71
X3.87Y-4.75
X3.87Y-4.79
X3.87Y-4.83
X3.87Y-4.87
X3.87Y-5.05
X3.87Y-6.06
X3.88Y-4.02
X3.88Y-5.09
X3.88Y-5.13
X3.88Y-5.17
X3.88Y-5.21
X3.88Y-5.33
X3.88Y-6.42
X3.89Y-6.9
X3.893Y-4.2786
X3.9083Y-4.144
X3.91Y-6.17
X3.92Y-5.47
X3.92Y-5.61
X3.92Y-5.8
X3.92Y-5.88
X3.92Y-6.74
X3.92Y-7.01
X3.9301Y-3.9674
X3.9596Y-3.913
X3.9768Y-4.4155
X3.9896Y-4.6002
X3.99Y-6.09
X3.99Y-6.17
X3.9939Y-4.3037
X4.0Y-3.96
X4.0Y-4.11
X4.0Y-4.24
X4.0Y-5.36
X4.01Y-3.64
X4.01Y-5.61
X4.01Y-5.79
X4.012Y-3.5603
X4.02Y-3.76
X4.0211Y-4.7995
X4.04Y-4.18
X4.04Y-6.06
X4.06Y-6.23
X4.07Y-7.01
X4.0702Y-4.5719
X4.0728Y-5.3721
X4.08Y-3.69
X4.1Y-3.42
X4.1022Y-5.4923
X4.11Y-3.79
X4.12Y-5.55
X4.12Y-5.79
X4.1233Y-4.1136
X4.1264Y-4.6496
X4.13Y-4.42
X4.1318Y-5.2595
X4.1388Y-4.8106
X4.14Y-6.33
X4.16Y-3.34
X4.17Y-5.84
X4.1703Y-5.9951
X4.1703Y-6.1902
X4.1709Y-5.8013
X4.18Y-3.38
X4.2Y-3.56
X4.22Y-4.33
X4.22Y-4.61
X4.22Y-7.01
X4.23Y-4.45
X4.23Y-5.45
X4.23Y-6.04
X4.23Y-6.25
X4.23Y-6.41
X4.24Y-6.12
X4.25Y-4.18
X4.25Y-5.97
X4.26Y-3.56
X4.26Y-3.64
X4.26Y-6.63
X4.26Y-6.69
X4.27Y-4.61
X4.27Y-6.89
X4.29Y-5.39
X4.3Y-4.41
X4.3Y-5.44
X4.3Y-6.31
X4.3Y-6.49
X4.3Y-6.64
X4.3Y-6.69
X4.32Y-4.81
X4.32Y-4.87
X4.32Y-4.91
X4.32Y-4.95
X4.32Y-4.99
X4.32Y-5.03
X4.32Y-5.07
X4.32Y-5.11
X4.32Y-5.17
X4.32Y-5.55
X4.32Y-6.04
X4.33Y-3.64
X4.33Y-6.12
X4.35Y-4.33
X4.36Y-4.81
X4.36Y-4.87
X4.36Y-4.91
X4.36Y-4.95
X4.36Y-4.99
X4.36Y-5.03
X4.36Y-5.07
X4.36Y-5.11
X4.36Y-5.17
X4.37Y-3.56
X4.38Y-4.1
X4.38Y-6.37
X4.38Y-7.01
X4.39Y-3.71
X4.39Y-4.0
X4.39Y-6.0
X4.4Y-4.42
X4.4Y-4.81
X4.4Y-4.87
X4.4Y-4.91
X4.4Y-4.95
X4.4Y-4.99
X4.4Y-5.03
X4.4Y-5.07
X4.4Y-5.11
X4.4Y-5.17
X4.4Y-6.64
X4.41Y-6.43
X4.4125Y-5.2433
X4.43Y-6.54
X4.44Y-4.42
X4.44Y-4.81
X4.44Y-4.87
X4.44Y-4.91
X4.44Y-4.95
X4.44Y-4.99
X4.44Y-5.03
X4.44Y-5.07
X4.44Y-5.11
X4.44Y-5.17
X4.44Y-6.12
X4.46Y-4.17
X4.48Y-4.81
X4.48Y-4.87
X4.48Y-4.91
X4.48Y-4.95
X4.48Y-4.99
X4.48Y-5.03
X4.48Y-5.07
X4.48Y-5.11
X4.48Y-5.17
X4.49Y-3.67
X4.49Y-4.68
X4.5Y-6.0
X4.52Y-4.71
X4.52Y-5.55
X4.53Y-7.01
X4.55Y-6.12
X4.55Y-6.66
X4.55Y-6.7
X4.56Y-4.74
X4.59Y-4.34
X4.59Y-4.42
X4.6Y-4.5
X4.6Y-5.49
X4.61Y-6.0
X4.64Y-4.46
X4.64Y-4.72
X4.65Y-4.0
X4.65Y-5.55
X4.66Y-6.12
X4.69Y-4.01
X4.69Y-7.01
X4.72Y-6.0
X4.73Y-5.58
X4.74Y-4.17
X4.74Y-4.34
X4.75Y-4.0
X4.75Y-6.89
X4.76Y-3.68
X4.77Y-6.12
X4.79Y-4.13
X4.7998Y-5.1733
X4.8Y-3.71
X4.8Y-4.0
X4.81Y-5.58
X4.83Y-6.0
X4.84Y-4.19
X4.85Y-3.55
X4.86Y-7.0
X4.87Y-5.58
X4.88Y-6.12
X4.9Y-3.65
X4.9Y-6.89
X4.94Y-6.0
X4.96Y-3.57
X4.96Y-5.24
X4.96Y-5.63
X4.99Y-6.12
X5.02Y-5.68
X5.03Y-3.34
X5.03Y-3.39
X5.03Y-4.47
X5.03Y-4.51
X5.03Y-4.55
X5.03Y-4.59
X5.03Y-4.63
X5.03Y-4.67
X5.03Y-4.75
X5.03Y-4.79
X5.03Y-4.83
X5.03Y-4.87
X5.03Y-4.91
X5.03Y-4.95
X5.03Y-4.99
X5.03Y-5.03
X5.03Y-5.07
X5.03Y-5.11
X5.03Y-5.19
X5.03Y-5.27
X5.03Y-5.31
X5.03Y-5.35
X5.03Y-5.39
X5.03Y-5.43
X5.03Y-5.47
X5.03Y-5.51
X5.03Y-5.55
X5.03Y-7.0
X5.03Y-5.1495
X5.05Y-6.0
X5.06Y-4.33
X5.06Y-4.37
X5.07Y-4.47
X5.07Y-4.51
X5.07Y-4.55
X5.07Y-4.59
X5.07Y-4.63
X5.07Y-4.67
X5.07Y-4.75
X5.07Y-4.79
X5.07Y-4.83
X5.07Y-4.87
X5.07Y-4.91
X5.07Y-4.95
X5.07Y-4.99
X5.07Y-5.03
X5.07Y-5.07
X5.07Y-5.11
X5.07Y-5.19
X5.07Y-5.27
X5.07Y-5.31
X5.07Y-5.35
X5.07Y-5.39
X5.07Y-5.43
X5.07Y-5.47
X5.07Y-5.51
X5.07Y-5.55
X5.07Y-5.1495
X5.08Y-3.46
X5.1Y-4.33
X5.1Y-4.37
X5.1Y-6.12
X5.11Y-4.47
X5.11Y-4.51
X5.11Y-4.55
X5.11Y-4.59
X5.11Y-4.63
X5.11Y-4.67
X5.11Y-4.75
X5.11Y-5.19
X5.11Y-5.27
X5.11Y-5.47
X5.11Y-5.51
X5.11Y-5.55
X5.11Y-6.89
X5.14Y-4.33
X5.14Y-4.37
X5.15Y-4.47
X5.15Y-4.51
X5.15Y-4.55
X5.15Y-4.59
X5.15Y-4.63
X5.15Y-4.67
X5.15Y-5.51
X5.15Y-5.55
X5.16Y-4.19
X5.16Y-6.0
X5.17Y-3.56
X5.18Y-4.33
X5.18Y-4.37
X5.19Y-3.64
X5.19Y-4.47
X5.19Y-4.51
X5.19Y-4.55
X5.19Y-4.59
X5.19Y-4.63
X5.19Y-4.67
X5.19Y-5.51
X5.19Y-5.55
X5.2Y-7.0
X5.21Y-6.12
X5.22Y-4.33
X5.22Y-4.37
X5.24Y-5.51
X5.24Y-5.55
X5.2542Y-3.5976
X5.26Y-4.08
X5.26Y-4.33
X5.26Y-4.37
X5.26Y-4.48
X5.26Y-4.52
X5.26Y-4.56
X5.26Y-4.6
X5.27Y-6.0
X5.29Y-5.51
X5.29Y-5.55
X5.3Y-4.26
X5.3Y-4.33
X5.3Y-4.37
X5.3Y-4.41
X5.3Y-4.48
X5.3Y-4.52
X5.3Y-4.56
X5.3Y-4.6
X5.32Y-6.89
X5.33Y-6.12
X5.34Y-4.48
X5.34Y-4.52
X5.34Y-4.56
X5.34Y-4.6
X5.34Y-5.51
X5.34Y-5.55
X5.35Y-4.0
X5.35Y-4.33
X5.35Y-4.37
X5.35Y-4.41
X5.36Y-7.0
X5.38Y-4.48
X5.38Y-4.52
X5.38Y-4.56
X5.38Y-4.6
X5.39Y-6.0
X5.4Y-4.33
X5.4Y-4.37
X5.4Y-4.41
X5.42Y-5.68
X5.43Y-4.14
X5.43Y-4.28
X5.44Y-6.12
X5.45Y-5.23
X5.45Y-6.92
X5.46Y-4.29
X5.5Y-3.74
X5.5Y-6.0
X5.5Y-6.49
X5.5Y-6.71
X5.51Y-5.53
X5.5148Y-5.9699
X5.52Y-6.12
X5.53Y-6.82
X5.54Y-3.6
X5.54Y-3.66
X5.54Y-3.8
X5.54Y-4.18
X5.55Y-3.9
X5.5879Y-6.5607
X5.5893Y-6.839
X5.59Y-3.6
X5.59Y-3.66
X5.5925Y-6.2965
X5.6Y-3.98
X5.63Y-3.82
X5.63Y-4.63
X5.64Y-4.94
X5.65Y-6.52
X5.66Y-4.05
X5.67Y-3.91
X5.67Y-5.19
X5.67Y-6.32
X5.69Y-3.46
X5.69Y-7.02
X5.7Y-6.2
X5.7Y-6.84
X5.71Y-4.56
X5.71Y-4.94
X5.73Y-3.74
X5.73Y-6.4
X5.74Y-4.54
X5.77Y-3.92
X5.78Y-3.75
X5.79Y-3.89
X5.79Y-4.94
X5.79Y-6.0
X5.8Y-6.52
X5.8Y-6.62
X5.8Y-6.73
X5.81Y-5.66
X5.81Y-5.77
X5.81Y-5.89
X5.81Y-6.41
X5.81Y-6.86
X5.82Y-4.28
X5.82Y-4.53
X5.82Y-6.0
X5.83Y-6.08
X5.84Y-4.04
X5.84Y-5.51
X5.84Y-7.0
X5.87Y-3.93
X5.88Y-4.94
X5.88Y-6.09
X5.88Y-6.73
X5.89Y-5.94
X5.89Y-7.0
X5.9Y-5.5
X5.9Y-6.62
X5.9Y-6.85
X5.91Y-5.61
X5.91Y-5.77
X5.91Y-6.42
X5.91Y-6.5
X5.92Y-6.22
X5.93Y-4.05
X5.9449Y-3.4252
X5.95Y-4.53
X5.98Y-4.94
X5.99Y-3.94
X6.0Y-6.16
X6.0Y-6.79
X6.01Y-5.24
X6.01Y-7.03
X6.02Y-4.64
X6.03Y-4.47
X6.03Y-5.94
X6.04Y-6.13
X6.05Y-4.03
X6.11Y-5.15
X6.11Y-5.28
X6.11Y-5.41
X6.122Y-3.5433
T3
X2.439Y-5.9429
X2.565Y-6.1535
X2.5669Y-6.3346
X2.7913Y-6.4213
X2.9713Y-6.7823
X3.0258Y-6.8941
X3.0803Y-6.7823
X3.123Y-3.4104
X3.1348Y-6.8941
X3.1555Y-6.311
X3.1894Y-6.7823
X3.223Y-3.4104
X3.2439Y-6.8941
X3.2984Y-6.7823
X3.323Y-3.4104
X3.3484Y-6.313
X3.353Y-6.8941
X3.4075Y-6.7823
X3.423Y-3.4104
X3.523Y-3.4104
X3.5433Y-6.311
X3.5512Y-5.1437
X3.623Y-3.4104
X3.8299Y-3.4106
X3.9299Y-3.4106
X4.0299Y-3.4106
X4.2959Y-6.7823
X4.3504Y-6.8941
X4.4049Y-6.7823
X4.4594Y-6.8941
X4.514Y-6.7823
X4.5685Y-6.8941
X4.623Y-6.7823
X4.6776Y-6.8941
X4.7321Y-6.7823
T4
X5.878Y-4.4114
X5.878Y-4.6949
X5.8839Y-5.0945
X5.8839Y-5.378
T5
X2.6972Y-6.8382
X3.6815Y-6.8382
X4.0219Y-6.8382
X5.0061Y-6.8382
T2
G00X6.1358Y-4.2874
M15
G01X6.0925Y-4.2874
M16
G05
G00X6.1358Y-4.8189
M15
G01X6.0925Y-4.8189
M16
G05
G00X6.1417Y-4.9705
M15
G01X6.0984Y-4.9705
M16
G05
G00X6.1417Y-5.502
M15
G01X6.0984Y-5.502
M16
G05
T3
G00X6.0217Y-4.5335
M15
G01X6.0217Y-4.5728
M16
G05
T0
M30
