%TF.GenerationSoftware,KiCad,Pcbnew,7.0.9*%
%TF.CreationDate,2024-05-04T16:18:37+09:00*%
%TF.ProjectId,motordriver2,6d6f746f-7264-4726-9976-6572322e6b69,rev?*%
%TF.SameCoordinates,Original*%
%TF.FileFunction,Legend,Top*%
%TF.FilePolarity,Positive*%
%FSLAX46Y46*%
G04 Gerber Fmt 4.6, Leading zero omitted, Abs format (unit mm)*
G04 Created by KiCad (PCBNEW 7.0.9) date 2024-05-04 16:18:37*
%MOMM*%
%LPD*%
G01*
G04 APERTURE LIST*
G04 Aperture macros list*
%AMRoundRect*
0 Rectangle with rounded corners*
0 $1 Rounding radius*
0 $2 $3 $4 $5 $6 $7 $8 $9 X,Y pos of 4 corners*
0 Add a 4 corners polygon primitive as box body*
4,1,4,$2,$3,$4,$5,$6,$7,$8,$9,$2,$3,0*
0 Add four circle primitives for the rounded corners*
1,1,$1+$1,$2,$3*
1,1,$1+$1,$4,$5*
1,1,$1+$1,$6,$7*
1,1,$1+$1,$8,$9*
0 Add four rect primitives between the rounded corners*
20,1,$1+$1,$2,$3,$4,$5,0*
20,1,$1+$1,$4,$5,$6,$7,0*
20,1,$1+$1,$6,$7,$8,$9,0*
20,1,$1+$1,$8,$9,$2,$3,0*%
%AMFreePoly0*
4,1,19,0.500000,-0.750000,0.000000,-0.750000,0.000000,-0.744911,-0.071157,-0.744911,-0.207708,-0.704816,-0.327430,-0.627875,-0.420627,-0.520320,-0.479746,-0.390866,-0.500000,-0.250000,-0.500000,0.250000,-0.479746,0.390866,-0.420627,0.520320,-0.327430,0.627875,-0.207708,0.704816,-0.071157,0.744911,0.000000,0.744911,0.000000,0.750000,0.500000,0.750000,0.500000,-0.750000,0.500000,-0.750000,
$1*%
%AMFreePoly1*
4,1,19,0.000000,0.744911,0.071157,0.744911,0.207708,0.704816,0.327430,0.627875,0.420627,0.520320,0.479746,0.390866,0.500000,0.250000,0.500000,-0.250000,0.479746,-0.390866,0.420627,-0.520320,0.327430,-0.627875,0.207708,-0.704816,0.071157,-0.744911,0.000000,-0.744911,0.000000,-0.750000,-0.500000,-0.750000,-0.500000,0.750000,0.000000,0.750000,0.000000,0.744911,0.000000,0.744911,
$1*%
G04 Aperture macros list end*
%ADD10C,0.150000*%
%ADD11C,0.300000*%
%ADD12C,0.120000*%
%ADD13C,0.152400*%
%ADD14R,1.700000X1.700000*%
%ADD15O,1.700000X1.700000*%
%ADD16C,4.000000*%
%ADD17R,1.600000X1.600000*%
%ADD18C,1.600000*%
%ADD19C,6.400000*%
%ADD20RoundRect,0.200000X-0.200000X-0.275000X0.200000X-0.275000X0.200000X0.275000X-0.200000X0.275000X0*%
%ADD21R,0.660400X0.381000*%
%ADD22R,2.215100X2.595250*%
%ADD23RoundRect,0.250000X0.850000X0.350000X-0.850000X0.350000X-0.850000X-0.350000X0.850000X-0.350000X0*%
%ADD24RoundRect,0.249997X2.950003X2.650003X-2.950003X2.650003X-2.950003X-2.650003X2.950003X-2.650003X0*%
%ADD25RoundRect,0.250000X0.362500X1.425000X-0.362500X1.425000X-0.362500X-1.425000X0.362500X-1.425000X0*%
%ADD26R,0.900000X2.000000*%
%ADD27RoundRect,1.025000X1.025000X1.025000X-1.025000X1.025000X-1.025000X-1.025000X1.025000X-1.025000X0*%
%ADD28C,4.100000*%
%ADD29R,2.300000X1.300000*%
%ADD30RoundRect,0.150000X-0.587500X-0.150000X0.587500X-0.150000X0.587500X0.150000X-0.587500X0.150000X0*%
%ADD31RoundRect,0.225000X-0.250000X0.225000X-0.250000X-0.225000X0.250000X-0.225000X0.250000X0.225000X0*%
%ADD32RoundRect,0.237500X0.237500X-0.300000X0.237500X0.300000X-0.237500X0.300000X-0.237500X-0.300000X0*%
%ADD33RoundRect,0.250000X1.500000X0.650000X-1.500000X0.650000X-1.500000X-0.650000X1.500000X-0.650000X0*%
%ADD34R,1.000000X0.750000*%
%ADD35RoundRect,0.237500X-0.237500X0.300000X-0.237500X-0.300000X0.237500X-0.300000X0.237500X0.300000X0*%
%ADD36R,2.000000X0.900000*%
%ADD37RoundRect,1.025000X-1.025000X1.025000X-1.025000X-1.025000X1.025000X-1.025000X1.025000X1.025000X0*%
%ADD38FreePoly0,0.000000*%
%ADD39FreePoly1,0.000000*%
%ADD40RoundRect,0.135000X-0.185000X0.135000X-0.185000X-0.135000X0.185000X-0.135000X0.185000X0.135000X0*%
%ADD41RoundRect,0.237500X-0.287500X-0.237500X0.287500X-0.237500X0.287500X0.237500X-0.287500X0.237500X0*%
G04 APERTURE END LIST*
D10*
X94174000Y-132974000D02*
G75*
G03*
X94174000Y-132974000I-500000J0D01*
G01*
X154413000Y-117906999D02*
X154412999Y-171907001D01*
X104412999Y-171907001D01*
X104412999Y-117906998D01*
X154413000Y-117906999D01*
X89069819Y-149239411D02*
X89069819Y-149810839D01*
X89069819Y-149525125D02*
X88069819Y-149525125D01*
X88069819Y-149525125D02*
X88212676Y-149620363D01*
X88212676Y-149620363D02*
X88307914Y-149715601D01*
X88307914Y-149715601D02*
X88355533Y-149810839D01*
X88165057Y-148858458D02*
X88117438Y-148810839D01*
X88117438Y-148810839D02*
X88069819Y-148715601D01*
X88069819Y-148715601D02*
X88069819Y-148477506D01*
X88069819Y-148477506D02*
X88117438Y-148382268D01*
X88117438Y-148382268D02*
X88165057Y-148334649D01*
X88165057Y-148334649D02*
X88260295Y-148287030D01*
X88260295Y-148287030D02*
X88355533Y-148287030D01*
X88355533Y-148287030D02*
X88498390Y-148334649D01*
X88498390Y-148334649D02*
X89069819Y-148906077D01*
X89069819Y-148906077D02*
X89069819Y-148287030D01*
X88069819Y-148001315D02*
X89069819Y-147667982D01*
X89069819Y-147667982D02*
X88069819Y-147334649D01*
D11*
X94140225Y-130100828D02*
X93283082Y-130100828D01*
X93711653Y-130100828D02*
X93711653Y-128600828D01*
X93711653Y-128600828D02*
X93568796Y-128815114D01*
X93568796Y-128815114D02*
X93425939Y-128957971D01*
X93425939Y-128957971D02*
X93283082Y-129029400D01*
D10*
X80536779Y-147569819D02*
X80536779Y-146569819D01*
X80536779Y-146569819D02*
X80870112Y-147284104D01*
X80870112Y-147284104D02*
X81203445Y-146569819D01*
X81203445Y-146569819D02*
X81203445Y-147569819D01*
X82251064Y-147474580D02*
X82203445Y-147522200D01*
X82203445Y-147522200D02*
X82060588Y-147569819D01*
X82060588Y-147569819D02*
X81965350Y-147569819D01*
X81965350Y-147569819D02*
X81822493Y-147522200D01*
X81822493Y-147522200D02*
X81727255Y-147426961D01*
X81727255Y-147426961D02*
X81679636Y-147331723D01*
X81679636Y-147331723D02*
X81632017Y-147141247D01*
X81632017Y-147141247D02*
X81632017Y-146998390D01*
X81632017Y-146998390D02*
X81679636Y-146807914D01*
X81679636Y-146807914D02*
X81727255Y-146712676D01*
X81727255Y-146712676D02*
X81822493Y-146617438D01*
X81822493Y-146617438D02*
X81965350Y-146569819D01*
X81965350Y-146569819D02*
X82060588Y-146569819D01*
X82060588Y-146569819D02*
X82203445Y-146617438D01*
X82203445Y-146617438D02*
X82251064Y-146665057D01*
X83155826Y-147569819D02*
X82679636Y-147569819D01*
X82679636Y-147569819D02*
X82679636Y-146569819D01*
X84060588Y-147569819D02*
X83727255Y-147093628D01*
X83489160Y-147569819D02*
X83489160Y-146569819D01*
X83489160Y-146569819D02*
X83870112Y-146569819D01*
X83870112Y-146569819D02*
X83965350Y-146617438D01*
X83965350Y-146617438D02*
X84012969Y-146665057D01*
X84012969Y-146665057D02*
X84060588Y-146760295D01*
X84060588Y-146760295D02*
X84060588Y-146903152D01*
X84060588Y-146903152D02*
X84012969Y-146998390D01*
X84012969Y-146998390D02*
X83965350Y-147046009D01*
X83965350Y-147046009D02*
X83870112Y-147093628D01*
X83870112Y-147093628D02*
X83489160Y-147093628D01*
X87060588Y-163469819D02*
X86489160Y-163469819D01*
X86774874Y-163469819D02*
X86774874Y-162469819D01*
X86774874Y-162469819D02*
X86679636Y-162612676D01*
X86679636Y-162612676D02*
X86584398Y-162707914D01*
X86584398Y-162707914D02*
X86489160Y-162755533D01*
X87441541Y-162565057D02*
X87489160Y-162517438D01*
X87489160Y-162517438D02*
X87584398Y-162469819D01*
X87584398Y-162469819D02*
X87822493Y-162469819D01*
X87822493Y-162469819D02*
X87917731Y-162517438D01*
X87917731Y-162517438D02*
X87965350Y-162565057D01*
X87965350Y-162565057D02*
X88012969Y-162660295D01*
X88012969Y-162660295D02*
X88012969Y-162755533D01*
X88012969Y-162755533D02*
X87965350Y-162898390D01*
X87965350Y-162898390D02*
X87393922Y-163469819D01*
X87393922Y-163469819D02*
X88012969Y-163469819D01*
X88298684Y-162469819D02*
X88632017Y-163469819D01*
X88632017Y-163469819D02*
X88965350Y-162469819D01*
X101369819Y-176091792D02*
X100893628Y-176425125D01*
X101369819Y-176663220D02*
X100369819Y-176663220D01*
X100369819Y-176663220D02*
X100369819Y-176282268D01*
X100369819Y-176282268D02*
X100417438Y-176187030D01*
X100417438Y-176187030D02*
X100465057Y-176139411D01*
X100465057Y-176139411D02*
X100560295Y-176091792D01*
X100560295Y-176091792D02*
X100703152Y-176091792D01*
X100703152Y-176091792D02*
X100798390Y-176139411D01*
X100798390Y-176139411D02*
X100846009Y-176187030D01*
X100846009Y-176187030D02*
X100893628Y-176282268D01*
X100893628Y-176282268D02*
X100893628Y-176663220D01*
X100846009Y-175663220D02*
X100846009Y-175329887D01*
X101369819Y-175187030D02*
X101369819Y-175663220D01*
X101369819Y-175663220D02*
X100369819Y-175663220D01*
X100369819Y-175663220D02*
X100369819Y-175187030D01*
X101322200Y-174806077D02*
X101369819Y-174663220D01*
X101369819Y-174663220D02*
X101369819Y-174425125D01*
X101369819Y-174425125D02*
X101322200Y-174329887D01*
X101322200Y-174329887D02*
X101274580Y-174282268D01*
X101274580Y-174282268D02*
X101179342Y-174234649D01*
X101179342Y-174234649D02*
X101084104Y-174234649D01*
X101084104Y-174234649D02*
X100988866Y-174282268D01*
X100988866Y-174282268D02*
X100941247Y-174329887D01*
X100941247Y-174329887D02*
X100893628Y-174425125D01*
X100893628Y-174425125D02*
X100846009Y-174615601D01*
X100846009Y-174615601D02*
X100798390Y-174710839D01*
X100798390Y-174710839D02*
X100750771Y-174758458D01*
X100750771Y-174758458D02*
X100655533Y-174806077D01*
X100655533Y-174806077D02*
X100560295Y-174806077D01*
X100560295Y-174806077D02*
X100465057Y-174758458D01*
X100465057Y-174758458D02*
X100417438Y-174710839D01*
X100417438Y-174710839D02*
X100369819Y-174615601D01*
X100369819Y-174615601D02*
X100369819Y-174377506D01*
X100369819Y-174377506D02*
X100417438Y-174234649D01*
X100846009Y-173806077D02*
X100846009Y-173472744D01*
X101369819Y-173329887D02*
X101369819Y-173806077D01*
X101369819Y-173806077D02*
X100369819Y-173806077D01*
X100369819Y-173806077D02*
X100369819Y-173329887D01*
X100369819Y-173044172D02*
X100369819Y-172472744D01*
X101369819Y-172758458D02*
X100369819Y-172758458D01*
X82912969Y-144169819D02*
X82436779Y-144169819D01*
X82436779Y-144169819D02*
X82389160Y-144646009D01*
X82389160Y-144646009D02*
X82436779Y-144598390D01*
X82436779Y-144598390D02*
X82532017Y-144550771D01*
X82532017Y-144550771D02*
X82770112Y-144550771D01*
X82770112Y-144550771D02*
X82865350Y-144598390D01*
X82865350Y-144598390D02*
X82912969Y-144646009D01*
X82912969Y-144646009D02*
X82960588Y-144741247D01*
X82960588Y-144741247D02*
X82960588Y-144979342D01*
X82960588Y-144979342D02*
X82912969Y-145074580D01*
X82912969Y-145074580D02*
X82865350Y-145122200D01*
X82865350Y-145122200D02*
X82770112Y-145169819D01*
X82770112Y-145169819D02*
X82532017Y-145169819D01*
X82532017Y-145169819D02*
X82436779Y-145122200D01*
X82436779Y-145122200D02*
X82389160Y-145074580D01*
X83246303Y-144169819D02*
X83579636Y-145169819D01*
X83579636Y-145169819D02*
X83912969Y-144169819D01*
X89466666Y-164454819D02*
X89466666Y-165169104D01*
X89466666Y-165169104D02*
X89419047Y-165311961D01*
X89419047Y-165311961D02*
X89323809Y-165407200D01*
X89323809Y-165407200D02*
X89180952Y-165454819D01*
X89180952Y-165454819D02*
X89085714Y-165454819D01*
X90419047Y-164454819D02*
X89942857Y-164454819D01*
X89942857Y-164454819D02*
X89895238Y-164931009D01*
X89895238Y-164931009D02*
X89942857Y-164883390D01*
X89942857Y-164883390D02*
X90038095Y-164835771D01*
X90038095Y-164835771D02*
X90276190Y-164835771D01*
X90276190Y-164835771D02*
X90371428Y-164883390D01*
X90371428Y-164883390D02*
X90419047Y-164931009D01*
X90419047Y-164931009D02*
X90466666Y-165026247D01*
X90466666Y-165026247D02*
X90466666Y-165264342D01*
X90466666Y-165264342D02*
X90419047Y-165359580D01*
X90419047Y-165359580D02*
X90371428Y-165407200D01*
X90371428Y-165407200D02*
X90276190Y-165454819D01*
X90276190Y-165454819D02*
X90038095Y-165454819D01*
X90038095Y-165454819D02*
X89942857Y-165407200D01*
X89942857Y-165407200D02*
X89895238Y-165359580D01*
X109676666Y-172624519D02*
X109676666Y-173338804D01*
X109676666Y-173338804D02*
X109629047Y-173481661D01*
X109629047Y-173481661D02*
X109533809Y-173576900D01*
X109533809Y-173576900D02*
X109390952Y-173624519D01*
X109390952Y-173624519D02*
X109295714Y-173624519D01*
X110105238Y-172719757D02*
X110152857Y-172672138D01*
X110152857Y-172672138D02*
X110248095Y-172624519D01*
X110248095Y-172624519D02*
X110486190Y-172624519D01*
X110486190Y-172624519D02*
X110581428Y-172672138D01*
X110581428Y-172672138D02*
X110629047Y-172719757D01*
X110629047Y-172719757D02*
X110676666Y-172814995D01*
X110676666Y-172814995D02*
X110676666Y-172910233D01*
X110676666Y-172910233D02*
X110629047Y-173053090D01*
X110629047Y-173053090D02*
X110057619Y-173624519D01*
X110057619Y-173624519D02*
X110676666Y-173624519D01*
X169238095Y-116254819D02*
X169238095Y-115254819D01*
X169238095Y-115731009D02*
X169809523Y-115731009D01*
X169809523Y-116254819D02*
X169809523Y-115254819D01*
X170809523Y-116254819D02*
X170238095Y-116254819D01*
X170523809Y-116254819D02*
X170523809Y-115254819D01*
X170523809Y-115254819D02*
X170428571Y-115397676D01*
X170428571Y-115397676D02*
X170333333Y-115492914D01*
X170333333Y-115492914D02*
X170238095Y-115540533D01*
X169238095Y-175754819D02*
X169238095Y-174754819D01*
X169238095Y-175231009D02*
X169809523Y-175231009D01*
X169809523Y-175754819D02*
X169809523Y-174754819D01*
X170238095Y-174850057D02*
X170285714Y-174802438D01*
X170285714Y-174802438D02*
X170380952Y-174754819D01*
X170380952Y-174754819D02*
X170619047Y-174754819D01*
X170619047Y-174754819D02*
X170714285Y-174802438D01*
X170714285Y-174802438D02*
X170761904Y-174850057D01*
X170761904Y-174850057D02*
X170809523Y-174945295D01*
X170809523Y-174945295D02*
X170809523Y-175040533D01*
X170809523Y-175040533D02*
X170761904Y-175183390D01*
X170761904Y-175183390D02*
X170190476Y-175754819D01*
X170190476Y-175754819D02*
X170809523Y-175754819D01*
X86238095Y-175754819D02*
X86238095Y-174754819D01*
X86238095Y-175231009D02*
X86809523Y-175231009D01*
X86809523Y-175754819D02*
X86809523Y-174754819D01*
X87714285Y-175088152D02*
X87714285Y-175754819D01*
X87476190Y-174707200D02*
X87238095Y-175421485D01*
X87238095Y-175421485D02*
X87857142Y-175421485D01*
X90766666Y-143244819D02*
X90766666Y-143959104D01*
X90766666Y-143959104D02*
X90719047Y-144101961D01*
X90719047Y-144101961D02*
X90623809Y-144197200D01*
X90623809Y-144197200D02*
X90480952Y-144244819D01*
X90480952Y-144244819D02*
X90385714Y-144244819D01*
X91671428Y-143578152D02*
X91671428Y-144244819D01*
X91433333Y-143197200D02*
X91195238Y-143911485D01*
X91195238Y-143911485D02*
X91814285Y-143911485D01*
X121504761Y-151854819D02*
X121171428Y-151378628D01*
X120933333Y-151854819D02*
X120933333Y-150854819D01*
X120933333Y-150854819D02*
X121314285Y-150854819D01*
X121314285Y-150854819D02*
X121409523Y-150902438D01*
X121409523Y-150902438D02*
X121457142Y-150950057D01*
X121457142Y-150950057D02*
X121504761Y-151045295D01*
X121504761Y-151045295D02*
X121504761Y-151188152D01*
X121504761Y-151188152D02*
X121457142Y-151283390D01*
X121457142Y-151283390D02*
X121409523Y-151331009D01*
X121409523Y-151331009D02*
X121314285Y-151378628D01*
X121314285Y-151378628D02*
X120933333Y-151378628D01*
X121790476Y-150854819D02*
X122123809Y-151854819D01*
X122123809Y-151854819D02*
X122457142Y-150854819D01*
X122742857Y-150950057D02*
X122790476Y-150902438D01*
X122790476Y-150902438D02*
X122885714Y-150854819D01*
X122885714Y-150854819D02*
X123123809Y-150854819D01*
X123123809Y-150854819D02*
X123219047Y-150902438D01*
X123219047Y-150902438D02*
X123266666Y-150950057D01*
X123266666Y-150950057D02*
X123314285Y-151045295D01*
X123314285Y-151045295D02*
X123314285Y-151140533D01*
X123314285Y-151140533D02*
X123266666Y-151283390D01*
X123266666Y-151283390D02*
X122695238Y-151854819D01*
X122695238Y-151854819D02*
X123314285Y-151854819D01*
X133254761Y-155893657D02*
X133159523Y-155846038D01*
X133159523Y-155846038D02*
X133064285Y-155750800D01*
X133064285Y-155750800D02*
X132921428Y-155607942D01*
X132921428Y-155607942D02*
X132826190Y-155560323D01*
X132826190Y-155560323D02*
X132730952Y-155560323D01*
X132778571Y-155798419D02*
X132683333Y-155750800D01*
X132683333Y-155750800D02*
X132588095Y-155655561D01*
X132588095Y-155655561D02*
X132540476Y-155465085D01*
X132540476Y-155465085D02*
X132540476Y-155131752D01*
X132540476Y-155131752D02*
X132588095Y-154941276D01*
X132588095Y-154941276D02*
X132683333Y-154846038D01*
X132683333Y-154846038D02*
X132778571Y-154798419D01*
X132778571Y-154798419D02*
X132969047Y-154798419D01*
X132969047Y-154798419D02*
X133064285Y-154846038D01*
X133064285Y-154846038D02*
X133159523Y-154941276D01*
X133159523Y-154941276D02*
X133207142Y-155131752D01*
X133207142Y-155131752D02*
X133207142Y-155465085D01*
X133207142Y-155465085D02*
X133159523Y-155655561D01*
X133159523Y-155655561D02*
X133064285Y-155750800D01*
X133064285Y-155750800D02*
X132969047Y-155798419D01*
X132969047Y-155798419D02*
X132778571Y-155798419D01*
X134064285Y-155131752D02*
X134064285Y-155798419D01*
X133826190Y-154750800D02*
X133588095Y-155465085D01*
X133588095Y-155465085D02*
X134207142Y-155465085D01*
X131600000Y-155254819D02*
X131600000Y-155492914D01*
X131361905Y-155397676D02*
X131600000Y-155492914D01*
X131600000Y-155492914D02*
X131838095Y-155397676D01*
X131457143Y-155683390D02*
X131600000Y-155492914D01*
X131600000Y-155492914D02*
X131742857Y-155683390D01*
X131241800Y-156015819D02*
X131241800Y-156253914D01*
X131003705Y-156158676D02*
X131241800Y-156253914D01*
X131241800Y-156253914D02*
X131479895Y-156158676D01*
X131098943Y-156444390D02*
X131241800Y-156253914D01*
X131241800Y-156253914D02*
X131384657Y-156444390D01*
X148265361Y-156046057D02*
X148170123Y-155998438D01*
X148170123Y-155998438D02*
X148074885Y-155903200D01*
X148074885Y-155903200D02*
X147932028Y-155760342D01*
X147932028Y-155760342D02*
X147836790Y-155712723D01*
X147836790Y-155712723D02*
X147741552Y-155712723D01*
X147789171Y-155950819D02*
X147693933Y-155903200D01*
X147693933Y-155903200D02*
X147598695Y-155807961D01*
X147598695Y-155807961D02*
X147551076Y-155617485D01*
X147551076Y-155617485D02*
X147551076Y-155284152D01*
X147551076Y-155284152D02*
X147598695Y-155093676D01*
X147598695Y-155093676D02*
X147693933Y-154998438D01*
X147693933Y-154998438D02*
X147789171Y-154950819D01*
X147789171Y-154950819D02*
X147979647Y-154950819D01*
X147979647Y-154950819D02*
X148074885Y-154998438D01*
X148074885Y-154998438D02*
X148170123Y-155093676D01*
X148170123Y-155093676D02*
X148217742Y-155284152D01*
X148217742Y-155284152D02*
X148217742Y-155617485D01*
X148217742Y-155617485D02*
X148170123Y-155807961D01*
X148170123Y-155807961D02*
X148074885Y-155903200D01*
X148074885Y-155903200D02*
X147979647Y-155950819D01*
X147979647Y-155950819D02*
X147789171Y-155950819D01*
X148551076Y-154950819D02*
X149170123Y-154950819D01*
X149170123Y-154950819D02*
X148836790Y-155331771D01*
X148836790Y-155331771D02*
X148979647Y-155331771D01*
X148979647Y-155331771D02*
X149074885Y-155379390D01*
X149074885Y-155379390D02*
X149122504Y-155427009D01*
X149122504Y-155427009D02*
X149170123Y-155522247D01*
X149170123Y-155522247D02*
X149170123Y-155760342D01*
X149170123Y-155760342D02*
X149122504Y-155855580D01*
X149122504Y-155855580D02*
X149074885Y-155903200D01*
X149074885Y-155903200D02*
X148979647Y-155950819D01*
X148979647Y-155950819D02*
X148693933Y-155950819D01*
X148693933Y-155950819D02*
X148598695Y-155903200D01*
X148598695Y-155903200D02*
X148551076Y-155855580D01*
X146600000Y-155354819D02*
X146600000Y-155592914D01*
X146361905Y-155497676D02*
X146600000Y-155592914D01*
X146600000Y-155592914D02*
X146838095Y-155497676D01*
X146457143Y-155783390D02*
X146600000Y-155592914D01*
X146600000Y-155592914D02*
X146742857Y-155783390D01*
X146227800Y-156015819D02*
X146227800Y-156253914D01*
X145989705Y-156158676D02*
X146227800Y-156253914D01*
X146227800Y-156253914D02*
X146465895Y-156158676D01*
X146084943Y-156444390D02*
X146227800Y-156253914D01*
X146227800Y-156253914D02*
X146370657Y-156444390D01*
X97608333Y-147324819D02*
X97275000Y-146848628D01*
X97036905Y-147324819D02*
X97036905Y-146324819D01*
X97036905Y-146324819D02*
X97417857Y-146324819D01*
X97417857Y-146324819D02*
X97513095Y-146372438D01*
X97513095Y-146372438D02*
X97560714Y-146420057D01*
X97560714Y-146420057D02*
X97608333Y-146515295D01*
X97608333Y-146515295D02*
X97608333Y-146658152D01*
X97608333Y-146658152D02*
X97560714Y-146753390D01*
X97560714Y-146753390D02*
X97513095Y-146801009D01*
X97513095Y-146801009D02*
X97417857Y-146848628D01*
X97417857Y-146848628D02*
X97036905Y-146848628D01*
X97941667Y-146324819D02*
X98608333Y-146324819D01*
X98608333Y-146324819D02*
X98179762Y-147324819D01*
X107478095Y-166552819D02*
X107478095Y-167362342D01*
X107478095Y-167362342D02*
X107525714Y-167457580D01*
X107525714Y-167457580D02*
X107573333Y-167505200D01*
X107573333Y-167505200D02*
X107668571Y-167552819D01*
X107668571Y-167552819D02*
X107859047Y-167552819D01*
X107859047Y-167552819D02*
X107954285Y-167505200D01*
X107954285Y-167505200D02*
X108001904Y-167457580D01*
X108001904Y-167457580D02*
X108049523Y-167362342D01*
X108049523Y-167362342D02*
X108049523Y-166552819D01*
X108954285Y-166552819D02*
X108763809Y-166552819D01*
X108763809Y-166552819D02*
X108668571Y-166600438D01*
X108668571Y-166600438D02*
X108620952Y-166648057D01*
X108620952Y-166648057D02*
X108525714Y-166790914D01*
X108525714Y-166790914D02*
X108478095Y-166981390D01*
X108478095Y-166981390D02*
X108478095Y-167362342D01*
X108478095Y-167362342D02*
X108525714Y-167457580D01*
X108525714Y-167457580D02*
X108573333Y-167505200D01*
X108573333Y-167505200D02*
X108668571Y-167552819D01*
X108668571Y-167552819D02*
X108859047Y-167552819D01*
X108859047Y-167552819D02*
X108954285Y-167505200D01*
X108954285Y-167505200D02*
X109001904Y-167457580D01*
X109001904Y-167457580D02*
X109049523Y-167362342D01*
X109049523Y-167362342D02*
X109049523Y-167124247D01*
X109049523Y-167124247D02*
X109001904Y-167029009D01*
X109001904Y-167029009D02*
X108954285Y-166981390D01*
X108954285Y-166981390D02*
X108859047Y-166933771D01*
X108859047Y-166933771D02*
X108668571Y-166933771D01*
X108668571Y-166933771D02*
X108573333Y-166981390D01*
X108573333Y-166981390D02*
X108525714Y-167029009D01*
X108525714Y-167029009D02*
X108478095Y-167124247D01*
X86238095Y-116254819D02*
X86238095Y-115254819D01*
X86238095Y-115731009D02*
X86809523Y-115731009D01*
X86809523Y-116254819D02*
X86809523Y-115254819D01*
X87190476Y-115254819D02*
X87809523Y-115254819D01*
X87809523Y-115254819D02*
X87476190Y-115635771D01*
X87476190Y-115635771D02*
X87619047Y-115635771D01*
X87619047Y-115635771D02*
X87714285Y-115683390D01*
X87714285Y-115683390D02*
X87761904Y-115731009D01*
X87761904Y-115731009D02*
X87809523Y-115826247D01*
X87809523Y-115826247D02*
X87809523Y-116064342D01*
X87809523Y-116064342D02*
X87761904Y-116159580D01*
X87761904Y-116159580D02*
X87714285Y-116207200D01*
X87714285Y-116207200D02*
X87619047Y-116254819D01*
X87619047Y-116254819D02*
X87333333Y-116254819D01*
X87333333Y-116254819D02*
X87238095Y-116207200D01*
X87238095Y-116207200D02*
X87190476Y-116159580D01*
X159460761Y-171700819D02*
X159127428Y-171224628D01*
X158889333Y-171700819D02*
X158889333Y-170700819D01*
X158889333Y-170700819D02*
X159270285Y-170700819D01*
X159270285Y-170700819D02*
X159365523Y-170748438D01*
X159365523Y-170748438D02*
X159413142Y-170796057D01*
X159413142Y-170796057D02*
X159460761Y-170891295D01*
X159460761Y-170891295D02*
X159460761Y-171034152D01*
X159460761Y-171034152D02*
X159413142Y-171129390D01*
X159413142Y-171129390D02*
X159365523Y-171177009D01*
X159365523Y-171177009D02*
X159270285Y-171224628D01*
X159270285Y-171224628D02*
X158889333Y-171224628D01*
X159746476Y-170700819D02*
X160079809Y-171700819D01*
X160079809Y-171700819D02*
X160413142Y-170700819D01*
X161175047Y-170700819D02*
X160984571Y-170700819D01*
X160984571Y-170700819D02*
X160889333Y-170748438D01*
X160889333Y-170748438D02*
X160841714Y-170796057D01*
X160841714Y-170796057D02*
X160746476Y-170938914D01*
X160746476Y-170938914D02*
X160698857Y-171129390D01*
X160698857Y-171129390D02*
X160698857Y-171510342D01*
X160698857Y-171510342D02*
X160746476Y-171605580D01*
X160746476Y-171605580D02*
X160794095Y-171653200D01*
X160794095Y-171653200D02*
X160889333Y-171700819D01*
X160889333Y-171700819D02*
X161079809Y-171700819D01*
X161079809Y-171700819D02*
X161175047Y-171653200D01*
X161175047Y-171653200D02*
X161222666Y-171605580D01*
X161222666Y-171605580D02*
X161270285Y-171510342D01*
X161270285Y-171510342D02*
X161270285Y-171272247D01*
X161270285Y-171272247D02*
X161222666Y-171177009D01*
X161222666Y-171177009D02*
X161175047Y-171129390D01*
X161175047Y-171129390D02*
X161079809Y-171081771D01*
X161079809Y-171081771D02*
X160889333Y-171081771D01*
X160889333Y-171081771D02*
X160794095Y-171129390D01*
X160794095Y-171129390D02*
X160746476Y-171177009D01*
X160746476Y-171177009D02*
X160698857Y-171272247D01*
X119433333Y-151954819D02*
X119100000Y-151478628D01*
X118861905Y-151954819D02*
X118861905Y-150954819D01*
X118861905Y-150954819D02*
X119242857Y-150954819D01*
X119242857Y-150954819D02*
X119338095Y-151002438D01*
X119338095Y-151002438D02*
X119385714Y-151050057D01*
X119385714Y-151050057D02*
X119433333Y-151145295D01*
X119433333Y-151145295D02*
X119433333Y-151288152D01*
X119433333Y-151288152D02*
X119385714Y-151383390D01*
X119385714Y-151383390D02*
X119338095Y-151431009D01*
X119338095Y-151431009D02*
X119242857Y-151478628D01*
X119242857Y-151478628D02*
X118861905Y-151478628D01*
X120290476Y-150954819D02*
X120100000Y-150954819D01*
X120100000Y-150954819D02*
X120004762Y-151002438D01*
X120004762Y-151002438D02*
X119957143Y-151050057D01*
X119957143Y-151050057D02*
X119861905Y-151192914D01*
X119861905Y-151192914D02*
X119814286Y-151383390D01*
X119814286Y-151383390D02*
X119814286Y-151764342D01*
X119814286Y-151764342D02*
X119861905Y-151859580D01*
X119861905Y-151859580D02*
X119909524Y-151907200D01*
X119909524Y-151907200D02*
X120004762Y-151954819D01*
X120004762Y-151954819D02*
X120195238Y-151954819D01*
X120195238Y-151954819D02*
X120290476Y-151907200D01*
X120290476Y-151907200D02*
X120338095Y-151859580D01*
X120338095Y-151859580D02*
X120385714Y-151764342D01*
X120385714Y-151764342D02*
X120385714Y-151526247D01*
X120385714Y-151526247D02*
X120338095Y-151431009D01*
X120338095Y-151431009D02*
X120290476Y-151383390D01*
X120290476Y-151383390D02*
X120195238Y-151335771D01*
X120195238Y-151335771D02*
X120004762Y-151335771D01*
X120004762Y-151335771D02*
X119909524Y-151383390D01*
X119909524Y-151383390D02*
X119861905Y-151431009D01*
X119861905Y-151431009D02*
X119814286Y-151526247D01*
X156266666Y-193104819D02*
X156266666Y-193819104D01*
X156266666Y-193819104D02*
X156219047Y-193961961D01*
X156219047Y-193961961D02*
X156123809Y-194057200D01*
X156123809Y-194057200D02*
X155980952Y-194104819D01*
X155980952Y-194104819D02*
X155885714Y-194104819D01*
X157266666Y-194104819D02*
X156695238Y-194104819D01*
X156980952Y-194104819D02*
X156980952Y-193104819D01*
X156980952Y-193104819D02*
X156885714Y-193247676D01*
X156885714Y-193247676D02*
X156790476Y-193342914D01*
X156790476Y-193342914D02*
X156695238Y-193390533D01*
X162428571Y-174364700D02*
X163571429Y-174364700D01*
X150128571Y-174364700D02*
X151271429Y-174364700D01*
X150700000Y-174936128D02*
X150700000Y-173793271D01*
X87566666Y-166454819D02*
X87566666Y-167169104D01*
X87566666Y-167169104D02*
X87519047Y-167311961D01*
X87519047Y-167311961D02*
X87423809Y-167407200D01*
X87423809Y-167407200D02*
X87280952Y-167454819D01*
X87280952Y-167454819D02*
X87185714Y-167454819D01*
X88471428Y-166454819D02*
X88280952Y-166454819D01*
X88280952Y-166454819D02*
X88185714Y-166502438D01*
X88185714Y-166502438D02*
X88138095Y-166550057D01*
X88138095Y-166550057D02*
X88042857Y-166692914D01*
X88042857Y-166692914D02*
X87995238Y-166883390D01*
X87995238Y-166883390D02*
X87995238Y-167264342D01*
X87995238Y-167264342D02*
X88042857Y-167359580D01*
X88042857Y-167359580D02*
X88090476Y-167407200D01*
X88090476Y-167407200D02*
X88185714Y-167454819D01*
X88185714Y-167454819D02*
X88376190Y-167454819D01*
X88376190Y-167454819D02*
X88471428Y-167407200D01*
X88471428Y-167407200D02*
X88519047Y-167359580D01*
X88519047Y-167359580D02*
X88566666Y-167264342D01*
X88566666Y-167264342D02*
X88566666Y-167026247D01*
X88566666Y-167026247D02*
X88519047Y-166931009D01*
X88519047Y-166931009D02*
X88471428Y-166883390D01*
X88471428Y-166883390D02*
X88376190Y-166835771D01*
X88376190Y-166835771D02*
X88185714Y-166835771D01*
X88185714Y-166835771D02*
X88090476Y-166883390D01*
X88090476Y-166883390D02*
X88042857Y-166931009D01*
X88042857Y-166931009D02*
X87995238Y-167026247D01*
X95117261Y-149400057D02*
X95022023Y-149352438D01*
X95022023Y-149352438D02*
X94926785Y-149257200D01*
X94926785Y-149257200D02*
X94783928Y-149114342D01*
X94783928Y-149114342D02*
X94688690Y-149066723D01*
X94688690Y-149066723D02*
X94593452Y-149066723D01*
X94641071Y-149304819D02*
X94545833Y-149257200D01*
X94545833Y-149257200D02*
X94450595Y-149161961D01*
X94450595Y-149161961D02*
X94402976Y-148971485D01*
X94402976Y-148971485D02*
X94402976Y-148638152D01*
X94402976Y-148638152D02*
X94450595Y-148447676D01*
X94450595Y-148447676D02*
X94545833Y-148352438D01*
X94545833Y-148352438D02*
X94641071Y-148304819D01*
X94641071Y-148304819D02*
X94831547Y-148304819D01*
X94831547Y-148304819D02*
X94926785Y-148352438D01*
X94926785Y-148352438D02*
X95022023Y-148447676D01*
X95022023Y-148447676D02*
X95069642Y-148638152D01*
X95069642Y-148638152D02*
X95069642Y-148971485D01*
X95069642Y-148971485D02*
X95022023Y-149161961D01*
X95022023Y-149161961D02*
X94926785Y-149257200D01*
X94926785Y-149257200D02*
X94831547Y-149304819D01*
X94831547Y-149304819D02*
X94641071Y-149304819D01*
X95974404Y-148304819D02*
X95498214Y-148304819D01*
X95498214Y-148304819D02*
X95450595Y-148781009D01*
X95450595Y-148781009D02*
X95498214Y-148733390D01*
X95498214Y-148733390D02*
X95593452Y-148685771D01*
X95593452Y-148685771D02*
X95831547Y-148685771D01*
X95831547Y-148685771D02*
X95926785Y-148733390D01*
X95926785Y-148733390D02*
X95974404Y-148781009D01*
X95974404Y-148781009D02*
X96022023Y-148876247D01*
X96022023Y-148876247D02*
X96022023Y-149114342D01*
X96022023Y-149114342D02*
X95974404Y-149209580D01*
X95974404Y-149209580D02*
X95926785Y-149257200D01*
X95926785Y-149257200D02*
X95831547Y-149304819D01*
X95831547Y-149304819D02*
X95593452Y-149304819D01*
X95593452Y-149304819D02*
X95498214Y-149257200D01*
X95498214Y-149257200D02*
X95450595Y-149209580D01*
X91851580Y-138239857D02*
X91899200Y-138287476D01*
X91899200Y-138287476D02*
X91946819Y-138430333D01*
X91946819Y-138430333D02*
X91946819Y-138525571D01*
X91946819Y-138525571D02*
X91899200Y-138668428D01*
X91899200Y-138668428D02*
X91803961Y-138763666D01*
X91803961Y-138763666D02*
X91708723Y-138811285D01*
X91708723Y-138811285D02*
X91518247Y-138858904D01*
X91518247Y-138858904D02*
X91375390Y-138858904D01*
X91375390Y-138858904D02*
X91184914Y-138811285D01*
X91184914Y-138811285D02*
X91089676Y-138763666D01*
X91089676Y-138763666D02*
X90994438Y-138668428D01*
X90994438Y-138668428D02*
X90946819Y-138525571D01*
X90946819Y-138525571D02*
X90946819Y-138430333D01*
X90946819Y-138430333D02*
X90994438Y-138287476D01*
X90994438Y-138287476D02*
X91042057Y-138239857D01*
X91946819Y-137287476D02*
X91946819Y-137858904D01*
X91946819Y-137573190D02*
X90946819Y-137573190D01*
X90946819Y-137573190D02*
X91089676Y-137668428D01*
X91089676Y-137668428D02*
X91184914Y-137763666D01*
X91184914Y-137763666D02*
X91232533Y-137858904D01*
X91280152Y-136430333D02*
X91946819Y-136430333D01*
X90899200Y-136668428D02*
X91613485Y-136906523D01*
X91613485Y-136906523D02*
X91613485Y-136287476D01*
X85666666Y-149304819D02*
X85666666Y-150019104D01*
X85666666Y-150019104D02*
X85619047Y-150161961D01*
X85619047Y-150161961D02*
X85523809Y-150257200D01*
X85523809Y-150257200D02*
X85380952Y-150304819D01*
X85380952Y-150304819D02*
X85285714Y-150304819D01*
X86047619Y-149304819D02*
X86666666Y-149304819D01*
X86666666Y-149304819D02*
X86333333Y-149685771D01*
X86333333Y-149685771D02*
X86476190Y-149685771D01*
X86476190Y-149685771D02*
X86571428Y-149733390D01*
X86571428Y-149733390D02*
X86619047Y-149781009D01*
X86619047Y-149781009D02*
X86666666Y-149876247D01*
X86666666Y-149876247D02*
X86666666Y-150114342D01*
X86666666Y-150114342D02*
X86619047Y-150209580D01*
X86619047Y-150209580D02*
X86571428Y-150257200D01*
X86571428Y-150257200D02*
X86476190Y-150304819D01*
X86476190Y-150304819D02*
X86190476Y-150304819D01*
X86190476Y-150304819D02*
X86095238Y-150257200D01*
X86095238Y-150257200D02*
X86047619Y-150209580D01*
X110885580Y-157482857D02*
X110933200Y-157530476D01*
X110933200Y-157530476D02*
X110980819Y-157673333D01*
X110980819Y-157673333D02*
X110980819Y-157768571D01*
X110980819Y-157768571D02*
X110933200Y-157911428D01*
X110933200Y-157911428D02*
X110837961Y-158006666D01*
X110837961Y-158006666D02*
X110742723Y-158054285D01*
X110742723Y-158054285D02*
X110552247Y-158101904D01*
X110552247Y-158101904D02*
X110409390Y-158101904D01*
X110409390Y-158101904D02*
X110218914Y-158054285D01*
X110218914Y-158054285D02*
X110123676Y-158006666D01*
X110123676Y-158006666D02*
X110028438Y-157911428D01*
X110028438Y-157911428D02*
X109980819Y-157768571D01*
X109980819Y-157768571D02*
X109980819Y-157673333D01*
X109980819Y-157673333D02*
X110028438Y-157530476D01*
X110028438Y-157530476D02*
X110076057Y-157482857D01*
X110980819Y-156530476D02*
X110980819Y-157101904D01*
X110980819Y-156816190D02*
X109980819Y-156816190D01*
X109980819Y-156816190D02*
X110123676Y-156911428D01*
X110123676Y-156911428D02*
X110218914Y-157006666D01*
X110218914Y-157006666D02*
X110266533Y-157101904D01*
X109980819Y-156197142D02*
X109980819Y-155578095D01*
X109980819Y-155578095D02*
X110361771Y-155911428D01*
X110361771Y-155911428D02*
X110361771Y-155768571D01*
X110361771Y-155768571D02*
X110409390Y-155673333D01*
X110409390Y-155673333D02*
X110457009Y-155625714D01*
X110457009Y-155625714D02*
X110552247Y-155578095D01*
X110552247Y-155578095D02*
X110790342Y-155578095D01*
X110790342Y-155578095D02*
X110885580Y-155625714D01*
X110885580Y-155625714D02*
X110933200Y-155673333D01*
X110933200Y-155673333D02*
X110980819Y-155768571D01*
X110980819Y-155768571D02*
X110980819Y-156054285D01*
X110980819Y-156054285D02*
X110933200Y-156149523D01*
X110933200Y-156149523D02*
X110885580Y-156197142D01*
X118510905Y-163626819D02*
X118510905Y-162626819D01*
X118510905Y-162626819D02*
X118749000Y-162626819D01*
X118749000Y-162626819D02*
X118891857Y-162674438D01*
X118891857Y-162674438D02*
X118987095Y-162769676D01*
X118987095Y-162769676D02*
X119034714Y-162864914D01*
X119034714Y-162864914D02*
X119082333Y-163055390D01*
X119082333Y-163055390D02*
X119082333Y-163198247D01*
X119082333Y-163198247D02*
X119034714Y-163388723D01*
X119034714Y-163388723D02*
X118987095Y-163483961D01*
X118987095Y-163483961D02*
X118891857Y-163579200D01*
X118891857Y-163579200D02*
X118749000Y-163626819D01*
X118749000Y-163626819D02*
X118510905Y-163626819D01*
X119558524Y-163626819D02*
X119749000Y-163626819D01*
X119749000Y-163626819D02*
X119844238Y-163579200D01*
X119844238Y-163579200D02*
X119891857Y-163531580D01*
X119891857Y-163531580D02*
X119987095Y-163388723D01*
X119987095Y-163388723D02*
X120034714Y-163198247D01*
X120034714Y-163198247D02*
X120034714Y-162817295D01*
X120034714Y-162817295D02*
X119987095Y-162722057D01*
X119987095Y-162722057D02*
X119939476Y-162674438D01*
X119939476Y-162674438D02*
X119844238Y-162626819D01*
X119844238Y-162626819D02*
X119653762Y-162626819D01*
X119653762Y-162626819D02*
X119558524Y-162674438D01*
X119558524Y-162674438D02*
X119510905Y-162722057D01*
X119510905Y-162722057D02*
X119463286Y-162817295D01*
X119463286Y-162817295D02*
X119463286Y-163055390D01*
X119463286Y-163055390D02*
X119510905Y-163150628D01*
X119510905Y-163150628D02*
X119558524Y-163198247D01*
X119558524Y-163198247D02*
X119653762Y-163245866D01*
X119653762Y-163245866D02*
X119844238Y-163245866D01*
X119844238Y-163245866D02*
X119939476Y-163198247D01*
X119939476Y-163198247D02*
X119987095Y-163150628D01*
X119987095Y-163150628D02*
X120034714Y-163055390D01*
X92007142Y-126967819D02*
X91673809Y-126491628D01*
X91435714Y-126967819D02*
X91435714Y-125967819D01*
X91435714Y-125967819D02*
X91816666Y-125967819D01*
X91816666Y-125967819D02*
X91911904Y-126015438D01*
X91911904Y-126015438D02*
X91959523Y-126063057D01*
X91959523Y-126063057D02*
X92007142Y-126158295D01*
X92007142Y-126158295D02*
X92007142Y-126301152D01*
X92007142Y-126301152D02*
X91959523Y-126396390D01*
X91959523Y-126396390D02*
X91911904Y-126444009D01*
X91911904Y-126444009D02*
X91816666Y-126491628D01*
X91816666Y-126491628D02*
X91435714Y-126491628D01*
X92388095Y-126063057D02*
X92435714Y-126015438D01*
X92435714Y-126015438D02*
X92530952Y-125967819D01*
X92530952Y-125967819D02*
X92769047Y-125967819D01*
X92769047Y-125967819D02*
X92864285Y-126015438D01*
X92864285Y-126015438D02*
X92911904Y-126063057D01*
X92911904Y-126063057D02*
X92959523Y-126158295D01*
X92959523Y-126158295D02*
X92959523Y-126253533D01*
X92959523Y-126253533D02*
X92911904Y-126396390D01*
X92911904Y-126396390D02*
X92340476Y-126967819D01*
X92340476Y-126967819D02*
X92959523Y-126967819D01*
X93340476Y-126063057D02*
X93388095Y-126015438D01*
X93388095Y-126015438D02*
X93483333Y-125967819D01*
X93483333Y-125967819D02*
X93721428Y-125967819D01*
X93721428Y-125967819D02*
X93816666Y-126015438D01*
X93816666Y-126015438D02*
X93864285Y-126063057D01*
X93864285Y-126063057D02*
X93911904Y-126158295D01*
X93911904Y-126158295D02*
X93911904Y-126253533D01*
X93911904Y-126253533D02*
X93864285Y-126396390D01*
X93864285Y-126396390D02*
X93292857Y-126967819D01*
X93292857Y-126967819D02*
X93911904Y-126967819D01*
X97666667Y-134157200D02*
X97809524Y-134204819D01*
X97809524Y-134204819D02*
X98047619Y-134204819D01*
X98047619Y-134204819D02*
X98142857Y-134157200D01*
X98142857Y-134157200D02*
X98190476Y-134109580D01*
X98190476Y-134109580D02*
X98238095Y-134014342D01*
X98238095Y-134014342D02*
X98238095Y-133919104D01*
X98238095Y-133919104D02*
X98190476Y-133823866D01*
X98190476Y-133823866D02*
X98142857Y-133776247D01*
X98142857Y-133776247D02*
X98047619Y-133728628D01*
X98047619Y-133728628D02*
X97857143Y-133681009D01*
X97857143Y-133681009D02*
X97761905Y-133633390D01*
X97761905Y-133633390D02*
X97714286Y-133585771D01*
X97714286Y-133585771D02*
X97666667Y-133490533D01*
X97666667Y-133490533D02*
X97666667Y-133395295D01*
X97666667Y-133395295D02*
X97714286Y-133300057D01*
X97714286Y-133300057D02*
X97761905Y-133252438D01*
X97761905Y-133252438D02*
X97857143Y-133204819D01*
X97857143Y-133204819D02*
X98095238Y-133204819D01*
X98095238Y-133204819D02*
X98238095Y-133252438D01*
X98571429Y-133204819D02*
X98809524Y-134204819D01*
X98809524Y-134204819D02*
X99000000Y-133490533D01*
X99000000Y-133490533D02*
X99190476Y-134204819D01*
X99190476Y-134204819D02*
X99428572Y-133204819D01*
X99714286Y-133204819D02*
X100333333Y-133204819D01*
X100333333Y-133204819D02*
X100000000Y-133585771D01*
X100000000Y-133585771D02*
X100142857Y-133585771D01*
X100142857Y-133585771D02*
X100238095Y-133633390D01*
X100238095Y-133633390D02*
X100285714Y-133681009D01*
X100285714Y-133681009D02*
X100333333Y-133776247D01*
X100333333Y-133776247D02*
X100333333Y-134014342D01*
X100333333Y-134014342D02*
X100285714Y-134109580D01*
X100285714Y-134109580D02*
X100238095Y-134157200D01*
X100238095Y-134157200D02*
X100142857Y-134204819D01*
X100142857Y-134204819D02*
X99857143Y-134204819D01*
X99857143Y-134204819D02*
X99761905Y-134157200D01*
X99761905Y-134157200D02*
X99714286Y-134109580D01*
X118117580Y-166521857D02*
X118165200Y-166569476D01*
X118165200Y-166569476D02*
X118212819Y-166712333D01*
X118212819Y-166712333D02*
X118212819Y-166807571D01*
X118212819Y-166807571D02*
X118165200Y-166950428D01*
X118165200Y-166950428D02*
X118069961Y-167045666D01*
X118069961Y-167045666D02*
X117974723Y-167093285D01*
X117974723Y-167093285D02*
X117784247Y-167140904D01*
X117784247Y-167140904D02*
X117641390Y-167140904D01*
X117641390Y-167140904D02*
X117450914Y-167093285D01*
X117450914Y-167093285D02*
X117355676Y-167045666D01*
X117355676Y-167045666D02*
X117260438Y-166950428D01*
X117260438Y-166950428D02*
X117212819Y-166807571D01*
X117212819Y-166807571D02*
X117212819Y-166712333D01*
X117212819Y-166712333D02*
X117260438Y-166569476D01*
X117260438Y-166569476D02*
X117308057Y-166521857D01*
X118212819Y-165569476D02*
X118212819Y-166140904D01*
X118212819Y-165855190D02*
X117212819Y-165855190D01*
X117212819Y-165855190D02*
X117355676Y-165950428D01*
X117355676Y-165950428D02*
X117450914Y-166045666D01*
X117450914Y-166045666D02*
X117498533Y-166140904D01*
X117308057Y-165188523D02*
X117260438Y-165140904D01*
X117260438Y-165140904D02*
X117212819Y-165045666D01*
X117212819Y-165045666D02*
X117212819Y-164807571D01*
X117212819Y-164807571D02*
X117260438Y-164712333D01*
X117260438Y-164712333D02*
X117308057Y-164664714D01*
X117308057Y-164664714D02*
X117403295Y-164617095D01*
X117403295Y-164617095D02*
X117498533Y-164617095D01*
X117498533Y-164617095D02*
X117641390Y-164664714D01*
X117641390Y-164664714D02*
X118212819Y-165236142D01*
X118212819Y-165236142D02*
X118212819Y-164617095D01*
X183304819Y-149309523D02*
X182304819Y-149309523D01*
X182304819Y-149309523D02*
X183019104Y-148976190D01*
X183019104Y-148976190D02*
X182304819Y-148642857D01*
X182304819Y-148642857D02*
X183304819Y-148642857D01*
X183304819Y-147642857D02*
X183304819Y-148214285D01*
X183304819Y-147928571D02*
X182304819Y-147928571D01*
X182304819Y-147928571D02*
X182447676Y-148023809D01*
X182447676Y-148023809D02*
X182542914Y-148119047D01*
X182542914Y-148119047D02*
X182590533Y-148214285D01*
X163964700Y-143171428D02*
X163964700Y-142028571D01*
X164536128Y-142599999D02*
X163393271Y-142599999D01*
X163923866Y-155280951D02*
X163923866Y-154519047D01*
X91645580Y-131112857D02*
X91693200Y-131160476D01*
X91693200Y-131160476D02*
X91740819Y-131303333D01*
X91740819Y-131303333D02*
X91740819Y-131398571D01*
X91740819Y-131398571D02*
X91693200Y-131541428D01*
X91693200Y-131541428D02*
X91597961Y-131636666D01*
X91597961Y-131636666D02*
X91502723Y-131684285D01*
X91502723Y-131684285D02*
X91312247Y-131731904D01*
X91312247Y-131731904D02*
X91169390Y-131731904D01*
X91169390Y-131731904D02*
X90978914Y-131684285D01*
X90978914Y-131684285D02*
X90883676Y-131636666D01*
X90883676Y-131636666D02*
X90788438Y-131541428D01*
X90788438Y-131541428D02*
X90740819Y-131398571D01*
X90740819Y-131398571D02*
X90740819Y-131303333D01*
X90740819Y-131303333D02*
X90788438Y-131160476D01*
X90788438Y-131160476D02*
X90836057Y-131112857D01*
X91740819Y-130160476D02*
X91740819Y-130731904D01*
X91740819Y-130446190D02*
X90740819Y-130446190D01*
X90740819Y-130446190D02*
X90883676Y-130541428D01*
X90883676Y-130541428D02*
X90978914Y-130636666D01*
X90978914Y-130636666D02*
X91026533Y-130731904D01*
X90740819Y-129541428D02*
X90740819Y-129446190D01*
X90740819Y-129446190D02*
X90788438Y-129350952D01*
X90788438Y-129350952D02*
X90836057Y-129303333D01*
X90836057Y-129303333D02*
X90931295Y-129255714D01*
X90931295Y-129255714D02*
X91121771Y-129208095D01*
X91121771Y-129208095D02*
X91359866Y-129208095D01*
X91359866Y-129208095D02*
X91550342Y-129255714D01*
X91550342Y-129255714D02*
X91645580Y-129303333D01*
X91645580Y-129303333D02*
X91693200Y-129350952D01*
X91693200Y-129350952D02*
X91740819Y-129446190D01*
X91740819Y-129446190D02*
X91740819Y-129541428D01*
X91740819Y-129541428D02*
X91693200Y-129636666D01*
X91693200Y-129636666D02*
X91645580Y-129684285D01*
X91645580Y-129684285D02*
X91550342Y-129731904D01*
X91550342Y-129731904D02*
X91359866Y-129779523D01*
X91359866Y-129779523D02*
X91121771Y-129779523D01*
X91121771Y-129779523D02*
X90931295Y-129731904D01*
X90931295Y-129731904D02*
X90836057Y-129684285D01*
X90836057Y-129684285D02*
X90788438Y-129636666D01*
X90788438Y-129636666D02*
X90740819Y-129541428D01*
X133534161Y-138392857D02*
X133438923Y-138345238D01*
X133438923Y-138345238D02*
X133343685Y-138250000D01*
X133343685Y-138250000D02*
X133200828Y-138107142D01*
X133200828Y-138107142D02*
X133105590Y-138059523D01*
X133105590Y-138059523D02*
X133010352Y-138059523D01*
X133057971Y-138297619D02*
X132962733Y-138250000D01*
X132962733Y-138250000D02*
X132867495Y-138154761D01*
X132867495Y-138154761D02*
X132819876Y-137964285D01*
X132819876Y-137964285D02*
X132819876Y-137630952D01*
X132819876Y-137630952D02*
X132867495Y-137440476D01*
X132867495Y-137440476D02*
X132962733Y-137345238D01*
X132962733Y-137345238D02*
X133057971Y-137297619D01*
X133057971Y-137297619D02*
X133248447Y-137297619D01*
X133248447Y-137297619D02*
X133343685Y-137345238D01*
X133343685Y-137345238D02*
X133438923Y-137440476D01*
X133438923Y-137440476D02*
X133486542Y-137630952D01*
X133486542Y-137630952D02*
X133486542Y-137964285D01*
X133486542Y-137964285D02*
X133438923Y-138154761D01*
X133438923Y-138154761D02*
X133343685Y-138250000D01*
X133343685Y-138250000D02*
X133248447Y-138297619D01*
X133248447Y-138297619D02*
X133057971Y-138297619D01*
X133867495Y-137392857D02*
X133915114Y-137345238D01*
X133915114Y-137345238D02*
X134010352Y-137297619D01*
X134010352Y-137297619D02*
X134248447Y-137297619D01*
X134248447Y-137297619D02*
X134343685Y-137345238D01*
X134343685Y-137345238D02*
X134391304Y-137392857D01*
X134391304Y-137392857D02*
X134438923Y-137488095D01*
X134438923Y-137488095D02*
X134438923Y-137583333D01*
X134438923Y-137583333D02*
X134391304Y-137726190D01*
X134391304Y-137726190D02*
X133819876Y-138297619D01*
X133819876Y-138297619D02*
X134438923Y-138297619D01*
X131495800Y-137354819D02*
X131495800Y-137592914D01*
X131257705Y-137497676D02*
X131495800Y-137592914D01*
X131495800Y-137592914D02*
X131733895Y-137497676D01*
X131352943Y-137783390D02*
X131495800Y-137592914D01*
X131495800Y-137592914D02*
X131638657Y-137783390D01*
X131495800Y-138153819D02*
X131495800Y-138391914D01*
X131257705Y-138296676D02*
X131495800Y-138391914D01*
X131495800Y-138391914D02*
X131733895Y-138296676D01*
X131352943Y-138582390D02*
X131495800Y-138391914D01*
X131495800Y-138391914D02*
X131638657Y-138582390D01*
X95216666Y-160254819D02*
X95216666Y-160969104D01*
X95216666Y-160969104D02*
X95169047Y-161111961D01*
X95169047Y-161111961D02*
X95073809Y-161207200D01*
X95073809Y-161207200D02*
X94930952Y-161254819D01*
X94930952Y-161254819D02*
X94835714Y-161254819D01*
X95692857Y-161254819D02*
X95692857Y-160254819D01*
X95692857Y-160254819D02*
X96073809Y-160254819D01*
X96073809Y-160254819D02*
X96169047Y-160302438D01*
X96169047Y-160302438D02*
X96216666Y-160350057D01*
X96216666Y-160350057D02*
X96264285Y-160445295D01*
X96264285Y-160445295D02*
X96264285Y-160588152D01*
X96264285Y-160588152D02*
X96216666Y-160683390D01*
X96216666Y-160683390D02*
X96169047Y-160731009D01*
X96169047Y-160731009D02*
X96073809Y-160778628D01*
X96073809Y-160778628D02*
X95692857Y-160778628D01*
X97216666Y-161254819D02*
X96645238Y-161254819D01*
X96930952Y-161254819D02*
X96930952Y-160254819D01*
X96930952Y-160254819D02*
X96835714Y-160397676D01*
X96835714Y-160397676D02*
X96740476Y-160492914D01*
X96740476Y-160492914D02*
X96645238Y-160540533D01*
X94274819Y-131078238D02*
X93798628Y-131411571D01*
X94274819Y-131649666D02*
X93274819Y-131649666D01*
X93274819Y-131649666D02*
X93274819Y-131268714D01*
X93274819Y-131268714D02*
X93322438Y-131173476D01*
X93322438Y-131173476D02*
X93370057Y-131125857D01*
X93370057Y-131125857D02*
X93465295Y-131078238D01*
X93465295Y-131078238D02*
X93608152Y-131078238D01*
X93608152Y-131078238D02*
X93703390Y-131125857D01*
X93703390Y-131125857D02*
X93751009Y-131173476D01*
X93751009Y-131173476D02*
X93798628Y-131268714D01*
X93798628Y-131268714D02*
X93798628Y-131649666D01*
X93274819Y-130792523D02*
X94274819Y-130459190D01*
X94274819Y-130459190D02*
X93274819Y-130125857D01*
X93608152Y-129363952D02*
X94274819Y-129363952D01*
X93227200Y-129602047D02*
X93941485Y-129840142D01*
X93941485Y-129840142D02*
X93941485Y-129221095D01*
X97666667Y-126632200D02*
X97809524Y-126679819D01*
X97809524Y-126679819D02*
X98047619Y-126679819D01*
X98047619Y-126679819D02*
X98142857Y-126632200D01*
X98142857Y-126632200D02*
X98190476Y-126584580D01*
X98190476Y-126584580D02*
X98238095Y-126489342D01*
X98238095Y-126489342D02*
X98238095Y-126394104D01*
X98238095Y-126394104D02*
X98190476Y-126298866D01*
X98190476Y-126298866D02*
X98142857Y-126251247D01*
X98142857Y-126251247D02*
X98047619Y-126203628D01*
X98047619Y-126203628D02*
X97857143Y-126156009D01*
X97857143Y-126156009D02*
X97761905Y-126108390D01*
X97761905Y-126108390D02*
X97714286Y-126060771D01*
X97714286Y-126060771D02*
X97666667Y-125965533D01*
X97666667Y-125965533D02*
X97666667Y-125870295D01*
X97666667Y-125870295D02*
X97714286Y-125775057D01*
X97714286Y-125775057D02*
X97761905Y-125727438D01*
X97761905Y-125727438D02*
X97857143Y-125679819D01*
X97857143Y-125679819D02*
X98095238Y-125679819D01*
X98095238Y-125679819D02*
X98238095Y-125727438D01*
X98571429Y-125679819D02*
X98809524Y-126679819D01*
X98809524Y-126679819D02*
X99000000Y-125965533D01*
X99000000Y-125965533D02*
X99190476Y-126679819D01*
X99190476Y-126679819D02*
X99428572Y-125679819D01*
X100333333Y-126679819D02*
X99761905Y-126679819D01*
X100047619Y-126679819D02*
X100047619Y-125679819D01*
X100047619Y-125679819D02*
X99952381Y-125822676D01*
X99952381Y-125822676D02*
X99857143Y-125917914D01*
X99857143Y-125917914D02*
X99761905Y-125965533D01*
X148230661Y-138205257D02*
X148135423Y-138157638D01*
X148135423Y-138157638D02*
X148040185Y-138062400D01*
X148040185Y-138062400D02*
X147897328Y-137919542D01*
X147897328Y-137919542D02*
X147802090Y-137871923D01*
X147802090Y-137871923D02*
X147706852Y-137871923D01*
X147754471Y-138110019D02*
X147659233Y-138062400D01*
X147659233Y-138062400D02*
X147563995Y-137967161D01*
X147563995Y-137967161D02*
X147516376Y-137776685D01*
X147516376Y-137776685D02*
X147516376Y-137443352D01*
X147516376Y-137443352D02*
X147563995Y-137252876D01*
X147563995Y-137252876D02*
X147659233Y-137157638D01*
X147659233Y-137157638D02*
X147754471Y-137110019D01*
X147754471Y-137110019D02*
X147944947Y-137110019D01*
X147944947Y-137110019D02*
X148040185Y-137157638D01*
X148040185Y-137157638D02*
X148135423Y-137252876D01*
X148135423Y-137252876D02*
X148183042Y-137443352D01*
X148183042Y-137443352D02*
X148183042Y-137776685D01*
X148183042Y-137776685D02*
X148135423Y-137967161D01*
X148135423Y-137967161D02*
X148040185Y-138062400D01*
X148040185Y-138062400D02*
X147944947Y-138110019D01*
X147944947Y-138110019D02*
X147754471Y-138110019D01*
X149135423Y-138110019D02*
X148563995Y-138110019D01*
X148849709Y-138110019D02*
X148849709Y-137110019D01*
X148849709Y-137110019D02*
X148754471Y-137252876D01*
X148754471Y-137252876D02*
X148659233Y-137348114D01*
X148659233Y-137348114D02*
X148563995Y-137395733D01*
X146300000Y-136954819D02*
X146300000Y-137192914D01*
X146061905Y-137097676D02*
X146300000Y-137192914D01*
X146300000Y-137192914D02*
X146538095Y-137097676D01*
X146157143Y-137383390D02*
X146300000Y-137192914D01*
X146300000Y-137192914D02*
X146442857Y-137383390D01*
X146227800Y-137940819D02*
X146227800Y-138178914D01*
X145989705Y-138083676D02*
X146227800Y-138178914D01*
X146227800Y-138178914D02*
X146465895Y-138083676D01*
X146084943Y-138369390D02*
X146227800Y-138178914D01*
X146227800Y-138178914D02*
X146370657Y-138369390D01*
X94734819Y-138192238D02*
X94258628Y-138525571D01*
X94734819Y-138763666D02*
X93734819Y-138763666D01*
X93734819Y-138763666D02*
X93734819Y-138382714D01*
X93734819Y-138382714D02*
X93782438Y-138287476D01*
X93782438Y-138287476D02*
X93830057Y-138239857D01*
X93830057Y-138239857D02*
X93925295Y-138192238D01*
X93925295Y-138192238D02*
X94068152Y-138192238D01*
X94068152Y-138192238D02*
X94163390Y-138239857D01*
X94163390Y-138239857D02*
X94211009Y-138287476D01*
X94211009Y-138287476D02*
X94258628Y-138382714D01*
X94258628Y-138382714D02*
X94258628Y-138763666D01*
X93734819Y-137906523D02*
X94734819Y-137573190D01*
X94734819Y-137573190D02*
X93734819Y-137239857D01*
X93734819Y-137001761D02*
X93734819Y-136335095D01*
X93734819Y-136335095D02*
X94734819Y-136763666D01*
X100657142Y-168124819D02*
X100323809Y-167648628D01*
X100085714Y-168124819D02*
X100085714Y-167124819D01*
X100085714Y-167124819D02*
X100466666Y-167124819D01*
X100466666Y-167124819D02*
X100561904Y-167172438D01*
X100561904Y-167172438D02*
X100609523Y-167220057D01*
X100609523Y-167220057D02*
X100657142Y-167315295D01*
X100657142Y-167315295D02*
X100657142Y-167458152D01*
X100657142Y-167458152D02*
X100609523Y-167553390D01*
X100609523Y-167553390D02*
X100561904Y-167601009D01*
X100561904Y-167601009D02*
X100466666Y-167648628D01*
X100466666Y-167648628D02*
X100085714Y-167648628D01*
X101038095Y-167220057D02*
X101085714Y-167172438D01*
X101085714Y-167172438D02*
X101180952Y-167124819D01*
X101180952Y-167124819D02*
X101419047Y-167124819D01*
X101419047Y-167124819D02*
X101514285Y-167172438D01*
X101514285Y-167172438D02*
X101561904Y-167220057D01*
X101561904Y-167220057D02*
X101609523Y-167315295D01*
X101609523Y-167315295D02*
X101609523Y-167410533D01*
X101609523Y-167410533D02*
X101561904Y-167553390D01*
X101561904Y-167553390D02*
X100990476Y-168124819D01*
X100990476Y-168124819D02*
X101609523Y-168124819D01*
X102561904Y-168124819D02*
X101990476Y-168124819D01*
X102276190Y-168124819D02*
X102276190Y-167124819D01*
X102276190Y-167124819D02*
X102180952Y-167267676D01*
X102180952Y-167267676D02*
X102085714Y-167362914D01*
X102085714Y-167362914D02*
X101990476Y-167410533D01*
X96386905Y-168164819D02*
X96386905Y-167164819D01*
X96386905Y-167164819D02*
X96625000Y-167164819D01*
X96625000Y-167164819D02*
X96767857Y-167212438D01*
X96767857Y-167212438D02*
X96863095Y-167307676D01*
X96863095Y-167307676D02*
X96910714Y-167402914D01*
X96910714Y-167402914D02*
X96958333Y-167593390D01*
X96958333Y-167593390D02*
X96958333Y-167736247D01*
X96958333Y-167736247D02*
X96910714Y-167926723D01*
X96910714Y-167926723D02*
X96863095Y-168021961D01*
X96863095Y-168021961D02*
X96767857Y-168117200D01*
X96767857Y-168117200D02*
X96625000Y-168164819D01*
X96625000Y-168164819D02*
X96386905Y-168164819D01*
X97910714Y-168164819D02*
X97339286Y-168164819D01*
X97625000Y-168164819D02*
X97625000Y-167164819D01*
X97625000Y-167164819D02*
X97529762Y-167307676D01*
X97529762Y-167307676D02*
X97434524Y-167402914D01*
X97434524Y-167402914D02*
X97339286Y-167450533D01*
D12*
%TO.C,J5*%
X92405000Y-161380000D02*
X92405000Y-158780000D01*
X92405000Y-161380000D02*
X89745000Y-161380000D01*
X92405000Y-158780000D02*
X89745000Y-158780000D01*
X91075000Y-163980000D02*
X89745000Y-163980000D01*
X89745000Y-163980000D02*
X89745000Y-162650000D01*
X89745000Y-161380000D02*
X89745000Y-158780000D01*
%TO.C,J2*%
X94525000Y-174109700D02*
X125495000Y-174109700D01*
X94525000Y-186449700D02*
X94525000Y-174109700D01*
X115300000Y-173215362D02*
X115800000Y-173215362D01*
X115550000Y-173648375D02*
X115300000Y-173215362D01*
X115800000Y-173215362D02*
X115550000Y-173648375D01*
X125495000Y-174109700D02*
X125495000Y-186449700D01*
%TO.C,J4*%
X89770000Y-147830000D02*
X89770000Y-152970000D01*
X89770000Y-147830000D02*
X92430000Y-147830000D01*
X89770000Y-152970000D02*
X92430000Y-152970000D01*
X91100000Y-145230000D02*
X92430000Y-145230000D01*
X92430000Y-145230000D02*
X92430000Y-146560000D01*
X92430000Y-147830000D02*
X92430000Y-152970000D01*
%TO.C,RV2*%
X124762742Y-151077500D02*
X125237258Y-151077500D01*
X124762742Y-152122500D02*
X125237258Y-152122500D01*
D13*
%TO.C,Q4*%
X131673600Y-156565600D02*
X131673600Y-156743761D01*
X131673600Y-159740239D02*
X131673600Y-159918400D01*
X131673600Y-159918400D02*
X133985000Y-159918400D01*
X132826760Y-156565600D02*
X131673600Y-156565600D01*
X133873240Y-159918400D02*
X135026400Y-159918400D01*
X135026400Y-156565600D02*
X132826760Y-156565600D01*
X135026400Y-156743761D02*
X135026400Y-156565600D01*
X135026400Y-159918400D02*
X135026400Y-159740239D01*
%TO.C,Q3*%
X146659600Y-156565600D02*
X146659600Y-156743761D01*
X146659600Y-159740239D02*
X146659600Y-159918400D01*
X146659600Y-159918400D02*
X148971000Y-159918400D01*
X147812760Y-156565600D02*
X146659600Y-156565600D01*
X148859240Y-159918400D02*
X150012400Y-159918400D01*
X150012400Y-156565600D02*
X147812760Y-156565600D01*
X150012400Y-156743761D02*
X150012400Y-156565600D01*
X150012400Y-159918400D02*
X150012400Y-159740239D01*
D12*
%TO.C,R7*%
X97537742Y-147777500D02*
X98012258Y-147777500D01*
X97537742Y-148822500D02*
X98012258Y-148822500D01*
%TO.C,U6*%
X111550000Y-166048000D02*
X111550000Y-165778000D01*
X111550000Y-165778000D02*
X114380000Y-165778000D01*
X111550000Y-159418000D02*
X112650000Y-159418000D01*
X111550000Y-159148000D02*
X111550000Y-159418000D01*
X105130000Y-166048000D02*
X111550000Y-166048000D01*
X105130000Y-159148000D02*
X111550000Y-159148000D01*
%TO.C,RV6*%
X156262742Y-170977500D02*
X156737258Y-170977500D01*
X156262742Y-172022500D02*
X156737258Y-172022500D01*
%TO.C,R6*%
X125377064Y-150510000D02*
X121022936Y-150510000D01*
X125377064Y-147090000D02*
X121022936Y-147090000D01*
%TO.C,J1*%
X164460000Y-192610000D02*
X164460000Y-178300000D01*
X164460000Y-192610000D02*
X148740000Y-192610000D01*
X162910000Y-175090000D02*
X162510000Y-175090000D01*
X157890000Y-175090000D02*
X155100000Y-175090000D01*
X150950000Y-175090000D02*
X150280000Y-175090000D01*
X148740000Y-192610000D02*
X148740000Y-178300000D01*
X164459999Y-178300000D02*
G75*
G03*
X162918714Y-175091606I-4110000J-1D01*
G01*
X150280253Y-175092431D02*
G75*
G03*
X148740000Y-178300000I2569747J-3207569D01*
G01*
%TO.C,J6*%
X89770000Y-168370000D02*
X89770000Y-173510000D01*
X89770000Y-168370000D02*
X92430000Y-168370000D01*
X89770000Y-173510000D02*
X92430000Y-173510000D01*
X91100000Y-165770000D02*
X92430000Y-165770000D01*
X92430000Y-165770000D02*
X92430000Y-167100000D01*
X92430000Y-168370000D02*
X92430000Y-173510000D01*
%TO.C,Q5*%
X95212500Y-149690000D02*
X93537500Y-149690000D01*
X95212500Y-149690000D02*
X95862500Y-149690000D01*
X95212500Y-152810000D02*
X94562500Y-152810000D01*
X95212500Y-152810000D02*
X95862500Y-152810000D01*
%TO.C,C14*%
X90572000Y-137456420D02*
X90572000Y-137737580D01*
X89552000Y-137456420D02*
X89552000Y-137737580D01*
%TO.C,J3*%
X87330000Y-145810000D02*
X87330000Y-127970000D01*
X87330000Y-145810000D02*
X84670000Y-145810000D01*
X87330000Y-127970000D02*
X84670000Y-127970000D01*
X86000000Y-148410000D02*
X84670000Y-148410000D01*
X84670000Y-148410000D02*
X84670000Y-147080000D01*
X84670000Y-145810000D02*
X84670000Y-127970000D01*
%TO.C,C13*%
X111446000Y-156986267D02*
X111446000Y-156693733D01*
X112466000Y-156986267D02*
X112466000Y-156693733D01*
%TO.C,D9*%
X123759000Y-162322000D02*
X123759000Y-159022000D01*
X123759000Y-162322000D02*
X116749000Y-162322000D01*
X123759000Y-159022000D02*
X116749000Y-159022000D01*
%TO.C,R22*%
X92412742Y-127420500D02*
X92887258Y-127420500D01*
X92412742Y-128465500D02*
X92887258Y-128465500D01*
%TO.C,SW3*%
X96250000Y-136500000D02*
X96250000Y-138500000D01*
X97250000Y-135200000D02*
X97700000Y-134750000D01*
X97250000Y-139800000D02*
X97700000Y-140250000D01*
X97700000Y-134750000D02*
X100300000Y-134750000D01*
X97700000Y-140250000D02*
X100300000Y-140250000D01*
X100750000Y-135200000D02*
X100300000Y-134750000D01*
X100750000Y-139800000D02*
X100300000Y-140250000D01*
X101750000Y-136500000D02*
X101750000Y-138500000D01*
%TO.C,C12*%
X116838000Y-165732733D02*
X116838000Y-166025267D01*
X115818000Y-165732733D02*
X115818000Y-166025267D01*
%TO.C,M1*%
X174110000Y-140640000D02*
X168500000Y-140640000D01*
X174110000Y-140640000D02*
X174110000Y-141490000D01*
X181810000Y-141490000D02*
X174110000Y-141490000D01*
X181810000Y-141490000D02*
X181810000Y-155510000D01*
X164390000Y-146050000D02*
X164390000Y-149790000D01*
X181810000Y-155510000D02*
X174110000Y-155510000D01*
X174110000Y-155510000D02*
X174110000Y-156360000D01*
X174110000Y-156360000D02*
X168500000Y-156360000D01*
X168500000Y-140640001D02*
G75*
G03*
X164541282Y-143510100I-40002J-4109997D01*
G01*
X164977042Y-154366806D02*
G75*
G03*
X168500000Y-156360000I3522958J2116806D01*
G01*
%TO.C,C10*%
X90366000Y-130329420D02*
X90366000Y-130610580D01*
X89346000Y-130329420D02*
X89346000Y-130610580D01*
D13*
%TO.C,Q2*%
X131927600Y-138703600D02*
X131927600Y-138881761D01*
X131927600Y-141878239D02*
X131927600Y-142056400D01*
X131927600Y-142056400D02*
X134239000Y-142056400D01*
X133080760Y-138703600D02*
X131927600Y-138703600D01*
X134127240Y-142056400D02*
X135280400Y-142056400D01*
X135280400Y-138703600D02*
X133080760Y-138703600D01*
X135280400Y-138881761D02*
X135280400Y-138703600D01*
X135280400Y-142056400D02*
X135280400Y-141878239D01*
D12*
%TO.C,JP1*%
X94650000Y-162900000D02*
X94650000Y-162300000D01*
X95350000Y-161600000D02*
X96750000Y-161600000D01*
X96750000Y-163600000D02*
X95350000Y-163600000D01*
X97450000Y-162300000D02*
X97450000Y-162900000D01*
X95350000Y-161600000D02*
G75*
G03*
X94650000Y-162300000I-1J-699999D01*
G01*
X94650000Y-162900000D02*
G75*
G03*
X95350000Y-163600000I699999J-1D01*
G01*
X97450000Y-162300000D02*
G75*
G03*
X96750000Y-161600000I-700000J0D01*
G01*
X96750000Y-163600000D02*
G75*
G03*
X97450000Y-162900000I0J700000D01*
G01*
%TO.C,RV4*%
X93030000Y-130329359D02*
X93030000Y-130636641D01*
X92270000Y-130329359D02*
X92270000Y-130636641D01*
%TO.C,SW1*%
X96250000Y-128975000D02*
X96250000Y-130975000D01*
X97250000Y-127675000D02*
X97700000Y-127225000D01*
X97250000Y-132275000D02*
X97700000Y-132725000D01*
X97700000Y-127225000D02*
X100300000Y-127225000D01*
X97700000Y-132725000D02*
X100300000Y-132725000D01*
X100750000Y-127675000D02*
X100300000Y-127225000D01*
X100750000Y-132275000D02*
X100300000Y-132725000D01*
X101750000Y-128975000D02*
X101750000Y-130975000D01*
D13*
%TO.C,Q1*%
X146659600Y-138490600D02*
X146659600Y-138668761D01*
X146659600Y-141665239D02*
X146659600Y-141843400D01*
X146659600Y-141843400D02*
X148971000Y-141843400D01*
X147812760Y-138490600D02*
X146659600Y-138490600D01*
X148859240Y-141843400D02*
X150012400Y-141843400D01*
X150012400Y-138490600D02*
X147812760Y-138490600D01*
X150012400Y-138668761D02*
X150012400Y-138490600D01*
X150012400Y-141843400D02*
X150012400Y-141665239D01*
D12*
%TO.C,RV7*%
X93490000Y-137443359D02*
X93490000Y-137750641D01*
X92730000Y-137443359D02*
X92730000Y-137750641D01*
%TO.C,R21*%
X101062742Y-168577500D02*
X101537258Y-168577500D01*
X101062742Y-169622500D02*
X101537258Y-169622500D01*
%TO.C,D1*%
X95465000Y-168405000D02*
X95465000Y-169875000D01*
X95465000Y-169875000D02*
X97925000Y-169875000D01*
X97925000Y-168405000D02*
X95465000Y-168405000D01*
%TD*%
%LPC*%
%TO.C,Q4*%
G36*
X134797851Y-159486600D02*
G01*
X132689651Y-159486600D01*
X132689651Y-156997400D01*
X134797851Y-156997400D01*
X134797851Y-159486600D01*
G37*
%TO.C,Q3*%
G36*
X149783851Y-159486600D02*
G01*
X147675651Y-159486600D01*
X147675651Y-156997400D01*
X149783851Y-156997400D01*
X149783851Y-159486600D01*
G37*
%TO.C,Q2*%
G36*
X135051851Y-141624600D02*
G01*
X132943651Y-141624600D01*
X132943651Y-139135400D01*
X135051851Y-139135400D01*
X135051851Y-141624600D01*
G37*
%TO.C,Q1*%
G36*
X149783851Y-141411600D02*
G01*
X147675651Y-141411600D01*
X147675651Y-138922400D01*
X149783851Y-138922400D01*
X149783851Y-141411600D01*
G37*
%TD*%
D14*
%TO.C,J5*%
X91075000Y-162650000D03*
D15*
X91075000Y-160110000D03*
%TD*%
D16*
%TO.C,J2*%
X97510000Y-177389700D03*
X122510000Y-177389700D03*
D17*
X115550000Y-175969700D03*
D18*
X112780000Y-175969700D03*
X110010000Y-175969700D03*
X107240000Y-175969700D03*
X104470000Y-175969700D03*
X114165000Y-178809700D03*
X111395000Y-178809700D03*
X108625000Y-178809700D03*
X105855000Y-178809700D03*
%TD*%
D19*
%TO.C,H1*%
X170000000Y-120000000D03*
%TD*%
%TO.C,H2*%
X170000000Y-179500000D03*
%TD*%
%TO.C,H4*%
X87000000Y-179500000D03*
%TD*%
D14*
%TO.C,J4*%
X91100000Y-146560000D03*
D15*
X91100000Y-149100000D03*
X91100000Y-151640000D03*
%TD*%
D20*
%TO.C,RV2*%
X124175000Y-151600000D03*
X125825000Y-151600000D03*
%TD*%
D21*
%TO.C,Q4*%
X131572000Y-157267001D03*
X131572000Y-157916999D03*
X131572000Y-158567001D03*
X131572000Y-159216999D03*
D22*
X133750000Y-158242000D03*
D21*
X135128000Y-157267001D03*
X135128000Y-157916999D03*
X135128000Y-158567001D03*
X135128000Y-159216999D03*
%TD*%
%TO.C,Q3*%
X146558000Y-157267001D03*
X146558000Y-157916999D03*
X146558000Y-158567001D03*
X146558000Y-159216999D03*
D22*
X148736000Y-158242000D03*
D21*
X150114000Y-157267001D03*
X150114000Y-157916999D03*
X150114000Y-158567001D03*
X150114000Y-159216999D03*
%TD*%
D20*
%TO.C,R7*%
X96950000Y-148300000D03*
X98600000Y-148300000D03*
%TD*%
D23*
%TO.C,U6*%
X113280000Y-164878000D03*
D24*
X106980000Y-162598000D03*
D23*
X113280000Y-160318000D03*
%TD*%
D19*
%TO.C,H3*%
X87000000Y-120000000D03*
%TD*%
D20*
%TO.C,RV6*%
X155675000Y-171500000D03*
X157325000Y-171500000D03*
%TD*%
D25*
%TO.C,R6*%
X126162500Y-148800000D03*
X120237500Y-148800000D03*
%TD*%
D26*
%TO.C,J1*%
X163350000Y-182150000D03*
X149850000Y-182150000D03*
D27*
X160200000Y-176150000D03*
D28*
X153000000Y-176150000D03*
D29*
X156600000Y-179800000D03*
%TD*%
D14*
%TO.C,J6*%
X91100000Y-167100000D03*
D15*
X91100000Y-169640000D03*
X91100000Y-172180000D03*
%TD*%
D30*
%TO.C,Q5*%
X94275000Y-150300000D03*
X94275000Y-152200000D03*
X96150000Y-151250000D03*
%TD*%
D31*
%TO.C,C14*%
X90062000Y-136822000D03*
X90062000Y-138372000D03*
%TD*%
D14*
%TO.C,J3*%
X86000000Y-147080000D03*
D15*
X86000000Y-144540000D03*
X86000000Y-142000000D03*
X86000000Y-139460000D03*
X86000000Y-136920000D03*
X86000000Y-134380000D03*
X86000000Y-131840000D03*
X86000000Y-129300000D03*
%TD*%
D32*
%TO.C,C13*%
X111956000Y-157702500D03*
X111956000Y-155977500D03*
%TD*%
D33*
%TO.C,D9*%
X121749000Y-160672000D03*
X116749000Y-160672000D03*
%TD*%
D20*
%TO.C,R22*%
X91825000Y-127943000D03*
X93475000Y-127943000D03*
%TD*%
D34*
%TO.C,SW3*%
X96000000Y-135625000D03*
X102000000Y-135625000D03*
X96000000Y-139375000D03*
X102000000Y-139375000D03*
%TD*%
D35*
%TO.C,C12*%
X116328000Y-165016500D03*
X116328000Y-166741500D03*
%TD*%
D36*
%TO.C,M1*%
X172350000Y-141750000D03*
X172350000Y-155250000D03*
D37*
X166350000Y-152100000D03*
D28*
X166350000Y-144900000D03*
%TD*%
D31*
%TO.C,C10*%
X89856000Y-129695000D03*
X89856000Y-131245000D03*
%TD*%
D21*
%TO.C,Q2*%
X131826000Y-139405001D03*
X131826000Y-140054999D03*
X131826000Y-140705001D03*
X131826000Y-141354999D03*
D22*
X134004000Y-140380000D03*
D21*
X135382000Y-139405001D03*
X135382000Y-140054999D03*
X135382000Y-140705001D03*
X135382000Y-141354999D03*
%TD*%
D38*
%TO.C,JP1*%
X95400000Y-162600000D03*
D39*
X96700000Y-162600000D03*
%TD*%
D40*
%TO.C,RV4*%
X92650000Y-129973000D03*
X92650000Y-130993000D03*
%TD*%
D34*
%TO.C,SW1*%
X96000000Y-128100000D03*
X102000000Y-128100000D03*
X96000000Y-131850000D03*
X102000000Y-131850000D03*
%TD*%
D21*
%TO.C,Q1*%
X146558000Y-139192001D03*
X146558000Y-139841999D03*
X146558000Y-140492001D03*
X146558000Y-141141999D03*
D22*
X148736000Y-140167000D03*
D21*
X150114000Y-139192001D03*
X150114000Y-139841999D03*
X150114000Y-140492001D03*
X150114000Y-141141999D03*
%TD*%
D40*
%TO.C,RV7*%
X93110000Y-137087000D03*
X93110000Y-138107000D03*
%TD*%
D20*
%TO.C,R21*%
X100475000Y-169100000D03*
X102125000Y-169100000D03*
%TD*%
D41*
%TO.C,D1*%
X96250000Y-169140000D03*
X98000000Y-169140000D03*
%TD*%
%LPD*%
M02*
